<svg xmlns="http://www.w3.org/2000/svg" version="1.2" baseProfile="tiny" xmlns:inkscape="http://www.inkscape.org/namespaces/inkscape" width="315.045mm" viewBox="1563.79 1429.33 93.15 138.5" height="227.076mm" xmlns:xlink="http://www.w3.org/1999/xlink" xmlns:cc="http://creativecommons.org/ns#">
<g stroke-linejoin="bevel" stroke="black" inkscape:label="Map 1: fid_102" fill-rule="evenodd" stroke-linecap="square" inkscape:groupmode="layer" stroke-width="1" fill="none" id="Map 1: fid_102">
  <g stroke-linejoin="bevel"  fill-opacity="1" stroke="#232323" font-style="normal" stroke-linecap="square" font-family="Noto Sans" font-size="41.6667" font-weight="400" stroke-width="1" fill="#987db7" stroke-opacity="1">
   <path d="M1619.09,1544.73 L1616.98,1543.47 L1615.53,1544.01 L1614.08,1545.31 L1613.69,1546.76 L1613.85,1548.67 L1615.07,1549.67 L1615.15,1550.13 L1614.31,1551.58 L1613.47,1553.11 L1614.08,1555.18 L1614.46,1556.17 L1615.15,1556.4 L1616.98,1556.4 L1618.36,1554.79 L1617.6,1553.72 L1616.45,1553.34 L1616.22,1552.19 L1617.21,1550.74 L1618.36,1550.36 L1619.36,1550.89 L1619.89,1551.27 L1620.5,1552.35 L1620.66,1553.57 L1620.27,1554.87 L1620.04,1556.25 L1619.51,1557.78 L1617.83,1559.38 L1616.14,1560 L1614.92,1561.45 L1612.09,1562.21 L1611.4,1562.83 L1610.18,1562.29 L1609.49,1561.22 L1609.33,1558.54 L1610.25,1557.17 L1610.63,1555.79 L1610.79,1553.49 L1610.25,1552.27 L1608.65,1551.81 L1607.34,1552.73 L1607.42,1554.87 L1607.57,1556.17 L1603.6,1557.09 L1599.85,1548.67 L1598.85,1542.93 L1595.18,1535.51 L1597.71,1531.61 L1597.55,1525.64 L1594.42,1524.88 L1592.89,1525.8 L1592.81,1528.17 L1591.51,1529.85 L1589.98,1530.23 L1587.68,1532.3 L1584.24,1527.4 L1582.02,1527.4 L1581.1,1529.24 L1579.8,1531 L1579.57,1532.53 L1578.27,1533.83 L1577.74,1534.83 L1577.2,1535.51 L1577.51,1536.66 L1576.13,1536.66 L1575.59,1534.6 L1576.74,1525.87 L1577.35,1524.19 L1578.5,1522.66 L1579.11,1521.97 L1579.34,1521.67 L1584.16,1515.22 L1582.79,1513.08 L1582.86,1512.16 L1584.24,1511.4 L1583.78,1509.79 L1581.87,1509.64 L1580.57,1509.02 L1578.58,1506.8 L1577.89,1505.89 L1576.74,1505.89 L1574.75,1507.88 L1574.06,1506.35 L1574.06,1503.51 L1574.68,1500.76 L1574.75,1500.15 L1576.59,1499.46 L1577.89,1499.23 L1577.35,1497.93 L1574.37,1498.47 L1573.68,1489.34 L1569.78,1488.19 L1569.4,1484.83 L1571.16,1483.91 L1571,1480.93 L1572.69,1480.24 L1572.15,1474.19 L1572.69,1470.22 L1569.09,1464.08 L1568.79,1456.58 L1569.78,1453.36 L1571.31,1451.76 L1573.22,1451.22 L1574.29,1448.93 L1575.37,1446.1 L1576.83,1442.34 L1578.05,1441.99 L1582.92,1438.68 L1584.14,1434.33 L1588.5,1437.46 L1592.85,1438.85 L1594.42,1442.51 L1598.43,1443.91 L1601.39,1442.51 L1606.96,1440.77 L1613.06,1434.67 L1616.37,1435.68 L1617.06,1442.29 L1619.68,1444.56 L1619.15,1448.39 L1624.38,1453.27 L1625.95,1458.15 L1627.52,1464.07 L1630.65,1467.03 L1627.69,1474.87 L1631.87,1475.04 L1633.09,1473.12 L1636.57,1474.17 L1637.79,1472.78 L1641.28,1474.34 L1644.76,1474.34 L1648.94,1472.95 L1651.94,1473.43 L1643.76,1486.32 L1640.8,1508.44 L1638.88,1510.01 L1635.19,1508.56 L1633.82,1507.65 L1632.06,1507.88 L1631.83,1509.25 L1630.76,1509.86 L1629.46,1507.65 L1628.54,1505.35 L1627.62,1503.9 L1625.71,1503.97 L1624.94,1505.96 L1623.56,1506.8 L1623.87,1509.02 L1624.64,1512.08 L1626.55,1513.31 L1627.7,1514.68 L1627.77,1520.58 L1628.6,1521.85 L1627.73,1523.42 L1623.8,1529.09 L1619.09,1544.73" fill-rule="evenodd" vector-effect="none"/>

</g>
</g>
</svg>