<svg xmlns="http://www.w3.org/2000/svg" version="1.2" baseProfile="tiny" xmlns:inkscape="http://www.inkscape.org/namespaces/inkscape" width="315.045mm" viewBox="1611.12 1528.39 103.78 123.63" height="227.076mm" xmlns:xlink="http://www.w3.org/1999/xlink" xmlns:cc="http://creativecommons.org/ns#">
<g stroke-linejoin="bevel" stroke="black" inkscape:label="Map 1: fid_84" fill-rule="evenodd" stroke-linecap="square" inkscape:groupmode="layer" stroke-width="1" fill="none" id="Map 1: fid_84">
  <g stroke-linejoin="bevel"  fill-opacity="1" stroke="#232323" font-style="normal" stroke-linecap="square" font-family="Noto Sans" font-size="41.6667" font-weight="400" stroke-width="1" fill="#987db7" stroke-opacity="1">
   <path d="M1672.19,1647.02 L1679.57,1637.38 L1681.86,1637.25 L1695.07,1622.55 L1692.78,1621.07 L1688.47,1603.68 L1697.91,1572.68 L1709.9,1536.96 L1702.98,1533.39 L1691.05,1549.68 L1672.85,1569.54 L1666.92,1565.62 L1665.44,1567.62 L1661,1567.44 L1661.79,1557.17 L1660.65,1555.08 L1655.08,1552.81 L1651.42,1554.12 L1640.79,1560.18 L1634.32,1559.24 L1630.68,1561.53 L1629.46,1565.03 L1630.14,1568.67 L1625.42,1571.64 L1620.3,1587.14 L1622.99,1590.64 L1620.84,1593.74 L1621.65,1602.1 L1619.63,1608.97 L1616.39,1609.65 L1616.12,1615.31 L1618.14,1618.68 L1618.55,1620.7 L1617.06,1627.47 L1627.85,1626.53 L1644.16,1610.36 L1643.89,1604.96 L1647.66,1597.82 L1655.61,1595.66 L1659.79,1593.51 L1665.18,1594.32 L1667.34,1597.55 L1669.36,1602.27 L1670.58,1606.72 L1668.96,1617.1 L1670.04,1620.2 L1670.31,1624.24 L1672.33,1628.42 L1671.52,1633.81 L1669.5,1640.14 L1672.19,1647.02" fill-rule="evenodd" vector-effect="none"/>

</g>
</g>
</svg>