<svg xmlns="http://www.w3.org/2000/svg" version="1.2" baseProfile="tiny" xmlns:inkscape="http://www.inkscape.org/namespaces/inkscape" width="315.045mm" viewBox="3561.2 3643.34 238.88 287.32" height="227.076mm" xmlns:xlink="http://www.w3.org/1999/xlink" xmlns:cc="http://creativecommons.org/ns#">
<g inkscape:groupmode="layer" stroke-width="1" stroke-linejoin="bevel" stroke-linecap="square" inkscape:label="Map 1: fid_84" fill="none" stroke="black" id="Map 1: fid_84" fill-rule="evenodd">
  <g fill-opacity="1" stroke-width="2" stroke-linejoin="bevel" font-weight="400" stroke-linecap="square" font-size="83.3333" font-style="normal" fill="#a47158" stroke-opacity="1"  font-family="Noto Sans" stroke="#232323">
   <path d="M3703.05,3925.66 L3721.06,3902.14 L3726.66,3901.81 L3758.9,3865.95 L3753.3,3862.33 L3742.78,3819.89 L3765.81,3744.23 L3795.08,3657.05 L3778.19,3648.34 L3749.07,3688.09 L3704.65,3736.55 L3690.19,3726.98 L3686.58,3731.87 L3675.74,3731.45 L3677.65,3706.37 L3674.89,3701.26 L3661.28,3695.74 L3652.36,3698.93 L3626.4,3713.71 L3610.61,3711.41 L3601.73,3717 L3598.77,3725.56 L3600.41,3734.44 L3588.9,3741.68 L3576.4,3779.51 L3582.98,3788.06 L3577.71,3795.63 L3579.69,3816.03 L3574.75,3832.8 L3566.86,3834.45 L3566.2,3848.27 L3571.13,3856.49 L3572.12,3861.43 L3568.5,3877.96 L3594.82,3875.65 L3634.63,3836.18 L3633.97,3823.02 L3643.18,3805.58 L3662.59,3800.32 L3672.79,3795.05 L3685.95,3797.03 L3691.21,3804.92 L3696.14,3816.44 L3699.11,3827.29 L3695.16,3852.62 L3697.79,3860.19 L3698.45,3870.06 L3703.38,3880.26 L3701.41,3893.42 L3696.47,3908.88 L3703.05,3925.66" vector-effect="none" fill-rule="evenodd"/>

</g>
</g>
</svg>