<?xml version='1.0' encoding='UTF-8' standalone='no'?>
<svg height="209.994mm" width="296.989mm" viewBox="0 0 14031 9921" baseProfile="tiny" xmlns:cc="http://creativecommons.org/ns#" xmlns="http://www.w3.org/2000/svg" xmlns:xlink="http://www.w3.org/1999/xlink" version="1.2" xmlns:inkscape="http://www.inkscape.org/namespaces/inkscape">
 <defs/>
 <g fill-rule="evenodd" stroke-linejoin="bevel" stroke="black" id="Page" fill="none" stroke-linecap="square" inkscape:groupmode="layer" inkscape:label="Page" stroke-width="1">
  <g font-style="normal" stroke-linejoin="bevel" stroke="#000000" stroke-opacity="1" transform="matrix(1,0,0,1,0,0)" font-family="Noto Sans" font-size="166.667" fill="none" font-weight="400" stroke-linecap="square" stroke-width="1"/>
  <g font-style="normal" stroke-linejoin="bevel" stroke="#000000" stroke-opacity="1" transform="matrix(1,0,0,1,0,0)" font-family="Noto Sans" font-size="166.667" fill="none" font-weight="400" stroke-linecap="square" stroke-width="1"/>
  <g font-style="normal" stroke-linejoin="bevel" stroke="#000000" stroke-opacity="1" transform="matrix(47.2424,0,0,47.2424,0,0)" font-family="Noto Sans" font-size="166.667" fill="none" font-weight="400" stroke-linecap="square" stroke-width="1"/>
  <g font-style="normal" stroke-linejoin="bevel" stroke="#000000" stroke-opacity="1" transform="matrix(0.999965,0,0,0.999965,0,0)" font-family="Noto Sans" font-size="166.667" fill="none" font-weight="400" stroke-linecap="square" stroke-width="1"/>
  <g font-style="normal" stroke="none" transform="matrix(0.999965,0,0,0.999965,0,0)" font-family="Noto Sans" font-size="166.667" fill="#ffffff" fill-opacity="1" font-weight="400">
   <path fill-rule="evenodd" vector-effect="none" d="M-2,-2 L14034,-2 L14034,9924 L-2,9924 L-2,-2"/>
  </g>
  <g font-style="normal" stroke-linejoin="bevel" stroke="#000000" stroke-opacity="1" transform="matrix(0.999965,0,0,0.999965,0,0)" font-family="Noto Sans" font-size="166.667" fill="none" font-weight="400" stroke-linecap="square" stroke-width="1"/>
  <g font-style="normal" stroke-linejoin="bevel" stroke="#000000" stroke-opacity="1" transform="matrix(47.2424,0,0,47.2424,0,0)" font-family="Noto Sans" font-size="166.667" fill="none" font-weight="400" stroke-linecap="square" stroke-width="1"/>
  <g font-style="normal" stroke-linejoin="bevel" stroke="#000000" stroke-opacity="1" transform="matrix(47.2424,0,0,47.2424,0,0)" font-family="Noto Sans" font-size="166.667" fill="none" font-weight="400" stroke-linecap="square" stroke-width="1"/>
  <g font-style="normal" stroke-linejoin="bevel" stroke="#000000" stroke-opacity="1" transform="matrix(1,0,0,1,0,0)" font-family="Noto Sans" font-size="166.667" fill="none" font-weight="400" stroke-linecap="square" stroke-width="1"/>
 </g>
 <defs/>
 <g fill-rule="evenodd" stroke-linejoin="bevel" stroke="black" id="Map 1: Background" fill="none" stroke-linecap="square" inkscape:groupmode="layer" inkscape:label="Map 1: Background" stroke-width="1">
  <g font-style="normal" stroke-linejoin="bevel" stroke="#000000" stroke-opacity="1" transform="matrix(1,0,0,1,0,0)" font-family="Noto Sans" font-size="166.667" fill="none" font-weight="400" stroke-linecap="square" stroke-width="1"/>
  <g font-style="normal" stroke-linejoin="bevel" stroke="#000000" stroke-opacity="1" transform="matrix(1,0,0,1,0,0)" font-family="Noto Sans" font-size="166.667" fill="none" font-weight="400" stroke-linecap="square" stroke-width="1"/>
  <g font-style="normal" stroke-linejoin="bevel" stroke="#000000" stroke-opacity="1" transform="matrix(47.2424,0,0,47.2424,777.249,-113.467)" font-family="Noto Sans" font-size="166.667" fill="none" font-weight="400" stroke-linecap="square" stroke-width="1"/>
  <g font-style="normal" stroke="none" transform="matrix(47.2424,0,0,47.2424,777.249,-113.467)" font-family="Noto Sans" font-size="166.667" fill="#ffffff" fill-opacity="1" font-weight="400">
   <path fill-rule="evenodd" vector-effect="none" d="M0,0 L332.89,0 L332.89,230.813 L0,230.813 L0,0"/>
  </g>
  <g font-style="normal" stroke-linejoin="bevel" stroke="#000000" stroke-opacity="1" transform="matrix(47.2424,0,0,47.2424,777.249,-113.467)" font-family="Noto Sans" font-size="166.667" fill="none" font-weight="400" stroke-linecap="square" stroke-width="1"/>
  <g font-style="normal" stroke-linejoin="bevel" stroke="#000000" stroke-opacity="1" transform="matrix(47.2424,0,0,47.2424,777.249,-113.467)" font-family="Noto Sans" font-size="166.667" fill="none" font-weight="400" stroke-linecap="square" stroke-width="1"/>
  <g font-style="normal" stroke-linejoin="bevel" stroke="#000000" stroke-opacity="1" transform="matrix(47.2424,0,0,47.2424,777.249,-113.467)" font-family="Noto Sans" font-size="166.667" fill="none" font-weight="400" stroke-linecap="square" stroke-width="1"/>
  <g font-style="normal" stroke-linejoin="bevel" stroke="#000000" stroke-opacity="1" transform="matrix(47.2424,0,0,47.2424,777.249,-113.467)" font-family="Noto Sans" font-size="166.667" fill="none" font-weight="400" stroke-linecap="square" stroke-width="1"/>
  <g font-style="normal" stroke-linejoin="bevel" stroke="#000000" stroke-opacity="1" transform="matrix(1,0,0,1,0,0)" font-family="Noto Sans" font-size="166.667" fill="none" font-weight="400" stroke-linecap="square" stroke-width="1"/>
  <g font-style="normal" stroke-linejoin="bevel" stroke="#000000" stroke-opacity="1" transform="matrix(47.2424,0,0,47.2424,777.249,-113.467)" font-family="Noto Sans" font-size="166.667" fill="none" font-weight="400" stroke-linecap="square" stroke-width="1"/>
  <g font-style="normal" stroke-linejoin="bevel" stroke="#000000" stroke-opacity="1" transform="matrix(47.2424,0,0,47.2424,777.249,-113.467)" font-family="Noto Sans" font-size="166.667" fill="none" font-weight="400" stroke-linecap="square" stroke-width="1"/>
  <g font-style="normal" stroke-linejoin="bevel" stroke="#000000" stroke-opacity="1" transform="matrix(1,0,0,1,0,0)" font-family="Noto Sans" font-size="166.667" fill="none" font-weight="400" stroke-linecap="square" stroke-width="1"/>
 </g>
 <defs/>
 <g fill-rule="evenodd" stroke-linejoin="bevel" stroke="black" id="Map 1: fid_27" fill="none" stroke-linecap="square" inkscape:groupmode="layer" inkscape:label="Map 1: fid_27" stroke-width="1">
  <g font-style="normal" stroke-linejoin="bevel" stroke="#000000" stroke-opacity="1" transform="matrix(1,0,0,1,0,0)" font-family="Noto Sans" font-size="166.667" fill="none" font-weight="400" stroke-linecap="square" stroke-width="1"/>
  <g font-style="normal" stroke-linejoin="bevel" stroke="#000000" stroke-opacity="1" transform="matrix(1,0,0,1,0,0)" font-family="Noto Sans" font-size="166.667" fill="none" font-weight="400" stroke-linecap="square" stroke-width="1"/>
  <g font-style="normal" stroke-linejoin="bevel" stroke="#000000" stroke-opacity="1" transform="matrix(47.2424,0,0,47.2424,777.249,-113.467)" font-family="Noto Sans" font-size="166.667" fill="none" font-weight="400" stroke-linecap="square" stroke-width="1"/>
  <g font-style="normal" stroke-linejoin="bevel" stroke="#000000" stroke-opacity="1" transform="matrix(47.2424,0,0,47.2424,777.249,-113.467)" font-family="Noto Sans" font-size="166.667" fill="none" font-weight="400" stroke-linecap="square" stroke-width="1"/>
  <g font-style="normal" stroke="none" transform="matrix(0.999965,0,0,0.999965,777.249,-113.467)" font-family="Noto Sans" font-size="166.667" fill="#000000" fill-opacity="0" font-weight="400">
   <rect y="0" height="10905" width="15727" x="0"/>
  </g>
  <g font-style="normal" stroke-linejoin="bevel" stroke="#000000" stroke-opacity="1" transform="matrix(0.999965,0,0,0.999965,777.249,-113.467)" font-family="Noto Sans" font-size="166.667" fill="none" font-weight="400" stroke-linecap="square" stroke-width="1"/>
  <g font-style="normal" stroke-linejoin="bevel" stroke="#232323" stroke-opacity="1" transform="matrix(0.999965,0,0,0.999965,777.249,-113.467)" font-family="Noto Sans" font-size="166.667" fill="none" font-weight="400" stroke-linecap="square" stroke-width="12.2835">
   <path fill-rule="evenodd" vector-effect="none" d="M6254.85,4731.85 L6336.68,4855.54 L6374.74,4939.27 L6426.12,5043.94 L6473.7,5082 L6500.34,5167.63 L6532.69,5245.66 L6589.78,5283.72 L6629.74,5388.38 L6635.45,5502.56 L6665.9,5502.56 L6665.9,5618.65 L6702.06,5643.39 L6696.35,5727.12 L6551.72,5738.54 L6542.2,5685.25 L6553.62,5668.13 L6538.4,5614.84 L6490.82,5592.01 L6481.31,5603.42 L6462.28,5624.36 L6471.79,5656.71 L6492.73,5652.9 L6488.92,5622.45 L6517.47,5624.36 L6515.56,5736.63 L6376.64,5744.25 L6367.13,5681.45 L6384.26,5662.42 L6405.19,5683.35 L6429.93,5683.35 L6408.99,5637.68 L6350,5595.81 L6279.59,5491.15 L6270.07,5508.27 L6241.53,5504.47 L6209.18,5411.22 L6056.94,5475.92 L6030.3,5454.99 L6020.78,5409.32 L5977.01,5361.74 L6013.17,5342.71 L6036.01,5335.1 L6032.2,5266.59 L6047.42,5247.56 L6045.52,5222.82 L6072.16,5220.92 L6085.48,5243.76 L6106.42,5238.05 L6129.25,5247.56 L6173.02,5245.66 L6167.31,5180.96 L6209.18,5125.77 L6155.89,5120.06 L6060.74,5125.77 L6020.78,5112.45 L6011.27,5024.91 L6005.56,5009.69 L6074.07,4992.56 L6089.29,4973.53 L6095,4884.09 L6142.57,4834.61 L6254.85,4731.85"/>
  </g>
  <g font-style="normal" stroke-linejoin="bevel" stroke="#000000" stroke-opacity="1" transform="matrix(0.999965,0,0,0.999965,777.249,-113.467)" font-family="Noto Sans" font-size="166.667" fill="none" font-weight="400" stroke-linecap="square" stroke-width="1"/>
  <g font-style="normal" stroke-linejoin="bevel" stroke="#000000" stroke-opacity="1" transform="matrix(47.2424,0,0,47.2424,777.249,-113.467)" font-family="Noto Sans" font-size="166.667" fill="none" font-weight="400" stroke-linecap="square" stroke-width="1"/>
  <g font-style="normal" stroke-linejoin="bevel" stroke="#000000" stroke-opacity="1" transform="matrix(47.2424,0,0,47.2424,777.249,-113.467)" font-family="Noto Sans" font-size="166.667" fill="none" font-weight="400" stroke-linecap="square" stroke-width="1"/>
  <g font-style="normal" stroke-linejoin="bevel" stroke="#000000" stroke-opacity="1" transform="matrix(47.2424,0,0,47.2424,777.249,-113.467)" font-family="Noto Sans" font-size="166.667" fill="none" font-weight="400" stroke-linecap="square" stroke-width="1"/>
  <g font-style="normal" stroke-linejoin="bevel" stroke="#000000" stroke-opacity="1" transform="matrix(1,0,0,1,0,0)" font-family="Noto Sans" font-size="166.667" fill="none" font-weight="400" stroke-linecap="square" stroke-width="1"/>
  <g font-style="normal" stroke-linejoin="bevel" stroke="#000000" stroke-opacity="1" transform="matrix(47.2424,0,0,47.2424,777.249,-113.467)" font-family="Noto Sans" font-size="166.667" fill="none" font-weight="400" stroke-linecap="square" stroke-width="1"/>
  <g font-style="normal" stroke-linejoin="bevel" stroke="#000000" stroke-opacity="1" transform="matrix(47.2424,0,0,47.2424,777.249,-113.467)" font-family="Noto Sans" font-size="166.667" fill="none" font-weight="400" stroke-linecap="square" stroke-width="1"/>
  <g font-style="normal" stroke-linejoin="bevel" stroke="#000000" stroke-opacity="1" transform="matrix(1,0,0,1,0,0)" font-family="Noto Sans" font-size="166.667" fill="none" font-weight="400" stroke-linecap="square" stroke-width="1"/>
 </g>
 <metadata>
  <rdf:RDF xmlns:rdf="http://www.w3.org/1999/02/22-rdf-syntax-ns#" xmlns:dc="http://purl.org/dc/elements/1.1/" xmlns:rdfs="http://www.w3.org/2000/01/rdf-schema#">
   <rdf:Description dc:date="2023-10-07T15:41:53" dc:format="image/svg+xml" dc:description="" dc:title="Bergen Boligområder" dc:identifier="">
    <dc:creator>
     <rdf:Bag>
      <rdf:li>Lukas</rdf:li>
     </rdf:Bag>
    </dc:creator>
    <dc:publisher>
     <rdf:Bag>
      <rdf:li>QGIS 3.32.3-Lima</rdf:li>
     </rdf:Bag>
    </dc:publisher>
    <dc:subject>
     <rdf:Bag/>
    </dc:subject>
   </rdf:Description>
   <cc:Work rdf:about="">
    <dc:format>image/svg+xml</dc:format>
    <dc:title>Bergen Boligområder</dc:title>
    <dc:date>2023-10-07T15:41:53</dc:date>
    <dc:identifier></dc:identifier>
    <dc:description></dc:description>
    <dc:creator>
     <cc:Agent>
      <dc:title>Lukas</dc:title>
     </cc:Agent>
    </dc:creator>
    <dc:publisher>
     <cc:Agent>
      <dc:title>QGIS 3.32.3-Lima</dc:title>
     </cc:Agent>
    </dc:publisher>
   </cc:Work>
  </rdf:RDF>
 </metadata>
</svg>
