<svg xmlns="http://www.w3.org/2000/svg" version="1.2" baseProfile="tiny" xmlns:inkscape="http://www.inkscape.org/namespaces/inkscape" width="315.045mm" viewBox="1537.81 1175.77 68.3 59.62" height="227.076mm" xmlns:xlink="http://www.w3.org/1999/xlink" xmlns:cc="http://creativecommons.org/ns#">
<g stroke-linejoin="bevel" stroke="black" inkscape:label="Map 1: fid_46" fill-rule="evenodd" stroke-linecap="square" inkscape:groupmode="layer" stroke-width="1" fill="none" id="Map 1: fid_46">
  <g stroke-linejoin="bevel"  fill-opacity="1" stroke="#232323" font-style="normal" stroke-linecap="square" font-family="Noto Sans" font-size="41.6667" font-weight="400" stroke-width="1" fill="#c43c39" stroke-opacity="1">
   <path d="M1543.42,1199.71 L1542.81,1198.63 L1547.87,1193.64 L1546.45,1190.61 L1549.01,1187.98 L1549.62,1188.72 L1559.93,1180.77 L1564.51,1184.41 L1570.04,1181.72 L1574.02,1185.49 L1576.64,1183.2 L1578.6,1185.15 L1585.34,1185.02 L1594.17,1194.12 L1601.11,1202 L1601.11,1212.72 L1597.81,1211.99 L1593.36,1215.02 L1593.69,1217.99 L1591.2,1223.31 L1586.21,1225.74 L1583.99,1227.83 L1583.32,1230.39 L1580.62,1229.92 L1580.62,1228.03 L1578.06,1227.22 L1576.98,1229.09 L1569.57,1230.04 L1564.45,1228.55 L1558.38,1222.62 L1561.62,1218.04 L1556.9,1212.92 L1550.16,1209.28 L1543.42,1199.71" fill-rule="evenodd" vector-effect="none"/>

</g>
</g>
</svg>