<svg xmlns="http://www.w3.org/2000/svg" version="1.2" baseProfile="tiny" xmlns:inkscape="http://www.inkscape.org/namespaces/inkscape" width="315.045mm" viewBox="3168.28 2777.27 171.55 180.89" height="227.076mm" xmlns:xlink="http://www.w3.org/1999/xlink" xmlns:cc="http://creativecommons.org/ns#">
<g inkscape:groupmode="layer" stroke-width="1" stroke-linejoin="bevel" stroke-linecap="square" inkscape:label="Map 1: fid_3" fill="none" stroke="black" id="Map 1: fid_3" fill-rule="evenodd">
  <g fill-opacity="1" stroke-width="2" stroke-linejoin="bevel" font-weight="400" stroke-linecap="square" font-size="83.3333" font-style="normal" fill="#a47158" stroke-opacity="1"  font-family="Noto Sans" stroke="#232323">
   <path d="M3334.83,2869.27 L3300.82,2836.96 L3279,2837.53 L3257.17,2816.28 L3246.97,2817.13 L3245.84,2827.61 L3227.13,2813.16 L3223.17,2803.24 L3241.59,2793.6 L3239.04,2790.2 L3224.02,2798.99 L3219.76,2782.27 L3199.64,2788.22 L3204.18,2800.4 L3197.37,2804.09 L3197.66,2806.07 L3189.16,2811.46 L3186.61,2802.39 L3173.57,2802.39 L3173.28,2830.45 L3196.24,2850.85 L3198.51,2884.01 L3219.48,2904.7 L3229.4,2942.96 L3242.72,2928.79 L3248.11,2937.86 L3256.32,2941.26 L3261.71,2945.51 L3269.08,2944.09 L3275.03,2946.08 L3278.43,2953.16 L3291.75,2947.78 L3299.69,2948.06 L3300.25,2918.59 L3320.94,2897.33 L3318.96,2887.7 L3334.83,2869.27" vector-effect="none" fill-rule="evenodd"/>

</g>
</g>
</svg>