<svg xmlns="http://www.w3.org/2000/svg" version="1.2" baseProfile="tiny" xmlns:inkscape="http://www.inkscape.org/namespaces/inkscape" width="315.045mm" viewBox="1450.13 1173.54 76.19 80.02" height="227.076mm" xmlns:xlink="http://www.w3.org/1999/xlink" xmlns:cc="http://creativecommons.org/ns#">
<g stroke-linejoin="bevel" stroke="black" inkscape:label="Map 1: fid_3" fill-rule="evenodd" stroke-linecap="square" inkscape:groupmode="layer" stroke-width="1" fill="none" id="Map 1: fid_3">
  <g stroke-linejoin="bevel"  fill-opacity="1" stroke="#232323" font-style="normal" stroke-linecap="square" font-family="Noto Sans" font-size="41.6667" font-weight="400" stroke-width="1" fill="#987db7" stroke-opacity="1">
   <path d="M1521.32,1214.19 L1507.39,1200.95 L1498.45,1201.18 L1489.5,1192.47 L1485.32,1192.82 L1484.86,1197.12 L1477.2,1191.19 L1475.57,1187.13 L1483.12,1183.18 L1482.07,1181.79 L1475.92,1185.39 L1474.18,1178.54 L1465.93,1180.98 L1467.79,1185.97 L1465,1187.48 L1465.12,1188.29 L1461.63,1190.5 L1460.59,1186.78 L1455.25,1186.78 L1455.13,1198.28 L1464.54,1206.64 L1465.47,1220.23 L1474.06,1228.7 L1478.12,1244.38 L1483.58,1238.57 L1485.79,1242.29 L1489.16,1243.68 L1491.36,1245.42 L1494.38,1244.84 L1496.82,1245.66 L1498.21,1248.56 L1503.67,1246.35 L1506.92,1246.47 L1507.15,1234.39 L1515.63,1225.68 L1514.82,1221.73 L1521.32,1214.19" fill-rule="evenodd" vector-effect="none"/>

</g>
</g>
</svg>