<svg xmlns="http://www.w3.org/2000/svg" version="1.2" baseProfile="tiny" xmlns:inkscape="http://www.inkscape.org/namespaces/inkscape" width="315.045mm" viewBox="1552.07 714.608 97.87 110.498" height="227.076mm" xmlns:xlink="http://www.w3.org/1999/xlink" xmlns:cc="http://creativecommons.org/ns#">
<g stroke-linejoin="bevel" stroke="black" inkscape:label="Map 1: fid_66" fill-rule="evenodd" stroke-linecap="square" inkscape:groupmode="layer" stroke-width="1" fill="none" id="Map 1: fid_66">
  <g stroke-linejoin="bevel"  fill-opacity="1" stroke="#232323" font-style="normal" stroke-linecap="square" font-family="Noto Sans" font-size="41.6667" font-weight="400" stroke-width="1" fill="#987db7" stroke-opacity="1">
   <path d="M1557.07,791.634 L1561.25,792.745 L1561.92,796.385 L1561.65,801.641 L1562.05,806.089 L1562.19,809.323 L1565.29,812.019 L1569.06,810.806 L1574.18,812.423 L1577.28,808.38 L1581.19,808.515 L1584.29,811.345 L1585.78,814.31 L1586.58,817.141 L1590.09,819.567 L1593.73,820.106 L1597.37,818.354 L1600.2,816.063 L1602.08,811.48 L1602.49,806.763 L1601.95,796.789 L1606.53,793.15 L1603.3,784.793 L1604.91,779.806 L1609.23,781.828 L1613.14,781.154 L1614.35,776.033 L1618.26,775.763 L1622.03,779.806 L1622.84,784.793 L1627.29,785.198 L1633.89,780.346 L1638.07,778.054 L1643.46,778.459 L1644.94,774.954 L1643.93,772.212 L1631.22,766.899 L1602.22,734.762 L1601.78,730.234 L1598.3,729.45 L1598.3,724.747 L1591.94,719.608 L1588.89,726.402 L1585.84,725.618 L1579.71,735.43 L1579.04,751.469 L1572.43,762.386 L1566.5,768.047 L1560.98,772.225 L1558.69,778.021 L1558.82,787.725 L1557.07,791.634" fill-rule="evenodd" vector-effect="none"/>

</g>
</g>
</svg>