<svg xmlns="http://www.w3.org/2000/svg" version="1.2" baseProfile="tiny" xmlns:inkscape="http://www.inkscape.org/namespaces/inkscape" width="315.045mm" viewBox="1385.42 1448.69 111.15 135.79" height="227.076mm" xmlns:xlink="http://www.w3.org/1999/xlink" xmlns:cc="http://creativecommons.org/ns#">
<g stroke-linejoin="bevel" stroke="black" inkscape:label="Map 1: fid_104" fill-rule="evenodd" stroke-linecap="square" inkscape:groupmode="layer" stroke-width="1" fill="none" id="Map 1: fid_104">
  <g stroke-linejoin="bevel"  fill-opacity="1" stroke="#232323" font-style="normal" stroke-linecap="square" font-family="Noto Sans" font-size="41.6667" font-weight="400" stroke-width="1" fill="#e8718d" stroke-opacity="1">
   <path d="M1391.64,1547.2 L1392.1,1550.56 L1395.47,1553.32 L1397.76,1554.23 L1401.28,1553.47 L1404.19,1552.55 L1406.18,1550.71 L1406.95,1551.33 L1407.56,1547.04 L1409.7,1545.36 L1411.38,1547.04 L1413.37,1549.49 L1414.6,1550.71 L1415.36,1553.16 L1415.97,1554.23 L1417.04,1554.08 L1417.96,1553.93 L1418.88,1552.24 L1420.56,1551.94 L1422.09,1552.55 L1422.86,1554.23 L1423.47,1555.61 L1425.61,1556.07 L1428.21,1555.46 L1430.97,1552.55 L1437.85,1551.63 L1439.54,1553.01 L1429.44,1558.82 L1430.05,1561.27 L1431.89,1561.27 L1432.19,1563.41 L1430.51,1565.56 L1429.59,1566.93 L1427.76,1568.46 L1425,1569.38 L1422.86,1570.3 L1423.93,1571.98 L1426.38,1573.67 L1427.14,1574.13 L1427.45,1575.2 L1425.15,1575.96 L1424.24,1578.1 L1426.53,1578.72 L1429.44,1577.8 L1431.12,1575.66 L1432.5,1574.13 L1435.56,1573.36 L1437.55,1573.51 L1438.47,1573.97 L1438.93,1575.2 L1438.62,1576.73 L1437.24,1578.56 L1437.55,1579.02 L1439.54,1579.48 L1441.22,1578.41 L1442.6,1576.11 L1444.13,1574.43 L1445.66,1574.28 L1447.34,1574.28 L1448.11,1571.37 L1449.33,1571.22 L1450.86,1570.3 L1456.83,1565.4 L1458.82,1563.72 L1461.27,1562.34 L1464.78,1556.99 L1467.69,1553.77 L1470.45,1552.55 L1472.59,1550.56 L1475.34,1548.11 L1478.71,1546.89 L1481.92,1545.67 L1484.52,1544.9 L1485.9,1544.29 L1487.74,1543.52 L1487.28,1541.53 L1485.14,1540.77 L1484.52,1540 L1486.44,1537.69 L1490.63,1535.07 L1491.37,1515.78 L1487.17,1512.33 L1485.81,1509.91 L1487.91,1506.98 L1491.57,1503.52 L1488.54,1502.26 L1485.92,1491.68 L1481.93,1486.28 L1483.61,1479.47 L1476.48,1478.74 L1475.65,1473.81 L1470.93,1472.66 L1471.45,1467.31 L1475.65,1458.2 L1478.79,1453.69 L1466.53,1460.63 L1463.8,1473.21 L1457.62,1469.54 L1453.95,1471.11 L1451.44,1468.91 L1452.8,1464.3 L1451.23,1460.84 L1446.65,1465.07 L1446.19,1467.97 L1443.52,1465.75 L1441.76,1466.37 L1440,1467.44 L1436.86,1463.99 L1434.64,1463.77 L1432.5,1469.12 L1432.04,1471.57 L1432.65,1476.08 L1431.66,1477.31 L1426.45,1482.13 L1423.93,1483.81 L1421.25,1487.71 L1420.56,1490.47 L1420.03,1495.13 L1417.73,1492.91 L1414.67,1492.76 L1413.3,1492.38 L1412.22,1489.55 L1411,1489.32 L1409.55,1491 L1409.32,1493.99 L1410.16,1500.79 L1409.78,1505.46 L1411.38,1505.16 L1412.45,1504.08 L1413.45,1506.61 L1414.83,1509.13 L1417.35,1511.05 L1418.5,1513.42 L1415.51,1520.49 L1413.22,1521.11 L1412.76,1524.4 L1409.62,1525.54 L1408.93,1528.53 L1407.71,1530.06 L1405.42,1528.68 L1403.2,1527.15 L1400.67,1525.47 L1398.68,1524.93 L1397.31,1526.23 L1396.62,1531.89 L1398.15,1533.88 L1397.76,1536.41 L1396.85,1538.32 L1394.25,1538.7 L1392.41,1539.24 L1391.19,1544.59 L1390.42,1547.42 L1391.64,1547.2" fill-rule="evenodd" vector-effect="none"/>

</g>
</g>
</svg>