<svg xmlns="http://www.w3.org/2000/svg" version="1.2" baseProfile="tiny" xmlns:inkscape="http://www.inkscape.org/namespaces/inkscape" width="315.045mm" viewBox="1658.88 520.982 201.77 226.466" height="227.076mm" xmlns:xlink="http://www.w3.org/1999/xlink" xmlns:cc="http://creativecommons.org/ns#">
<g stroke-linejoin="bevel" stroke="black" inkscape:label="Map 1: fid_33" fill-rule="evenodd" stroke-linecap="square" inkscape:groupmode="layer" stroke-width="1" fill="none" id="Map 1: fid_33">
  <g stroke-linejoin="bevel"  fill-opacity="1" stroke="#232323" font-style="normal" stroke-linecap="square" font-family="Noto Sans" font-size="41.6667" font-weight="400" stroke-width="1" fill="#f3a6b2" stroke-opacity="1">
   <path d="M1735.47,525.982 L1753.75,562.473 L1764.9,573.273 L1770.48,585.814 L1800.78,619.954 L1819.25,662.106 L1825.17,669.77 L1828.3,691.369 L1855.65,723.636 L1835.1,742.448 L1823.43,726.423 L1813.33,722.243 L1782.67,684.968 L1765.25,678.697 L1756.54,679.873 L1746.44,680.439 L1736.34,685.665 L1728.32,683.923 L1702.54,685.316 L1693.84,671.381 L1680.25,658.492 L1673.63,644.557 L1663.88,640.029 L1667.71,621.565 L1680.95,602.971 L1692.27,598.442 L1695.4,593.565 L1707.25,588.34 L1712.47,574.057 L1713.87,550.89 L1735.47,525.982" fill-rule="evenodd" vector-effect="none"/>

</g>
</g>
</svg>