<svg xmlns="http://www.w3.org/2000/svg" version="1.2" baseProfile="tiny" xmlns:inkscape="http://www.inkscape.org/namespaces/inkscape" width="315.045mm" viewBox="1605.19 1588.51 72.14 96.4" height="227.076mm" xmlns:xlink="http://www.w3.org/1999/xlink" xmlns:cc="http://creativecommons.org/ns#">
<g stroke-linejoin="bevel" stroke="black" inkscape:label="Map 1: fid_83" fill-rule="evenodd" stroke-linecap="square" inkscape:groupmode="layer" stroke-width="1" fill="none" id="Map 1: fid_83">
  <g stroke-linejoin="bevel"  fill-opacity="1" stroke="#232323" font-style="normal" stroke-linecap="square" font-family="Noto Sans" font-size="41.6667" font-weight="400" stroke-width="1" fill="#e15989" stroke-opacity="1">
   <path d="M1610.19,1649.34 L1620.43,1656.45 L1627.71,1670.74 L1630.14,1672.09 L1632.3,1676 L1631.35,1679.91 L1635.13,1676.81 L1640.11,1671.28 L1641.73,1669.12 L1644.83,1669.66 L1647.39,1671.96 L1650.36,1666.7 L1654.27,1664.41 L1657.64,1662.38 L1661.28,1661.98 L1664.38,1661.44 L1665.86,1660.09 L1666.67,1658.21 L1668.15,1655.38 L1668.69,1654.03 L1668.28,1652.28 L1670.04,1648.64 L1672.19,1647.02 L1669.5,1640.14 L1670.58,1636.64 L1671.52,1633.81 L1671.79,1631.52 L1672.33,1628.42 L1670.31,1624.24 L1670.04,1620.2 L1668.96,1617.1 L1669.36,1614.94 L1669.9,1610.36 L1670.58,1606.72 L1669.36,1602.27 L1667.34,1597.55 L1665.18,1594.32 L1663.16,1593.78 L1661.81,1593.78 L1659.79,1593.51 L1655.61,1595.66 L1647.66,1597.82 L1643.89,1604.96 L1644.16,1610.36 L1627.85,1626.53 L1617.06,1627.47 L1614.91,1632.49 L1612.08,1639.91 L1612.08,1639.91 L1611.4,1646.38 L1610.19,1649.34" fill-rule="evenodd" vector-effect="none"/>

</g>
</g>
</svg>