<svg xmlns="http://www.w3.org/2000/svg" version="1.2" baseProfile="tiny" xmlns:inkscape="http://www.inkscape.org/namespaces/inkscape" width="315.045mm" viewBox="3571.72 3815.05 191.66 250.88" height="227.076mm" xmlns:xlink="http://www.w3.org/1999/xlink" xmlns:cc="http://creativecommons.org/ns#">
<g inkscape:groupmode="layer" stroke-width="1" stroke-linejoin="bevel" stroke-linecap="square" inkscape:label="Map 1: fid_83" fill="none" stroke="black" id="Map 1: fid_83" fill-rule="evenodd">
  <g stroke-width="1" stroke-linejoin="bevel" font-weight="400" stroke-linecap="square" font-size="83.3333" font-style="normal" fill="none" stroke-opacity="1" transform="matrix(1,0,0,1,0,0)" font-family="Noto Sans" stroke="#000000"/>
  <g stroke-width="1" stroke-linejoin="bevel" font-weight="400" stroke-linecap="square" font-size="83.3333" font-style="normal" fill="none" stroke-opacity="1" transform="matrix(1,0,0,1,0,0)" font-family="Noto Sans" stroke="#000000"/>
  <g stroke-width="1" stroke-linejoin="bevel" font-weight="400" stroke-linecap="square" font-size="83.3333" font-style="normal" fill="none" stroke-opacity="1" transform="matrix(23.619,0,0,23.619,-728.486,-229.753)" font-family="Noto Sans" stroke="#000000"/>
  <g stroke-width="1" stroke-linejoin="bevel" font-weight="400" stroke-linecap="square" font-size="83.3333" font-style="normal" fill="none" stroke-opacity="1" transform="matrix(23.619,0,0,23.619,-728.486,-229.753)" font-family="Noto Sans" stroke="#000000"/>
  <g fill-opacity="0" font-weight="400" font-size="83.3333" font-style="normal" fill="#000000" transform="matrix(0.999873,0,0,0.999873,-728.486,-229.753)" font-family="Noto Sans" stroke="none">
   <rect y="0" width="8098" height="5627" x="0"/>
  </g>
  <g stroke-width="1" stroke-linejoin="bevel" font-weight="400" stroke-linecap="square" font-size="83.3333" font-style="normal" fill="none" stroke-opacity="1" transform="matrix(0.999873,0,0,0.999873,-728.486,-229.753)" font-family="Noto Sans" stroke="#000000"/>
  <g fill-opacity="1" stroke-width="2" stroke-linejoin="bevel" font-weight="400" stroke-linecap="square" font-size="83.3333" font-style="normal" fill="#729b6f" stroke-opacity="1" transform="matrix(0.999873,0,0,0.999873,-728.486,-229.753)" font-family="Noto Sans" stroke="#232323">
   <path d="M3551.72,3931.33 L3576.73,3948.69 L3594.49,3983.56 L3600.41,3986.85 L3605.68,3996.39 L3603.37,4005.93 L3612.58,3998.36 L3624.76,3984.87 L3628.7,3979.61 L3636.27,3980.93 L3642.52,3986.52 L3649.76,3973.69 L3659.3,3968.1 L3667.52,3963.16 L3676.41,3962.17 L3683.97,3960.86 L3687.59,3957.57 L3689.57,3952.96 L3693.18,3946.05 L3694.5,3942.76 L3693.51,3938.49 L3697.79,3929.61 L3703.05,3925.66 L3696.47,3908.88 L3699.11,3900.33 L3701.41,3893.42 L3702.07,3887.83 L3703.38,3880.26 L3698.45,3870.06 L3697.79,3860.19 L3695.16,3852.62 L3696.14,3847.36 L3697.46,3836.18 L3699.11,3827.29 L3696.14,3816.44 L3691.21,3804.92 L3685.95,3797.03 L3681.01,3795.71 L3677.72,3795.71 L3672.79,3795.05 L3662.59,3800.32 L3643.18,3805.58 L3633.97,3823.02 L3634.63,3836.18 L3594.82,3875.65 L3568.5,3877.96 L3563.24,3890.21 L3556.33,3908.3 L3556.33,3908.3 L3554.68,3924.09 L3551.72,3931.33" vector-effect="none" fill-rule="evenodd"/>
  </g>
  <g stroke-width="1" stroke-linejoin="bevel" font-weight="400" stroke-linecap="square" font-size="83.3333" font-style="normal" fill="none" stroke-opacity="1" transform="matrix(0.999873,0,0,0.999873,-728.486,-229.753)" font-family="Noto Sans" stroke="#000000"/>
  <g stroke-width="1" stroke-linejoin="bevel" font-weight="400" stroke-linecap="square" font-size="83.3333" font-style="normal" fill="none" stroke-opacity="1" transform="matrix(23.619,0,0,23.619,-728.486,-229.753)" font-family="Noto Sans" stroke="#000000"/>
  <g stroke-width="1" stroke-linejoin="bevel" font-weight="400" stroke-linecap="square" font-size="83.3333" font-style="normal" fill="none" stroke-opacity="1" transform="matrix(23.619,0,0,23.619,-728.486,-229.753)" font-family="Noto Sans" stroke="#000000"/>
  <g stroke-width="1" stroke-linejoin="bevel" font-weight="400" stroke-linecap="square" font-size="83.3333" font-style="normal" fill="none" stroke-opacity="1" transform="matrix(23.619,0,0,23.619,-728.486,-229.753)" font-family="Noto Sans" stroke="#000000"/>
  <g stroke-width="1" stroke-linejoin="bevel" font-weight="400" stroke-linecap="square" font-size="83.3333" font-style="normal" fill="none" stroke-opacity="1" transform="matrix(1,0,0,1,0,0)" font-family="Noto Sans" stroke="#000000"/>
  <g stroke-width="1" stroke-linejoin="bevel" font-weight="400" stroke-linecap="square" font-size="83.3333" font-style="normal" fill="none" stroke-opacity="1" transform="matrix(23.619,0,0,23.619,-728.486,-229.753)" font-family="Noto Sans" stroke="#000000"/>
  <g stroke-width="1" stroke-linejoin="bevel" font-weight="400" stroke-linecap="square" font-size="83.3333" font-style="normal" fill="none" stroke-opacity="1" transform="matrix(23.619,0,0,23.619,-728.486,-229.753)" font-family="Noto Sans" stroke="#000000"/>
  <g stroke-width="1" stroke-linejoin="bevel" font-weight="400" stroke-linecap="square" font-size="83.3333" font-style="normal" fill="none" stroke-opacity="1" transform="matrix(1,0,0,1,0,0)" font-family="Noto Sans" stroke="#000000"/>
 </g>
 
</svg>