<svg xmlns="http://www.w3.org/2000/svg" version="1.2" baseProfile="tiny" xmlns:inkscape="http://www.inkscape.org/namespaces/inkscape" width="315.045mm" viewBox="3279.94 3076.89 489.45 515.7" height="227.076mm" xmlns:xlink="http://www.w3.org/1999/xlink" xmlns:cc="http://creativecommons.org/ns#">
<g inkscape:groupmode="layer" stroke-width="1" stroke-linejoin="bevel" stroke-linecap="square" inkscape:label="Map 1: fid_87" fill="none" stroke="black" id="Map 1: fid_87" fill-rule="evenodd">
  <g stroke-width="1" stroke-linejoin="bevel" font-weight="400" stroke-linecap="square" font-size="83.3333" font-style="normal" fill="none" stroke-opacity="1" transform="matrix(1,0,0,1,0,0)" font-family="Noto Sans" stroke="#000000"/>
  <g stroke-width="1" stroke-linejoin="bevel" font-weight="400" stroke-linecap="square" font-size="83.3333" font-style="normal" fill="none" stroke-opacity="1" transform="matrix(1,0,0,1,0,0)" font-family="Noto Sans" stroke="#000000"/>
  <g stroke-width="1" stroke-linejoin="bevel" font-weight="400" stroke-linecap="square" font-size="83.3333" font-style="normal" fill="none" stroke-opacity="1" transform="matrix(23.6177,0,0,23.6177,23.6177,23.6177)" font-family="Noto Sans" stroke="#000000"/>
  <g stroke-width="1" stroke-linejoin="bevel" font-weight="400" stroke-linecap="square" font-size="83.3333" font-style="normal" fill="none" stroke-opacity="1" transform="matrix(23.6177,0,0,23.6177,23.6177,23.6177)" font-family="Noto Sans" stroke="#000000"/>
  <g fill-opacity="0" font-weight="400" font-size="83.3333" font-style="normal" fill="#000000" transform="matrix(0.999817,0,0,0.999817,23.6177,23.6177)" font-family="Noto Sans" stroke="none">
   <rect y="0" width="7395" height="5318" x="0"/>
  </g>
  <g stroke-width="1" stroke-linejoin="bevel" font-weight="400" stroke-linecap="square" font-size="83.3333" font-style="normal" fill="none" stroke-opacity="1" transform="matrix(0.999817,0,0,0.999817,23.6177,23.6177)" font-family="Noto Sans" stroke="#000000"/>
  <g fill-opacity="1" stroke-width="2" stroke-linejoin="bevel" font-weight="400" stroke-linecap="square" font-size="83.3333" font-style="normal" fill="#729b6f" stroke-opacity="1" transform="matrix(0.999817,0,0,0.999817,23.6177,23.6177)" font-family="Noto Sans" stroke="#232323">
   <path d="M3668.87,3069.03 L3672.14,3131.69 L3692.57,3158.12 L3693.77,3180.35 L3709.39,3194.77 L3695.57,3253.05 L3674.54,3265.67 L3669.13,3280.09 L3651.71,3323.35 L3640.9,3312.54 L3611.45,3278.89 L3595.23,3284.3 L3595.23,3278.89 L3607.25,3272.88 L3616.26,3264.47 L3625.87,3261.47 L3630.68,3262.07 L3635.49,3266.27 L3645.1,3272.88 L3654.11,3272.88 L3664.93,3269.28 L3667.93,3266.27 L3670.34,3247.65 L3661.32,3246.45 L3649.31,3245.84 L3648.71,3233.83 L3643.9,3224.21 L3641.5,3217 L3634.89,3210.4 L3632.48,3210.4 L3623.47,3213.4 L3619.27,3218.81 L3618.06,3223.61 L3616.26,3253.05 L3608.15,3268.68 L3593.73,3273.48 L3583.97,3263.12 L3576.76,3264.77 L3574.5,3256.21 L3568.8,3255.61 L3566.84,3264.17 L3564.44,3283.25 L3559.93,3278.44 L3555.88,3279.04 L3554.22,3283.85 L3550.47,3287.15 L3547.92,3286.25 L3546.26,3282.65 L3547.92,3275.74 L3545.51,3273.93 L3540.26,3274.68 L3538.9,3279.04 L3538.75,3282.65 L3537.7,3287.83 L3535,3287.98 L3528.84,3290.68 L3528.24,3294.74 L3524.33,3296.24 L3516.52,3296.69 L3514.12,3300.3 L3513.52,3311.56 L3491.44,3328.99 L3488.43,3327.93 L3487.38,3324.63 L3489.94,3323.28 L3490.24,3320.72 L3489.03,3318.92 L3478.07,3319.07 L3476.42,3314.57 L3473.26,3310.81 L3468.01,3310.96 L3466.35,3315.92 L3460.95,3321.02 L3452.98,3328.27 L3452.83,3336.83 L3446.68,3336.53 L3446.83,3345.55 L3445.47,3352.91 L3439.47,3358.31 L3435.11,3358.91 L3432.11,3360.42 L3433.61,3366.73 L3428.8,3369.58 L3427,3379.04 L3421.29,3382.95 L3414.53,3391.66 L3415.28,3395.87 L3410.93,3399.92 L3405.67,3399.17 L3400.71,3401.87 L3399.36,3406.68 L3397.56,3412.69 L3392.15,3413.74 L3386.89,3409.08 L3383.89,3415.24 L3378.33,3414.19 L3377.13,3409.53 L3379.53,3406.08 L3382.99,3402.63 L3378.33,3396.92 L3375.33,3396.77 L3372.77,3398.42 L3369.17,3400.82 L3367.97,3405.03 L3367.97,3407.58 L3363.91,3407.73 L3364.21,3414.49 L3370.67,3415.54 L3371.42,3418.7 L3370.97,3423.35 L3371.42,3432.67 L3370.97,3442.02 L3367.22,3442.02 L3363.91,3451.03 L3355.8,3461.54 L3315.54,3486.48 L3272.28,3532.59 L3259.94,3526.7 L3272.75,3500.69 L3288.47,3479.73 L3289.63,3461.68 L3310.21,3435.96 L3319.53,3413.83 L3335.25,3403.93 L3341.85,3392.67 L3356.99,3379.47 L3372.13,3374.81 L3386.88,3338.32 L3446.07,3302.62 L3455.84,3296.92 L3469.81,3286.4 L3479.57,3273.93 L3490.54,3258.91 L3531.84,3209.08 L3543.26,3194.36 L3555.58,3171.23 L3561.59,3152.3 L3567.89,3134.58 L3568.19,3127.07 L3595.23,3121.66 L3613.26,3096.73 L3621.48,3064.4 L3641.71,3056.89 L3661.94,3062.67 L3668.87,3069.03" vector-effect="none" fill-rule="evenodd"/>
  </g>
  <g stroke-width="1" stroke-linejoin="bevel" font-weight="400" stroke-linecap="square" font-size="83.3333" font-style="normal" fill="none" stroke-opacity="1" transform="matrix(0.999817,0,0,0.999817,23.6177,23.6177)" font-family="Noto Sans" stroke="#000000"/>
  <g stroke-width="1" stroke-linejoin="bevel" font-weight="400" stroke-linecap="square" font-size="83.3333" font-style="normal" fill="none" stroke-opacity="1" transform="matrix(23.6177,0,0,23.6177,23.6177,23.6177)" font-family="Noto Sans" stroke="#000000"/>
  <g stroke-width="1" stroke-linejoin="bevel" font-weight="400" stroke-linecap="square" font-size="83.3333" font-style="normal" fill="none" stroke-opacity="1" transform="matrix(23.6177,0,0,23.6177,23.6177,23.6177)" font-family="Noto Sans" stroke="#000000"/>
  <g stroke-width="1" stroke-linejoin="bevel" font-weight="400" stroke-linecap="square" font-size="83.3333" font-style="normal" fill="none" stroke-opacity="1" transform="matrix(23.6177,0,0,23.6177,23.6177,23.6177)" font-family="Noto Sans" stroke="#000000"/>
  <g stroke-width="1" stroke-linejoin="bevel" font-weight="400" stroke-linecap="square" font-size="83.3333" font-style="normal" fill="none" stroke-opacity="1" transform="matrix(1,0,0,1,0,0)" font-family="Noto Sans" stroke="#000000"/>
  <g stroke-width="1" stroke-linejoin="bevel" font-weight="400" stroke-linecap="square" font-size="83.3333" font-style="normal" fill="none" stroke-opacity="1" transform="matrix(23.6177,0,0,23.6177,23.6177,23.6177)" font-family="Noto Sans" stroke="#000000"/>
  <g stroke-width="1" stroke-linejoin="bevel" font-weight="400" stroke-linecap="square" font-size="83.3333" font-style="normal" fill="none" stroke-opacity="1" transform="matrix(23.6177,0,0,23.6177,23.6177,23.6177)" font-family="Noto Sans" stroke="#000000"/>
  <g stroke-width="1" stroke-linejoin="bevel" font-weight="400" stroke-linecap="square" font-size="83.3333" font-style="normal" fill="none" stroke-opacity="1" transform="matrix(1,0,0,1,0,0)" font-family="Noto Sans" stroke="#000000"/>
 </g>
 
</svg>