<svg xmlns="http://www.w3.org/2000/svg" version="1.2" baseProfile="tiny" xmlns:inkscape="http://www.inkscape.org/namespaces/inkscape" width="315.045mm" viewBox="3773.19 3128.86 502.18 530.93" height="227.076mm" xmlns:xlink="http://www.w3.org/1999/xlink" xmlns:cc="http://creativecommons.org/ns#">
<g inkscape:groupmode="layer" stroke-width="1" stroke-linejoin="bevel" stroke-linecap="square" inkscape:label="Map 1: fid_87" fill="none" stroke="black" id="Map 1: fid_87" fill-rule="evenodd">
  <g fill-opacity="1" stroke-width="2" stroke-linejoin="bevel" font-weight="400" stroke-linecap="square" font-size="83.3333" font-style="normal" fill="#e5b636" stroke-opacity="1"  font-family="Noto Sans" stroke="#232323">
   <path d="M4226,3147.15 L4229.58,3215.77 L4251.95,3244.72 L4253.27,3269.06 L4270.37,3284.85 L4255.24,3348.67 L4232.21,3362.49 L4226.29,3378.28 L4207.21,3425.66 L4195.37,3413.81 L4163.13,3376.97 L4145.36,3382.89 L4145.36,3376.97 L4158.52,3370.39 L4168.39,3361.18 L4178.92,3357.89 L4184.18,3358.54 L4189.44,3363.15 L4199.97,3370.39 L4209.84,3370.39 L4221.68,3366.44 L4224.97,3363.15 L4227.61,3342.75 L4217.74,3341.44 L4204.58,3340.78 L4203.92,3327.62 L4198.66,3317.09 L4196.02,3309.2 L4188.79,3301.96 L4186.15,3301.96 L4176.29,3305.25 L4171.68,3311.17 L4170.36,3316.43 L4168.39,3348.67 L4159.51,3365.78 L4143.72,3371.04 L4133.02,3359.7 L4125.13,3361.5 L4122.66,3352.13 L4116.41,3351.47 L4114.27,3360.85 L4111.64,3381.74 L4106.71,3376.47 L4102.27,3377.13 L4100.46,3382.39 L4096.34,3386.01 L4093.55,3385.03 L4091.74,3381.08 L4093.55,3373.51 L4090.92,3371.54 L4085.16,3372.36 L4083.68,3377.13 L4083.51,3381.08 L4082.36,3386.75 L4079.4,3386.92 L4072.66,3389.88 L4072,3394.32 L4067.72,3395.96 L4059.17,3396.46 L4056.54,3400.41 L4055.88,3412.74 L4031.7,3431.82 L4028.41,3430.67 L4027.26,3427.05 L4030.06,3425.57 L4030.38,3422.78 L4029.07,3420.8 L4017.06,3420.97 L4015.25,3416.03 L4011.8,3411.92 L4006.04,3412.08 L4004.23,3417.51 L3998.31,3423.11 L3989.59,3431.04 L3989.43,3440.42 L3982.68,3440.09 L3982.85,3449.96 L3981.37,3458.02 L3974.79,3463.94 L3970.02,3464.6 L3966.73,3466.24 L3968.37,3473.15 L3963.11,3476.28 L3961.13,3486.64 L3954.88,3490.92 L3947.48,3500.46 L3948.3,3505.06 L3943.53,3509.5 L3937.78,3508.68 L3932.35,3511.64 L3930.87,3516.9 L3928.9,3523.48 L3922.97,3524.64 L3917.22,3519.54 L3913.93,3526.28 L3907.84,3525.13 L3906.52,3520.03 L3909.16,3516.25 L3912.94,3512.46 L3907.84,3506.21 L3904.55,3506.05 L3901.75,3507.86 L3897.81,3510.49 L3896.49,3515.1 L3896.49,3517.89 L3892.05,3518.06 L3892.38,3525.46 L3899.45,3526.61 L3900.27,3530.06 L3899.78,3535.16 L3900.27,3545.36 L3899.78,3555.6 L3895.67,3555.6 L3892.05,3565.47 L3883.17,3576.98 L3839.08,3604.29 L3791.71,3654.79 L3778.19,3648.34 L3792.22,3619.85 L3809.44,3596.9 L3810.71,3577.13 L3833.24,3548.97 L3843.45,3524.73 L3860.66,3513.89 L3867.89,3501.57 L3884.47,3487.11 L3901.05,3482.01 L3917.2,3442.05 L3982.02,3402.96 L3992.72,3396.71 L4008.01,3385.19 L4018.71,3371.54 L4030.71,3355.09 L4075.95,3300.52 L4088.45,3284.4 L4101.94,3259.07 L4108.52,3238.34 L4115.42,3218.93 L4115.75,3210.71 L4145.36,3204.79 L4165.1,3177.48 L4174.1,3142.09 L4196.26,3133.86 L4218.41,3140.19 L4226,3147.15" vector-effect="none" fill-rule="evenodd"/>

</g>
</g>
</svg>