<svg xmlns="http://www.w3.org/2000/svg" version="1.2" baseProfile="tiny" xmlns:inkscape="http://www.inkscape.org/namespaces/inkscape" width="315.045mm" viewBox="1697.98 1317.6 211.66 223.43" height="227.076mm" xmlns:xlink="http://www.w3.org/1999/xlink" xmlns:cc="http://creativecommons.org/ns#">
<g stroke-linejoin="bevel" stroke="black" inkscape:label="Map 1: fid_87" fill-rule="evenodd" stroke-linecap="square" inkscape:groupmode="layer" stroke-width="1" fill="none" id="Map 1: fid_87">
  <g stroke-linejoin="bevel"  fill-opacity="1" stroke="#232323" font-style="normal" stroke-linecap="square" font-family="Noto Sans" font-size="41.6667" font-weight="400" stroke-width="1" fill="#f3a6b2" stroke-opacity="1">
   <path d="M1886.46,1328.04 L1887.93,1356.16 L1897.09,1368.02 L1897.63,1377.99 L1904.64,1384.46 L1898.44,1410.61 L1889.01,1416.27 L1886.58,1422.74 L1878.76,1442.15 L1873.91,1437.3 L1860.7,1422.2 L1853.42,1424.63 L1853.42,1422.2 L1858.81,1419.51 L1862.86,1415.73 L1867.17,1414.39 L1869.33,1414.66 L1871.48,1416.54 L1875.8,1419.51 L1879.84,1419.51 L1884.69,1417.89 L1886.04,1416.54 L1887.12,1408.19 L1883.07,1407.65 L1877.68,1407.38 L1877.41,1401.99 L1875.26,1397.67 L1874.18,1394.44 L1871.21,1391.47 L1870.13,1391.47 L1866.09,1392.82 L1864.2,1395.25 L1863.66,1397.4 L1862.86,1410.61 L1859.22,1417.62 L1852.75,1419.78 L1848.37,1415.13 L1845.13,1415.87 L1844.12,1412.03 L1841.56,1411.76 L1840.68,1415.6 L1839.6,1424.16 L1837.58,1422 L1835.76,1422.27 L1835.02,1424.43 L1833.34,1425.91 L1832.19,1425.51 L1831.45,1423.89 L1832.19,1420.79 L1831.11,1419.98 L1828.75,1420.32 L1828.15,1422.27 L1828.08,1423.89 L1827.61,1426.21 L1826.39,1426.28 L1823.63,1427.49 L1823.36,1429.31 L1821.61,1429.99 L1818.11,1430.19 L1817.03,1431.81 L1816.76,1436.86 L1806.85,1444.68 L1805.5,1444.21 L1805.03,1442.73 L1806.18,1442.12 L1806.31,1440.97 L1805.77,1440.16 L1800.85,1440.23 L1800.11,1438.21 L1798.7,1436.53 L1796.34,1436.59 L1795.6,1438.82 L1793.17,1441.11 L1789.6,1444.36 L1789.53,1448.2 L1786.77,1448.07 L1786.83,1452.11 L1786.23,1455.41 L1783.53,1457.84 L1781.58,1458.11 L1780.23,1458.78 L1780.9,1461.61 L1778.75,1462.89 L1777.94,1467.14 L1775.38,1468.89 L1772.34,1472.8 L1772.68,1474.69 L1770.73,1476.51 L1768.37,1476.17 L1766.14,1477.38 L1765.54,1479.54 L1764.73,1482.24 L1762.3,1482.71 L1759.94,1480.62 L1758.59,1483.38 L1756.1,1482.91 L1755.56,1480.82 L1756.64,1479.27 L1758.19,1477.72 L1756.1,1475.16 L1754.75,1475.09 L1753.61,1475.83 L1751.99,1476.91 L1751.45,1478.8 L1751.45,1479.94 L1749.63,1480.01 L1749.77,1483.05 L1752.66,1483.52 L1753,1484.93 L1752.8,1487.02 L1753,1491.2 L1752.8,1495.4 L1751.11,1495.4 L1749.63,1499.44 L1745.99,1504.16 L1727.93,1515.34 L1708.52,1536.03 L1702.98,1533.39 L1708.73,1521.72 L1715.78,1512.32 L1716.31,1504.22 L1725.54,1492.68 L1729.72,1482.75 L1736.77,1478.31 L1739.73,1473.26 L1746.53,1467.33 L1753.32,1465.24 L1759.94,1448.87 L1786.5,1432.85 L1790.88,1430.29 L1797.15,1425.57 L1801.53,1419.98 L1806.45,1413.24 L1824.98,1390.88 L1830.1,1384.28 L1835.63,1373.9 L1838.32,1365.41 L1841.15,1357.45 L1841.29,1354.08 L1853.42,1351.66 L1861.51,1340.47 L1865.2,1325.97 L1874.27,1322.6 L1883.35,1325.19 L1886.46,1328.04" fill-rule="evenodd" vector-effect="none"/>

</g>
</g>
</svg>