<?xml version='1.0' encoding='UTF-8' standalone='no'?>
<svg height="209.994mm" width="296.989mm" viewBox="0 0 14031 9921" baseProfile="tiny" xmlns:cc="http://creativecommons.org/ns#" xmlns="http://www.w3.org/2000/svg" xmlns:xlink="http://www.w3.org/1999/xlink" version="1.2" xmlns:inkscape="http://www.inkscape.org/namespaces/inkscape">
 <defs/>
 <g fill-rule="evenodd" stroke-linejoin="bevel" stroke="black" id="Page" fill="none" stroke-linecap="square" inkscape:groupmode="layer" inkscape:label="Page" stroke-width="1">
  <g font-style="normal" stroke-linejoin="bevel" stroke="#000000" stroke-opacity="1" transform="matrix(1,0,0,1,0,0)" font-family="Noto Sans" font-size="166.667" fill="none" font-weight="400" stroke-linecap="square" stroke-width="1"/>
  <g font-style="normal" stroke-linejoin="bevel" stroke="#000000" stroke-opacity="1" transform="matrix(1,0,0,1,0,0)" font-family="Noto Sans" font-size="166.667" fill="none" font-weight="400" stroke-linecap="square" stroke-width="1"/>
  <g font-style="normal" stroke-linejoin="bevel" stroke="#000000" stroke-opacity="1" transform="matrix(47.2424,0,0,47.2424,0,0)" font-family="Noto Sans" font-size="166.667" fill="none" font-weight="400" stroke-linecap="square" stroke-width="1"/>
  <g font-style="normal" stroke-linejoin="bevel" stroke="#000000" stroke-opacity="1" transform="matrix(0.999965,0,0,0.999965,0,0)" font-family="Noto Sans" font-size="166.667" fill="none" font-weight="400" stroke-linecap="square" stroke-width="1"/>
  <g font-style="normal" stroke="none" transform="matrix(0.999965,0,0,0.999965,0,0)" font-family="Noto Sans" font-size="166.667" fill="#ffffff" fill-opacity="1" font-weight="400">
   <path fill-rule="evenodd" vector-effect="none" d="M-2,-2 L14034,-2 L14034,9924 L-2,9924 L-2,-2"/>
  </g>
  <g font-style="normal" stroke-linejoin="bevel" stroke="#000000" stroke-opacity="1" transform="matrix(0.999965,0,0,0.999965,0,0)" font-family="Noto Sans" font-size="166.667" fill="none" font-weight="400" stroke-linecap="square" stroke-width="1"/>
  <g font-style="normal" stroke-linejoin="bevel" stroke="#000000" stroke-opacity="1" transform="matrix(47.2424,0,0,47.2424,0,0)" font-family="Noto Sans" font-size="166.667" fill="none" font-weight="400" stroke-linecap="square" stroke-width="1"/>
  <g font-style="normal" stroke-linejoin="bevel" stroke="#000000" stroke-opacity="1" transform="matrix(47.2424,0,0,47.2424,0,0)" font-family="Noto Sans" font-size="166.667" fill="none" font-weight="400" stroke-linecap="square" stroke-width="1"/>
  <g font-style="normal" stroke-linejoin="bevel" stroke="#000000" stroke-opacity="1" transform="matrix(1,0,0,1,0,0)" font-family="Noto Sans" font-size="166.667" fill="none" font-weight="400" stroke-linecap="square" stroke-width="1"/>
 </g>
 <defs/>
 <g fill-rule="evenodd" stroke-linejoin="bevel" stroke="black" id="Map 1: Background" fill="none" stroke-linecap="square" inkscape:groupmode="layer" inkscape:label="Map 1: Background" stroke-width="1">
  <g font-style="normal" stroke-linejoin="bevel" stroke="#000000" stroke-opacity="1" transform="matrix(1,0,0,1,0,0)" font-family="Noto Sans" font-size="166.667" fill="none" font-weight="400" stroke-linecap="square" stroke-width="1"/>
  <g font-style="normal" stroke-linejoin="bevel" stroke="#000000" stroke-opacity="1" transform="matrix(1,0,0,1,0,0)" font-family="Noto Sans" font-size="166.667" fill="none" font-weight="400" stroke-linecap="square" stroke-width="1"/>
  <g font-style="normal" stroke-linejoin="bevel" stroke="#000000" stroke-opacity="1" transform="matrix(47.2424,0,0,47.2424,777.249,-113.467)" font-family="Noto Sans" font-size="166.667" fill="none" font-weight="400" stroke-linecap="square" stroke-width="1"/>
  <g font-style="normal" stroke="none" transform="matrix(47.2424,0,0,47.2424,777.249,-113.467)" font-family="Noto Sans" font-size="166.667" fill="#ffffff" fill-opacity="1" font-weight="400">
   <path fill-rule="evenodd" vector-effect="none" d="M0,0 L332.89,0 L332.89,230.813 L0,230.813 L0,0"/>
  </g>
  <g font-style="normal" stroke-linejoin="bevel" stroke="#000000" stroke-opacity="1" transform="matrix(47.2424,0,0,47.2424,777.249,-113.467)" font-family="Noto Sans" font-size="166.667" fill="none" font-weight="400" stroke-linecap="square" stroke-width="1"/>
  <g font-style="normal" stroke-linejoin="bevel" stroke="#000000" stroke-opacity="1" transform="matrix(47.2424,0,0,47.2424,777.249,-113.467)" font-family="Noto Sans" font-size="166.667" fill="none" font-weight="400" stroke-linecap="square" stroke-width="1"/>
  <g font-style="normal" stroke-linejoin="bevel" stroke="#000000" stroke-opacity="1" transform="matrix(47.2424,0,0,47.2424,777.249,-113.467)" font-family="Noto Sans" font-size="166.667" fill="none" font-weight="400" stroke-linecap="square" stroke-width="1"/>
  <g font-style="normal" stroke-linejoin="bevel" stroke="#000000" stroke-opacity="1" transform="matrix(47.2424,0,0,47.2424,777.249,-113.467)" font-family="Noto Sans" font-size="166.667" fill="none" font-weight="400" stroke-linecap="square" stroke-width="1"/>
  <g font-style="normal" stroke-linejoin="bevel" stroke="#000000" stroke-opacity="1" transform="matrix(1,0,0,1,0,0)" font-family="Noto Sans" font-size="166.667" fill="none" font-weight="400" stroke-linecap="square" stroke-width="1"/>
  <g font-style="normal" stroke-linejoin="bevel" stroke="#000000" stroke-opacity="1" transform="matrix(47.2424,0,0,47.2424,777.249,-113.467)" font-family="Noto Sans" font-size="166.667" fill="none" font-weight="400" stroke-linecap="square" stroke-width="1"/>
  <g font-style="normal" stroke-linejoin="bevel" stroke="#000000" stroke-opacity="1" transform="matrix(47.2424,0,0,47.2424,777.249,-113.467)" font-family="Noto Sans" font-size="166.667" fill="none" font-weight="400" stroke-linecap="square" stroke-width="1"/>
  <g font-style="normal" stroke-linejoin="bevel" stroke="#000000" stroke-opacity="1" transform="matrix(1,0,0,1,0,0)" font-family="Noto Sans" font-size="166.667" fill="none" font-weight="400" stroke-linecap="square" stroke-width="1"/>
 </g>
 <defs/>
 <g fill-rule="evenodd" stroke-linejoin="bevel" stroke="black" id="Map 1: fid_29" fill="none" stroke-linecap="square" inkscape:groupmode="layer" inkscape:label="Map 1: fid_29" stroke-width="1">
  <g font-style="normal" stroke-linejoin="bevel" stroke="#000000" stroke-opacity="1" transform="matrix(1,0,0,1,0,0)" font-family="Noto Sans" font-size="166.667" fill="none" font-weight="400" stroke-linecap="square" stroke-width="1"/>
  <g font-style="normal" stroke-linejoin="bevel" stroke="#000000" stroke-opacity="1" transform="matrix(1,0,0,1,0,0)" font-family="Noto Sans" font-size="166.667" fill="none" font-weight="400" stroke-linecap="square" stroke-width="1"/>
  <g font-style="normal" stroke-linejoin="bevel" stroke="#000000" stroke-opacity="1" transform="matrix(47.2424,0,0,47.2424,777.249,-113.467)" font-family="Noto Sans" font-size="166.667" fill="none" font-weight="400" stroke-linecap="square" stroke-width="1"/>
  <g font-style="normal" stroke-linejoin="bevel" stroke="#000000" stroke-opacity="1" transform="matrix(47.2424,0,0,47.2424,777.249,-113.467)" font-family="Noto Sans" font-size="166.667" fill="none" font-weight="400" stroke-linecap="square" stroke-width="1"/>
  <g font-style="normal" stroke="none" transform="matrix(0.999965,0,0,0.999965,777.249,-113.467)" font-family="Noto Sans" font-size="166.667" fill="#000000" fill-opacity="0" font-weight="400">
   <rect y="0" height="10905" width="15727" x="0"/>
  </g>
  <g font-style="normal" stroke-linejoin="bevel" stroke="#000000" stroke-opacity="1" transform="matrix(0.999965,0,0,0.999965,777.249,-113.467)" font-family="Noto Sans" font-size="166.667" fill="none" font-weight="400" stroke-linecap="square" stroke-width="1"/>
  <g font-style="normal" stroke-linejoin="bevel" stroke="#232323" stroke-opacity="1" transform="matrix(0.999965,0,0,0.999965,777.249,-113.467)" font-family="Noto Sans" font-size="166.667" fill="none" font-weight="400" stroke-linecap="square" stroke-width="12.2835">
   <path fill-rule="evenodd" vector-effect="none" d="M4070.2,3400.69 L4052.12,3371.2 L4095.89,3345.51 L4126.34,3277.95 L4104.45,3241.79 L4088.28,3213.25 L4054.02,3192.31 L4035.95,3170.43 L4030.24,3114.29 L4054.98,3120 L4073.05,3091.45 L4103.5,3094.31 L4101.6,3134.27 L4152.98,3152.35 L4168.2,3155.21 L4183.43,3120 L4220.54,3126.66 L4247.18,3152.35 L4282.38,3152.35 L4309.98,3085.75 L4348.99,3071.47 L4361.36,3017.24 L4378.49,3008.67 L4387.05,2976.32 L4400.37,2951.58 L4431.77,2942.07 L4447.95,2929.7 L4484.1,2958.24 L4504.08,2970.61 L4525.02,2972.52 L4557.37,2990.6 L4559.27,3005.82 L4578.3,3008.67 L4582.11,3031.51 L4618.27,3027.7 L4644.91,3031.51 L4659.18,3052.44 L4671.55,3074.33 L4702,3074.33 L4735.3,3075.28 L4747.67,3061.96 L4763.85,3078.13 L4784.78,3107.63 L4801.91,3139.03 L4782.88,3159.01 L4805.71,3188.51 L4859.95,3223.71 L4890.4,3211.34 L4878.98,3192.31 L4883.73,3186.6 L4898.01,3200.88 L4923.7,3232.28 L4959.85,3261.77 L4977.93,3277 L5005.53,3263.68 L5027.41,3274.14 L5026.46,3294.12 L4985.55,3292.22 L4925.6,3329.33 L4942.73,3361.68 L4945.58,3380.71 L4886.59,3413.06 L4747.67,3414.97 L4663.94,3405.45 L4604.94,3345.51 L4591.62,3299.83 L4553.56,3307.45 L4551.66,3371.2 L4603.04,3435.9 L4629.68,3506.31 L4630.63,3569.11 L4585.91,3576.72 L4549.76,3562.45 L4528.82,3636.67 L4588.77,3742.28 L4603.99,3832.68 L4591.62,3842.43 L4537.39,3850.99 L4506.94,3845.28 L4437.48,3776.77 L4397.52,3698.75 L4352.8,3608.36 L4310.93,3426.62 L4262.4,3427.57 L4198.65,3373.34 L4070.2,3400.69"/>
  </g>
  <g font-style="normal" stroke-linejoin="bevel" stroke="#000000" stroke-opacity="1" transform="matrix(0.999965,0,0,0.999965,777.249,-113.467)" font-family="Noto Sans" font-size="166.667" fill="none" font-weight="400" stroke-linecap="square" stroke-width="1"/>
  <g font-style="normal" stroke-linejoin="bevel" stroke="#000000" stroke-opacity="1" transform="matrix(47.2424,0,0,47.2424,777.249,-113.467)" font-family="Noto Sans" font-size="166.667" fill="none" font-weight="400" stroke-linecap="square" stroke-width="1"/>
  <g font-style="normal" stroke-linejoin="bevel" stroke="#000000" stroke-opacity="1" transform="matrix(47.2424,0,0,47.2424,777.249,-113.467)" font-family="Noto Sans" font-size="166.667" fill="none" font-weight="400" stroke-linecap="square" stroke-width="1"/>
  <g font-style="normal" stroke-linejoin="bevel" stroke="#000000" stroke-opacity="1" transform="matrix(47.2424,0,0,47.2424,777.249,-113.467)" font-family="Noto Sans" font-size="166.667" fill="none" font-weight="400" stroke-linecap="square" stroke-width="1"/>
  <g font-style="normal" stroke-linejoin="bevel" stroke="#000000" stroke-opacity="1" transform="matrix(1,0,0,1,0,0)" font-family="Noto Sans" font-size="166.667" fill="none" font-weight="400" stroke-linecap="square" stroke-width="1"/>
  <g font-style="normal" stroke-linejoin="bevel" stroke="#000000" stroke-opacity="1" transform="matrix(47.2424,0,0,47.2424,777.249,-113.467)" font-family="Noto Sans" font-size="166.667" fill="none" font-weight="400" stroke-linecap="square" stroke-width="1"/>
  <g font-style="normal" stroke-linejoin="bevel" stroke="#000000" stroke-opacity="1" transform="matrix(47.2424,0,0,47.2424,777.249,-113.467)" font-family="Noto Sans" font-size="166.667" fill="none" font-weight="400" stroke-linecap="square" stroke-width="1"/>
  <g font-style="normal" stroke-linejoin="bevel" stroke="#000000" stroke-opacity="1" transform="matrix(1,0,0,1,0,0)" font-family="Noto Sans" font-size="166.667" fill="none" font-weight="400" stroke-linecap="square" stroke-width="1"/>
 </g>
 <defs/>
 <metadata>
  <rdf:RDF xmlns:rdf="http://www.w3.org/1999/02/22-rdf-syntax-ns#" xmlns:dc="http://purl.org/dc/elements/1.1/" xmlns:rdfs="http://www.w3.org/2000/01/rdf-schema#">
   <rdf:Description dc:date="2023-10-07T15:41:53" dc:format="image/svg+xml" dc:description="" dc:title="Bergen Boligområder" dc:identifier="">
    <dc:creator>
     <rdf:Bag>
      <rdf:li>Lukas</rdf:li>
     </rdf:Bag>
    </dc:creator>
    <dc:publisher>
     <rdf:Bag>
      <rdf:li>QGIS 3.32.3-Lima</rdf:li>
     </rdf:Bag>
    </dc:publisher>
    <dc:subject>
     <rdf:Bag/>
    </dc:subject>
   </rdf:Description>
   <cc:Work rdf:about="">
    <dc:format>image/svg+xml</dc:format>
    <dc:title>Bergen Boligområder</dc:title>
    <dc:date>2023-10-07T15:41:53</dc:date>
    <dc:identifier></dc:identifier>
    <dc:description></dc:description>
    <dc:creator>
     <cc:Agent>
      <dc:title>Lukas</dc:title>
     </cc:Agent>
    </dc:creator>
    <dc:publisher>
     <cc:Agent>
      <dc:title>QGIS 3.32.3-Lima</dc:title>
     </cc:Agent>
    </dc:publisher>
   </cc:Work>
  </rdf:RDF>
 </metadata>
</svg>
