<svg xmlns="http://www.w3.org/2000/svg" version="1.2" baseProfile="tiny" xmlns:inkscape="http://www.inkscape.org/namespaces/inkscape" width="315.045mm" viewBox="3462.0 2072.19 382.69 345.07" height="227.076mm" xmlns:xlink="http://www.w3.org/1999/xlink" xmlns:cc="http://creativecommons.org/ns#">
<g inkscape:groupmode="layer" stroke-width="1" stroke-linejoin="bevel" stroke-linecap="square" inkscape:label="Map 1: fid_74" fill="none" stroke="black" id="Map 1: fid_74" fill-rule="evenodd">
  <g fill-opacity="1" stroke-width="2" stroke-linejoin="bevel" font-weight="400" stroke-linecap="square" font-size="83.3333" font-style="normal" fill="#729b6f" stroke-opacity="1"  font-family="Noto Sans" stroke="#232323">
   <path d="M3474.87,2214.03 L3467,2220.5 L3467.52,2233.38 L3477.82,2239.57 L3489.68,2245.76 L3520.61,2270.5 L3572.67,2281.84 L3585.56,2291.63 L3591.23,2303.49 L3606.18,2316.38 L3617.52,2330.3 L3631.95,2335.97 L3642.78,2341.12 L3669.07,2384.42 L3690.2,2384.42 L3704.12,2401.43 L3722.16,2412.26 L3735.05,2410.19 L3750,2396.79 L3760.82,2375.66 L3774.74,2378.75 L3792.27,2392.67 L3812.37,2406.59 L3821.14,2406.59 L3830.93,2395.76 L3831.96,2342.67 L3839.69,2329.26 L3827.84,2308.13 L3815.98,2294.21 L3801.03,2285.45 L3785.05,2282.36 L3771.65,2277.2 L3759.79,2270.5 L3758.25,2261.22 L3765.46,2236.99 L3781.96,2222.04 L3794.85,2206.58 L3807.22,2197.82 L3807.73,2184.93 L3802.58,2175.65 L3792.27,2164.31 L3774.23,2158.64 L3726.29,2158.12 L3706.18,2172.04 L3687.11,2164.83 L3668.04,2153.48 L3656.7,2143.17 L3627.31,2114.82 L3577.83,2077.19 L3562.36,2089.56 L3559.79,2110.18 L3550.51,2112.76 L3533.5,2108.64 L3523.7,2102.45 L3515.99,2116 L3517.96,2124.55 L3516.32,2129.49 L3506.45,2140.01 L3503.16,2141 L3535.04,2154 L3538.65,2153.48 L3539.68,2149.88 L3537.88,2144.21 L3534.79,2141.37 L3532.72,2137.25 L3534.27,2135.44 L3537.88,2139.05 L3541.23,2138.79 L3545.35,2136.99 L3546.9,2135.7 L3559.79,2145.49 L3559.79,2149.36 L3562.36,2152.97 L3568.03,2153.23 L3572.16,2151.16 L3572.67,2148.33 L3577.57,2146.78 L3585.56,2145.75 L3589.68,2149.62 L3594.07,2149.62 L3600.77,2150.39 L3605.92,2151.68 L3608.5,2154.77 L3608.5,2156.84 L3604.38,2162.76 L3601.8,2165.34 L3598.45,2166.89 L3595.87,2168.18 L3593.81,2168.69 L3593.04,2177.71 L3594.58,2183.64 L3599.99,2185.96 L3600.77,2189.31 L3601.8,2195.5 L3601.54,2202.46 L3603.09,2205.81 L3607.47,2209.93 L3611.59,2214.05 L3617.78,2217.4 L3621.64,2218.18 L3628.09,2216.12 L3636.08,2214.31 L3640.97,2216.37 L3644.58,2222.04 L3648.71,2225.65 L3658.24,2225.91 L3668.04,2232.61 L3673.71,2233.64 L3678.35,2238.02 L3683.76,2238.8 L3686.08,2246.27 L3684.53,2250.91 L3678.86,2255.55 L3668.3,2257.1 L3668.55,2260.45 L3665.98,2260.19 L3654.64,2257.61 L3645.36,2243.95 L3635.05,2243.69 L3632.47,2236.74 L3627.31,2232.1 L3621.39,2228.75 L3613.65,2224.11 L3608.24,2214.31 L3598.71,2214.05 L3593.55,2207.09 L3583.24,2203.23 L3576.8,2204 L3573.19,2200.91 L3563.39,2203.49 L3556.95,2201.42 L3549.73,2201.17 L3545.35,2198.85 L3524.73,2194.72 L3520.35,2197.56 L3510.82,2196.79 L3510.04,2193.18 L3504.11,2191.89 L3497.57,2191.66 L3495.59,2195.61 L3474.87,2214.03" vector-effect="none" fill-rule="evenodd"/>

</g>
</g>
</svg>