<svg xmlns="http://www.w3.org/2000/svg" version="1.2" baseProfile="tiny" xmlns:inkscape="http://www.inkscape.org/namespaces/inkscape" width="315.045mm" viewBox="1570.48 884.648 162.7 147.282" height="227.076mm" xmlns:xlink="http://www.w3.org/1999/xlink" xmlns:cc="http://creativecommons.org/ns#">
<g stroke-linejoin="bevel" stroke="black" inkscape:label="Map 1: fid_74" fill-rule="evenodd" stroke-linecap="square" inkscape:groupmode="layer" stroke-width="1" fill="none" id="Map 1: fid_74">
  <g stroke-linejoin="bevel"  fill-opacity="1" stroke="#232323" font-style="normal" stroke-linecap="square" font-family="Noto Sans" font-size="41.6667" font-weight="400" stroke-width="1" fill="#e15989" stroke-opacity="1">
   <path d="M1578.7,945.713 L1575.48,948.364 L1575.69,953.644 L1579.91,956.179 L1584.77,958.713 L1597.44,968.851 L1618.77,973.498 L1624.05,977.511 L1626.38,982.369 L1632.5,987.649 L1637.15,993.351 L1643.06,995.675 L1647.5,997.787 L1658.27,1015.53 L1666.93,1015.53 L1672.63,1022.5 L1680.02,1026.93 L1685.3,1026.09 L1691.43,1020.6 L1695.86,1011.94 L1701.57,1013.21 L1708.75,1018.91 L1716.99,1024.61 L1720.58,1024.61 L1724.59,1020.17 L1725.01,998.42 L1728.18,992.929 L1723.32,984.269 L1718.46,978.567 L1712.34,974.976 L1705.79,973.709 L1700.3,971.597 L1695.44,968.851 L1694.81,965.049 L1697.77,955.123 L1704.52,948.998 L1709.8,942.661 L1714.87,939.071 L1715.08,933.791 L1712.97,929.989 L1708.75,925.342 L1701.36,923.019 L1681.71,922.808 L1673.48,928.51 L1665.66,925.554 L1657.85,920.907 L1653.2,916.683 L1641.16,905.066 L1620.89,889.648 L1614.55,894.717 L1613.49,903.165 L1609.69,904.221 L1602.72,902.532 L1598.71,899.997 L1595.55,905.549 L1596.36,909.053 L1595.68,911.075 L1591.64,915.388 L1590.29,915.792 L1603.36,921.118 L1604.83,920.907 L1605.26,919.428 L1604.52,917.105 L1603.25,915.944 L1602.4,914.254 L1603.04,913.515 L1604.52,914.993 L1605.89,914.887 L1607.58,914.148 L1608.21,913.62 L1613.49,917.633 L1613.49,919.217 L1614.55,920.696 L1616.87,920.801 L1618.56,919.956 L1618.77,918.795 L1620.78,918.161 L1624.05,917.739 L1625.74,919.323 L1627.54,919.323 L1630.28,919.64 L1632.4,920.168 L1633.45,921.435 L1633.45,922.28 L1631.76,924.709 L1630.71,925.765 L1629.33,926.398 L1628.28,926.926 L1627.43,927.138 L1627.12,930.834 L1627.75,933.263 L1629.97,934.213 L1630.28,935.586 L1630.71,938.12 L1630.6,940.972 L1631.23,942.345 L1633.03,944.034 L1634.72,945.724 L1637.25,947.097 L1638.84,947.414 L1641.48,946.569 L1644.75,945.83 L1646.76,946.674 L1648.24,948.998 L1649.93,950.476 L1653.83,950.582 L1657.85,953.327 L1660.17,953.75 L1662.07,955.545 L1664.29,955.862 L1665.24,958.924 L1664.61,960.825 L1662.28,962.726 L1657.95,963.36 L1658.06,964.733 L1657,964.627 L1652.36,963.571 L1648.55,957.974 L1644.33,957.868 L1643.27,955.017 L1641.16,953.116 L1638.73,951.743 L1635.56,949.842 L1633.35,945.83 L1629.44,945.724 L1627.33,942.873 L1623.1,941.289 L1620.46,941.605 L1618.98,940.338 L1614.97,941.394 L1612.33,940.549 L1609.37,940.444 L1607.58,939.493 L1599.13,937.804 L1597.34,938.965 L1593.43,938.648 L1593.11,937.17 L1590.68,936.642 L1588,936.548 L1587.19,938.165 L1578.7,945.713" fill-rule="evenodd" vector-effect="none"/>

</g>
</g>
</svg>