<svg xmlns="http://www.w3.org/2000/svg" version="1.2" baseProfile="tiny" xmlns:inkscape="http://www.inkscape.org/namespaces/inkscape" width="315.045mm" viewBox="2995.76 2111.95 380.34 345.98" height="227.076mm" xmlns:xlink="http://www.w3.org/1999/xlink" xmlns:cc="http://creativecommons.org/ns#">
<g inkscape:groupmode="layer" stroke-width="1" stroke-linejoin="bevel" stroke-linecap="square" inkscape:label="Map 1: fid_74" fill="none" stroke="black" id="Map 1: fid_74" fill-rule="evenodd">
  <g stroke-width="1" stroke-linejoin="bevel" font-weight="400" stroke-linecap="square" font-size="83.3333" font-style="normal" fill="none" stroke-opacity="1" transform="matrix(1,0,0,1,0,0)" font-family="Noto Sans" stroke="#000000"/>
  <g stroke-width="1" stroke-linejoin="bevel" font-weight="400" stroke-linecap="square" font-size="83.3333" font-style="normal" fill="none" stroke-opacity="1" transform="matrix(1,0,0,1,0,0)" font-family="Noto Sans" stroke="#000000"/>
  <g stroke-width="1" stroke-linejoin="bevel" font-weight="400" stroke-linecap="square" font-size="83.3333" font-style="normal" fill="none" stroke-opacity="1" transform="matrix(23.6177,0,0,23.6177,23.6177,23.6177)" font-family="Noto Sans" stroke="#000000"/>
  <g stroke-width="1" stroke-linejoin="bevel" font-weight="400" stroke-linecap="square" font-size="83.3333" font-style="normal" fill="none" stroke-opacity="1" transform="matrix(23.6177,0,0,23.6177,23.6177,23.6177)" font-family="Noto Sans" stroke="#000000"/>
  <g fill-opacity="0" font-weight="400" font-size="83.3333" font-style="normal" fill="#000000" transform="matrix(0.999817,0,0,0.999817,23.6177,23.6177)" font-family="Noto Sans" stroke="none">
   <rect y="0" width="7395" height="5318" x="0"/>
  </g>
  <g stroke-width="1" stroke-linejoin="bevel" font-weight="400" stroke-linecap="square" font-size="83.3333" font-style="normal" fill="none" stroke-opacity="1" transform="matrix(0.999817,0,0,0.999817,23.6177,23.6177)" font-family="Noto Sans" stroke="#000000"/>
  <g fill-opacity="1" stroke-width="2" stroke-linejoin="bevel" font-weight="400" stroke-linecap="square" font-size="83.3333" font-style="normal" fill="#becf50" stroke-opacity="1" transform="matrix(0.999817,0,0,0.999817,23.6177,23.6177)" font-family="Noto Sans" stroke="#232323">
   <path d="M2982.95,2216.91 L2975.76,2222.82 L2976.23,2234.58 L2985.64,2240.23 L2996.47,2245.88 L3024.72,2268.48 L3072.26,2278.83 L3084.03,2287.78 L3089.21,2298.6 L3102.86,2310.37 L3113.21,2323.08 L3126.39,2328.26 L3136.28,2332.97 L3160.29,2372.51 L3179.59,2372.51 L3192.3,2388.04 L3208.77,2397.93 L3220.54,2396.05 L3234.19,2383.81 L3244.08,2364.51 L3256.79,2367.33 L3272.79,2380.04 L3291.15,2392.75 L3299.15,2392.75 L3308.1,2382.87 L3309.04,2334.38 L3316.1,2322.14 L3305.27,2302.84 L3294.45,2290.13 L3280.79,2282.13 L3266.2,2279.3 L3253.96,2274.6 L3243.14,2268.48 L3241.72,2260 L3248.31,2237.88 L3263.38,2224.23 L3275.15,2210.11 L3286.44,2202.1 L3286.91,2190.34 L3282.21,2181.86 L3272.79,2171.51 L3256.32,2166.33 L3212.54,2165.86 L3194.18,2178.57 L3176.76,2171.98 L3159.35,2161.62 L3148.99,2152.21 L3122.16,2126.32 L3076.97,2091.95 L3062.85,2103.25 L3060.49,2122.08 L3052.02,2124.43 L3036.48,2120.67 L3027.54,2115.02 L3020.5,2127.39 L3022.3,2135.2 L3020.8,2139.71 L3011.78,2149.32 L3008.78,2150.22 L3037.9,2162.09 L3041.19,2161.62 L3042.13,2158.33 L3040.49,2153.15 L3037.66,2150.56 L3035.78,2146.79 L3037.19,2145.15 L3040.49,2148.44 L3043.54,2148.21 L3047.31,2146.56 L3048.72,2145.38 L3060.49,2154.32 L3060.49,2157.86 L3062.85,2161.15 L3068.02,2161.39 L3071.79,2159.5 L3072.26,2156.91 L3076.73,2155.5 L3084.03,2154.56 L3087.79,2158.09 L3091.8,2158.09 L3097.91,2158.8 L3102.62,2159.97 L3104.98,2162.8 L3104.98,2164.68 L3101.21,2170.09 L3098.86,2172.45 L3095.8,2173.86 L3093.44,2175.04 L3091.56,2175.51 L3090.85,2183.75 L3092.27,2189.16 L3097.21,2191.28 L3097.91,2194.34 L3098.86,2199.99 L3098.62,2206.34 L3100.03,2209.4 L3104.03,2213.17 L3107.8,2216.93 L3113.45,2219.99 L3116.98,2220.7 L3122.86,2218.82 L3130.16,2217.17 L3134.63,2219.05 L3137.93,2224.23 L3141.69,2227.52 L3150.4,2227.76 L3159.35,2233.88 L3164.52,2234.82 L3168.76,2238.82 L3173.7,2239.53 L3175.82,2246.35 L3174.41,2250.59 L3169.23,2254.83 L3159.58,2256.24 L3159.82,2259.3 L3157.46,2259.06 L3147.11,2256.71 L3138.63,2244.23 L3129.22,2244 L3126.86,2237.64 L3122.16,2233.41 L3116.74,2230.35 L3109.68,2226.11 L3104.74,2217.17 L3096.03,2216.93 L3091.32,2210.58 L3081.91,2207.05 L3076.03,2207.75 L3072.73,2204.93 L3063.79,2207.28 L3057.9,2205.4 L3051.31,2205.16 L3047.31,2203.05 L3028.48,2199.28 L3024.48,2201.87 L3015.77,2201.16 L3015.07,2197.87 L3009.65,2196.69 L3003.67,2196.48 L3001.87,2200.09 L2982.95,2216.91" vector-effect="none" fill-rule="evenodd"/>
  </g>
  <g stroke-width="1" stroke-linejoin="bevel" font-weight="400" stroke-linecap="square" font-size="83.3333" font-style="normal" fill="none" stroke-opacity="1" transform="matrix(0.999817,0,0,0.999817,23.6177,23.6177)" font-family="Noto Sans" stroke="#000000"/>
  <g stroke-width="1" stroke-linejoin="bevel" font-weight="400" stroke-linecap="square" font-size="83.3333" font-style="normal" fill="none" stroke-opacity="1" transform="matrix(23.6177,0,0,23.6177,23.6177,23.6177)" font-family="Noto Sans" stroke="#000000"/>
  <g stroke-width="1" stroke-linejoin="bevel" font-weight="400" stroke-linecap="square" font-size="83.3333" font-style="normal" fill="none" stroke-opacity="1" transform="matrix(23.6177,0,0,23.6177,23.6177,23.6177)" font-family="Noto Sans" stroke="#000000"/>
  <g stroke-width="1" stroke-linejoin="bevel" font-weight="400" stroke-linecap="square" font-size="83.3333" font-style="normal" fill="none" stroke-opacity="1" transform="matrix(23.6177,0,0,23.6177,23.6177,23.6177)" font-family="Noto Sans" stroke="#000000"/>
  <g stroke-width="1" stroke-linejoin="bevel" font-weight="400" stroke-linecap="square" font-size="83.3333" font-style="normal" fill="none" stroke-opacity="1" transform="matrix(1,0,0,1,0,0)" font-family="Noto Sans" stroke="#000000"/>
  <g stroke-width="1" stroke-linejoin="bevel" font-weight="400" stroke-linecap="square" font-size="83.3333" font-style="normal" fill="none" stroke-opacity="1" transform="matrix(23.6177,0,0,23.6177,23.6177,23.6177)" font-family="Noto Sans" stroke="#000000"/>
  <g stroke-width="1" stroke-linejoin="bevel" font-weight="400" stroke-linecap="square" font-size="83.3333" font-style="normal" fill="none" stroke-opacity="1" transform="matrix(23.6177,0,0,23.6177,23.6177,23.6177)" font-family="Noto Sans" stroke="#000000"/>
  <g stroke-width="1" stroke-linejoin="bevel" font-weight="400" stroke-linecap="square" font-size="83.3333" font-style="normal" fill="none" stroke-opacity="1" transform="matrix(1,0,0,1,0,0)" font-family="Noto Sans" stroke="#000000"/>
 </g>
 
</svg>