<svg xmlns="http://www.w3.org/2000/svg" version="1.2" baseProfile="tiny" xmlns:inkscape="http://www.inkscape.org/namespaces/inkscape" width="315.045mm" viewBox="1436.27 1281.2 89.86 197.01" height="227.076mm" xmlns:xlink="http://www.w3.org/1999/xlink" xmlns:cc="http://creativecommons.org/ns#">
<g stroke-linejoin="bevel" stroke="black" inkscape:label="Map 1: fid_41" fill-rule="evenodd" stroke-linecap="square" inkscape:groupmode="layer" stroke-width="1" fill="none" id="Map 1: fid_41">
  <g stroke-linejoin="bevel"  fill-opacity="1" stroke="#232323" font-style="normal" stroke-linecap="square" font-family="Noto Sans" font-size="41.6667" font-weight="400" stroke-width="1" fill="#e8718d" stroke-opacity="1">
   <path d="M1470.41,1452.09 L1459.19,1453.09 L1454.9,1454.97 L1451.23,1460.84 L1452.8,1464.3 L1451.44,1468.91 L1453.95,1471.11 L1457.62,1469.54 L1461.6,1472.16 L1463.8,1473.21 L1465.17,1469.33 L1466.53,1460.63 L1478.79,1453.69 L1484.03,1450.97 L1486.23,1448.24 L1490.84,1446.77 L1494.82,1443.94 L1497.76,1428.43 L1497.44,1415.23 L1503,1409.26 L1515.15,1393.17 L1517.77,1387.51 L1516.41,1366.13 L1511.8,1361.31 L1507.4,1351.67 L1509.7,1342.87 L1520.6,1318.19 L1521.13,1308.96 L1510.02,1292.2 L1505.28,1286.2 L1499.19,1291.26 L1497.44,1297.7 L1494.66,1297.87 L1493.09,1294.74 L1492.39,1291.78 L1488.21,1291.43 L1490.48,1287.08 L1486.82,1287.6 L1481.59,1295.26 L1477.06,1293.52 L1472.4,1293.48 L1470.41,1296.41 L1467.47,1299.35 L1467.05,1303.54 L1462.02,1306.37 L1458.98,1305.64 L1454.06,1301.86 L1454.79,1291.07 L1451.02,1286.56 L1445.04,1288.66 L1444.1,1300.61 L1447.45,1306.37 L1446.41,1311.4 L1441.38,1317.27 L1441.27,1326.33 L1444.63,1329.06 L1446.72,1335.14 L1453.43,1342.68 L1462.23,1341.43 L1466.84,1339.33 L1475.86,1345.2 L1476.69,1358.4 L1485.5,1367.21 L1486.54,1377.69 L1492.83,1385.65 L1483.4,1405.98 L1484.66,1418.56 L1479.84,1446.22 L1477.32,1446.64 L1475.44,1451.67 L1470.41,1452.09" fill-rule="evenodd" vector-effect="none"/>

</g>
</g>
</svg>