<svg xmlns="http://www.w3.org/2000/svg" version="1.2" baseProfile="tiny" xmlns:inkscape="http://www.inkscape.org/namespaces/inkscape" width="315.045mm" viewBox="2293.64 933.491 214.15 233.299" height="227.076mm" xmlns:xlink="http://www.w3.org/1999/xlink" xmlns:cc="http://creativecommons.org/ns#">
<g stroke-linejoin="bevel" stroke="black" inkscape:label="Map 1: fid_24" fill-rule="evenodd" stroke-linecap="square" inkscape:groupmode="layer" stroke-width="1" fill="none" id="Map 1: fid_24">
  <g stroke-linejoin="bevel"  fill-opacity="1" stroke="#232323" font-style="normal" stroke-linecap="square" font-family="Noto Sans" font-size="41.6667" font-weight="400" stroke-width="1" fill="#f3a6b2" stroke-opacity="1">
   <path d="M2309.09,989.701 L2312.58,994.23 L2313.27,1001.89 L2324.07,1009.91 L2336.61,1006.07 L2341.49,998.41 L2347.41,998.759 L2351.59,992.488 L2356.82,990.05 L2362.05,997.017 L2369.01,1000.15 L2375.28,1002.94 L2377.37,1007.47 L2384.34,1004.68 L2393.05,1004.33 L2396.88,1007.82 L2404.2,1007.12 L2413.6,1003.29 L2417.78,995.275 L2421.62,988.308 L2426.84,980.992 L2431.37,974.373 L2434.16,966.709 L2443.56,978.205 L2445.31,978.553 L2448.44,973.328 L2456.8,969.148 L2460.98,963.922 L2462.03,947.897 L2467.95,938.491 L2482.23,969.148 L2486.76,973.328 L2485.72,979.599 L2485.02,982.386 L2482.58,986.566 L2481.88,991.791 L2485.37,994.23 L2490.59,998.41 L2491.99,995.623 L2499.65,1002.94 L2502.79,1033.94 L2502.79,1042.65 L2492.33,1064.6 L2488.85,1079.58 L2458.19,1111.98 L2454.01,1119.99 L2458.89,1154.48 L2428.58,1161.79 L2419.87,1151.34 L2419.18,1141.24 L2416.39,1135.32 L2426.14,1113.37 L2437.29,1107.45 L2434.85,1077.84 L2423.36,1066.69 L2418.13,1072.96 L2409.77,1072.26 L2405.24,1065.3 L2404.89,1057.98 L2391.31,1035.34 L2392.01,1027.67 L2387.13,1027.67 L2366.23,1039.17 L2355.08,1055.19 L2357.17,1062.86 L2350.2,1071.22 L2349.85,1078.88 L2350.55,1087.94 L2348.46,1092.12 L2340.8,1093.17 L2334.18,1089.33 L2333.13,1083.76 L2327.91,1077.14 L2324.77,1071.57 L2320.94,1068.08 L2318.5,1075.05 L2314.67,1077.49 L2307,1075.4 L2303.17,1071.57 L2301.78,1065.3 L2302.13,1048.23 L2298.64,1036.38 L2299.69,1017.22 L2308.4,989.004 L2309.09,989.701" fill-rule="evenodd" vector-effect="none"/>

</g>
</g>
</svg>