<svg xmlns="http://www.w3.org/2000/svg" version="1.2" baseProfile="tiny" xmlns:inkscape="http://www.inkscape.org/namespaces/inkscape" width="315.045mm" viewBox="4607.53 2220.81 494.98 537.69" height="227.076mm" xmlns:xlink="http://www.w3.org/1999/xlink" xmlns:cc="http://creativecommons.org/ns#">
<g inkscape:groupmode="layer" stroke-width="1" stroke-linejoin="bevel" stroke-linecap="square" inkscape:label="Map 1: fid_24" fill="none" stroke="black" id="Map 1: fid_24" fill-rule="evenodd">
  <g stroke-width="1" stroke-linejoin="bevel" font-weight="400" stroke-linecap="square" font-size="83.3333" font-style="normal" fill="none" stroke-opacity="1" transform="matrix(1,0,0,1,0,0)" font-family="Noto Sans" stroke="#000000"/>
  <g stroke-width="1" stroke-linejoin="bevel" font-weight="400" stroke-linecap="square" font-size="83.3333" font-style="normal" fill="none" stroke-opacity="1" transform="matrix(1,0,0,1,0,0)" font-family="Noto Sans" stroke="#000000"/>
  <g stroke-width="1" stroke-linejoin="bevel" font-weight="400" stroke-linecap="square" font-size="83.3333" font-style="normal" fill="none" stroke-opacity="1" transform="matrix(23.6177,0,0,23.6177,23.6177,23.6177)" font-family="Noto Sans" stroke="#000000"/>
  <g stroke-width="1" stroke-linejoin="bevel" font-weight="400" stroke-linecap="square" font-size="83.3333" font-style="normal" fill="none" stroke-opacity="1" transform="matrix(23.6177,0,0,23.6177,23.6177,23.6177)" font-family="Noto Sans" stroke="#000000"/>
  <g fill-opacity="0" font-weight="400" font-size="83.3333" font-style="normal" fill="#000000" transform="matrix(0.999817,0,0,0.999817,23.6177,23.6177)" font-family="Noto Sans" stroke="none">
   <rect y="0" width="7395" height="5318" x="0"/>
  </g>
  <g stroke-width="1" stroke-linejoin="bevel" font-weight="400" stroke-linecap="square" font-size="83.3333" font-style="normal" fill="none" stroke-opacity="1" transform="matrix(0.999817,0,0,0.999817,23.6177,23.6177)" font-family="Noto Sans" stroke="#000000"/>
  <g fill-opacity="1" stroke-width="2" stroke-linejoin="bevel" font-weight="400" stroke-linecap="square" font-size="83.3333" font-style="normal" fill="#729b6f" stroke-opacity="1" transform="matrix(0.999817,0,0,0.999817,23.6177,23.6177)" font-family="Noto Sans" stroke="#232323">
   <path d="M4610.82,2314.95 L4618.58,2325.04 L4620.13,2342.12 L4644.2,2359.98 L4672.16,2351.44 L4683.03,2334.36 L4696.22,2335.13 L4705.54,2321.16 L4717.19,2315.72 L4728.83,2331.25 L4744.36,2338.24 L4758.34,2344.45 L4763,2354.54 L4778.53,2348.33 L4797.94,2347.56 L4806.48,2355.32 L4822.78,2353.77 L4843.75,2345.23 L4853.06,2327.37 L4861.6,2311.84 L4873.25,2295.54 L4883.34,2280.78 L4889.55,2263.7 L4910.52,2289.32 L4914.4,2290.1 L4921.39,2278.45 L4940.02,2269.14 L4949.34,2257.49 L4951.67,2221.78 L4964.87,2200.81 L4996.7,2269.14 L5006.79,2278.45 L5004.47,2292.43 L5002.91,2298.64 L4997.48,2307.96 L4995.92,2319.61 L5003.69,2325.04 L5015.33,2334.36 L5018.44,2328.15 L5035.52,2344.45 L5042.51,2413.55 L5042.51,2432.96 L5019.22,2481.88 L5011.45,2515.26 L4943.13,2587.47 L4933.81,2605.33 L4944.68,2682.2 L4877.13,2698.5 L4857.72,2675.21 L4856.17,2652.69 L4849.96,2639.49 L4871.7,2590.58 L4896.54,2577.38 L4891.11,2511.38 L4865.49,2486.54 L4853.84,2500.51 L4835.2,2498.96 L4825.11,2483.43 L4824.33,2467.13 L4794.05,2416.66 L4795.61,2399.58 L4784.74,2399.58 L4738.15,2425.2 L4713.31,2460.91 L4717.96,2478 L4702.44,2496.63 L4701.66,2513.71 L4703.21,2533.9 L4698.55,2543.22 L4681.47,2545.55 L4666.72,2537 L4664.39,2524.58 L4652.74,2509.83 L4645.76,2497.41 L4637.22,2489.64 L4631.78,2505.17 L4623.24,2510.61 L4606.16,2505.95 L4597.62,2497.41 L4594.51,2483.43 L4595.29,2445.39 L4587.53,2418.99 L4589.85,2376.28 L4609.26,2313.39 L4610.82,2314.95" vector-effect="none" fill-rule="evenodd"/>
  </g>
  <g stroke-width="1" stroke-linejoin="bevel" font-weight="400" stroke-linecap="square" font-size="83.3333" font-style="normal" fill="none" stroke-opacity="1" transform="matrix(0.999817,0,0,0.999817,23.6177,23.6177)" font-family="Noto Sans" stroke="#000000"/>
  <g stroke-width="1" stroke-linejoin="bevel" font-weight="400" stroke-linecap="square" font-size="83.3333" font-style="normal" fill="none" stroke-opacity="1" transform="matrix(23.6177,0,0,23.6177,23.6177,23.6177)" font-family="Noto Sans" stroke="#000000"/>
  <g stroke-width="1" stroke-linejoin="bevel" font-weight="400" stroke-linecap="square" font-size="83.3333" font-style="normal" fill="none" stroke-opacity="1" transform="matrix(23.6177,0,0,23.6177,23.6177,23.6177)" font-family="Noto Sans" stroke="#000000"/>
  <g stroke-width="1" stroke-linejoin="bevel" font-weight="400" stroke-linecap="square" font-size="83.3333" font-style="normal" fill="none" stroke-opacity="1" transform="matrix(23.6177,0,0,23.6177,23.6177,23.6177)" font-family="Noto Sans" stroke="#000000"/>
  <g stroke-width="1" stroke-linejoin="bevel" font-weight="400" stroke-linecap="square" font-size="83.3333" font-style="normal" fill="none" stroke-opacity="1" transform="matrix(1,0,0,1,0,0)" font-family="Noto Sans" stroke="#000000"/>
  <g stroke-width="1" stroke-linejoin="bevel" font-weight="400" stroke-linecap="square" font-size="83.3333" font-style="normal" fill="none" stroke-opacity="1" transform="matrix(23.6177,0,0,23.6177,23.6177,23.6177)" font-family="Noto Sans" stroke="#000000"/>
  <g stroke-width="1" stroke-linejoin="bevel" font-weight="400" stroke-linecap="square" font-size="83.3333" font-style="normal" fill="none" stroke-opacity="1" transform="matrix(23.6177,0,0,23.6177,23.6177,23.6177)" font-family="Noto Sans" stroke="#000000"/>
  <g stroke-width="1" stroke-linejoin="bevel" font-weight="400" stroke-linecap="square" font-size="83.3333" font-style="normal" fill="none" stroke-opacity="1" transform="matrix(1,0,0,1,0,0)" font-family="Noto Sans" stroke="#000000"/>
 </g>
 
</svg>