<svg xmlns="http://www.w3.org/2000/svg" version="1.2" baseProfile="tiny" xmlns:inkscape="http://www.inkscape.org/namespaces/inkscape" width="315.045mm" viewBox="5251.99 2216.4 538.23 585.0" height="227.076mm" xmlns:xlink="http://www.w3.org/1999/xlink" xmlns:cc="http://creativecommons.org/ns#">
<g inkscape:groupmode="layer" stroke-width="1" stroke-linejoin="bevel" stroke-linecap="square" inkscape:label="Map 1: fid_24" fill="none" stroke="black" id="Map 1: fid_24" fill-rule="evenodd">
  <g stroke-width="1" stroke-linejoin="bevel" font-weight="400" stroke-linecap="square" font-size="83.3333" font-style="normal" fill="none" stroke-opacity="1" transform="matrix(1,0,0,1,0,0)" font-family="Noto Sans" stroke="#000000"/>
  <g stroke-width="1" stroke-linejoin="bevel" font-weight="400" stroke-linecap="square" font-size="83.3333" font-style="normal" fill="none" stroke-opacity="1" transform="matrix(1,0,0,1,0,0)" font-family="Noto Sans" stroke="#000000"/>
  <g stroke-width="1" stroke-linejoin="bevel" font-weight="400" stroke-linecap="square" font-size="83.3333" font-style="normal" fill="none" stroke-opacity="1" transform="matrix(23.619,0,0,23.619,-728.486,-229.753)" font-family="Noto Sans" stroke="#000000"/>
  <g stroke-width="1" stroke-linejoin="bevel" font-weight="400" stroke-linecap="square" font-size="83.3333" font-style="normal" fill="none" stroke-opacity="1" transform="matrix(23.619,0,0,23.619,-728.486,-229.753)" font-family="Noto Sans" stroke="#000000"/>
  <g fill-opacity="0" font-weight="400" font-size="83.3333" font-style="normal" fill="#000000" transform="matrix(0.999873,0,0,0.999873,-728.486,-229.753)" font-family="Noto Sans" stroke="none">
   <rect y="0" width="8098" height="5627" x="0"/>
  </g>
  <g stroke-width="1" stroke-linejoin="bevel" font-weight="400" stroke-linecap="square" font-size="83.3333" font-style="normal" fill="none" stroke-opacity="1" transform="matrix(0.999873,0,0,0.999873,-728.486,-229.753)" font-family="Noto Sans" stroke="#000000"/>
  <g fill-opacity="1" stroke-width="2" stroke-linejoin="bevel" font-weight="400" stroke-linecap="square" font-size="83.3333" font-style="normal" fill="#e5b636" stroke-opacity="1" transform="matrix(0.999873,0,0,0.999873,-728.486,-229.753)" font-family="Noto Sans" stroke="#232323">
   <path d="M5257.49,2321.39 L5266,2332.44 L5267.7,2351.14 L5294.05,2370.7 L5324.66,2361.35 L5336.57,2342.64 L5351.02,2343.49 L5361.22,2328.19 L5373.98,2322.24 L5386.73,2339.24 L5403.73,2346.89 L5419.04,2353.7 L5424.14,2364.75 L5441.14,2357.95 L5462.4,2357.1 L5471.75,2365.6 L5489.61,2363.9 L5512.56,2354.55 L5522.77,2334.99 L5532.12,2317.99 L5544.87,2300.13 L5555.93,2283.98 L5562.73,2265.27 L5585.68,2293.33 L5589.94,2294.18 L5597.59,2281.43 L5617.99,2271.22 L5628.2,2258.47 L5630.75,2219.36 L5645.2,2196.4 L5680.06,2271.22 L5691.11,2281.43 L5688.56,2296.73 L5686.86,2303.53 L5680.91,2313.73 L5679.21,2326.49 L5687.71,2332.44 L5700.47,2342.64 L5703.87,2335.84 L5722.57,2353.7 L5730.22,2429.37 L5730.22,2450.62 L5704.72,2504.19 L5696.21,2540.75 L5621.39,2619.82 L5611.19,2639.37 L5623.09,2723.55 L5549.12,2741.4 L5527.87,2715.9 L5526.17,2691.24 L5519.37,2676.78 L5543.17,2623.22 L5570.38,2608.77 L5564.43,2536.5 L5536.37,2509.29 L5523.62,2524.59 L5503.21,2522.89 L5492.16,2505.89 L5491.31,2488.03 L5458.15,2432.77 L5459.85,2414.06 L5447.95,2414.06 L5396.93,2442.12 L5369.72,2481.23 L5374.83,2499.94 L5357.82,2520.34 L5356.97,2539.05 L5358.67,2561.15 L5353.57,2571.36 L5334.86,2573.91 L5318.71,2564.55 L5316.16,2550.95 L5303.41,2534.8 L5295.75,2521.19 L5286.4,2512.69 L5280.45,2529.69 L5271.1,2535.65 L5252.39,2530.54 L5243.04,2521.19 L5239.64,2505.89 L5240.49,2464.23 L5231.99,2435.32 L5234.54,2388.55 L5255.79,2319.69 L5257.49,2321.39" vector-effect="none" fill-rule="evenodd"/>
  </g>
  <g stroke-width="1" stroke-linejoin="bevel" font-weight="400" stroke-linecap="square" font-size="83.3333" font-style="normal" fill="none" stroke-opacity="1" transform="matrix(0.999873,0,0,0.999873,-728.486,-229.753)" font-family="Noto Sans" stroke="#000000"/>
  <g stroke-width="1" stroke-linejoin="bevel" font-weight="400" stroke-linecap="square" font-size="83.3333" font-style="normal" fill="none" stroke-opacity="1" transform="matrix(23.619,0,0,23.619,-728.486,-229.753)" font-family="Noto Sans" stroke="#000000"/>
  <g stroke-width="1" stroke-linejoin="bevel" font-weight="400" stroke-linecap="square" font-size="83.3333" font-style="normal" fill="none" stroke-opacity="1" transform="matrix(23.619,0,0,23.619,-728.486,-229.753)" font-family="Noto Sans" stroke="#000000"/>
  <g stroke-width="1" stroke-linejoin="bevel" font-weight="400" stroke-linecap="square" font-size="83.3333" font-style="normal" fill="none" stroke-opacity="1" transform="matrix(23.619,0,0,23.619,-728.486,-229.753)" font-family="Noto Sans" stroke="#000000"/>
  <g stroke-width="1" stroke-linejoin="bevel" font-weight="400" stroke-linecap="square" font-size="83.3333" font-style="normal" fill="none" stroke-opacity="1" transform="matrix(1,0,0,1,0,0)" font-family="Noto Sans" stroke="#000000"/>
  <g stroke-width="1" stroke-linejoin="bevel" font-weight="400" stroke-linecap="square" font-size="83.3333" font-style="normal" fill="none" stroke-opacity="1" transform="matrix(23.619,0,0,23.619,-728.486,-229.753)" font-family="Noto Sans" stroke="#000000"/>
  <g stroke-width="1" stroke-linejoin="bevel" font-weight="400" stroke-linecap="square" font-size="83.3333" font-style="normal" fill="none" stroke-opacity="1" transform="matrix(23.619,0,0,23.619,-728.486,-229.753)" font-family="Noto Sans" stroke="#000000"/>
  <g stroke-width="1" stroke-linejoin="bevel" font-weight="400" stroke-linecap="square" font-size="83.3333" font-style="normal" fill="none" stroke-opacity="1" transform="matrix(1,0,0,1,0,0)" font-family="Noto Sans" stroke="#000000"/>
 </g>
 
</svg>