<svg xmlns="http://www.w3.org/2000/svg" version="1.2" baseProfile="tiny" xmlns:inkscape="http://www.inkscape.org/namespaces/inkscape" width="315.045mm" viewBox="1879.13 1116.27 225.08 299.97" height="227.076mm" xmlns:xlink="http://www.w3.org/1999/xlink" xmlns:cc="http://creativecommons.org/ns#">
<g stroke-linejoin="bevel" stroke="black" inkscape:label="Map 1: fid_89" fill-rule="evenodd" stroke-linecap="square" inkscape:groupmode="layer" stroke-width="1" fill="none" id="Map 1: fid_89">
  <g stroke-linejoin="bevel"  fill-opacity="1" stroke="#232323" font-style="normal" stroke-linecap="square" font-family="Noto Sans" font-size="41.6667" font-weight="400" stroke-width="1" fill="#85b66f" stroke-opacity="1">
   <path d="M1898.44,1410.61 L1907.07,1411.24 L1937.67,1399.04 L1938.74,1396.26 L1934.3,1397 L1930.32,1395.45 L1928.5,1393.29 L1928.5,1391.34 L1929.85,1388.71 L1931.2,1387.76 L1935.85,1380.15 L1936.59,1380.15 L1936.25,1379.61 L1929.85,1371.93 L1928.77,1363.84 L1924.12,1356.14 L1921.09,1355.94 L1920.48,1356.68 L1918.26,1356.34 L1916.44,1354.93 L1914.95,1352.77 L1915.09,1350.48 L1914.75,1346.7 L1915.83,1343.27 L1918.46,1342.32 L1919.27,1342.19 L1920.14,1340.84 L1920.88,1336.19 L1919.81,1331.99 L1917.45,1327.41 L1917.11,1323.91 L1918.32,1321.89 L1920.61,1321.48 L1922.23,1322.56 L1922.57,1324.58 L1924.05,1325.32 L1924.79,1324.24 L1925.13,1322.22 L1926.41,1314.39 L1928.3,1311.83 L1932.07,1301.51 L1934.16,1302.59 L1934.77,1304.62 L1935.71,1306.37 L1936.86,1307.65 L1937.13,1309.4 L1938.34,1309.54 L1938.95,1308.19 L1941.17,1310.41 L1942.32,1312.64 L1942.65,1314.59 L1942.58,1316.27 L1941.17,1318.5 L1939.42,1318.63 L1938.74,1316.34 L1937.4,1312.64 L1936.25,1313.11 L1935.37,1318.9 L1936.92,1323.15 L1936.45,1325.24 L1935.1,1325.31 L1934.83,1331.44 L1936.65,1334.88 L1939.15,1335.95 L1941.64,1338.65 L1942.79,1341.88 L1945.35,1344.45 L1947.17,1346.74 L1949.12,1347.48 L1950,1349.16 L1950.94,1350.31 L1952.22,1349.97 L1953.97,1347.41 L1954.99,1343.37 L1954.51,1339.05 L1947.64,1331.1 L1947.24,1327.8 L1948.18,1325.98 L1947.64,1323.96 L1948.18,1322.41 L1949.26,1321.19 L1949.59,1319.37 L1951.68,1318.77 L1951.68,1316.41 L1950.81,1314.93 L1949.05,1314.12 L1948.11,1312.7 L1948.65,1311.35 L1951.08,1309.67 L1952.09,1307.24 L1955.46,1305.49 L1957.07,1303.81 L1973.25,1297.34 L1981.61,1306.77 L1987.81,1306.77 L2003.44,1319.71 L2014.5,1314.32 L2017.46,1305.42 L2023.66,1300.03 L2027.98,1301.11 L2035.52,1292.48 L2051.43,1292.48 L2051.43,1297.34 L2054.12,1301.65 L2059.25,1300.84 L2062.75,1297.61 L2063.56,1292.75 L2063.56,1271.19 L2062.35,1271.54 L2061.34,1266.49 L2053.79,1258.06 L2046.78,1255.5 L2043,1255.3 L2027.91,1270.46 L2019.75,1272.08 L2012.54,1269.99 L2007.42,1263.05 L2002.77,1250.58 L2009.17,1235.45 L2009.98,1217.79 L2025.89,1203.62 L2025.14,1188.32 L2028.85,1167.97 L2038.83,1160.42 L2046.64,1167.97 L2066.59,1169.32 L2074.41,1158.27 L2077.65,1146.94 L2090.32,1149.37 L2099.21,1142.9 L2095.98,1136.63 L2059.58,1121.27 L2049.07,1123.42 L2037.5,1123.74 L1990.12,1141.5 L1982.46,1148.47 L1971.66,1142.2 L1962.6,1143.24 L1952.33,1170.24 L1954.41,1195.01 L1927.18,1201.49 L1909.8,1199.68 L1903.06,1200.45 L1895.02,1202.53 L1890.09,1207.46 L1887.24,1214.72 L1886.46,1220.42 L1887.24,1227.68 L1913.43,1263.21 L1912.14,1274.62 L1914.99,1291.48 L1912.14,1292.26 L1905.91,1291.22 L1889.57,1295.37 L1885.17,1303.93 L1884.13,1310.93 L1884.91,1318.19 L1886.46,1328.04 L1887.93,1356.16 L1897.09,1368.02 L1897.63,1377.99 L1904.64,1384.46 L1898.44,1410.61" fill-rule="evenodd" vector-effect="none"/>

</g>
</g>
</svg>