<svg xmlns="http://www.w3.org/2000/svg" version="1.2" baseProfile="tiny" xmlns:inkscape="http://www.inkscape.org/namespaces/inkscape" width="315.045mm" viewBox="3683.67 2628.17 519.37 686.27" height="227.076mm" xmlns:xlink="http://www.w3.org/1999/xlink" xmlns:cc="http://creativecommons.org/ns#">
<g inkscape:groupmode="layer" stroke-width="1" stroke-linejoin="bevel" stroke-linecap="square" inkscape:label="Map 1: fid_89" fill="none" stroke="black" id="Map 1: fid_89" fill-rule="evenodd">
  <g stroke-width="1" stroke-linejoin="bevel" font-weight="400" stroke-linecap="square" font-size="83.3333" font-style="normal" fill="none" stroke-opacity="1" transform="matrix(1,0,0,1,0,0)" font-family="Noto Sans" stroke="#000000"/>
  <g stroke-width="1" stroke-linejoin="bevel" font-weight="400" stroke-linecap="square" font-size="83.3333" font-style="normal" fill="none" stroke-opacity="1" transform="matrix(1,0,0,1,0,0)" font-family="Noto Sans" stroke="#000000"/>
  <g stroke-width="1" stroke-linejoin="bevel" font-weight="400" stroke-linecap="square" font-size="83.3333" font-style="normal" fill="none" stroke-opacity="1" transform="matrix(23.6177,0,0,23.6177,23.6177,23.6177)" font-family="Noto Sans" stroke="#000000"/>
  <g stroke-width="1" stroke-linejoin="bevel" font-weight="400" stroke-linecap="square" font-size="83.3333" font-style="normal" fill="none" stroke-opacity="1" transform="matrix(23.6177,0,0,23.6177,23.6177,23.6177)" font-family="Noto Sans" stroke="#000000"/>
  <g fill-opacity="0" font-weight="400" font-size="83.3333" font-style="normal" fill="#000000" transform="matrix(0.999817,0,0,0.999817,23.6177,23.6177)" font-family="Noto Sans" stroke="none">
   <rect y="0" width="7395" height="5318" x="0"/>
  </g>
  <g stroke-width="1" stroke-linejoin="bevel" font-weight="400" stroke-linecap="square" font-size="83.3333" font-style="normal" fill="none" stroke-opacity="1" transform="matrix(0.999817,0,0,0.999817,23.6177,23.6177)" font-family="Noto Sans" stroke="#000000"/>
  <g fill-opacity="1" stroke-width="2" stroke-linejoin="bevel" font-weight="400" stroke-linecap="square" font-size="83.3333" font-style="normal" fill="#7d8b8f" stroke-opacity="1" transform="matrix(0.999817,0,0,0.999817,23.6177,23.6177)" font-family="Noto Sans" stroke="#232323">
   <path d="M3695.57,3253.05 L3714.8,3254.44 L3782.99,3227.26 L3785.4,3221.06 L3775.48,3222.71 L3766.62,3219.26 L3762.56,3214.45 L3762.56,3210.1 L3765.57,3204.24 L3768.57,3202.13 L3778.94,3185.16 L3780.59,3185.16 L3779.84,3183.96 L3765.57,3166.84 L3763.17,3148.81 L3752.8,3131.65 L3746.04,3131.2 L3744.69,3132.85 L3739.73,3132.1 L3735.68,3128.94 L3732.37,3124.14 L3732.67,3119.03 L3731.92,3110.62 L3734.32,3102.96 L3740.18,3100.86 L3741.99,3100.56 L3743.94,3097.55 L3745.59,3087.19 L3743.19,3077.84 L3737.93,3067.62 L3737.18,3059.81 L3739.88,3055.31 L3744.99,3054.4 L3748.59,3056.81 L3749.35,3061.31 L3752.65,3062.97 L3754.3,3060.56 L3755.05,3056.06 L3757.91,3038.59 L3762.11,3032.89 L3770.53,3009.9 L3775.18,3012.31 L3776.53,3016.81 L3778.64,3020.72 L3781.19,3023.57 L3781.79,3027.48 L3784.49,3027.78 L3785.85,3024.78 L3790.8,3029.73 L3793.36,3034.69 L3794.11,3039.05 L3793.96,3042.8 L3790.8,3047.76 L3786.9,3048.06 L3785.4,3042.95 L3782.39,3034.69 L3779.84,3035.74 L3777.89,3048.66 L3781.34,3058.12 L3780.29,3062.78 L3777.28,3062.93 L3776.68,3076.6 L3780.74,3084.26 L3786.3,3086.66 L3791.85,3092.67 L3794.41,3099.88 L3800.12,3105.59 L3804.17,3110.69 L3808.53,3112.35 L3810.48,3116.1 L3812.58,3118.66 L3815.44,3117.9 L3819.34,3112.2 L3821.6,3103.18 L3820.54,3093.57 L3805.22,3075.85 L3804.32,3068.49 L3806.43,3064.43 L3805.22,3059.92 L3806.43,3056.47 L3808.83,3053.77 L3809.58,3049.71 L3814.24,3048.36 L3814.24,3043.1 L3812.28,3039.8 L3808.38,3037.99 L3806.27,3034.84 L3807.48,3031.84 L3812.88,3028.08 L3815.14,3022.67 L3822.65,3018.77 L3826.25,3015.01 L3862.3,3000.59 L3880.93,3021.62 L3894.75,3021.62 L3929.6,3050.46 L3954.23,3038.44 L3960.84,3018.62 L3974.66,3006.6 L3984.27,3009 L4001.1,2989.78 L4036.54,2989.78 L4036.54,3000.59 L4042.55,3010.21 L4053.97,3008.4 L4061.78,3001.19 L4063.58,2990.38 L4063.58,2942.31 L4060.88,2943.1 L4058.63,2931.83 L4041.8,2913.06 L4026.18,2907.35 L4017.77,2906.9 L3984.12,2940.7 L3965.95,2944.3 L3949.87,2939.64 L3938.46,2924.17 L3928.09,2896.38 L3942.36,2862.66 L3944.17,2823.31 L3979.62,2791.73 L3977.96,2757.63 L3986.22,2712.27 L4008.46,2695.44 L4025.88,2712.27 L4070.34,2715.27 L4087.77,2690.64 L4094.98,2665.4 L4123.22,2670.81 L4143.04,2656.39 L4135.83,2642.42 L4054.72,2608.17 L4031.29,2612.98 L4005.5,2613.68 L3899.9,2653.27 L3882.82,2668.8 L3858.75,2654.83 L3838.57,2657.16 L3815.68,2717.33 L3820.3,2772.53 L3759.62,2786.97 L3720.89,2782.93 L3705.86,2784.66 L3687.95,2789.29 L3676.97,2800.27 L3670.61,2816.45 L3668.87,2829.17 L3670.61,2845.35 L3728.98,2924.53 L3726.09,2949.96 L3732.45,2987.53 L3726.09,2989.27 L3712.22,2986.96 L3675.81,2996.2 L3665.98,3015.28 L3663.67,3030.88 L3665.41,3047.06 L3668.87,3069.03 L3672.14,3131.69 L3692.57,3158.12 L3693.77,3180.35 L3709.39,3194.77 L3695.57,3253.05" vector-effect="none" fill-rule="evenodd"/>
  </g>
  <g stroke-width="1" stroke-linejoin="bevel" font-weight="400" stroke-linecap="square" font-size="83.3333" font-style="normal" fill="none" stroke-opacity="1" transform="matrix(0.999817,0,0,0.999817,23.6177,23.6177)" font-family="Noto Sans" stroke="#000000"/>
  <g stroke-width="1" stroke-linejoin="bevel" font-weight="400" stroke-linecap="square" font-size="83.3333" font-style="normal" fill="none" stroke-opacity="1" transform="matrix(23.6177,0,0,23.6177,23.6177,23.6177)" font-family="Noto Sans" stroke="#000000"/>
  <g stroke-width="1" stroke-linejoin="bevel" font-weight="400" stroke-linecap="square" font-size="83.3333" font-style="normal" fill="none" stroke-opacity="1" transform="matrix(23.6177,0,0,23.6177,23.6177,23.6177)" font-family="Noto Sans" stroke="#000000"/>
  <g stroke-width="1" stroke-linejoin="bevel" font-weight="400" stroke-linecap="square" font-size="83.3333" font-style="normal" fill="none" stroke-opacity="1" transform="matrix(23.6177,0,0,23.6177,23.6177,23.6177)" font-family="Noto Sans" stroke="#000000"/>
  <g stroke-width="1" stroke-linejoin="bevel" font-weight="400" stroke-linecap="square" font-size="83.3333" font-style="normal" fill="none" stroke-opacity="1" transform="matrix(1,0,0,1,0,0)" font-family="Noto Sans" stroke="#000000"/>
  <g stroke-width="1" stroke-linejoin="bevel" font-weight="400" stroke-linecap="square" font-size="83.3333" font-style="normal" fill="none" stroke-opacity="1" transform="matrix(23.6177,0,0,23.6177,23.6177,23.6177)" font-family="Noto Sans" stroke="#000000"/>
  <g stroke-width="1" stroke-linejoin="bevel" font-weight="400" stroke-linecap="square" font-size="83.3333" font-style="normal" fill="none" stroke-opacity="1" transform="matrix(23.6177,0,0,23.6177,23.6177,23.6177)" font-family="Noto Sans" stroke="#000000"/>
  <g stroke-width="1" stroke-linejoin="bevel" font-weight="400" stroke-linecap="square" font-size="83.3333" font-style="normal" fill="none" stroke-opacity="1" transform="matrix(1,0,0,1,0,0)" font-family="Noto Sans" stroke="#000000"/>
 </g>
 
</svg>