<svg xmlns="http://www.w3.org/2000/svg" version="1.2" baseProfile="tiny" xmlns:inkscape="http://www.inkscape.org/namespaces/inkscape" width="315.045mm" viewBox="4240.31 2662.49 564.94 747.71" height="227.076mm" xmlns:xlink="http://www.w3.org/1999/xlink" xmlns:cc="http://creativecommons.org/ns#">
<g inkscape:groupmode="layer" stroke-width="1" stroke-linejoin="bevel" stroke-linecap="square" inkscape:label="Map 1: fid_89" fill="none" stroke="black" id="Map 1: fid_89" fill-rule="evenodd">
  <g stroke-width="1" stroke-linejoin="bevel" font-weight="400" stroke-linecap="square" font-size="83.3333" font-style="normal" fill="none" stroke-opacity="1" transform="matrix(1,0,0,1,0,0)" font-family="Noto Sans" stroke="#000000"/>
  <g stroke-width="1" stroke-linejoin="bevel" font-weight="400" stroke-linecap="square" font-size="83.3333" font-style="normal" fill="none" stroke-opacity="1" transform="matrix(1,0,0,1,0,0)" font-family="Noto Sans" stroke="#000000"/>
  <g stroke-width="1" stroke-linejoin="bevel" font-weight="400" stroke-linecap="square" font-size="83.3333" font-style="normal" fill="none" stroke-opacity="1" transform="matrix(23.619,0,0,23.619,-728.486,-229.753)" font-family="Noto Sans" stroke="#000000"/>
  <g stroke-width="1" stroke-linejoin="bevel" font-weight="400" stroke-linecap="square" font-size="83.3333" font-style="normal" fill="none" stroke-opacity="1" transform="matrix(23.619,0,0,23.619,-728.486,-229.753)" font-family="Noto Sans" stroke="#000000"/>
  <g fill-opacity="0" font-weight="400" font-size="83.3333" font-style="normal" fill="#000000" transform="matrix(0.999873,0,0,0.999873,-728.486,-229.753)" font-family="Noto Sans" stroke="none">
   <rect y="0" width="8098" height="5627" x="0"/>
  </g>
  <g stroke-width="1" stroke-linejoin="bevel" font-weight="400" stroke-linecap="square" font-size="83.3333" font-style="normal" fill="none" stroke-opacity="1" transform="matrix(0.999873,0,0,0.999873,-728.486,-229.753)" font-family="Noto Sans" stroke="#000000"/>
  <g fill-opacity="1" stroke-width="2" stroke-linejoin="bevel" font-weight="400" stroke-linecap="square" font-size="83.3333" font-style="normal" fill="#e77148" stroke-opacity="1" transform="matrix(0.999873,0,0,0.999873,-728.486,-229.753)" font-family="Noto Sans" stroke="#232323">
   <path d="M4255.24,3348.67 L4276.29,3350.2 L4350.97,3320.42 L4353.6,3313.64 L4342.75,3315.45 L4333.04,3311.66 L4328.6,3306.4 L4328.6,3301.63 L4331.89,3295.22 L4335.18,3292.91 L4346.53,3274.33 L4348.34,3274.33 L4347.52,3273.01 L4331.89,3254.26 L4329.26,3234.52 L4317.91,3215.73 L4310.51,3215.23 L4309.03,3217.04 L4303.6,3216.22 L4299.16,3212.77 L4295.54,3207.5 L4295.87,3201.91 L4295.05,3192.7 L4297.68,3184.31 L4304.09,3182.01 L4306.07,3181.68 L4308.2,3178.39 L4310.01,3167.04 L4307.38,3156.8 L4301.63,3145.61 L4300.8,3137.06 L4303.76,3132.13 L4309.36,3131.14 L4313.3,3133.77 L4314.13,3138.71 L4317.75,3140.51 L4319.55,3137.88 L4320.38,3132.95 L4323.5,3113.83 L4328.11,3107.58 L4337.32,3082.41 L4342.42,3085.04 L4343.9,3089.98 L4346.2,3094.25 L4349,3097.38 L4349.66,3101.65 L4352.62,3101.98 L4354.1,3098.69 L4359.53,3104.12 L4362.32,3109.55 L4363.14,3114.32 L4362.98,3118.43 L4359.53,3123.86 L4355.25,3124.19 L4353.6,3118.6 L4350.31,3109.55 L4347.52,3110.7 L4345.38,3124.85 L4349.16,3135.21 L4348.01,3140.31 L4344.72,3140.47 L4344.06,3155.44 L4348.5,3163.83 L4354.59,3166.46 L4360.68,3173.04 L4363.47,3180.94 L4369.72,3187.19 L4374.16,3192.78 L4378.93,3194.59 L4381.07,3198.7 L4383.38,3201.5 L4386.5,3200.68 L4390.78,3194.43 L4393.25,3184.56 L4392.09,3174.03 L4375.32,3154.62 L4374.33,3146.56 L4376.63,3142.12 L4375.32,3137.18 L4376.63,3133.4 L4379.26,3130.44 L4380.09,3126 L4385.19,3124.52 L4385.19,3118.76 L4383.05,3115.14 L4378.77,3113.17 L4376.47,3109.71 L4377.78,3106.42 L4383.7,3102.31 L4386.17,3096.39 L4394.4,3092.11 L4398.34,3088 L4437.82,3072.21 L4458.22,3095.24 L4473.35,3095.24 L4511.51,3126.82 L4538.49,3113.66 L4545.73,3091.95 L4560.86,3078.79 L4571.39,3081.42 L4589.81,3060.37 L4628.63,3060.37 L4628.63,3072.21 L4635.21,3082.74 L4647.71,3080.76 L4656.26,3072.87 L4658.24,3061.03 L4658.24,3008.39 L4655.27,3009.25 L4652.81,2996.92 L4634.38,2976.36 L4617.28,2970.11 L4608.07,2969.61 L4571.22,3006.62 L4551.32,3010.57 L4533.72,3005.47 L4521.22,2988.53 L4509.87,2958.1 L4525.49,2921.17 L4527.47,2878.07 L4566.29,2843.49 L4564.48,2806.15 L4573.52,2756.48 L4597.87,2738.05 L4616.95,2756.48 L4665.64,2759.77 L4684.72,2732.79 L4692.61,2705.16 L4723.54,2711.08 L4745.25,2695.29 L4737.35,2679.99 L4648.53,2642.49 L4622.87,2647.75 L4594.63,2648.51 L4479,2691.88 L4460.29,2708.88 L4433.93,2693.58 L4411.83,2696.13 L4386.77,2762.02 L4391.83,2822.46 L4325.37,2838.29 L4282.97,2833.86 L4266.51,2835.76 L4246.89,2840.82 L4234.86,2852.84 L4227.9,2870.57 L4226,2884.49 L4227.9,2902.21 L4291.83,2988.92 L4288.66,3016.77 L4295.63,3057.91 L4288.66,3059.81 L4273.47,3057.28 L4233.6,3067.41 L4222.84,3088.29 L4220.31,3105.38 L4222.21,3123.1 L4226,3147.15 L4229.58,3215.77 L4251.95,3244.72 L4253.27,3269.06 L4270.37,3284.85 L4255.24,3348.67" vector-effect="none" fill-rule="evenodd"/>
  </g>
  <g stroke-width="1" stroke-linejoin="bevel" font-weight="400" stroke-linecap="square" font-size="83.3333" font-style="normal" fill="none" stroke-opacity="1" transform="matrix(0.999873,0,0,0.999873,-728.486,-229.753)" font-family="Noto Sans" stroke="#000000"/>
  <g stroke-width="1" stroke-linejoin="bevel" font-weight="400" stroke-linecap="square" font-size="83.3333" font-style="normal" fill="none" stroke-opacity="1" transform="matrix(23.619,0,0,23.619,-728.486,-229.753)" font-family="Noto Sans" stroke="#000000"/>
  <g stroke-width="1" stroke-linejoin="bevel" font-weight="400" stroke-linecap="square" font-size="83.3333" font-style="normal" fill="none" stroke-opacity="1" transform="matrix(23.619,0,0,23.619,-728.486,-229.753)" font-family="Noto Sans" stroke="#000000"/>
  <g stroke-width="1" stroke-linejoin="bevel" font-weight="400" stroke-linecap="square" font-size="83.3333" font-style="normal" fill="none" stroke-opacity="1" transform="matrix(23.619,0,0,23.619,-728.486,-229.753)" font-family="Noto Sans" stroke="#000000"/>
  <g stroke-width="1" stroke-linejoin="bevel" font-weight="400" stroke-linecap="square" font-size="83.3333" font-style="normal" fill="none" stroke-opacity="1" transform="matrix(1,0,0,1,0,0)" font-family="Noto Sans" stroke="#000000"/>
  <g stroke-width="1" stroke-linejoin="bevel" font-weight="400" stroke-linecap="square" font-size="83.3333" font-style="normal" fill="none" stroke-opacity="1" transform="matrix(23.619,0,0,23.619,-728.486,-229.753)" font-family="Noto Sans" stroke="#000000"/>
  <g stroke-width="1" stroke-linejoin="bevel" font-weight="400" stroke-linecap="square" font-size="83.3333" font-style="normal" fill="none" stroke-opacity="1" transform="matrix(23.619,0,0,23.619,-728.486,-229.753)" font-family="Noto Sans" stroke="#000000"/>
  <g stroke-width="1" stroke-linejoin="bevel" font-weight="400" stroke-linecap="square" font-size="83.3333" font-style="normal" fill="none" stroke-opacity="1" transform="matrix(1,0,0,1,0,0)" font-family="Noto Sans" stroke="#000000"/>
 </g>
 
</svg>