<svg xmlns="http://www.w3.org/2000/svg" version="1.2" baseProfile="tiny" xmlns:inkscape="http://www.inkscape.org/namespaces/inkscape" width="315.045mm" viewBox="4332.48 2892.2 541.3 433.22" height="227.076mm" xmlns:xlink="http://www.w3.org/1999/xlink" xmlns:cc="http://creativecommons.org/ns#">
<g inkscape:groupmode="layer" stroke-width="1" stroke-linejoin="bevel" stroke-linecap="square" inkscape:label="Map 1: fid_88" fill="none" stroke="black" id="Map 1: fid_88" fill-rule="evenodd">
  <g fill-opacity="1" stroke-width="2" stroke-linejoin="bevel" font-weight="400" stroke-linecap="square" font-size="83.3333" font-style="normal" fill="#becf50" stroke-opacity="1"  font-family="Noto Sans" stroke="#232323">
   <path d="M4350.97,3320.42 L4385.84,3314.5 L4420.06,3317.79 L4469.4,3279.63 L4489.14,3291.47 L4541.78,3276.34 L4598.36,3207.91 L4647.05,3171.07 L4729.95,3088.82 L4733.24,3067.11 L4710.21,3046.72 L4745.09,3025 L4758.9,3018.42 L4751.01,3029.61 L4753.64,3039.48 L4768.77,3028.29 L4777.98,3030.92 L4782.59,3023.69 L4790.48,3017.11 L4794.43,3005.26 L4804.96,3005.26 L4817.46,3011.19 L4827.33,3006.58 L4828.64,2994.74 L4829.96,2971.05 L4848.38,2952.46 L4868.78,2931.41 L4862.2,2899.17 L4835.88,2920.22 L4812.2,2914.3 L4798.38,2897.2 L4776.67,2901.8 L4716.79,2954.44 L4653.63,2980.76 L4658.24,3008.39 L4658.24,3061.03 L4656.26,3072.87 L4647.71,3080.76 L4635.21,3082.74 L4628.63,3072.21 L4628.63,3060.37 L4589.81,3060.37 L4571.39,3081.42 L4560.86,3078.79 L4545.73,3091.95 L4538.49,3113.66 L4511.51,3126.82 L4497.04,3115.64 L4473.35,3095.24 L4458.22,3095.24 L4437.82,3072.21 L4398.34,3088 L4394.4,3092.11 L4398.34,3097.05 L4406.24,3097.05 L4412.82,3100.01 L4415.12,3102.64 L4413.81,3113.5 L4412.82,3119.09 L4408.54,3123.04 L4404.92,3126.33 L4409.86,3132.58 L4410.85,3137.84 L4405.25,3148.04 L4400.98,3156.26 L4406.24,3163.5 L4407.56,3163.83 L4409.53,3161.53 L4413.48,3153.3 L4416.44,3147.05 L4421.7,3142.45 L4424,3136.2 L4430.91,3131.26 L4433.22,3130.93 L4437.82,3127.97 L4441.44,3131.59 L4445.39,3130.6 L4447.69,3134.88 L4456.9,3134.88 L4457.23,3142.78 L4452.63,3150.67 L4446.37,3150.67 L4443.74,3147.71 L4439.8,3148.7 L4439.8,3153.3 L4435.19,3158.57 L4437.82,3164.82 L4435.52,3169.09 L4436.51,3172.71 L4431.9,3176 L4433.22,3180.28 L4437.82,3180.94 L4441.44,3185.21 L4440.45,3189.49 L4432.23,3191.79 L4428.28,3189.16 L4425.98,3184.56 L4415.45,3165.15 L4407.56,3167.78 L4407.23,3171.07 L4403.28,3171.4 L4406.24,3176.33 L4403.61,3187.85 L4408.54,3188.5 L4410.85,3184.89 L4412.82,3185.21 L4410.52,3191.47 L4415.78,3194.1 L4418.74,3195.41 L4416.77,3202.32 L4404.27,3202.98 L4405.25,3208.57 L4407.23,3216.14 L4408.54,3238.84 L4413.81,3242.13 L4413.15,3248.71 L4408.21,3252.65 L4400.98,3251.34 L4398.02,3244.1 L4393.08,3231.93 L4389.79,3228.31 L4383.87,3230.28 L4380.25,3233.57 L4380.25,3238.51 L4372.68,3244.1 L4371.37,3254.3 L4360.84,3240.81 L4353.93,3240.81 L4349.66,3235.22 L4346.69,3230.61 L4341.76,3232.26 L4337.48,3236.21 L4341.76,3244.1 L4345.05,3263.84 L4361.83,3286.29 L4361.5,3295.83 L4350.97,3320.42" vector-effect="none" fill-rule="evenodd"/>

</g>
</g>
</svg>