<svg xmlns="http://www.w3.org/2000/svg" version="1.2" baseProfile="tiny" xmlns:inkscape="http://www.inkscape.org/namespaces/inkscape" width="315.045mm" viewBox="3790.68 2860.77 525.17 426.49" height="227.076mm" xmlns:xlink="http://www.w3.org/1999/xlink" xmlns:cc="http://creativecommons.org/ns#">
<g inkscape:groupmode="layer" stroke-width="1" stroke-linejoin="bevel" stroke-linecap="square" inkscape:label="Map 1: fid_88" fill="none" stroke="black" id="Map 1: fid_88" fill-rule="evenodd">
  <g stroke-width="1" stroke-linejoin="bevel" font-weight="400" stroke-linecap="square" font-size="83.3333" font-style="normal" fill="none" stroke-opacity="1" transform="matrix(1,0,0,1,0,0)" font-family="Noto Sans" stroke="#000000"/>
  <g stroke-width="1" stroke-linejoin="bevel" font-weight="400" stroke-linecap="square" font-size="83.3333" font-style="normal" fill="none" stroke-opacity="1" transform="matrix(1,0,0,1,0,0)" font-family="Noto Sans" stroke="#000000"/>
  <g stroke-width="1" stroke-linejoin="bevel" font-weight="400" stroke-linecap="square" font-size="83.3333" font-style="normal" fill="none" stroke-opacity="1" transform="matrix(23.6177,0,0,23.6177,23.6177,23.6177)" font-family="Noto Sans" stroke="#000000"/>
  <g stroke-width="1" stroke-linejoin="bevel" font-weight="400" stroke-linecap="square" font-size="83.3333" font-style="normal" fill="none" stroke-opacity="1" transform="matrix(23.6177,0,0,23.6177,23.6177,23.6177)" font-family="Noto Sans" stroke="#000000"/>
  <g fill-opacity="0" font-weight="400" font-size="83.3333" font-style="normal" fill="#000000" transform="matrix(0.999817,0,0,0.999817,23.6177,23.6177)" font-family="Noto Sans" stroke="none">
   <rect y="0" width="7395" height="5318" x="0"/>
  </g>
  <g stroke-width="1" stroke-linejoin="bevel" font-weight="400" stroke-linecap="square" font-size="83.3333" font-style="normal" fill="none" stroke-opacity="1" transform="matrix(0.999817,0,0,0.999817,23.6177,23.6177)" font-family="Noto Sans" stroke="#000000"/>
  <g fill-opacity="1" stroke-width="2" stroke-linejoin="bevel" font-weight="400" stroke-linecap="square" font-size="83.3333" font-style="normal" fill="#a47158" stroke-opacity="1" transform="matrix(0.999817,0,0,0.999817,23.6177,23.6177)" font-family="Noto Sans" stroke="#232323">
   <path d="M3782.99,3227.26 L3814.84,3221.85 L3846.08,3224.85 L3891.14,3190 L3909.17,3200.82 L3957.23,3187 L4008.91,3124.51 L4053.37,3090.87 L4129.07,3015.76 L4132.08,2995.94 L4111.05,2977.31 L4142.89,2957.48 L4155.51,2951.47 L4148.3,2961.69 L4150.7,2970.7 L4164.52,2960.49 L4172.93,2962.89 L4177.14,2956.28 L4184.35,2950.27 L4187.95,2939.46 L4197.57,2939.46 L4208.98,2944.86 L4218,2940.66 L4219.2,2929.84 L4220.4,2908.21 L4237.22,2891.24 L4255.85,2872.01 L4249.84,2842.57 L4225.81,2861.8 L4204.18,2856.39 L4191.56,2840.77 L4171.73,2844.98 L4117.06,2893.04 L4059.38,2917.08 L4063.58,2942.31 L4063.58,2990.38 L4061.78,3001.19 L4053.97,3008.4 L4042.55,3010.21 L4036.54,3000.59 L4036.54,2989.78 L4001.1,2989.78 L3984.27,3009 L3974.66,3006.6 L3960.84,3018.62 L3954.23,3038.44 L3929.6,3050.46 L3916.38,3040.25 L3894.75,3021.62 L3880.93,3021.62 L3862.3,3000.59 L3826.25,3015.01 L3822.65,3018.77 L3826.25,3023.27 L3833.46,3023.27 L3839.47,3025.98 L3841.57,3028.38 L3840.37,3038.29 L3839.47,3043.4 L3835.57,3047.01 L3832.26,3050.01 L3836.77,3055.72 L3837.67,3060.52 L3832.56,3069.84 L3828.66,3077.35 L3833.46,3083.96 L3834.66,3084.26 L3836.47,3082.15 L3840.07,3074.64 L3842.78,3068.94 L3847.58,3064.73 L3849.69,3059.02 L3855.99,3054.52 L3858.1,3054.22 L3862.3,3051.51 L3865.61,3054.82 L3869.21,3053.92 L3871.32,3057.82 L3879.73,3057.82 L3880.03,3065.03 L3875.82,3072.24 L3870.11,3072.24 L3867.71,3069.54 L3864.11,3070.44 L3864.11,3074.64 L3859.9,3079.45 L3862.3,3085.16 L3860.2,3089.06 L3861.1,3092.37 L3856.9,3095.37 L3858.1,3099.28 L3862.3,3099.88 L3865.61,3103.79 L3864.71,3107.69 L3857.2,3109.79 L3853.59,3107.39 L3851.49,3103.18 L3841.87,3085.46 L3834.66,3087.86 L3834.36,3090.87 L3830.76,3091.17 L3833.46,3095.67 L3831.06,3106.19 L3835.57,3106.79 L3837.67,3103.48 L3839.47,3103.79 L3837.37,3109.49 L3842.17,3111.9 L3844.88,3113.1 L3843.08,3119.41 L3831.66,3120.01 L3832.56,3125.11 L3834.36,3132.02 L3835.57,3152.75 L3840.37,3155.76 L3839.77,3161.77 L3835.27,3165.37 L3828.66,3164.17 L3825.95,3157.56 L3821.45,3146.44 L3818.44,3143.14 L3813.03,3144.94 L3809.73,3147.95 L3809.73,3152.45 L3802.82,3157.56 L3801.62,3166.87 L3792.01,3154.56 L3785.7,3154.56 L3781.79,3149.45 L3779.09,3145.24 L3774.58,3146.74 L3770.68,3150.35 L3774.58,3157.56 L3777.59,3175.58 L3792.91,3196.09 L3792.61,3204.8 L3782.99,3227.26" vector-effect="none" fill-rule="evenodd"/>
  </g>
  <g stroke-width="1" stroke-linejoin="bevel" font-weight="400" stroke-linecap="square" font-size="83.3333" font-style="normal" fill="none" stroke-opacity="1" transform="matrix(0.999817,0,0,0.999817,23.6177,23.6177)" font-family="Noto Sans" stroke="#000000"/>
  <g stroke-width="1" stroke-linejoin="bevel" font-weight="400" stroke-linecap="square" font-size="83.3333" font-style="normal" fill="none" stroke-opacity="1" transform="matrix(23.6177,0,0,23.6177,23.6177,23.6177)" font-family="Noto Sans" stroke="#000000"/>
  <g stroke-width="1" stroke-linejoin="bevel" font-weight="400" stroke-linecap="square" font-size="83.3333" font-style="normal" fill="none" stroke-opacity="1" transform="matrix(23.6177,0,0,23.6177,23.6177,23.6177)" font-family="Noto Sans" stroke="#000000"/>
  <g stroke-width="1" stroke-linejoin="bevel" font-weight="400" stroke-linecap="square" font-size="83.3333" font-style="normal" fill="none" stroke-opacity="1" transform="matrix(23.6177,0,0,23.6177,23.6177,23.6177)" font-family="Noto Sans" stroke="#000000"/>
  <g stroke-width="1" stroke-linejoin="bevel" font-weight="400" stroke-linecap="square" font-size="83.3333" font-style="normal" fill="none" stroke-opacity="1" transform="matrix(1,0,0,1,0,0)" font-family="Noto Sans" stroke="#000000"/>
  <g stroke-width="1" stroke-linejoin="bevel" font-weight="400" stroke-linecap="square" font-size="83.3333" font-style="normal" fill="none" stroke-opacity="1" transform="matrix(23.6177,0,0,23.6177,23.6177,23.6177)" font-family="Noto Sans" stroke="#000000"/>
  <g stroke-width="1" stroke-linejoin="bevel" font-weight="400" stroke-linecap="square" font-size="83.3333" font-style="normal" fill="none" stroke-opacity="1" transform="matrix(23.6177,0,0,23.6177,23.6177,23.6177)" font-family="Noto Sans" stroke="#000000"/>
  <g stroke-width="1" stroke-linejoin="bevel" font-weight="400" stroke-linecap="square" font-size="83.3333" font-style="normal" fill="none" stroke-opacity="1" transform="matrix(1,0,0,1,0,0)" font-family="Noto Sans" stroke="#000000"/>
 </g>
 
</svg>