<svg xmlns="http://www.w3.org/2000/svg" version="1.2" baseProfile="tiny" xmlns:inkscape="http://www.inkscape.org/namespaces/inkscape" width="315.045mm" viewBox="1927.14 1220.63 227.69 183.41" height="227.076mm" xmlns:xlink="http://www.w3.org/1999/xlink" xmlns:cc="http://creativecommons.org/ns#">
<g stroke-linejoin="bevel" stroke="black" inkscape:label="Map 1: fid_88" fill-rule="evenodd" stroke-linecap="square" inkscape:groupmode="layer" stroke-width="1" fill="none" id="Map 1: fid_88">
  <g stroke-linejoin="bevel"  fill-opacity="1" stroke="#232323" font-style="normal" stroke-linecap="square" font-family="Noto Sans" font-size="41.6667" font-weight="400" stroke-width="1" fill="#d5b43c" stroke-opacity="1">
   <path d="M1937.67,1399.04 L1951.95,1396.61 L1965.97,1397.96 L1986.19,1382.32 L1994.28,1387.17 L2015.84,1380.97 L2039.03,1352.94 L2058.98,1337.84 L2092.94,1304.14 L2094.29,1295.25 L2084.86,1286.89 L2099.14,1277.99 L2104.81,1275.3 L2101.57,1279.88 L2102.65,1283.92 L2108.85,1279.34 L2112.62,1280.42 L2114.51,1277.45 L2117.75,1274.76 L2119.36,1269.91 L2123.68,1269.91 L2128.8,1272.33 L2132.84,1270.45 L2133.38,1265.59 L2133.92,1255.89 L2141.47,1248.27 L2149.83,1239.65 L2147.13,1226.44 L2136.35,1235.06 L2126.64,1232.64 L2120.98,1225.63 L2112.08,1227.51 L2087.55,1249.08 L2061.67,1259.86 L2063.56,1271.19 L2063.56,1292.75 L2062.75,1297.61 L2059.25,1300.84 L2054.12,1301.65 L2051.43,1297.34 L2051.43,1292.48 L2035.52,1292.48 L2027.98,1301.11 L2023.66,1300.03 L2017.46,1305.42 L2014.5,1314.32 L2003.44,1319.71 L1997.51,1315.13 L1987.81,1306.77 L1981.61,1306.77 L1973.25,1297.34 L1957.07,1303.81 L1955.46,1305.49 L1957.07,1307.51 L1960.31,1307.51 L1963.01,1308.73 L1963.95,1309.8 L1963.41,1314.25 L1963.01,1316.54 L1961.25,1318.16 L1959.77,1319.51 L1961.79,1322.07 L1962.2,1324.23 L1959.91,1328.41 L1958.15,1331.78 L1960.31,1334.74 L1960.85,1334.88 L1961.66,1333.93 L1963.28,1330.56 L1964.49,1328 L1966.65,1326.11 L1967.59,1323.55 L1970.42,1321.53 L1971.36,1321.4 L1973.25,1320.18 L1974.73,1321.67 L1976.35,1321.26 L1977.29,1323.01 L1981.07,1323.01 L1981.2,1326.25 L1979.32,1329.48 L1976.75,1329.48 L1975.68,1328.27 L1974.06,1328.68 L1974.06,1330.56 L1972.17,1332.72 L1973.25,1335.28 L1972.31,1337.03 L1972.71,1338.52 L1970.82,1339.86 L1971.36,1341.62 L1973.25,1341.88 L1974.73,1343.64 L1974.33,1345.39 L1970.96,1346.33 L1969.34,1345.25 L1968.4,1343.37 L1964.08,1335.41 L1960.85,1336.49 L1960.71,1337.84 L1959.1,1337.98 L1960.31,1340 L1959.23,1344.72 L1961.25,1344.99 L1962.2,1343.5 L1963.01,1343.64 L1962.06,1346.2 L1964.22,1347.28 L1965.43,1347.82 L1964.62,1350.65 L1959.5,1350.92 L1959.91,1353.21 L1960.71,1356.31 L1961.25,1365.61 L1963.41,1366.96 L1963.14,1369.65 L1961.12,1371.27 L1958.15,1370.73 L1956.94,1367.76 L1954.92,1362.78 L1953.57,1361.29 L1951.14,1362.1 L1949.66,1363.45 L1949.66,1365.47 L1946.56,1367.76 L1946.02,1371.94 L1941.71,1366.42 L1938.88,1366.42 L1937.13,1364.13 L1935.91,1362.24 L1933.89,1362.91 L1932.14,1364.53 L1933.89,1367.76 L1935.24,1375.85 L1942.11,1385.05 L1941.98,1388.96 L1937.67,1399.04" fill-rule="evenodd" vector-effect="none"/>

</g>
</g>
</svg>