<svg xmlns="http://www.w3.org/2000/svg" version="1.2" baseProfile="tiny" xmlns:inkscape="http://www.inkscape.org/namespaces/inkscape" width="315.045mm" viewBox="1536.75 1644.34 147.08 155.9" height="227.076mm" xmlns:xlink="http://www.w3.org/1999/xlink" xmlns:cc="http://creativecommons.org/ns#">
<g stroke-linejoin="bevel" stroke="black" inkscape:label="Map 1: fid_92" fill-rule="evenodd" stroke-linecap="square" inkscape:groupmode="layer" stroke-width="1" fill="none" id="Map 1: fid_92">
  <g stroke-linejoin="bevel"  fill-opacity="1" stroke="#232323" font-style="normal" stroke-linecap="square" font-family="Noto Sans" font-size="41.6667" font-weight="400" stroke-width="1" fill="#e15989" stroke-opacity="1">
   <path d="M1561.53,1716.87 L1556.85,1720.02 L1559.95,1723.8 L1560.75,1730.67 L1559.81,1733.5 L1554.42,1733.5 L1549.7,1722.59 L1546.87,1722.72 L1545.39,1730.81 L1544.18,1735.66 L1541.75,1756.96 L1546.06,1754.67 L1549.3,1756.55 L1564.26,1780.68 L1571.94,1778.79 L1595.26,1782.16 L1602.41,1789.71 L1616.96,1794.16 L1629.5,1795.24 L1647.02,1774.35 L1678.83,1720.06 L1676.14,1717.5 L1668.59,1706.58 L1667.11,1706.18 L1662.39,1706.31 L1658.21,1704.42 L1658.61,1702.13 L1657.67,1696.47 L1655.38,1694.18 L1650.26,1692.02 L1646.62,1693.5 L1641.23,1692.83 L1640.42,1690.4 L1645.67,1680.97 L1644.6,1678.27 L1642.84,1677.6 L1639.47,1679.08 L1635.13,1676.81 L1631.35,1679.91 L1623.5,1683.67 L1621.61,1684.34 L1620.06,1685.96 L1615.01,1686.36 L1617.77,1683.87 L1618.98,1679.96 L1622.35,1679.49 L1623.16,1678.54 L1622.42,1677.33 L1623.03,1676.12 L1623.9,1675.04 L1623.57,1674.23 L1623.97,1673.29 L1624.58,1672.07 L1625.59,1671.74 L1627.71,1670.74 L1620.43,1656.45 L1610.19,1649.34 L1607.63,1651.1 L1607.09,1658.64 L1604.53,1664.58 L1600.35,1671.58 L1595.77,1679.81 L1589.03,1687.09 L1588.08,1695.31 L1581.48,1708.92 L1561.53,1716.87" fill-rule="evenodd" vector-effect="none"/>

</g>
</g>
</svg>