<svg xmlns="http://www.w3.org/2000/svg" version="1.2" baseProfile="tiny" xmlns:inkscape="http://www.inkscape.org/namespaces/inkscape" width="315.045mm" viewBox="3379.69 3926.33 344.57 366.08" height="227.076mm" xmlns:xlink="http://www.w3.org/1999/xlink" xmlns:cc="http://creativecommons.org/ns#">
<g inkscape:groupmode="layer" stroke-width="1" stroke-linejoin="bevel" stroke-linecap="square" inkscape:label="Map 1: fid_92" fill="none" stroke="black" id="Map 1: fid_92" fill-rule="evenodd">
  <g fill-opacity="1" stroke-width="2" stroke-linejoin="bevel" font-weight="400" stroke-linecap="square" font-size="83.3333" font-style="normal" fill="#729b6f" stroke-opacity="1"  font-family="Noto Sans" stroke="#232323">
   <path d="M3432.96,4096.15 L3421.53,4103.84 L3429.1,4113.05 L3431.07,4129.83 L3428.77,4136.74 L3415.61,4136.74 L3404.1,4110.09 L3397.19,4110.42 L3393.57,4130.16 L3390.61,4142 L3384.69,4193.98 L3395.21,4188.39 L3403.11,4192.99 L3439.63,4251.88 L3458.38,4247.27 L3515.29,4255.5 L3532.73,4273.92 L3568.26,4284.78 L3598.85,4287.41 L3641.62,4236.42 L3719.26,4103.92 L3712.68,4097.67 L3694.25,4071.02 L3690.63,4070.04 L3679.12,4070.37 L3668.92,4065.76 L3669.91,4060.17 L3667.61,4046.35 L3662.01,4040.76 L3649.51,4035.49 L3640.63,4039.11 L3627.47,4037.47 L3625.5,4031.55 L3638.33,4008.52 L3635.7,4001.94 L3631.42,4000.29 L3623.19,4003.91 L3612.58,3998.36 L3603.37,4005.93 L3584.21,4015.1 L3579.6,4016.74 L3575.82,4020.69 L3563.49,4021.68 L3570.23,4015.59 L3573.19,4006.05 L3581.41,4004.9 L3583.39,4002.6 L3581.58,3999.64 L3583.06,3996.68 L3585.2,3994.04 L3584.38,3992.07 L3585.36,3989.77 L3586.84,3986.81 L3589.31,3985.98 L3594.49,3983.56 L3576.73,3948.69 L3551.72,3931.33 L3545.47,3935.61 L3544.16,3954.03 L3537.91,3968.51 L3527.71,3985.61 L3516.52,4005.68 L3500.07,4023.45 L3497.77,4043.51 L3481.65,4076.74 L3432.96,4096.15" vector-effect="none" fill-rule="evenodd"/>

</g>
</g>
</svg>