<svg xmlns="http://www.w3.org/2000/svg" version="1.2" baseProfile="tiny" xmlns:inkscape="http://www.inkscape.org/namespaces/inkscape" width="315.045mm" viewBox="1638.58 1446.66 108.94 127.88" height="227.076mm" xmlns:xlink="http://www.w3.org/1999/xlink" xmlns:cc="http://creativecommons.org/ns#">
<g stroke-linejoin="bevel" stroke="black" inkscape:label="Map 1: fid_35" fill-rule="evenodd" stroke-linecap="square" inkscape:groupmode="layer" stroke-width="1" fill="none" id="Map 1: fid_35">
  <g stroke-linejoin="bevel"  fill-opacity="1" stroke="#232323" font-style="normal" stroke-linecap="square" font-family="Noto Sans" font-size="41.6667" font-weight="400" stroke-width="1" fill="#85b66f" stroke-opacity="1">
   <path d="M1643.58,1542.58 L1646.72,1549.07 L1645.67,1551.94 L1651.68,1552.81 L1651.42,1554.12 L1655.08,1552.81 L1660.65,1555.08 L1661.79,1557.17 L1661.26,1561.61 L1661,1567.44 L1665.44,1567.62 L1666.92,1565.62 L1669.89,1567.44 L1672.85,1569.54 L1678.42,1563.61 L1691.05,1549.68 L1702.98,1533.39 L1708.73,1521.72 L1715.78,1512.32 L1716.31,1504.22 L1725.54,1492.68 L1729.72,1482.75 L1736.77,1478.31 L1739.73,1473.26 L1742.52,1466.11 L1739.21,1461.76 L1739.21,1455.66 L1735.03,1452.18 L1731.37,1452.88 L1728.41,1451.66 L1724.58,1458.28 L1719.35,1459.49 L1716.91,1468.55 L1701.24,1483.18 L1681.9,1503.04 L1668.49,1517.67 L1664.66,1518.02 L1645.67,1538.75 L1643.58,1542.58" fill-rule="evenodd" vector-effect="none"/>

</g>
</g>
</svg>