<svg xmlns="http://www.w3.org/2000/svg" version="1.2" baseProfile="tiny" xmlns:inkscape="http://www.inkscape.org/namespaces/inkscape" width="315.045mm" viewBox="1410.88 742.114 120.79 82.242" height="227.076mm" xmlns:xlink="http://www.w3.org/1999/xlink" xmlns:cc="http://creativecommons.org/ns#">
<g stroke-linejoin="bevel" stroke="black" inkscape:label="Map 1: fid_70" fill-rule="evenodd" stroke-linecap="square" inkscape:groupmode="layer" stroke-width="1" fill="none" id="Map 1: fid_70">
  <g stroke-linejoin="bevel"  fill-opacity="1" stroke="#232323" font-style="normal" stroke-linecap="square" font-family="Noto Sans" font-size="41.6667" font-weight="400" stroke-width="1" fill="#d5b43c" stroke-opacity="1">
   <path d="M1439.54,750.306 L1436.91,751.157 L1434.22,747.922 L1430.04,747.114 L1429.63,748.327 L1428.55,749.27 L1429.77,751.022 L1431.12,752.37 L1431.12,753.448 L1430.17,754.527 L1427.34,753.988 L1425.86,754.392 L1426.4,755.874 L1424.65,755.874 L1425.05,757.627 L1423.03,757.627 L1422.89,758.705 L1421.82,758.435 L1422.35,760.457 L1420.87,760.592 L1420.33,759.244 L1418.98,759.514 L1419.79,761.4 L1419.39,762.614 L1418.72,764.231 L1417.23,765.713 L1415.88,767.331 L1416.96,768.948 L1418.58,771.374 L1417.5,773.935 L1418.58,776.496 L1423.03,781.887 L1424.11,785.257 L1426.8,787.413 L1428.42,790.378 L1431.92,791.996 L1435.16,793.613 L1438.39,795.23 L1440.68,795.365 L1445.67,793.748 L1447.83,796.443 L1450.25,799.813 L1453.22,800.487 L1455.38,802.778 L1458.88,804.396 L1459.82,806.013 L1461.17,806.417 L1461.17,805.609 L1465.48,806.687 L1468.85,807.9 L1469.26,808.978 L1470.34,809.248 L1471.28,808.169 L1474.11,809.517 L1474.25,811.404 L1476,812.078 L1477.48,811.269 L1478.56,812.617 L1477.75,814.1 L1479.91,815.043 L1481.93,813.291 L1484.49,814.1 L1485.97,816.121 L1488.8,815.987 L1490.96,815.987 L1491.9,817.2 L1494.87,817.469 L1495.81,818.413 L1496.89,819.221 L1498.37,819.356 L1500.53,818.413 L1502.14,816.391 L1499.58,814.908 L1500.26,812.752 L1501.34,810.73 L1502.41,812.482 L1506.59,813.426 L1510.23,814.504 L1511.04,809.113 L1514.27,803.048 L1516.84,797.117 L1520.47,795.904 L1523.84,796.848 L1526.67,792.535 L1525.39,786.377 L1513.4,779.503 L1503.69,772.225 L1499.52,766.834 L1495.88,762.117 L1492.1,762.521 L1488.19,763.869 L1485.36,763.33 L1483.34,762.117 L1474.45,763.515 L1457.06,763.111 L1450.32,756.911 L1447.9,756.506 L1446.68,757.989 L1444.39,756.102 L1439.54,750.306" fill-rule="evenodd" vector-effect="none"/>

</g>
</g>
</svg>