<svg xmlns="http://www.w3.org/2000/svg" version="1.2" baseProfile="tiny" xmlns:inkscape="http://www.inkscape.org/namespaces/inkscape" width="315.045mm" viewBox="3072.5 1724.32 280.39 186.32" height="227.076mm" xmlns:xlink="http://www.w3.org/1999/xlink" xmlns:cc="http://creativecommons.org/ns#">
<g inkscape:groupmode="layer" stroke-width="1" stroke-linejoin="bevel" stroke-linecap="square" inkscape:label="Map 1: fid_70" fill="none" stroke="black" id="Map 1: fid_70" fill-rule="evenodd">
  <g fill-opacity="1" stroke-width="2" stroke-linejoin="bevel" font-weight="400" stroke-linecap="square" font-size="83.3333" font-style="normal" fill="#becf50" stroke-opacity="1"  font-family="Noto Sans" stroke="#232323">
   <path d="M3135.23,1737.11 L3128.81,1739.19 L3122.23,1731.29 L3112.04,1729.32 L3111.05,1732.28 L3108.42,1734.58 L3111.38,1738.86 L3114.67,1742.15 L3114.67,1744.78 L3112.37,1747.41 L3105.46,1746.1 L3101.84,1747.08 L3103.16,1750.7 L3098.88,1750.7 L3099.87,1754.98 L3094.93,1754.98 L3094.6,1757.61 L3091.97,1756.95 L3093.29,1761.89 L3089.67,1762.21 L3088.35,1758.92 L3085.06,1759.58 L3087.04,1764.19 L3086.05,1767.15 L3084.41,1771.1 L3080.79,1774.71 L3077.5,1778.66 L3080.13,1782.61 L3084.08,1788.53 L3081.44,1794.78 L3084.08,1801.03 L3094.93,1814.19 L3097.56,1822.41 L3104.14,1827.68 L3108.09,1834.91 L3116.64,1838.86 L3124.54,1842.81 L3132.43,1846.75 L3138.02,1847.08 L3150.2,1843.14 L3155.46,1849.71 L3161.38,1857.94 L3168.62,1859.58 L3173.88,1865.18 L3182.43,1869.12 L3184.74,1873.07 L3188.02,1874.06 L3188.02,1872.08 L3198.55,1874.72 L3206.78,1877.68 L3207.76,1880.31 L3210.39,1880.97 L3212.7,1878.33 L3219.6,1881.62 L3219.93,1886.23 L3224.21,1887.87 L3227.83,1885.9 L3230.46,1889.19 L3228.49,1892.81 L3233.75,1895.11 L3238.68,1890.83 L3244.93,1892.81 L3248.55,1897.74 L3255.46,1897.41 L3260.72,1897.41 L3263.03,1900.37 L3270.26,1901.03 L3272.57,1903.33 L3275.2,1905.31 L3278.82,1905.64 L3284.08,1903.33 L3288.03,1898.4 L3281.78,1894.78 L3283.42,1889.52 L3286.05,1884.58 L3288.68,1888.86 L3298.88,1891.16 L3307.76,1893.79 L3309.74,1880.64 L3317.63,1865.83 L3323.88,1851.36 L3332.76,1848.4 L3340.99,1850.7 L3347.89,1840.18 L3344.77,1825.15 L3315.49,1808.37 L3291.81,1790.61 L3281.61,1777.45 L3272.73,1765.94 L3263.52,1766.92 L3253.98,1770.21 L3247.07,1768.9 L3242.14,1765.94 L3220.43,1769.35 L3177.99,1768.36 L3161.54,1753.23 L3155.62,1752.24 L3152.66,1755.86 L3147.07,1751.26 L3135.23,1737.11" vector-effect="none" fill-rule="evenodd"/>

</g>
</g>
</svg>