<svg xmlns="http://www.w3.org/2000/svg" version="1.2" baseProfile="tiny" xmlns:inkscape="http://www.inkscape.org/namespaces/inkscape" width="315.045mm" viewBox="2640.07 1794.28 286.92 201.01" height="227.076mm" xmlns:xlink="http://www.w3.org/1999/xlink" xmlns:cc="http://creativecommons.org/ns#">
<g inkscape:groupmode="layer" stroke-width="1" stroke-linejoin="bevel" stroke-linecap="square" inkscape:label="Map 1: fid_70" fill="none" stroke="black" id="Map 1: fid_70" fill-rule="evenodd">
  <g stroke-width="1" stroke-linejoin="bevel" font-weight="400" stroke-linecap="square" font-size="83.3333" font-style="normal" fill="none" stroke-opacity="1" transform="matrix(1,0,0,1,0,0)" font-family="Noto Sans" stroke="#000000"/>
  <g stroke-width="1" stroke-linejoin="bevel" font-weight="400" stroke-linecap="square" font-size="83.3333" font-style="normal" fill="none" stroke-opacity="1" transform="matrix(1,0,0,1,0,0)" font-family="Noto Sans" stroke="#000000"/>
  <g stroke-width="1" stroke-linejoin="bevel" font-weight="400" stroke-linecap="square" font-size="83.3333" font-style="normal" fill="none" stroke-opacity="1" transform="matrix(23.6177,0,0,23.6177,23.6177,23.6177)" font-family="Noto Sans" stroke="#000000"/>
  <g stroke-width="1" stroke-linejoin="bevel" font-weight="400" stroke-linecap="square" font-size="83.3333" font-style="normal" fill="none" stroke-opacity="1" transform="matrix(23.6177,0,0,23.6177,23.6177,23.6177)" font-family="Noto Sans" stroke="#000000"/>
  <g fill-opacity="0" font-weight="400" font-size="83.3333" font-style="normal" fill="#000000" transform="matrix(0.999817,0,0,0.999817,23.6177,23.6177)" font-family="Noto Sans" stroke="none">
   <rect y="0" width="7395" height="5318" x="0"/>
  </g>
  <g stroke-width="1" stroke-linejoin="bevel" font-weight="400" stroke-linecap="square" font-size="83.3333" font-style="normal" fill="none" stroke-opacity="1" transform="matrix(0.999817,0,0,0.999817,23.6177,23.6177)" font-family="Noto Sans" stroke="#000000"/>
  <g fill-opacity="1" stroke-width="2" stroke-linejoin="bevel" font-weight="400" stroke-linecap="square" font-size="83.3333" font-style="normal" fill="#a47158" stroke-opacity="1" transform="matrix(0.999817,0,0,0.999817,23.6177,23.6177)" font-family="Noto Sans" stroke="#232323">
   <path d="M2672.79,1781.39 L2666.93,1783.29 L2660.92,1776.08 L2651.61,1774.28 L2650.71,1776.98 L2648.31,1779.08 L2651.01,1782.99 L2654.02,1785.99 L2654.02,1788.4 L2651.91,1790.8 L2645.6,1789.6 L2642.3,1790.5 L2643.5,1793.8 L2639.6,1793.8 L2640.5,1797.71 L2635.99,1797.71 L2635.69,1800.11 L2633.29,1799.51 L2634.49,1804.02 L2631.19,1804.32 L2629.98,1801.31 L2626.98,1801.91 L2628.78,1806.12 L2627.88,1808.82 L2626.38,1812.43 L2623.07,1815.73 L2620.07,1819.34 L2622.47,1822.94 L2626.08,1828.35 L2623.68,1834.06 L2626.08,1839.76 L2635.99,1851.78 L2638.39,1859.29 L2644.4,1864.1 L2648.01,1870.7 L2655.82,1874.31 L2663.03,1877.91 L2670.24,1881.52 L2675.34,1881.82 L2686.46,1878.21 L2691.26,1884.22 L2696.67,1891.73 L2703.28,1893.23 L2708.09,1898.34 L2715.9,1901.95 L2718,1905.55 L2721,1906.45 L2721,1904.65 L2730.62,1907.05 L2738.13,1909.76 L2739.03,1912.16 L2741.43,1912.76 L2743.53,1910.36 L2749.84,1913.36 L2750.14,1917.57 L2754.05,1919.07 L2757.35,1917.27 L2759.75,1920.27 L2757.95,1923.57 L2762.76,1925.68 L2767.26,1921.77 L2772.97,1923.57 L2776.28,1928.08 L2782.58,1927.78 L2787.39,1927.78 L2789.49,1930.48 L2796.1,1931.08 L2798.2,1933.19 L2800.61,1934.99 L2803.91,1935.29 L2808.72,1933.19 L2812.32,1928.68 L2806.62,1925.38 L2808.12,1920.57 L2810.52,1916.06 L2812.92,1919.97 L2822.24,1922.07 L2830.35,1924.47 L2832.15,1912.46 L2839.36,1898.94 L2845.07,1885.72 L2853.18,1883.02 L2860.69,1885.12 L2866.99,1875.51 L2864.14,1861.79 L2837.41,1846.47 L2815.78,1830.25 L2806.47,1818.23 L2798.35,1807.72 L2789.94,1808.62 L2781.23,1811.62 L2774.92,1810.42 L2770.42,1807.72 L2750.59,1810.83 L2711.84,1809.93 L2696.82,1796.11 L2691.41,1795.21 L2688.71,1798.52 L2683.6,1794.31 L2672.79,1781.39" vector-effect="none" fill-rule="evenodd"/>
  </g>
  <g stroke-width="1" stroke-linejoin="bevel" font-weight="400" stroke-linecap="square" font-size="83.3333" font-style="normal" fill="none" stroke-opacity="1" transform="matrix(0.999817,0,0,0.999817,23.6177,23.6177)" font-family="Noto Sans" stroke="#000000"/>
  <g stroke-width="1" stroke-linejoin="bevel" font-weight="400" stroke-linecap="square" font-size="83.3333" font-style="normal" fill="none" stroke-opacity="1" transform="matrix(23.6177,0,0,23.6177,23.6177,23.6177)" font-family="Noto Sans" stroke="#000000"/>
  <g stroke-width="1" stroke-linejoin="bevel" font-weight="400" stroke-linecap="square" font-size="83.3333" font-style="normal" fill="none" stroke-opacity="1" transform="matrix(23.6177,0,0,23.6177,23.6177,23.6177)" font-family="Noto Sans" stroke="#000000"/>
  <g stroke-width="1" stroke-linejoin="bevel" font-weight="400" stroke-linecap="square" font-size="83.3333" font-style="normal" fill="none" stroke-opacity="1" transform="matrix(23.6177,0,0,23.6177,23.6177,23.6177)" font-family="Noto Sans" stroke="#000000"/>
  <g stroke-width="1" stroke-linejoin="bevel" font-weight="400" stroke-linecap="square" font-size="83.3333" font-style="normal" fill="none" stroke-opacity="1" transform="matrix(1,0,0,1,0,0)" font-family="Noto Sans" stroke="#000000"/>
  <g stroke-width="1" stroke-linejoin="bevel" font-weight="400" stroke-linecap="square" font-size="83.3333" font-style="normal" fill="none" stroke-opacity="1" transform="matrix(23.6177,0,0,23.6177,23.6177,23.6177)" font-family="Noto Sans" stroke="#000000"/>
  <g stroke-width="1" stroke-linejoin="bevel" font-weight="400" stroke-linecap="square" font-size="83.3333" font-style="normal" fill="none" stroke-opacity="1" transform="matrix(23.6177,0,0,23.6177,23.6177,23.6177)" font-family="Noto Sans" stroke="#000000"/>
  <g stroke-width="1" stroke-linejoin="bevel" font-weight="400" stroke-linecap="square" font-size="83.3333" font-style="normal" fill="none" stroke-opacity="1" transform="matrix(1,0,0,1,0,0)" font-family="Noto Sans" stroke="#000000"/>
 </g>
 
</svg>