<svg xmlns="http://www.w3.org/2000/svg" version="1.2" baseProfile="tiny" xmlns:inkscape="http://www.inkscape.org/namespaces/inkscape" width="315.045mm" viewBox="1503.31 1145.43 39.2 35.19" height="227.076mm" xmlns:xlink="http://www.w3.org/1999/xlink" xmlns:cc="http://creativecommons.org/ns#">
<g stroke-linejoin="bevel" stroke="black" inkscape:label="Map 1: fid_60" fill-rule="evenodd" stroke-linecap="square" inkscape:groupmode="layer" stroke-width="1" fill="none" id="Map 1: fid_60">
  <g stroke-linejoin="bevel"  fill-opacity="1" stroke="#232323" font-style="normal" stroke-linecap="square" font-family="Noto Sans" font-size="41.6667" font-weight="400" stroke-width="1" fill="#f3a6b2" stroke-opacity="1">
   <path d="M1508.31,1166.45 L1510.92,1164.58 L1513.01,1163.84 L1517.86,1167.55 L1518.67,1166.54 L1523.59,1169.37 L1524.27,1168.09 L1522.99,1167.08 L1523.59,1165.8 L1525.34,1166.4 L1527.16,1164.18 L1524.6,1162.43 L1524.74,1161.95 L1524.2,1161.62 L1524.06,1162.02 L1522.11,1161.01 L1522.38,1160.13 L1519.82,1157.91 L1526.83,1150.43 L1531.14,1152.86 L1537.51,1159.06 L1536.29,1161.08 L1532.25,1163.17 L1525.16,1175.62 L1520.44,1171.71 L1515.59,1173.6 L1514.38,1171.17 L1509.39,1168.88 L1508.31,1166.45" fill-rule="evenodd" vector-effect="none"/>

</g>
</g>
</svg>