<svg xmlns="http://www.w3.org/2000/svg" version="1.2" baseProfile="tiny" xmlns:inkscape="http://www.inkscape.org/namespaces/inkscape" width="315.045mm" viewBox="1240.05 1273.0 54.94 104.19" height="227.076mm" xmlns:xlink="http://www.w3.org/1999/xlink" xmlns:cc="http://creativecommons.org/ns#">
<g stroke-linejoin="bevel" stroke="black" inkscape:label="Map 1: fid_11" fill-rule="evenodd" stroke-linecap="square" inkscape:groupmode="layer" stroke-width="1" fill="none" id="Map 1: fid_11">
  <g stroke-linejoin="bevel"  fill-opacity="1" stroke="#232323" font-style="normal" stroke-linecap="square" font-family="Noto Sans" font-size="41.6667" font-weight="400" stroke-width="1" fill="#e15989" stroke-opacity="1">
   <path d="M1246.36,1279.67 L1245.05,1281.59 L1248.36,1284.29 L1248.88,1285.68 L1245.92,1286.47 L1246.71,1288.9 L1249.49,1289.25 L1250.37,1286.9 L1257.25,1286.99 L1257.33,1288.21 L1253.06,1289.25 L1253.06,1290.65 L1250.71,1291.69 L1250.1,1294.39 L1252.8,1299.01 L1250.28,1302.75 L1250.19,1311.81 L1252.63,1315.03 L1251.24,1323.48 L1255.59,1324.18 L1261.86,1327.75 L1263.17,1330.01 L1266.83,1332.1 L1267.61,1339.16 L1268.04,1347.28 L1266.22,1350.85 L1282.33,1372.19 L1289.47,1363.39 L1289.99,1351.98 L1288.6,1350.5 L1288.77,1337.78 L1286.16,1335.17 L1284.33,1334.74 L1283.81,1332.04 L1285.03,1330.9 L1285.11,1329.16 L1283.11,1326.64 L1283.9,1314.71 L1278.67,1301.64 L1278.58,1286.75 L1279.63,1284.2 L1279.8,1278 L1274.58,1279.74 L1269,1284.62 L1262.38,1285.14 L1255.59,1284.79 L1248.62,1282.87 L1246.36,1279.67" fill-rule="evenodd" vector-effect="none"/>

</g>
</g>
</svg>