<svg xmlns="http://www.w3.org/2000/svg" version="1.2" baseProfile="tiny" xmlns:inkscape="http://www.inkscape.org/namespaces/inkscape" width="315.045mm" viewBox="1456.37 655.323 136.91 144.815" height="227.076mm" xmlns:xlink="http://www.w3.org/1999/xlink" xmlns:cc="http://creativecommons.org/ns#">
<g stroke-linejoin="bevel" stroke="black" inkscape:label="Map 1: fid_65" fill-rule="evenodd" stroke-linecap="square" inkscape:groupmode="layer" stroke-width="1" fill="none" id="Map 1: fid_65">
  <g stroke-linejoin="bevel"  fill-opacity="1" stroke="#232323" font-style="normal" stroke-linecap="square" font-family="Noto Sans" font-size="41.6667" font-weight="400" stroke-width="1" fill="#e15989" stroke-opacity="1">
   <path d="M1585.84,725.618 L1579.71,735.43 L1579.04,751.469 L1572.43,762.386 L1566.5,768.047 L1560.98,772.225 L1558.69,778.021 L1558.82,787.725 L1557.07,791.634 L1552.75,790.286 L1550.46,795.138 L1545.75,794.464 L1545.48,790.555 L1529.17,784.894 L1525.39,786.377 L1513.4,779.503 L1503.69,772.225 L1499.52,766.834 L1495.88,762.117 L1492.1,762.521 L1488.19,763.869 L1485.36,763.33 L1483.34,762.117 L1481.99,760.903 L1477.95,756.051 L1474.31,750.256 L1472.02,748.234 L1469.6,745.673 L1467.17,742.843 L1464.07,739.608 L1462.59,735.565 L1461.37,733.273 L1461.91,731.656 L1463.4,730.713 L1466.76,731.252 L1468.92,730.982 L1471.21,730.443 L1473.37,729.769 L1475.26,728.017 L1475.66,727.208 L1476.47,725.726 L1476.74,725.052 L1477.01,724.378 L1477.14,723.704 L1478.89,722.895 L1481.32,722.356 L1483.34,722.087 L1485.23,721.817 L1486.85,721.548 L1490.76,719.93 L1495.61,717.908 L1500.59,715.752 L1504.1,710.765 L1510.97,706.048 L1519.06,707.126 L1519.73,702.678 L1515.69,699.443 L1493.99,690.144 L1486.31,678.418 L1494.13,669.623 L1503.56,665.445 L1516.77,660.323 L1527.82,660.862 L1538.12,666.156 L1547.87,670.685 L1588.28,719.108 L1585.84,725.618" fill-rule="evenodd" vector-effect="none"/>

</g>
</g>
</svg>