<svg xmlns="http://www.w3.org/2000/svg" version="1.2" baseProfile="tiny" xmlns:inkscape="http://www.inkscape.org/namespaces/inkscape" width="315.045mm" viewBox="1605.31 1374.94 59.6 105.1" height="227.076mm" xmlns:xlink="http://www.w3.org/1999/xlink" xmlns:cc="http://creativecommons.org/ns#">
<g stroke-linejoin="bevel" stroke="black" inkscape:label="Map 1: fid_22" fill-rule="evenodd" stroke-linecap="square" inkscape:groupmode="layer" stroke-width="1" fill="none" id="Map 1: fid_22">
  <g stroke-linejoin="bevel"  fill-opacity="1" stroke="#232323" font-style="normal" stroke-linecap="square" font-family="Noto Sans" font-size="41.6667" font-weight="400" stroke-width="1" fill="#b7484b" stroke-opacity="1">
   <path d="M1613.06,1434.67 L1616.37,1435.68 L1617.06,1442.29 L1619.68,1444.56 L1619.15,1448.39 L1624.38,1453.27 L1625.95,1458.15 L1627.52,1464.07 L1630.65,1467.03 L1627.69,1474.87 L1631.87,1475.04 L1633.09,1473.12 L1636.57,1474.17 L1637.79,1472.78 L1641.28,1474.34 L1644.76,1474.34 L1648.94,1472.95 L1651.94,1473.43 L1658.69,1472.65 L1659.91,1471.08 L1653.47,1454.53 L1655.56,1451.57 L1655.73,1445.65 L1649.64,1439.9 L1649.81,1435.2 L1642.67,1433.41 L1638.49,1434.28 L1636.57,1431.32 L1638.66,1428.88 L1641.62,1428.36 L1642.84,1424.7 L1637.27,1399.45 L1640.06,1389.69 L1632.74,1386.21 L1633.96,1393.7 L1629.61,1405.19 L1627.52,1405.19 L1624.03,1403.28 L1622.29,1401.19 L1622.29,1385.68 L1620.72,1384.81 L1618.63,1389.87 L1617.41,1389.52 L1617.24,1387.08 L1615.15,1386.38 L1618.46,1379.94 L1617.15,1380.11 L1615.19,1382.4 L1612.14,1390.15 L1610.31,1405.91 L1614.28,1417.43 L1613.06,1434.67" fill-rule="evenodd" vector-effect="none"/>

</g>
</g>
</svg>