<svg xmlns="http://www.w3.org/2000/svg" version="1.2" baseProfile="tiny" xmlns:inkscape="http://www.inkscape.org/namespaces/inkscape" width="315.045mm" viewBox="1387.5 546.05 169.2 125.106" height="227.076mm" xmlns:xlink="http://www.w3.org/1999/xlink" xmlns:cc="http://creativecommons.org/ns#">
<g stroke-linejoin="bevel" stroke="black" inkscape:label="Map 1: fid_68" fill-rule="evenodd" stroke-linecap="square" inkscape:groupmode="layer" stroke-width="1" fill="none" id="Map 1: fid_68">
  <g stroke-linejoin="bevel"  fill-opacity="1" stroke="#232323" font-style="normal" stroke-linecap="square" font-family="Noto Sans" font-size="41.6667" font-weight="400" stroke-width="1" fill="#e8718d" stroke-opacity="1">
   <path d="M1393.85,629.61 L1400.86,629.88 L1404.09,635.541 L1409.48,638.775 L1412.72,641.74 L1414.34,646.862 L1419.46,648.479 L1421.34,652.523 L1426.2,656.027 L1435.9,660.071 L1442.1,659.532 L1449.92,660.879 L1454.5,659.801 L1460.16,663.305 L1474.45,664.923 L1491.43,666.001 L1503.56,665.445 L1516.77,660.323 L1527.82,660.862 L1538.12,666.156 L1537.07,657.447 L1544.04,655.357 L1551.01,651.525 L1551.7,647.693 L1545.88,634.462 L1541.3,631.767 L1522.97,632.845 L1516.5,629.071 L1511.92,624.758 L1511.11,613.167 L1505.45,602.924 L1515.15,604.002 L1520,600.767 L1521.35,592.411 L1518.66,586.48 L1511.11,582.437 L1500.86,574.889 L1497.09,575.159 L1491.97,577.854 L1487.93,581.359 L1481.46,581.359 L1475.53,589.176 L1458.81,595.915 L1443.72,589.176 L1434.01,582.706 L1428.35,572.194 L1426.2,564.915 L1423.23,558.176 L1420.8,551.454 L1411.1,551.05 L1408.4,560.602 L1404.9,564.107 L1403.55,569.228 L1400.86,571.924 L1402.2,575.967 L1402.74,579.741 L1401.67,584.324 L1402.74,587.559 L1400.32,591.332 L1399.51,595.376 L1397.62,598.88 L1397.89,601.845 L1396.27,605.619 L1393.85,608.045 L1395.47,611.819 L1393.04,616.941 L1394.12,622.062 L1392.5,625.028 L1393.31,629.071 L1393.85,629.61" fill-rule="evenodd" vector-effect="none"/>

</g>
</g>
</svg>