<svg xmlns="http://www.w3.org/2000/svg" version="1.2" baseProfile="tiny" xmlns:inkscape="http://www.inkscape.org/namespaces/inkscape" width="315.045mm" viewBox="3820.52 1980.99 330.68 453.84" height="227.076mm" xmlns:xlink="http://www.w3.org/1999/xlink" xmlns:cc="http://creativecommons.org/ns#">
<g inkscape:groupmode="layer" stroke-width="1" stroke-linejoin="bevel" stroke-linecap="square" inkscape:label="Map 1: fid_26" fill="none" stroke="black" id="Map 1: fid_26" fill-rule="evenodd">
  <g stroke-width="1" stroke-linejoin="bevel" font-weight="400" stroke-linecap="square" font-size="83.3333" font-style="normal" fill="none" stroke-opacity="1" transform="matrix(1,0,0,1,0,0)" font-family="Noto Sans" stroke="#000000"/>
  <g stroke-width="1" stroke-linejoin="bevel" font-weight="400" stroke-linecap="square" font-size="83.3333" font-style="normal" fill="none" stroke-opacity="1" transform="matrix(1,0,0,1,0,0)" font-family="Noto Sans" stroke="#000000"/>
  <g stroke-width="1" stroke-linejoin="bevel" font-weight="400" stroke-linecap="square" font-size="83.3333" font-style="normal" fill="none" stroke-opacity="1" transform="matrix(23.6177,0,0,23.6177,23.6177,23.6177)" font-family="Noto Sans" stroke="#000000"/>
  <g stroke-width="1" stroke-linejoin="bevel" font-weight="400" stroke-linecap="square" font-size="83.3333" font-style="normal" fill="none" stroke-opacity="1" transform="matrix(23.6177,0,0,23.6177,23.6177,23.6177)" font-family="Noto Sans" stroke="#000000"/>
  <g fill-opacity="0" font-weight="400" font-size="83.3333" font-style="normal" fill="#000000" transform="matrix(0.999817,0,0,0.999817,23.6177,23.6177)" font-family="Noto Sans" stroke="none">
   <rect y="0" width="7395" height="5318" x="0"/>
  </g>
  <g stroke-width="1" stroke-linejoin="bevel" font-weight="400" stroke-linecap="square" font-size="83.3333" font-style="normal" fill="none" stroke-opacity="1" transform="matrix(0.999817,0,0,0.999817,23.6177,23.6177)" font-family="Noto Sans" stroke="#000000"/>
  <g fill-opacity="1" stroke-width="2" stroke-linejoin="bevel" font-weight="400" stroke-linecap="square" font-size="83.3333" font-style="normal" fill="#7d8b8f" stroke-opacity="1" transform="matrix(0.999817,0,0,0.999817,23.6177,23.6177)" font-family="Noto Sans" stroke="#232323">
   <path d="M4062.95,2374.83 L4091.2,2350.66 L4067.61,2300.29 L4073.44,2296.41 L4061.4,2254.48 L4066.45,2238.95 L4076.15,2238.95 L4074.21,2227.7 L4066.84,2215.27 L4055.97,2216.05 L4043.54,2216.83 L4040.05,2212.17 L4030.34,2212.17 L4021.03,2206.34 L4012.87,2202.46 L4002.39,2197.03 L3996.18,2191.98 L3989.58,2184.6 L3993.46,2177.23 L3966.68,2142.29 L3959.69,2141.12 L3961.63,2159.76 L3949.98,2157.82 L3922.42,2096.09 L3918.15,2096.09 L3919.7,2110.84 L3902.23,2105.8 L3897.96,2099.97 L3891.36,2070.86 L3897.96,2043.68 L3906.89,2040.97 L3900.68,2030.87 L3895.25,2027.77 L3890.59,2028.54 L3884.38,2021.94 L3877.39,2020.78 L3875.45,2009.13 L3869.24,2002.92 L3867.68,1996.71 L3861.86,1996.32 L3857.98,1991.27 L3854.1,1990.89 L3849.44,1983.9 L3844.78,1983.9 L3840.51,1979.24 L3833.13,1976.52 L3827.7,1972.25 L3826.14,1962.16 L3820.71,1960.99 L3816.83,1964.88 L3815.27,1971.48 L3820.32,1978.08 L3818.77,1983.12 L3823.81,2001.76 L3821.87,2012.63 L3814.89,2018.45 L3812.94,2026.99 L3812.94,2037.86 L3808.29,2039.03 L3808.29,2049.9 L3812.17,2056.49 L3811.39,2067.75 L3805.96,2112.01 L3808.67,2127.15 L3806.35,2148.89 L3800.52,2161.7 L3805.96,2174.12 L3816.83,2216.83 L3815.66,2247.5 L3834.3,2275.45 L3840.9,2273.12 L3859.92,2301.84 L3882.05,2306.5 L3935.23,2350.76 L3975.22,2369.78 L4014.04,2351.15 L4024.13,2370.56 L4062.95,2374.83" vector-effect="none" fill-rule="evenodd"/>
  </g>
  <g stroke-width="1" stroke-linejoin="bevel" font-weight="400" stroke-linecap="square" font-size="83.3333" font-style="normal" fill="none" stroke-opacity="1" transform="matrix(0.999817,0,0,0.999817,23.6177,23.6177)" font-family="Noto Sans" stroke="#000000"/>
  <g stroke-width="1" stroke-linejoin="bevel" font-weight="400" stroke-linecap="square" font-size="83.3333" font-style="normal" fill="none" stroke-opacity="1" transform="matrix(23.6177,0,0,23.6177,23.6177,23.6177)" font-family="Noto Sans" stroke="#000000"/>
  <g stroke-width="1" stroke-linejoin="bevel" font-weight="400" stroke-linecap="square" font-size="83.3333" font-style="normal" fill="none" stroke-opacity="1" transform="matrix(23.6177,0,0,23.6177,23.6177,23.6177)" font-family="Noto Sans" stroke="#000000"/>
  <g stroke-width="1" stroke-linejoin="bevel" font-weight="400" stroke-linecap="square" font-size="83.3333" font-style="normal" fill="none" stroke-opacity="1" transform="matrix(23.6177,0,0,23.6177,23.6177,23.6177)" font-family="Noto Sans" stroke="#000000"/>
  <g stroke-width="1" stroke-linejoin="bevel" font-weight="400" stroke-linecap="square" font-size="83.3333" font-style="normal" fill="none" stroke-opacity="1" transform="matrix(1,0,0,1,0,0)" font-family="Noto Sans" stroke="#000000"/>
  <g stroke-width="1" stroke-linejoin="bevel" font-weight="400" stroke-linecap="square" font-size="83.3333" font-style="normal" fill="none" stroke-opacity="1" transform="matrix(23.6177,0,0,23.6177,23.6177,23.6177)" font-family="Noto Sans" stroke="#000000"/>
  <g stroke-width="1" stroke-linejoin="bevel" font-weight="400" stroke-linecap="square" font-size="83.3333" font-style="normal" fill="none" stroke-opacity="1" transform="matrix(23.6177,0,0,23.6177,23.6177,23.6177)" font-family="Noto Sans" stroke="#000000"/>
  <g stroke-width="1" stroke-linejoin="bevel" font-weight="400" stroke-linecap="square" font-size="83.3333" font-style="normal" fill="none" stroke-opacity="1" transform="matrix(1,0,0,1,0,0)" font-family="Noto Sans" stroke="#000000"/>
 </g>
 
</svg>