<svg xmlns="http://www.w3.org/2000/svg" version="1.2" baseProfile="tiny" xmlns:inkscape="http://www.inkscape.org/namespaces/inkscape" width="315.045mm" viewBox="1940.53 825.89 140.42 195.68" height="227.076mm" xmlns:xlink="http://www.w3.org/1999/xlink" xmlns:cc="http://creativecommons.org/ns#">
<g stroke-linejoin="bevel" stroke="black" inkscape:label="Map 1: fid_26" fill-rule="evenodd" stroke-linecap="square" inkscape:groupmode="layer" stroke-width="1" fill="none" id="Map 1: fid_26">
  <g stroke-linejoin="bevel"  fill-opacity="1" stroke="#232323" font-style="normal" stroke-linecap="square" font-family="Noto Sans" font-size="41.6667" font-weight="400" stroke-width="1" fill="#85b66f" stroke-opacity="1">
   <path d="M2063.28,1016.57 L2075.95,1005.73 L2065.37,983.126 L2067.98,981.384 L2062.58,962.572 L2064.85,955.605 L2069.2,955.605 L2068.33,950.554 L2065.02,944.98 L2060.14,945.328 L2054.57,945.676 L2053,943.586 L2048.65,943.586 L2044.47,940.973 L2040.81,939.232 L2036.11,936.793 L2033.32,934.529 L2030.36,931.219 L2032.1,927.91 L2020.08,912.233 L2016.95,911.711 L2017.82,920.071 L2012.59,919.201 L2000.22,891.505 L1998.31,891.505 L1999,898.124 L1991.17,895.86 L1989.25,893.247 L1986.29,880.184 L1989.25,867.991 L1993.26,866.771 L1990.47,862.243 L1988.03,860.849 L1985.94,861.198 L1983.15,858.236 L1980.02,857.714 L1979.15,852.488 L1976.36,849.701 L1975.66,846.915 L1973.05,846.74 L1971.31,844.476 L1969.57,844.302 L1967.48,841.167 L1965.39,841.167 L1963.47,839.076 L1960.16,837.857 L1957.72,835.941 L1957.03,831.412 L1954.59,830.89 L1952.85,832.632 L1952.15,835.593 L1954.41,838.554 L1953.72,840.818 L1955.98,849.179 L1955.11,854.056 L1951.97,856.669 L1951.1,860.501 L1951.1,865.378 L1949.01,865.901 L1949.01,870.778 L1950.76,873.739 L1950.41,878.79 L1947.97,898.647 L1949.19,905.44 L1948.14,915.194 L1945.53,920.942 L1947.97,926.516 L1952.85,945.676 L1952.32,959.437 L1960.68,971.978 L1963.65,970.933 L1972.18,983.823 L1982.11,985.913 L2005.97,1005.77 L2023.91,1014.3 L2041.33,1005.94 L2045.86,1014.65 L2063.28,1016.57" fill-rule="evenodd" vector-effect="none"/>

</g>
</g>
</svg>