<svg xmlns="http://www.w3.org/2000/svg" version="1.2" baseProfile="tiny" xmlns:inkscape="http://www.inkscape.org/namespaces/inkscape" width="315.045mm" viewBox="4365.17 1928.79 328.3 463.17" height="227.076mm" xmlns:xlink="http://www.w3.org/1999/xlink" xmlns:cc="http://creativecommons.org/ns#">
<g inkscape:groupmode="layer" stroke-width="1" stroke-linejoin="bevel" stroke-linecap="square" inkscape:label="Map 1: fid_26" fill="none" stroke="black" id="Map 1: fid_26" fill-rule="evenodd">
  <g fill-opacity="1" stroke-width="2" stroke-linejoin="bevel" font-weight="400" stroke-linecap="square" font-size="83.3333" font-style="normal" fill="#e77148" stroke-opacity="1"  font-family="Noto Sans" stroke="#232323">
   <path d="M4657.55,2386.96 L4688.47,2360.5 L4662.65,2305.34 L4669.02,2301.09 L4655.85,2255.17 L4661.37,2238.17 L4672,2238.17 L4669.88,2225.84 L4661.8,2212.24 L4649.89,2213.09 L4636.29,2213.94 L4632.46,2208.84 L4621.84,2208.84 L4611.63,2202.46 L4602.71,2198.21 L4591.23,2192.26 L4584.43,2186.73 L4577.2,2178.65 L4581.45,2170.58 L4552.12,2132.32 L4544.47,2131.04 L4546.59,2151.45 L4533.84,2149.32 L4503.65,2081.73 L4498.98,2081.73 L4500.68,2097.88 L4481.55,2092.35 L4476.87,2085.98 L4469.64,2054.09 L4476.87,2024.34 L4486.65,2021.36 L4479.85,2010.31 L4473.9,2006.91 L4468.79,2007.76 L4461.99,2000.53 L4454.34,1999.25 L4452.22,1986.5 L4445.41,1979.7 L4443.71,1972.9 L4437.34,1972.47 L4433.08,1966.94 L4428.83,1966.52 L4423.73,1958.87 L4418.63,1958.87 L4413.95,1953.77 L4405.88,1950.79 L4399.93,1946.11 L4398.23,1935.06 L4392.27,1933.79 L4388.02,1938.04 L4386.32,1945.26 L4391.85,1952.49 L4390.15,1958.02 L4395.67,1978.42 L4393.55,1990.33 L4385.9,1996.7 L4383.77,2006.06 L4383.77,2017.96 L4378.67,2019.23 L4378.67,2031.14 L4382.92,2038.36 L4382.07,2050.69 L4376.12,2099.16 L4379.09,2115.74 L4376.54,2139.54 L4370.17,2153.57 L4376.12,2167.17 L4388.02,2213.94 L4386.75,2247.52 L4407.15,2278.13 L4414.38,2275.58 L4435.21,2307.04 L4459.44,2312.14 L4517.68,2360.6 L4561.47,2381.43 L4603.98,2361.03 L4615.03,2382.28 L4657.55,2386.96" vector-effect="none" fill-rule="evenodd"/>

</g>
</g>
</svg>