<svg xmlns="http://www.w3.org/2000/svg" version="1.2" baseProfile="tiny" xmlns:inkscape="http://www.inkscape.org/namespaces/inkscape" width="315.045mm" viewBox="1576.88 1518.42 79.8 133.23" height="227.076mm" xmlns:xlink="http://www.w3.org/1999/xlink" xmlns:cc="http://creativecommons.org/ns#">
<g stroke-linejoin="bevel" stroke="black" inkscape:label="Map 1: fid_85" fill-rule="evenodd" stroke-linecap="square" inkscape:groupmode="layer" stroke-width="1" fill="none" id="Map 1: fid_85">
  <g stroke-linejoin="bevel"  fill-opacity="1" stroke="#232323" font-style="normal" stroke-linecap="square" font-family="Noto Sans" font-size="41.6667" font-weight="400" stroke-width="1" fill="#b7484b" stroke-opacity="1">
   <path d="M1591.99,1601.76 L1594.82,1595.14 L1597.92,1592.71 L1601.43,1596.08 L1603.18,1594.87 L1606.55,1597.16 L1610.73,1591.91 L1607.63,1585.3 L1620.97,1574.25 L1617.87,1564.95 L1619.89,1562.39 L1618.55,1560.5 L1622.05,1557.8 L1621.24,1556.59 L1625.15,1552.68 L1621.92,1551.2 L1622.32,1548.37 L1619.09,1544.73 L1623.8,1529.09 L1627.73,1523.42 L1629.82,1527.08 L1634.87,1527.08 L1637.66,1530.74 L1637.49,1534.92 L1641.49,1538.92 L1643.58,1542.58 L1646.72,1549.07 L1645.67,1551.94 L1651.68,1552.81 L1651.42,1554.12 L1640.79,1560.18 L1634.32,1559.24 L1630.68,1561.53 L1629.46,1565.03 L1630.14,1568.67 L1625.42,1571.64 L1620.3,1587.14 L1622.99,1590.64 L1620.84,1593.74 L1621.65,1602.1 L1619.63,1608.97 L1616.39,1609.65 L1616.12,1615.31 L1618.14,1618.68 L1618.55,1620.7 L1617.06,1627.47 L1614.91,1632.49 L1606.01,1640.72 L1598.87,1645.84 L1596.98,1646.65 L1594.42,1646.38 L1591.99,1645.3 L1590.91,1642.2 L1591.86,1639.64 L1594.15,1636.94 L1594.82,1634.38 L1589.16,1631.28 L1587.68,1631.28 L1584.85,1629.8 L1581.88,1627.24 L1582.42,1623.19 L1590.51,1612.82 L1587.14,1610.79 L1589.43,1609.18 L1588.89,1606.35 L1592.26,1605.4 L1591.99,1601.76" fill-rule="evenodd" vector-effect="none"/>

</g>
</g>
</svg>