<svg xmlns="http://www.w3.org/2000/svg" version="1.2" baseProfile="tiny" xmlns:inkscape="http://www.inkscape.org/namespaces/inkscape" width="315.045mm" viewBox="2644.29 2662.8 182.07 367.95" height="227.076mm" xmlns:xlink="http://www.w3.org/1999/xlink" xmlns:cc="http://creativecommons.org/ns#">
<g inkscape:groupmode="layer" stroke-width="1" stroke-linejoin="bevel" stroke-linecap="square" inkscape:label="Map 1: fid_8" fill="none" stroke="black" id="Map 1: fid_8" fill-rule="evenodd">
  <g fill-opacity="1" stroke-width="2" stroke-linejoin="bevel" font-weight="400" stroke-linecap="square" font-size="83.3333" font-style="normal" fill="#e77148" stroke-opacity="1"  font-family="Noto Sans" stroke="#232323">
   <path d="M2784.8,3025.75 L2763.22,3020.65 L2749.19,2986.22 L2750.05,2952.21 L2731.77,2951.36 L2732.19,2922.45 L2711.36,2899.92 L2698.61,2868.46 L2709.66,2866.76 L2672.25,2779.61 L2649.29,2761.75 L2665.45,2749.43 L2672.25,2749 L2679.48,2740.07 L2679.48,2724.34 L2690.1,2713.72 L2696.48,2706.06 L2700.31,2705.21 L2702.86,2698.41 L2705.83,2691.19 L2713.06,2695.01 L2718.59,2692.46 L2728.79,2704.79 L2729.64,2717.12 L2733.04,2731.15 L2737.72,2738.8 L2745.37,2746.03 L2753.45,2747.73 L2760.25,2744.75 L2770.03,2712.87 L2775.98,2710.74 L2779.38,2714.14 L2782.35,2722.64 L2789.58,2723.49 L2793.83,2717.97 L2792.98,2706.91 L2784.9,2688.63 L2784.05,2673.76 L2798.93,2667.8 L2801.48,2675.88 L2800.63,2686.08 L2806.59,2690.76 L2809.99,2691.19 L2811.69,2676.73 L2817.96,2676.73 L2816.04,2689.27 L2816.26,2699.05 L2821.36,2706.28 L2817.11,2736.67 L2807.54,2746.03 L2800.53,2766.22 L2779.06,2764.94 L2762.69,2798.53 L2762.91,2822.65 L2771.83,2831.37 L2772.05,2840.51 L2781.82,2850.5 L2788.62,2861.34 L2784.37,2905.87 L2792.88,2955.18 L2790.75,2978.14 L2778,2968.36 L2771.62,2978.56 L2775.02,3004.07 L2784.8,3025.75" vector-effect="none" fill-rule="evenodd"/>

</g>
</g>
</svg>