<svg xmlns="http://www.w3.org/2000/svg" version="1.2" baseProfile="tiny" xmlns:inkscape="http://www.inkscape.org/namespaces/inkscape" width="315.045mm" viewBox="1235.44 1126.64 80.5 156.66" height="227.076mm" xmlns:xlink="http://www.w3.org/1999/xlink" xmlns:cc="http://creativecommons.org/ns#">
<g stroke-linejoin="bevel" stroke="black" inkscape:label="Map 1: fid_8" fill-rule="evenodd" stroke-linecap="square" inkscape:groupmode="layer" stroke-width="1" fill="none" id="Map 1: fid_8">
  <g stroke-linejoin="bevel"  fill-opacity="1" stroke="#232323" font-style="normal" stroke-linecap="square" font-family="Noto Sans" font-size="41.6667" font-weight="400" stroke-width="1" fill="#85b66f" stroke-opacity="1">
   <path d="M1295.96,1278.3 L1287.12,1276.21 L1281.37,1262.1 L1281.72,1248.17 L1274.23,1247.82 L1274.4,1235.97 L1265.87,1226.74 L1260.64,1213.85 L1265.17,1213.16 L1249.84,1177.45 L1240.44,1170.13 L1247.06,1165.08 L1249.84,1164.91 L1252.8,1161.25 L1252.8,1154.81 L1257.16,1150.45 L1259.77,1147.32 L1261.34,1146.97 L1262.38,1144.18 L1263.6,1141.22 L1266.56,1142.79 L1268.83,1141.74 L1273.01,1146.79 L1273.36,1151.84 L1274.75,1157.59 L1276.67,1160.73 L1279.8,1163.69 L1283.11,1164.39 L1285.9,1163.17 L1289.9,1150.1 L1292.34,1149.23 L1293.74,1150.62 L1294.96,1154.11 L1297.92,1154.46 L1299.66,1152.19 L1299.31,1147.66 L1296,1140.17 L1295.65,1134.08 L1301.75,1131.64 L1302.79,1134.95 L1302.45,1139.13 L1304.88,1141.04 L1306.28,1141.22 L1306.97,1135.3 L1309.54,1135.3 L1308.76,1140.43 L1308.85,1144.44 L1310.94,1147.4 L1309.2,1159.86 L1305.28,1163.69 L1302.4,1171.96 L1293.61,1171.44 L1286.9,1185.2 L1286.99,1195.08 L1290.64,1198.66 L1290.73,1202.4 L1294.74,1206.49 L1297.53,1210.94 L1295.78,1229.18 L1299.27,1249.39 L1298.4,1258.79 L1293.17,1254.79 L1290.56,1258.97 L1291.95,1269.42 L1295.96,1278.3" fill-rule="evenodd" vector-effect="none"/>

</g>
</g>
</svg>