<svg xmlns="http://www.w3.org/2000/svg" version="1.2" baseProfile="tiny" xmlns:inkscape="http://www.inkscape.org/namespaces/inkscape" width="315.045mm" viewBox="1346.53 1615.73 107.72 146.48" height="227.076mm" xmlns:xlink="http://www.w3.org/1999/xlink" xmlns:cc="http://creativecommons.org/ns#">
<g stroke-linejoin="bevel" stroke="black" inkscape:label="Map 1: fid_79" fill-rule="evenodd" stroke-linecap="square" inkscape:groupmode="layer" stroke-width="1" fill="none" id="Map 1: fid_79">
  <g stroke-linejoin="bevel"  fill-opacity="1" stroke="#232323" font-style="normal" stroke-linecap="square" font-family="Noto Sans" font-size="41.6667" font-weight="400" stroke-width="1" fill="#d5b43c" stroke-opacity="1">
   <path d="M1351.66,1752.73 L1418.52,1746.56 L1420.4,1748.72 L1421.62,1756 L1428.76,1757.21 L1433.88,1752.9 L1440.08,1750.47 L1442.1,1750.47 L1440.62,1742.92 L1447.36,1722.7 L1446.55,1716.34 L1446.55,1709.19 L1445.21,1701.78 L1446.01,1691.67 L1449.25,1686.41 L1443.45,1685.57 L1434.15,1678.69 L1425.66,1678.96 L1423.37,1669.93 L1415.96,1669.93 L1415.82,1667.37 L1424.31,1645.81 L1423.5,1641.9 L1420.13,1642.71 L1414.61,1637.58 L1410.56,1633.67 L1412.59,1630.17 L1413.26,1620.73 L1406.39,1622.08 L1406.52,1624.78 L1402.48,1625.05 L1398.43,1625.45 L1393.85,1625.99 L1389,1637.58 L1382.12,1642.3 L1374.71,1642.03 L1370.4,1637.45 L1366.22,1630.3 L1362.85,1634.21 L1363.25,1637.35 L1369.86,1659.18 L1370.8,1678.05 L1374.71,1678.73 L1380.51,1687.22 L1379.7,1695.17 L1369.59,1708.52 L1370.13,1715.66 L1351.53,1748.55 L1351.66,1752.73" fill-rule="evenodd" vector-effect="none"/>

</g>
</g>
</svg>