<svg xmlns="http://www.w3.org/2000/svg" version="1.2" baseProfile="tiny" xmlns:inkscape="http://www.inkscape.org/namespaces/inkscape" width="315.045mm" viewBox="3589.54 3336.3 332.66 339.46" height="227.076mm" xmlns:xlink="http://www.w3.org/1999/xlink" xmlns:cc="http://creativecommons.org/ns#">
<g inkscape:groupmode="layer" stroke-width="1" stroke-linejoin="bevel" stroke-linecap="square" inkscape:label="Map 1: fid_21" fill="none" stroke="black" id="Map 1: fid_21" fill-rule="evenodd">
  <g fill-opacity="1" stroke-width="2" stroke-linejoin="bevel" font-weight="400" stroke-linecap="square" font-size="83.3333" font-style="normal" fill="#a47158" stroke-opacity="1"  font-family="Noto Sans" stroke="#232323">
   <path d="M3766.61,3344.91 L3779.47,3351.92 L3851.74,3341.3 L3887.45,3351.92 L3908.7,3378.71 L3891.7,3401.24 L3884.47,3424.62 L3897.65,3436.1 L3917.2,3442.05 L3901.05,3482.01 L3884.47,3487.11 L3867.89,3501.57 L3874.69,3484.14 L3866.62,3473.51 L3866.62,3458.63 L3856.41,3450.13 L3847.49,3451.83 L3840.26,3448.85 L3830.91,3465 L3818.15,3467.98 L3812.2,3490.09 L3773.94,3525.8 L3726.75,3574.26 L3694.02,3609.97 L3684.67,3610.82 L3638.33,3661.41 L3633.23,3670.76 L3628.13,3661.83 L3618.35,3652.06 L3618.77,3641.85 L3611.97,3632.93 L3599.64,3632.93 L3594.54,3624 L3596.67,3620.17 L3603.47,3626.12 L3611.12,3628.25 L3616.65,3621.02 L3612.82,3612.52 L3607.72,3608.27 L3612.4,3600.62 L3621.32,3603.59 L3621.75,3591.26 L3626.42,3587.44 L3633.65,3533.45 L3653.63,3501.99 L3670.11,3500.08 L3689.24,3518.78 L3753,3439.29 L3752.15,3427.81 L3766.61,3384.45 L3760.23,3357.24 L3766.61,3344.91" vector-effect="none" fill-rule="evenodd"/>

</g>
</g>
</svg>