<svg xmlns="http://www.w3.org/2000/svg" version="1.2" baseProfile="tiny" xmlns:inkscape="http://www.inkscape.org/namespaces/inkscape" width="315.045mm" viewBox="1622.73 1402.59 142.21 144.99" height="227.076mm" xmlns:xlink="http://www.w3.org/1999/xlink" xmlns:cc="http://creativecommons.org/ns#">
<g stroke-linejoin="bevel" stroke="black" inkscape:label="Map 1: fid_21" fill-rule="evenodd" stroke-linecap="square" inkscape:groupmode="layer" stroke-width="1" fill="none" id="Map 1: fid_21">
  <g stroke-linejoin="bevel"  fill-opacity="1" stroke="#232323" font-style="normal" stroke-linecap="square" font-family="Noto Sans" font-size="41.6667" font-weight="400" stroke-width="1" fill="#987db7" stroke-opacity="1">
   <path d="M1698.23,1409.07 L1703.5,1411.94 L1733.11,1407.59 L1747.75,1411.94 L1756.45,1422.92 L1749.49,1432.15 L1746.53,1441.73 L1751.93,1446.43 L1759.94,1448.87 L1753.32,1465.24 L1746.53,1467.33 L1739.73,1473.26 L1742.52,1466.11 L1739.21,1461.76 L1739.21,1455.66 L1735.03,1452.18 L1731.37,1452.88 L1728.41,1451.66 L1724.58,1458.28 L1719.35,1459.49 L1716.91,1468.55 L1701.24,1483.18 L1681.9,1503.04 L1668.49,1517.67 L1664.66,1518.02 L1645.67,1538.75 L1643.58,1542.58 L1641.49,1538.92 L1637.49,1534.92 L1637.66,1530.74 L1634.87,1527.08 L1629.82,1527.08 L1627.73,1523.42 L1628.6,1521.85 L1631.39,1524.29 L1634.53,1525.16 L1636.79,1522.2 L1635.22,1518.72 L1633.13,1516.98 L1635.05,1513.84 L1638.71,1515.06 L1638.88,1510.01 L1640.8,1508.44 L1643.76,1486.32 L1651.94,1473.43 L1658.69,1472.65 L1666.53,1480.31 L1692.66,1447.74 L1692.31,1443.03 L1698.23,1425.27 L1695.62,1414.12 L1698.23,1409.07" fill-rule="evenodd" vector-effect="none"/>

</g>
</g>
</svg>