<svg xmlns="http://www.w3.org/2000/svg" version="1.2" baseProfile="tiny" xmlns:inkscape="http://www.inkscape.org/namespaces/inkscape" width="315.045mm" viewBox="3311.35 1893.36 598.86 1235.67" height="227.076mm" xmlns:xlink="http://www.w3.org/1999/xlink" xmlns:cc="http://creativecommons.org/ns#">
<g inkscape:groupmode="layer" stroke-width="1" stroke-linejoin="bevel" stroke-linecap="square" inkscape:label="Map 1: fid_76" fill="none" stroke="black" id="Map 1: fid_76" fill-rule="evenodd">
  <g stroke-width="1" stroke-linejoin="bevel" font-weight="400" stroke-linecap="square" font-size="83.3333" font-style="normal" fill="none" stroke-opacity="1" transform="matrix(1,0,0,1,0,0)" font-family="Noto Sans" stroke="#000000"/>
  <g stroke-width="1" stroke-linejoin="bevel" font-weight="400" stroke-linecap="square" font-size="83.3333" font-style="normal" fill="none" stroke-opacity="1" transform="matrix(1,0,0,1,0,0)" font-family="Noto Sans" stroke="#000000"/>
  <g stroke-width="1" stroke-linejoin="bevel" font-weight="400" stroke-linecap="square" font-size="83.3333" font-style="normal" fill="none" stroke-opacity="1" transform="matrix(23.6177,0,0,23.6177,23.6177,23.6177)" font-family="Noto Sans" stroke="#000000"/>
  <g stroke-width="1" stroke-linejoin="bevel" font-weight="400" stroke-linecap="square" font-size="83.3333" font-style="normal" fill="none" stroke-opacity="1" transform="matrix(23.6177,0,0,23.6177,23.6177,23.6177)" font-family="Noto Sans" stroke="#000000"/>
  <g fill-opacity="0" font-weight="400" font-size="83.3333" font-style="normal" fill="#000000" transform="matrix(0.999817,0,0,0.999817,23.6177,23.6177)" font-family="Noto Sans" stroke="none">
   <rect y="0" width="7395" height="5318" x="0"/>
  </g>
  <g stroke-width="1" stroke-linejoin="bevel" font-weight="400" stroke-linecap="square" font-size="83.3333" font-style="normal" fill="none" stroke-opacity="1" transform="matrix(0.999817,0,0,0.999817,23.6177,23.6177)" font-family="Noto Sans" stroke="#000000"/>
  <g fill-opacity="1" stroke-width="2" stroke-linejoin="bevel" font-weight="400" stroke-linecap="square" font-size="83.3333" font-style="normal" fill="#ff9e17" stroke-opacity="1" transform="matrix(0.999817,0,0,0.999817,23.6177,23.6177)" font-family="Noto Sans" stroke="#232323">
   <path d="M3621.48,3064.4 L3641.71,3056.89 L3661.94,3062.67 L3668.87,3069.03 L3665.41,3047.06 L3663.67,3030.88 L3665.98,3015.28 L3675.81,2996.2 L3712.22,2986.96 L3726.09,2989.27 L3732.45,2987.53 L3728.41,2967.88 L3726.09,2949.96 L3728.98,2924.53 L3721.47,2916.44 L3670.61,2845.35 L3668.87,2829.17 L3670.61,2816.45 L3676.97,2800.27 L3687.95,2789.29 L3705.86,2784.66 L3720.89,2782.93 L3759.62,2786.97 L3820.3,2772.53 L3815.68,2717.33 L3838.57,2657.16 L3850.21,2588.05 L3781.11,2453.73 L3767.14,2458.39 L3756.27,2442.86 L3764.03,2400.16 L3755.49,2342.7 L3751.61,2289.91 L3736.86,2213.04 L3745.4,2130.74 L3721.33,2132.68 L3720.6,2150.48 L3720.02,2153.66 L3716.85,2151.05 L3713.96,2152.5 L3711.64,2154.52 L3707.02,2157.41 L3702.11,2155.68 L3700.37,2150.48 L3704.42,2145.85 L3708.18,2142.38 L3706.57,2131.9 L3649.9,2135.01 L3651.53,2148.16 L3645.47,2148.74 L3642.29,2139.21 L3637.08,2138.05 L3631.3,2138.05 L3628.42,2141.23 L3623.79,2144.99 L3615.99,2145.27 L3613.1,2140.07 L3613.68,2134.87 L3617.43,2130.82 L3620.32,2130.25 L3624.08,2129.38 L3627.26,2130.25 L3628.7,2127.94 L3626.1,2125.33 L3629.28,2122.73 L3626.97,2122.16 L3625.24,2123.89 L3620.32,2112.91 L3627.84,2111.17 L3627.55,2102.22 L3624.37,2102.22 L3623.79,2106.55 L3618.59,2106.84 L3615.12,2092.61 L3606.16,2084.8 L3607.61,2062.84 L3604.72,2060.53 L3609.05,2034.66 L3606.42,2038.73 L3594.77,2037.18 L3581.57,1999.14 L3519.46,2025.53 L3508.59,2016.99 L3502.27,2025.38 L3493.6,2018.44 L3489.56,2007.46 L3480.89,1990.7 L3486.85,1978.95 L3510.92,1968.08 L3509.36,1940.13 L3498.8,1925.39 L3501.69,1913.25 L3494.18,1906.89 L3493.02,1901.69 L3491.87,1891.29 L3486.46,1873.36 L3434.44,1887.33 L3388.63,1888.88 L3326.51,1885.78 L3339.28,1906.89 L3349.69,1921.92 L3355.46,1929.44 L3355.46,1932.33 L3352.57,1938.68 L3356.04,1943.89 L3356.04,1950.82 L3349.11,1951.4 L3347.95,1946.2 L3345.64,1944.46 L3339.86,1946.78 L3334.08,1951.98 L3330.03,1946.2 L3332.35,1936.37 L3336.39,1930.59 L3336.39,1924.81 L3330.61,1921.92 L3327.72,1913.25 L3319.05,1906.32 L3308.65,1899.96 L3304.6,1914.41 L3311.25,1921.34 L3309.23,1929.72 L3301.71,1924.52 L3297.38,1929.72 L3302.58,1941.57 L3297.7,1953.91 L3295.39,1960.85 L3291.35,1979.34 L3292.5,1996.68 L3305.22,2029.62 L3331.8,2052.17 L3349.72,2096.09 L3353.19,2117.48 L3364.75,2133.66 L3399.43,2171.81 L3410.99,2199.55 L3426.7,2178.98 L3453.29,2167.42 L3539.41,2229.84 L3587.38,2278.97 L3612.23,2330.99 L3626.1,2355.26 L3645.75,2378.96 L3679.86,2418.84 L3685.06,2571.14 L3712.8,2623.73 L3699.51,2677.99 L3652.4,2706.31 L3621.77,2688.97 L3598.07,2687.24 L3569.75,2693.6 L3539.7,2732.9 L3543.74,2810.92 L3571.48,2843.29 L3621.19,2957.51 L3621.48,3064.4" vector-effect="none" fill-rule="evenodd"/>
  </g>
  <g stroke-width="1" stroke-linejoin="bevel" font-weight="400" stroke-linecap="square" font-size="83.3333" font-style="normal" fill="none" stroke-opacity="1" transform="matrix(0.999817,0,0,0.999817,23.6177,23.6177)" font-family="Noto Sans" stroke="#000000"/>
  <g stroke-width="1" stroke-linejoin="bevel" font-weight="400" stroke-linecap="square" font-size="83.3333" font-style="normal" fill="none" stroke-opacity="1" transform="matrix(23.6177,0,0,23.6177,23.6177,23.6177)" font-family="Noto Sans" stroke="#000000"/>
  <g stroke-width="1" stroke-linejoin="bevel" font-weight="400" stroke-linecap="square" font-size="83.3333" font-style="normal" fill="none" stroke-opacity="1" transform="matrix(23.6177,0,0,23.6177,23.6177,23.6177)" font-family="Noto Sans" stroke="#000000"/>
  <g stroke-width="1" stroke-linejoin="bevel" font-weight="400" stroke-linecap="square" font-size="83.3333" font-style="normal" fill="none" stroke-opacity="1" transform="matrix(23.6177,0,0,23.6177,23.6177,23.6177)" font-family="Noto Sans" stroke="#000000"/>
  <g stroke-width="1" stroke-linejoin="bevel" font-weight="400" stroke-linecap="square" font-size="83.3333" font-style="normal" fill="none" stroke-opacity="1" transform="matrix(1,0,0,1,0,0)" font-family="Noto Sans" stroke="#000000"/>
  <g stroke-width="1" stroke-linejoin="bevel" font-weight="400" stroke-linecap="square" font-size="83.3333" font-style="normal" fill="none" stroke-opacity="1" transform="matrix(23.6177,0,0,23.6177,23.6177,23.6177)" font-family="Noto Sans" stroke="#000000"/>
  <g stroke-width="1" stroke-linejoin="bevel" font-weight="400" stroke-linecap="square" font-size="83.3333" font-style="normal" fill="none" stroke-opacity="1" transform="matrix(23.6177,0,0,23.6177,23.6177,23.6177)" font-family="Noto Sans" stroke="#000000"/>
  <g stroke-width="1" stroke-linejoin="bevel" font-weight="400" stroke-linecap="square" font-size="83.3333" font-style="normal" fill="none" stroke-opacity="1" transform="matrix(1,0,0,1,0,0)" font-family="Noto Sans" stroke="#000000"/>
 </g>
 
</svg>