<svg xmlns="http://www.w3.org/2000/svg" version="1.2" baseProfile="tiny" xmlns:inkscape="http://www.inkscape.org/namespaces/inkscape" width="315.045mm" viewBox="3807.59 1832.82 621.99 1319.33" height="227.076mm" xmlns:xlink="http://www.w3.org/1999/xlink" xmlns:cc="http://creativecommons.org/ns#">
<g inkscape:groupmode="layer" stroke-width="1" stroke-linejoin="bevel" stroke-linecap="square" inkscape:label="Map 1: fid_76" fill="none" stroke="black" id="Map 1: fid_76" fill-rule="evenodd">
  <g fill-opacity="1" stroke-width="2" stroke-linejoin="bevel" font-weight="400" stroke-linecap="square" font-size="83.3333" font-style="normal" fill="#7d8b8f" stroke-opacity="1"  font-family="Noto Sans" stroke="#232323">
   <path d="M4174.1,3142.09 L4196.26,3133.86 L4218.41,3140.19 L4226,3147.15 L4222.21,3123.1 L4220.31,3105.38 L4222.84,3088.29 L4233.6,3067.41 L4273.47,3057.28 L4288.66,3059.81 L4295.63,3057.91 L4291.2,3036.39 L4288.66,3016.77 L4291.83,2988.92 L4283.6,2980.06 L4227.9,2902.21 L4226,2884.49 L4227.9,2870.57 L4234.86,2852.84 L4246.89,2840.82 L4266.51,2835.76 L4282.97,2833.86 L4325.37,2838.29 L4391.83,2822.46 L4386.77,2762.02 L4411.83,2696.13 L4424.58,2620.46 L4348.91,2473.37 L4333.61,2478.47 L4321.7,2461.46 L4330.21,2414.7 L4320.85,2351.78 L4316.6,2293.97 L4300.45,2209.79 L4309.8,2119.67 L4283.44,2121.79 L4282.65,2141.28 L4282.02,2144.76 L4278.54,2141.91 L4275.37,2143.5 L4272.84,2145.71 L4267.78,2148.88 L4262.4,2146.98 L4260.5,2141.28 L4264.93,2136.22 L4269.04,2132.42 L4267.29,2120.94 L4205.22,2124.34 L4207.02,2138.75 L4200.37,2139.38 L4196.89,2128.94 L4191.19,2127.67 L4184.86,2127.67 L4181.7,2131.15 L4176.64,2135.27 L4168.09,2135.58 L4164.93,2129.89 L4165.56,2124.19 L4169.67,2119.76 L4172.84,2119.13 L4176.95,2118.18 L4180.43,2119.13 L4182.02,2116.6 L4179.17,2113.75 L4182.65,2110.9 L4180.12,2110.27 L4178.22,2112.17 L4172.84,2100.14 L4181.07,2098.24 L4180.75,2088.43 L4177.27,2088.43 L4176.64,2093.18 L4170.94,2093.49 L4167.14,2077.91 L4157.33,2069.36 L4158.91,2045.31 L4155.75,2042.78 L4160.5,2014.46 L4157.61,2018.92 L4144.86,2017.21 L4130.4,1975.55 L4062.38,2004.46 L4050.48,1995.11 L4043.56,2004.29 L4034.07,1996.7 L4029.64,1984.67 L4020.15,1966.32 L4026.67,1953.45 L4053.03,1941.54 L4051.33,1910.94 L4039.77,1894.8 L4042.93,1881.5 L4034.7,1874.54 L4033.44,1868.85 L4032.17,1857.45 L4026.25,1837.82 L3969.28,1853.12 L3919.12,1854.82 L3851.1,1851.42 L3865.08,1874.54 L3876.47,1891 L3882.8,1899.23 L3882.8,1902.39 L3879.64,1909.35 L3883.43,1915.05 L3883.43,1922.64 L3875.84,1923.28 L3874.57,1917.58 L3872.04,1915.68 L3865.71,1918.21 L3859.38,1923.91 L3854.95,1917.58 L3857.48,1906.82 L3861.91,1900.49 L3861.91,1894.16 L3855.59,1891 L3852.42,1881.5 L3842.93,1873.91 L3831.53,1866.95 L3827.1,1882.77 L3834.38,1890.37 L3832.17,1899.54 L3823.94,1893.85 L3819.19,1899.54 L3824.89,1912.52 L3819.55,1926.03 L3817.02,1933.62 L3812.59,1953.88 L3813.85,1972.86 L3827.78,2008.94 L3856.89,2033.62 L3876.51,2081.73 L3880.31,2105.14 L3892.97,2122.87 L3930.94,2164.64 L3943.6,2195.02 L3960.81,2172.49 L3989.92,2159.83 L4084.23,2228.19 L4136.76,2281.99 L4163.98,2338.95 L4179.17,2365.53 L4200.69,2391.48 L4238.03,2435.15 L4243.73,2601.93 L4274.11,2659.53 L4259.55,2718.94 L4207.97,2749.95 L4174.42,2730.97 L4148.47,2729.07 L4117.46,2736.03 L4084.55,2779.07 L4088.98,2864.51 L4119.36,2899.96 L4173.79,3025.04 L4174.1,3142.09" vector-effect="none" fill-rule="evenodd"/>

</g>
</g>
</svg>