<svg xmlns="http://www.w3.org/2000/svg" version="1.2" baseProfile="tiny" xmlns:inkscape="http://www.inkscape.org/namespaces/inkscape" width="315.045mm" viewBox="1712.07 786.568 260.76 546.472" height="227.076mm" xmlns:xlink="http://www.w3.org/1999/xlink" xmlns:cc="http://creativecommons.org/ns#">
<g stroke-linejoin="bevel" stroke="black" inkscape:label="Map 1: fid_76" fill-rule="evenodd" stroke-linecap="square" inkscape:groupmode="layer" stroke-width="1" fill="none" id="Map 1: fid_76">
  <g stroke-linejoin="bevel"  fill-opacity="1" stroke="#232323" font-style="normal" stroke-linecap="square" font-family="Noto Sans" font-size="41.6667" font-weight="400" stroke-width="1" fill="#b7484b" stroke-opacity="1">
   <path d="M1865.2,1325.97 L1874.27,1322.6 L1883.35,1325.19 L1886.46,1328.04 L1884.91,1318.19 L1884.13,1310.93 L1885.17,1303.93 L1889.57,1295.37 L1905.91,1291.22 L1912.14,1292.26 L1914.99,1291.48 L1913.17,1282.66 L1912.14,1274.62 L1913.43,1263.21 L1910.06,1259.58 L1887.24,1227.68 L1886.46,1220.42 L1887.24,1214.72 L1890.09,1207.46 L1895.02,1202.53 L1903.06,1200.45 L1909.8,1199.68 L1927.18,1201.49 L1954.41,1195.01 L1952.33,1170.24 L1962.6,1143.24 L1967.83,1112.24 L1936.82,1051.97 L1930.55,1054.06 L1925.67,1047.09 L1929.16,1027.93 L1925.32,1002.16 L1923.58,978.466 L1916.96,943.978 L1920.8,907.051 L1910,907.922 L1909.67,915.906 L1909.41,917.333 L1907.99,916.166 L1906.69,916.814 L1905.65,917.722 L1903.58,919.018 L1901.37,918.24 L1900.6,915.906 L1902.41,913.832 L1904.1,912.276 L1903.38,907.574 L1877.95,908.967 L1878.68,914.869 L1875.96,915.128 L1874.53,910.85 L1872.2,910.331 L1869.61,910.331 L1868.31,911.757 L1866.23,913.443 L1862.73,913.572 L1861.44,911.239 L1861.7,908.905 L1863.38,907.089 L1864.68,906.83 L1866.36,906.441 L1867.79,906.83 L1868.44,905.793 L1867.27,904.626 L1868.7,903.459 L1867.66,903.199 L1866.88,903.977 L1864.68,899.05 L1868.05,898.272 L1867.92,894.253 L1866.49,894.253 L1866.23,896.198 L1863.9,896.327 L1862.34,889.941 L1858.33,886.44 L1858.97,876.586 L1857.68,875.549 L1859.62,863.944 L1858.44,865.77 L1853.21,865.073 L1847.29,848.003 L1819.42,859.848 L1814.54,856.016 L1811.71,859.778 L1807.82,856.666 L1806.01,851.739 L1802.12,844.219 L1804.79,838.946 L1815.59,834.069 L1814.89,821.527 L1810.16,814.915 L1811.45,809.469 L1808.08,806.616 L1807.56,804.282 L1807.04,799.614 L1804.62,791.568 L1781.28,797.838 L1760.72,798.535 L1732.85,797.142 L1738.58,806.616 L1743.25,813.359 L1745.84,816.73 L1745.84,818.027 L1744.55,820.879 L1746.1,823.213 L1746.1,826.325 L1742.99,826.584 L1742.47,824.25 L1741.43,823.472 L1738.84,824.51 L1736.25,826.844 L1734.43,824.25 L1735.47,819.842 L1737.28,817.249 L1737.28,814.655 L1734.69,813.359 L1733.39,809.469 L1729.5,806.357 L1724.84,803.504 L1723.02,809.987 L1726,813.099 L1725.1,816.86 L1721.72,814.526 L1719.78,816.86 L1722.11,822.176 L1719.93,827.711 L1718.89,830.823 L1717.07,839.121 L1717.59,846.901 L1723.3,861.683 L1735.23,871.796 L1743.26,891.505 L1744.82,901.1 L1750.01,908.362 L1765.57,925.477 L1770.75,937.925 L1777.8,928.695 L1789.73,923.508 L1828.37,951.515 L1849.9,973.558 L1861.05,996.898 L1867.27,1007.79 L1876.09,1018.42 L1891.39,1036.32 L1893.72,1104.65 L1906.17,1128.25 L1900.21,1152.59 L1879.07,1165.3 L1865.33,1157.52 L1854.69,1156.74 L1841.99,1159.59 L1828.5,1177.23 L1830.32,1212.24 L1842.77,1226.76 L1865.07,1278.01 L1865.2,1325.97" fill-rule="evenodd" vector-effect="none"/>

</g>
</g>
</svg>