<svg xmlns="http://www.w3.org/2000/svg" version="1.2" baseProfile="tiny" xmlns:inkscape="http://www.inkscape.org/namespaces/inkscape" width="315.045mm" viewBox="1545.4 1320.88 87.59 115.29" height="227.076mm" xmlns:xlink="http://www.w3.org/1999/xlink" xmlns:cc="http://creativecommons.org/ns#">
<g stroke-linejoin="bevel" stroke="black" inkscape:label="Map 1: fid_16" fill-rule="evenodd" stroke-linecap="square" inkscape:groupmode="layer" stroke-width="1" fill="none" id="Map 1: fid_16">
  <g stroke-linejoin="bevel"  fill-opacity="1" stroke="#232323" font-style="normal" stroke-linecap="square" font-family="Noto Sans" font-size="41.6667" font-weight="400" stroke-width="1" fill="#d5b43c" stroke-opacity="1">
   <path d="M1577.81,1341.67 L1555.27,1384.49 L1550.4,1411.49 L1564.68,1414.62 L1557.71,1430.47 L1559.1,1431.17 L1565.72,1415.49 L1570.25,1419.32 L1573.74,1415.32 L1576.87,1415.32 L1578.44,1402.08 L1584.54,1402.95 L1585.75,1405.04 L1587.67,1404.52 L1588.89,1408.18 L1591.68,1407.13 L1591.68,1408.18 L1594.81,1407.83 L1595.33,1403.47 L1597.25,1401.91 L1601.78,1402.43 L1601.61,1404 L1610.31,1405.91 L1612.14,1390.15 L1615.19,1382.4 L1619.46,1377.87 L1626.51,1376.82 L1627.65,1370.55 L1625.56,1367.33 L1626.95,1361.5 L1626.6,1357.66 L1627.99,1347.39 L1622.59,1347.39 L1623.47,1334.85 L1621.72,1335.89 L1616.67,1335.19 L1615.45,1330.14 L1611.62,1331.36 L1610.92,1333.28 L1607.89,1325.88 L1604.87,1326.23 L1606.38,1345.74 L1577.81,1341.67" fill-rule="evenodd" vector-effect="none"/>

</g>
</g>
</svg>