<svg xmlns="http://www.w3.org/2000/svg" version="1.2" baseProfile="tiny" xmlns:inkscape="http://www.inkscape.org/namespaces/inkscape" width="315.045mm" viewBox="2712.56 1006.679 446.85 415.891" height="227.076mm" xmlns:xlink="http://www.w3.org/1999/xlink" xmlns:cc="http://creativecommons.org/ns#">
<g inkscape:groupmode="layer" stroke-width="1" stroke-linejoin="bevel" stroke-linecap="square" inkscape:label="Map 1: fid_29" fill="none" stroke="black" id="Map 1: fid_29" fill-rule="evenodd">
  <g stroke-width="1" stroke-linejoin="bevel" font-weight="400" stroke-linecap="square" font-size="83.3333" font-style="normal" fill="none" stroke-opacity="1" transform="matrix(1,0,0,1,0,0)" font-family="Noto Sans" stroke="#000000"/>
  <g stroke-width="1" stroke-linejoin="bevel" font-weight="400" stroke-linecap="square" font-size="83.3333" font-style="normal" fill="none" stroke-opacity="1" transform="matrix(1,0,0,1,0,0)" font-family="Noto Sans" stroke="#000000"/>
  <g stroke-width="1" stroke-linejoin="bevel" font-weight="400" stroke-linecap="square" font-size="83.3333" font-style="normal" fill="none" stroke-opacity="1" transform="matrix(23.6177,0,0,23.6177,23.6177,23.6177)" font-family="Noto Sans" stroke="#000000"/>
  <g stroke-width="1" stroke-linejoin="bevel" font-weight="400" stroke-linecap="square" font-size="83.3333" font-style="normal" fill="none" stroke-opacity="1" transform="matrix(23.6177,0,0,23.6177,23.6177,23.6177)" font-family="Noto Sans" stroke="#000000"/>
  <g fill-opacity="0" font-weight="400" font-size="83.3333" font-style="normal" fill="#000000" transform="matrix(0.999817,0,0,0.999817,23.6177,23.6177)" font-family="Noto Sans" stroke="none">
   <rect y="0" width="7395" height="5318" x="0"/>
  </g>
  <g stroke-width="1" stroke-linejoin="bevel" font-weight="400" stroke-linecap="square" font-size="83.3333" font-style="normal" fill="none" stroke-opacity="1" transform="matrix(0.999817,0,0,0.999817,23.6177,23.6177)" font-family="Noto Sans" stroke="#000000"/>
  <g fill-opacity="1" stroke-width="2" stroke-linejoin="bevel" font-weight="400" stroke-linecap="square" font-size="83.3333" font-style="normal" fill="#becf50" stroke-opacity="1" transform="matrix(0.999817,0,0,0.999817,23.6177,23.6177)" font-family="Noto Sans" stroke="#232323">
   <path d="M2708.87,1178.84 L2701.49,1166.81 L2719.35,1156.33 L2731.77,1128.76 L2722.84,1114.01 L2716.25,1102.37 L2702.27,1093.83 L2694.89,1084.9 L2692.56,1061.99 L2702.66,1064.32 L2710.03,1052.67 L2722.46,1053.84 L2721.68,1070.14 L2742.64,1077.52 L2748.85,1078.69 L2755.07,1064.32 L2770.21,1067.04 L2781.08,1077.52 L2795.44,1077.52 L2806.7,1050.35 L2822.62,1044.52 L2827.66,1022.39 L2834.65,1018.9 L2838.14,1005.7 L2843.58,995.608 L2856.39,991.726 L2862.99,986.679 L2877.74,998.325 L2885.89,1003.37 L2894.43,1004.15 L2907.63,1011.52 L2908.41,1017.74 L2916.17,1018.9 L2917.73,1028.22 L2932.48,1026.66 L2943.35,1028.22 L2949.17,1036.76 L2954.22,1045.69 L2966.64,1045.69 L2980.23,1046.08 L2985.28,1040.64 L2991.88,1047.24 L3000.42,1059.27 L3007.4,1072.09 L2999.64,1080.24 L3008.96,1092.27 L3031.09,1106.64 L3043.51,1101.59 L3038.85,1093.83 L3040.79,1091.5 L3046.61,1097.32 L3057.1,1110.13 L3071.85,1122.16 L3079.22,1128.38 L3090.48,1122.94 L3099.41,1127.21 L3099.02,1135.36 L3082.33,1134.59 L3057.87,1149.73 L3064.86,1162.93 L3066.02,1170.69 L3041.96,1183.89 L2985.28,1184.67 L2951.11,1180.78 L2927.04,1156.33 L2921.61,1137.69 L2906.08,1140.8 L2905.3,1166.81 L2926.27,1193.21 L2937.14,1221.94 L2937.53,1247.56 L2919.28,1250.66 L2904.53,1244.84 L2895.99,1275.12 L2920.44,1318.21 L2926.66,1355.09 L2921.61,1359.07 L2899.48,1362.57 L2887.06,1360.24 L2858.72,1332.28 L2842.41,1300.45 L2824.17,1263.57 L2807.09,1189.42 L2787.29,1189.81 L2761.28,1167.68 L2708.87,1178.84" vector-effect="none" fill-rule="evenodd"/>
  </g>
  <g stroke-width="1" stroke-linejoin="bevel" font-weight="400" stroke-linecap="square" font-size="83.3333" font-style="normal" fill="none" stroke-opacity="1" transform="matrix(0.999817,0,0,0.999817,23.6177,23.6177)" font-family="Noto Sans" stroke="#000000"/>
  <g stroke-width="1" stroke-linejoin="bevel" font-weight="400" stroke-linecap="square" font-size="83.3333" font-style="normal" fill="none" stroke-opacity="1" transform="matrix(23.6177,0,0,23.6177,23.6177,23.6177)" font-family="Noto Sans" stroke="#000000"/>
  <g stroke-width="1" stroke-linejoin="bevel" font-weight="400" stroke-linecap="square" font-size="83.3333" font-style="normal" fill="none" stroke-opacity="1" transform="matrix(23.6177,0,0,23.6177,23.6177,23.6177)" font-family="Noto Sans" stroke="#000000"/>
  <g stroke-width="1" stroke-linejoin="bevel" font-weight="400" stroke-linecap="square" font-size="83.3333" font-style="normal" fill="none" stroke-opacity="1" transform="matrix(23.6177,0,0,23.6177,23.6177,23.6177)" font-family="Noto Sans" stroke="#000000"/>
  <g stroke-width="1" stroke-linejoin="bevel" font-weight="400" stroke-linecap="square" font-size="83.3333" font-style="normal" fill="none" stroke-opacity="1" transform="matrix(1,0,0,1,0,0)" font-family="Noto Sans" stroke="#000000"/>
  <g stroke-width="1" stroke-linejoin="bevel" font-weight="400" stroke-linecap="square" font-size="83.3333" font-style="normal" fill="none" stroke-opacity="1" transform="matrix(23.6177,0,0,23.6177,23.6177,23.6177)" font-family="Noto Sans" stroke="#000000"/>
  <g stroke-width="1" stroke-linejoin="bevel" font-weight="400" stroke-linecap="square" font-size="83.3333" font-style="normal" fill="none" stroke-opacity="1" transform="matrix(23.6177,0,0,23.6177,23.6177,23.6177)" font-family="Noto Sans" stroke="#000000"/>
  <g stroke-width="1" stroke-linejoin="bevel" font-weight="400" stroke-linecap="square" font-size="83.3333" font-style="normal" fill="none" stroke-opacity="1" transform="matrix(1,0,0,1,0,0)" font-family="Noto Sans" stroke="#000000"/>
 </g>
 
</svg>