<svg xmlns="http://www.w3.org/2000/svg" version="1.2" baseProfile="tiny" xmlns:inkscape="http://www.inkscape.org/namespaces/inkscape" width="315.045mm" viewBox="1443.41 388.734 192.55 178.652" height="227.076mm" xmlns:xlink="http://www.w3.org/1999/xlink" xmlns:cc="http://creativecommons.org/ns#">
<g stroke-linejoin="bevel" stroke="black" inkscape:label="Map 1: fid_29" fill-rule="evenodd" stroke-linecap="square" inkscape:groupmode="layer" stroke-width="1" fill="none" id="Map 1: fid_29">
  <g stroke-linejoin="bevel"  fill-opacity="1" stroke="#232323" font-style="normal" stroke-linecap="square" font-family="Noto Sans" font-size="41.6667" font-weight="400" stroke-width="1" fill="#e15989" stroke-opacity="1">
   <path d="M1455.73,479.954 L1452.42,474.555 L1460.43,469.852 L1466,457.485 L1462,450.866 L1459.04,445.64 L1452.77,441.808 L1449.46,437.802 L1448.41,427.525 L1452.94,428.57 L1456.25,423.345 L1461.82,423.867 L1461.48,431.183 L1470.88,434.492 L1473.67,435.015 L1476.45,428.57 L1483.25,429.789 L1488.13,434.492 L1494.57,434.492 L1499.62,422.3 L1506.76,419.687 L1509.03,409.758 L1512.16,408.191 L1513.73,402.269 L1516.17,397.74 L1521.92,395.998 L1524.88,393.734 L1531.5,398.959 L1535.15,401.223 L1538.99,401.572 L1544.91,404.881 L1545.26,407.668 L1548.74,408.191 L1549.44,412.371 L1556.06,411.674 L1560.93,412.371 L1563.55,416.203 L1565.81,420.209 L1571.38,420.209 L1577.48,420.384 L1579.75,417.945 L1582.71,420.906 L1586.54,426.306 L1589.67,432.054 L1586.19,435.712 L1590.37,441.111 L1600.3,447.556 L1605.87,445.292 L1603.78,441.808 L1604.65,440.763 L1607.27,443.376 L1611.97,449.124 L1618.59,454.523 L1621.9,457.31 L1626.95,454.872 L1630.96,456.788 L1630.78,460.446 L1623.29,460.097 L1612.32,466.89 L1615.45,472.813 L1615.98,476.296 L1605.18,482.219 L1579.75,482.567 L1564.42,480.825 L1553.62,469.852 L1551.18,461.491 L1544.21,462.884 L1543.86,474.555 L1553.27,486.399 L1558.15,499.289 L1558.32,510.785 L1550.13,512.178 L1543.52,509.565 L1539.68,523.152 L1550.66,542.486 L1553.44,559.033 L1551.18,560.819 L1541.25,562.386 L1535.68,561.341 L1522.96,548.8 L1515.65,534.517 L1507.46,517.97 L1499.8,484.701 L1490.91,484.875 L1479.24,474.946 L1455.73,479.954" fill-rule="evenodd" vector-effect="none"/>

</g>
</g>
</svg>