<svg xmlns="http://www.w3.org/2000/svg" version="1.2" baseProfile="tiny" xmlns:inkscape="http://www.inkscape.org/namespaces/inkscape" width="315.045mm" viewBox="3151.88 861.847 455.53 421.623" height="227.076mm" xmlns:xlink="http://www.w3.org/1999/xlink" xmlns:cc="http://creativecommons.org/ns#">
<g inkscape:groupmode="layer" stroke-width="1" stroke-linejoin="bevel" stroke-linecap="square" inkscape:label="Map 1: fid_29" fill="none" stroke="black" id="Map 1: fid_29" fill-rule="evenodd">
  <g fill-opacity="1" stroke-width="2" stroke-linejoin="bevel" font-weight="400" stroke-linecap="square" font-size="83.3333" font-style="normal" fill="#729b6f" stroke-opacity="1"  font-family="Noto Sans" stroke="#232323">
   <path d="M3174.74,1077.28 L3166.66,1064.1 L3186.22,1052.62 L3199.82,1022.44 L3190.04,1006.29 L3182.81,993.532 L3167.51,984.18 L3159.43,974.402 L3156.88,949.32 L3167.94,951.871 L3176.01,939.117 L3189.62,940.393 L3188.77,958.247 L3211.72,966.325 L3218.52,967.6 L3225.33,951.871 L3241.91,954.847 L3253.81,966.325 L3269.54,966.325 L3281.87,936.567 L3299.3,930.19 L3304.82,905.958 L3312.48,902.132 L3316.3,887.678 L3322.25,876.625 L3336.28,872.374 L3343.51,866.847 L3359.66,879.601 L3368.59,885.127 L3377.94,885.978 L3392.4,894.055 L3393.25,900.857 L3401.75,902.132 L3403.45,912.335 L3419.61,910.634 L3431.51,912.335 L3437.89,921.687 L3443.41,931.465 L3457.02,931.465 L3471.89,931.89 L3477.42,925.939 L3484.65,933.166 L3494,946.344 L3501.65,960.373 L3493.15,969.301 L3503.35,982.479 L3527.58,998.209 L3541.19,992.682 L3536.09,984.18 L3538.21,981.629 L3544.59,988.006 L3556.07,1002.03 L3572.22,1015.21 L3580.3,1022.02 L3592.63,1016.06 L3602.41,1020.74 L3601.98,1029.67 L3583.7,1028.82 L3556.92,1045.4 L3564.57,1059.85 L3565.85,1068.35 L3539.49,1082.81 L3477.42,1083.66 L3440.01,1079.41 L3413.65,1052.62 L3407.7,1032.22 L3390.7,1035.62 L3389.85,1064.1 L3412.8,1093.01 L3424.71,1124.47 L3425.13,1152.53 L3405.15,1155.93 L3389,1149.55 L3379.64,1182.71 L3406.43,1229.9 L3413.23,1270.28 L3407.7,1274.64 L3383.47,1278.47 L3369.87,1275.92 L3338.83,1245.31 L3320.98,1210.45 L3301,1170.06 L3282.29,1088.86 L3260.61,1089.29 L3232.13,1065.06 L3174.74,1077.28" vector-effect="none" fill-rule="evenodd"/>

</g>
</g>
</svg>