<svg xmlns="http://www.w3.org/2000/svg" version="1.2" baseProfile="tiny" xmlns:inkscape="http://www.inkscape.org/namespaces/inkscape" width="315.045mm" viewBox="3021.02 1461.22 281.12 368.13" height="227.076mm" xmlns:xlink="http://www.w3.org/1999/xlink" xmlns:cc="http://creativecommons.org/ns#">
<g inkscape:groupmode="layer" stroke-width="1" stroke-linejoin="bevel" stroke-linecap="square" inkscape:label="Map 1: fid_69" fill="none" stroke="black" id="Map 1: fid_69" fill-rule="evenodd">
  <g stroke-width="1" stroke-linejoin="bevel" font-weight="400" stroke-linecap="square" font-size="83.3333" font-style="normal" fill="none" stroke-opacity="1" transform="matrix(1,0,0,1,0,0)" font-family="Noto Sans" stroke="#000000"/>
  <g stroke-width="1" stroke-linejoin="bevel" font-weight="400" stroke-linecap="square" font-size="83.3333" font-style="normal" fill="none" stroke-opacity="1" transform="matrix(1,0,0,1,0,0)" font-family="Noto Sans" stroke="#000000"/>
  <g stroke-width="1" stroke-linejoin="bevel" font-weight="400" stroke-linecap="square" font-size="83.3333" font-style="normal" fill="none" stroke-opacity="1" transform="matrix(23.619,0,0,23.619,-728.486,-229.753)" font-family="Noto Sans" stroke="#000000"/>
  <g stroke-width="1" stroke-linejoin="bevel" font-weight="400" stroke-linecap="square" font-size="83.3333" font-style="normal" fill="none" stroke-opacity="1" transform="matrix(23.619,0,0,23.619,-728.486,-229.753)" font-family="Noto Sans" stroke="#000000"/>
  <g fill-opacity="0" font-weight="400" font-size="83.3333" font-style="normal" fill="#000000" transform="matrix(0.999873,0,0,0.999873,-728.486,-229.753)" font-family="Noto Sans" stroke="none">
   <rect y="0" width="8098" height="5627" x="0"/>
  </g>
  <g stroke-width="1" stroke-linejoin="bevel" font-weight="400" stroke-linecap="square" font-size="83.3333" font-style="normal" fill="none" stroke-opacity="1" transform="matrix(0.999873,0,0,0.999873,-728.486,-229.753)" font-family="Noto Sans" stroke="#000000"/>
  <g fill-opacity="1" stroke-width="2" stroke-linejoin="bevel" font-weight="400" stroke-linecap="square" font-size="83.3333" font-style="normal" fill="#e5b636" stroke-opacity="1" transform="matrix(0.999873,0,0,0.999873,-728.486,-229.753)" font-family="Noto Sans" stroke="#232323">
   <path d="M3242.14,1765.94 L3220.43,1769.35 L3177.99,1768.36 L3161.54,1753.23 L3155.62,1752.24 L3152.66,1755.86 L3147.07,1751.26 L3135.23,1737.11 L3131.94,1735.47 L3132.93,1734.48 L3132.93,1734.15 L3135.23,1734.15 L3133.91,1720.99 L3135.23,1720.66 L3135.89,1715.4 L3134.24,1713.76 L3135.23,1710.79 L3136.87,1707.83 L3136.22,1704.87 L3136.87,1702.24 L3141.48,1701.58 L3143.12,1695.66 L3141.15,1692.04 L3140.49,1684.81 L3137.2,1679.54 L3129.97,1677.24 L3122.07,1675.27 L3119.11,1661.45 L3113.52,1655.86 L3106.61,1654.54 L3103.65,1650.27 L3087.86,1641.39 L3067.46,1618.69 L3049.7,1594.02 L3038.85,1595.99 L3034.57,1589.66 L3027,1581.76 L3020.1,1562.36 L3011.21,1556.11 L3006.94,1546.9 L3001.67,1541.63 L3001.02,1534.4 L3010.23,1532.09 L3006.28,1524.53 L3004.63,1517.62 L3006.61,1513.34 L3004.96,1507.09 L3005.29,1499.86 L3006.28,1496.57 L3002.66,1491.3 L3003.65,1487.68 L3005.95,1483.41 L3006.28,1479.13 L3006.28,1478.14 L3010.89,1467.21 L3012.53,1456.68 L3013.52,1452.08 L3016.48,1446.81 L3018.12,1445.5 L3022.4,1441.22 L3040.82,1443.19 L3048.71,1457.01 L3061.87,1464.9 L3069.77,1472.14 L3073.71,1484.64 L3086.21,1488.59 L3090.82,1498.46 L3102.66,1507.01 L3090.49,1519.51 L3097.73,1523.79 L3097.73,1528.72 L3091.15,1534.97 L3087.53,1542.21 L3102.66,1556.35 L3104.31,1564.91 L3119.44,1576.75 L3122.4,1584.97 L3130.62,1589.25 L3136.22,1595.83 L3142.79,1597.8 L3151.35,1600.1 L3160.89,1599.12 L3168.45,1604.71 L3164.83,1611.62 L3161.22,1619.18 L3158.25,1621.48 L3164.18,1626.75 L3175.36,1627.08 L3182.6,1629.05 L3184.9,1639.58 L3188.52,1646.16 L3196.41,1648.13 L3203.32,1655.7 L3214.18,1660.3 L3218.78,1667.21 L3222.4,1682.71 L3217.79,1686.99 L3206.94,1689.95 L3201.68,1690.61 L3193.45,1689.29 L3189.83,1691.59 L3188.52,1695.54 L3191.48,1701.13 L3195.1,1711 L3202.66,1718.9 L3208.58,1725.8 L3214.51,1732.05 L3220.1,1736.99 L3220.1,1736.99 L3242.14,1765.94" vector-effect="none" fill-rule="evenodd"/>
  </g>
  <g stroke-width="1" stroke-linejoin="bevel" font-weight="400" stroke-linecap="square" font-size="83.3333" font-style="normal" fill="none" stroke-opacity="1" transform="matrix(0.999873,0,0,0.999873,-728.486,-229.753)" font-family="Noto Sans" stroke="#000000"/>
  <g stroke-width="1" stroke-linejoin="bevel" font-weight="400" stroke-linecap="square" font-size="83.3333" font-style="normal" fill="none" stroke-opacity="1" transform="matrix(23.619,0,0,23.619,-728.486,-229.753)" font-family="Noto Sans" stroke="#000000"/>
  <g stroke-width="1" stroke-linejoin="bevel" font-weight="400" stroke-linecap="square" font-size="83.3333" font-style="normal" fill="none" stroke-opacity="1" transform="matrix(23.619,0,0,23.619,-728.486,-229.753)" font-family="Noto Sans" stroke="#000000"/>
  <g stroke-width="1" stroke-linejoin="bevel" font-weight="400" stroke-linecap="square" font-size="83.3333" font-style="normal" fill="none" stroke-opacity="1" transform="matrix(23.619,0,0,23.619,-728.486,-229.753)" font-family="Noto Sans" stroke="#000000"/>
  <g stroke-width="1" stroke-linejoin="bevel" font-weight="400" stroke-linecap="square" font-size="83.3333" font-style="normal" fill="none" stroke-opacity="1" transform="matrix(1,0,0,1,0,0)" font-family="Noto Sans" stroke="#000000"/>
  <g stroke-width="1" stroke-linejoin="bevel" font-weight="400" stroke-linecap="square" font-size="83.3333" font-style="normal" fill="none" stroke-opacity="1" transform="matrix(23.619,0,0,23.619,-728.486,-229.753)" font-family="Noto Sans" stroke="#000000"/>
  <g stroke-width="1" stroke-linejoin="bevel" font-weight="400" stroke-linecap="square" font-size="83.3333" font-style="normal" fill="none" stroke-opacity="1" transform="matrix(23.619,0,0,23.619,-728.486,-229.753)" font-family="Noto Sans" stroke="#000000"/>
  <g stroke-width="1" stroke-linejoin="bevel" font-weight="400" stroke-linecap="square" font-size="83.3333" font-style="normal" fill="none" stroke-opacity="1" transform="matrix(1,0,0,1,0,0)" font-family="Noto Sans" stroke="#000000"/>
 </g>
 
</svg>