<svg xmlns="http://www.w3.org/2000/svg" version="1.2" baseProfile="tiny" xmlns:inkscape="http://www.inkscape.org/namespaces/inkscape" width="315.045mm" viewBox="2570.23 1531.19 260.19 339.64" height="227.076mm" xmlns:xlink="http://www.w3.org/1999/xlink" xmlns:cc="http://creativecommons.org/ns#">
<g inkscape:groupmode="layer" stroke-width="1" stroke-linejoin="bevel" stroke-linecap="square" inkscape:label="Map 1: fid_69" fill="none" stroke="black" id="Map 1: fid_69" fill-rule="evenodd">
  <g stroke-width="1" stroke-linejoin="bevel" font-weight="400" stroke-linecap="square" font-size="83.3333" font-style="normal" fill="none" stroke-opacity="1" transform="matrix(1,0,0,1,0,0)" font-family="Noto Sans" stroke="#000000"/>
  <g stroke-width="1" stroke-linejoin="bevel" font-weight="400" stroke-linecap="square" font-size="83.3333" font-style="normal" fill="none" stroke-opacity="1" transform="matrix(1,0,0,1,0,0)" font-family="Noto Sans" stroke="#000000"/>
  <g stroke-width="1" stroke-linejoin="bevel" font-weight="400" stroke-linecap="square" font-size="83.3333" font-style="normal" fill="none" stroke-opacity="1" transform="matrix(23.6177,0,0,23.6177,23.6177,23.6177)" font-family="Noto Sans" stroke="#000000"/>
  <g stroke-width="1" stroke-linejoin="bevel" font-weight="400" stroke-linecap="square" font-size="83.3333" font-style="normal" fill="none" stroke-opacity="1" transform="matrix(23.6177,0,0,23.6177,23.6177,23.6177)" font-family="Noto Sans" stroke="#000000"/>
  <g fill-opacity="0" font-weight="400" font-size="83.3333" font-style="normal" fill="#000000" transform="matrix(0.999817,0,0,0.999817,23.6177,23.6177)" font-family="Noto Sans" stroke="none">
   <rect y="0" width="7395" height="5318" x="0"/>
  </g>
  <g stroke-width="1" stroke-linejoin="bevel" font-weight="400" stroke-linecap="square" font-size="83.3333" font-style="normal" fill="none" stroke-opacity="1" transform="matrix(0.999817,0,0,0.999817,23.6177,23.6177)" font-family="Noto Sans" stroke="#000000"/>
  <g fill-opacity="1" stroke-width="2" stroke-linejoin="bevel" font-weight="400" stroke-linecap="square" font-size="83.3333" font-style="normal" fill="#729b6f" stroke-opacity="1" transform="matrix(0.999817,0,0,0.999817,23.6177,23.6177)" font-family="Noto Sans" stroke="#232323">
   <path d="M2770.42,1807.72 L2750.59,1810.83 L2711.84,1809.93 L2696.82,1796.11 L2691.41,1795.21 L2688.71,1798.52 L2683.6,1794.31 L2672.79,1781.39 L2669.79,1779.89 L2670.69,1778.99 L2670.69,1778.69 L2672.79,1778.69 L2671.59,1766.67 L2672.79,1766.37 L2673.39,1761.57 L2671.89,1760.07 L2672.79,1757.36 L2674.29,1754.66 L2673.69,1751.95 L2674.29,1749.55 L2678.5,1748.95 L2680,1743.54 L2678.2,1740.24 L2677.6,1733.63 L2674.59,1728.82 L2667.98,1726.72 L2660.77,1724.92 L2658.07,1712.3 L2652.96,1707.2 L2646.66,1705.99 L2643.95,1702.09 L2629.53,1693.98 L2610.91,1673.25 L2594.69,1650.72 L2584.77,1652.52 L2580.87,1646.74 L2573.96,1639.53 L2567.65,1621.81 L2559.54,1616.1 L2555.64,1607.69 L2550.83,1602.88 L2550.23,1596.28 L2558.64,1594.17 L2555.04,1587.26 L2553.53,1580.96 L2555.34,1577.05 L2553.83,1571.34 L2554.13,1564.73 L2555.04,1561.73 L2551.73,1556.92 L2552.63,1553.62 L2554.74,1549.71 L2555.04,1545.81 L2555.04,1544.91 L2559.24,1534.92 L2560.74,1525.31 L2561.64,1521.1 L2564.35,1516.3 L2565.85,1515.09 L2569.75,1511.19 L2586.58,1512.99 L2593.79,1525.61 L2605.8,1532.82 L2613.01,1539.43 L2616.62,1550.84 L2628.03,1554.45 L2632.24,1563.46 L2643.05,1571.27 L2631.94,1582.68 L2638.54,1586.59 L2638.54,1591.09 L2632.54,1596.8 L2629.23,1603.41 L2643.05,1616.33 L2644.55,1624.14 L2658.37,1634.95 L2661.07,1642.46 L2668.58,1646.37 L2673.69,1652.37 L2679.7,1654.18 L2687.51,1656.28 L2696.22,1655.38 L2703.13,1660.49 L2699.83,1666.79 L2696.52,1673.7 L2693.82,1675.81 L2699.22,1680.61 L2709.44,1680.91 L2716.05,1682.71 L2718.15,1692.33 L2721.45,1698.33 L2728.66,1700.14 L2734.97,1707.05 L2744.88,1711.25 L2749.09,1717.56 L2752.39,1731.72 L2748.19,1735.62 L2738.28,1738.32 L2733.47,1738.93 L2725.96,1737.72 L2722.66,1739.83 L2721.45,1743.43 L2724.16,1748.54 L2727.46,1757.55 L2734.37,1764.76 L2739.78,1771.07 L2745.18,1776.78 L2750.29,1781.28 L2750.29,1781.28 L2770.42,1807.72" vector-effect="none" fill-rule="evenodd"/>
  </g>
  <g stroke-width="1" stroke-linejoin="bevel" font-weight="400" stroke-linecap="square" font-size="83.3333" font-style="normal" fill="none" stroke-opacity="1" transform="matrix(0.999817,0,0,0.999817,23.6177,23.6177)" font-family="Noto Sans" stroke="#000000"/>
  <g stroke-width="1" stroke-linejoin="bevel" font-weight="400" stroke-linecap="square" font-size="83.3333" font-style="normal" fill="none" stroke-opacity="1" transform="matrix(23.6177,0,0,23.6177,23.6177,23.6177)" font-family="Noto Sans" stroke="#000000"/>
  <g stroke-width="1" stroke-linejoin="bevel" font-weight="400" stroke-linecap="square" font-size="83.3333" font-style="normal" fill="none" stroke-opacity="1" transform="matrix(23.6177,0,0,23.6177,23.6177,23.6177)" font-family="Noto Sans" stroke="#000000"/>
  <g stroke-width="1" stroke-linejoin="bevel" font-weight="400" stroke-linecap="square" font-size="83.3333" font-style="normal" fill="none" stroke-opacity="1" transform="matrix(23.6177,0,0,23.6177,23.6177,23.6177)" font-family="Noto Sans" stroke="#000000"/>
  <g stroke-width="1" stroke-linejoin="bevel" font-weight="400" stroke-linecap="square" font-size="83.3333" font-style="normal" fill="none" stroke-opacity="1" transform="matrix(1,0,0,1,0,0)" font-family="Noto Sans" stroke="#000000"/>
  <g stroke-width="1" stroke-linejoin="bevel" font-weight="400" stroke-linecap="square" font-size="83.3333" font-style="normal" fill="none" stroke-opacity="1" transform="matrix(23.6177,0,0,23.6177,23.6177,23.6177)" font-family="Noto Sans" stroke="#000000"/>
  <g stroke-width="1" stroke-linejoin="bevel" font-weight="400" stroke-linecap="square" font-size="83.3333" font-style="normal" fill="none" stroke-opacity="1" transform="matrix(23.6177,0,0,23.6177,23.6177,23.6177)" font-family="Noto Sans" stroke="#000000"/>
  <g stroke-width="1" stroke-linejoin="bevel" font-weight="400" stroke-linecap="square" font-size="83.3333" font-style="normal" fill="none" stroke-opacity="1" transform="matrix(1,0,0,1,0,0)" font-family="Noto Sans" stroke="#000000"/>
 </g>
 
</svg>