<svg xmlns="http://www.w3.org/2000/svg" version="1.2" baseProfile="tiny" xmlns:inkscape="http://www.inkscape.org/namespaces/inkscape" width="315.045mm" viewBox="1379.55 624.071 108.79 144.444" height="227.076mm" xmlns:xlink="http://www.w3.org/1999/xlink" xmlns:cc="http://creativecommons.org/ns#">
<g stroke-linejoin="bevel" stroke="black" inkscape:label="Map 1: fid_69" fill-rule="evenodd" stroke-linecap="square" inkscape:groupmode="layer" stroke-width="1" fill="none" id="Map 1: fid_69">
  <g stroke-linejoin="bevel"  fill-opacity="1" stroke="#232323" font-style="normal" stroke-linecap="square" font-family="Noto Sans" font-size="41.6667" font-weight="400" stroke-width="1" fill="#f3a6b2" stroke-opacity="1">
   <path d="M1483.34,762.117 L1474.45,763.515 L1457.06,763.111 L1450.32,756.911 L1447.9,756.506 L1446.68,757.989 L1444.39,756.102 L1439.54,750.306 L1438.19,749.632 L1438.6,749.228 L1438.6,749.093 L1439.54,749.093 L1439,743.702 L1439.54,743.567 L1439.81,741.411 L1439.13,740.737 L1439.54,739.524 L1440.21,738.311 L1439.94,737.098 L1440.21,736.02 L1442.1,735.75 L1442.77,733.324 L1441.97,731.841 L1441.7,728.876 L1440.35,726.72 L1437.38,725.776 L1434.15,724.968 L1432.93,719.307 L1430.64,717.016 L1427.81,716.476 L1426.6,714.724 L1420.13,711.085 L1411.77,701.785 L1404.5,691.677 L1400.05,692.485 L1398.3,689.891 L1395.2,686.656 L1392.37,678.704 L1388.73,676.143 L1386.97,672.369 L1384.82,670.213 L1384.55,667.248 L1388.32,666.304 L1386.7,663.204 L1386.03,660.374 L1386.84,658.622 L1386.17,656.061 L1386.3,653.096 L1386.7,651.748 L1385.22,649.591 L1385.63,648.109 L1386.57,646.357 L1386.7,644.605 L1386.7,644.2 L1388.59,639.719 L1389.27,635.406 L1389.67,633.519 L1390.88,631.362 L1391.56,630.823 L1393.31,629.071 L1400.86,629.88 L1404.09,635.541 L1409.48,638.775 L1412.72,641.74 L1414.34,646.862 L1419.46,648.479 L1421.34,652.523 L1426.2,656.027 L1421.21,661.149 L1424.17,662.901 L1424.17,664.923 L1421.48,667.484 L1420,670.449 L1426.2,676.244 L1426.87,679.749 L1433.07,684.601 L1434.28,687.97 L1437.65,689.722 L1439.94,692.418 L1442.64,693.227 L1446.14,694.17 L1450.05,693.766 L1453.15,696.057 L1451.67,698.887 L1450.19,701.987 L1448.97,702.931 L1451.4,705.087 L1455.98,705.222 L1458.95,706.031 L1459.89,710.344 L1461.37,713.039 L1464.61,713.848 L1467.44,716.948 L1471.89,718.835 L1473.77,721.665 L1475.26,728.017 L1473.37,729.769 L1468.92,730.982 L1466.76,731.252 L1463.4,730.713 L1461.91,731.656 L1461.37,733.273 L1462.59,735.565 L1464.07,739.608 L1467.17,742.843 L1469.6,745.673 L1472.02,748.234 L1474.31,750.256 L1474.31,750.256 L1483.34,762.117" fill-rule="evenodd" vector-effect="none"/>

</g>
</g>
</svg>