<svg xmlns="http://www.w3.org/2000/svg" version="1.2" baseProfile="tiny" xmlns:inkscape="http://www.inkscape.org/namespaces/inkscape" width="315.045mm" viewBox="3562.71 3077.14 179.19 211.66" height="227.076mm" xmlns:xlink="http://www.w3.org/1999/xlink" xmlns:cc="http://creativecommons.org/ns#">
<g inkscape:groupmode="layer" stroke-width="1" stroke-linejoin="bevel" stroke-linecap="square" inkscape:label="Map 1: fid_15" fill="none" stroke="black" id="Map 1: fid_15" fill-rule="evenodd">
  <g stroke-width="1" stroke-linejoin="bevel" font-weight="400" stroke-linecap="square" font-size="83.3333" font-style="normal" fill="none" stroke-opacity="1" transform="matrix(1,0,0,1,0,0)" font-family="Noto Sans" stroke="#000000"/>
  <g stroke-width="1" stroke-linejoin="bevel" font-weight="400" stroke-linecap="square" font-size="83.3333" font-style="normal" fill="none" stroke-opacity="1" transform="matrix(1,0,0,1,0,0)" font-family="Noto Sans" stroke="#000000"/>
  <g stroke-width="1" stroke-linejoin="bevel" font-weight="400" stroke-linecap="square" font-size="83.3333" font-style="normal" fill="none" stroke-opacity="1" transform="matrix(23.619,0,0,23.619,-728.486,-229.753)" font-family="Noto Sans" stroke="#000000"/>
  <g stroke-width="1" stroke-linejoin="bevel" font-weight="400" stroke-linecap="square" font-size="83.3333" font-style="normal" fill="none" stroke-opacity="1" transform="matrix(23.619,0,0,23.619,-728.486,-229.753)" font-family="Noto Sans" stroke="#000000"/>
  <g fill-opacity="0" font-weight="400" font-size="83.3333" font-style="normal" fill="#000000" transform="matrix(0.999873,0,0,0.999873,-728.486,-229.753)" font-family="Noto Sans" stroke="none">
   <rect y="0" width="8098" height="5627" x="0"/>
  </g>
  <g stroke-width="1" stroke-linejoin="bevel" font-weight="400" stroke-linecap="square" font-size="83.3333" font-style="normal" fill="none" stroke-opacity="1" transform="matrix(0.999873,0,0,0.999873,-728.486,-229.753)" font-family="Noto Sans" stroke="#000000"/>
  <g fill-opacity="1" stroke-width="2" stroke-linejoin="bevel" font-weight="400" stroke-linecap="square" font-size="83.3333" font-style="normal" fill="#e5b636" stroke-opacity="1" transform="matrix(0.999873,0,0,0.999873,-728.486,-229.753)" font-family="Noto Sans" stroke="#232323">
   <path d="M3548.38,3072.44 L3555.22,3079.16 L3562.44,3083.41 L3564.14,3090.64 L3557.77,3098.71 L3557.34,3111.47 L3550.65,3115.52 L3542.71,3121.76 L3546.11,3141.88 L3553.52,3159.93 L3555.22,3155.25 L3564.57,3152.28 L3567.55,3164.61 L3579.87,3166.31 L3584.13,3163.76 L3582,3194.36 L3595.18,3194.36 L3591.78,3219.45 L3592.63,3228.8 L3602.83,3221.57 L3627.49,3211.79 L3642.79,3213.49 L3651.29,3197.34 L3681.05,3182.89 L3681.9,3128.47 L3676.8,3117.42 L3658.52,3098.5 L3656.4,3121.88 L3649.59,3128.68 L3650.02,3112.53 L3639.82,3111.68 L3634.29,3116.78 L3634.29,3098.5 L3608.36,3097.23 L3600.7,3102.33 L3582.85,3104.03 L3581.57,3086.17 L3568.82,3085.32 L3559.15,3057.14 L3548.38,3072.44" vector-effect="none" fill-rule="evenodd"/>
  </g>
  <g stroke-width="1" stroke-linejoin="bevel" font-weight="400" stroke-linecap="square" font-size="83.3333" font-style="normal" fill="none" stroke-opacity="1" transform="matrix(0.999873,0,0,0.999873,-728.486,-229.753)" font-family="Noto Sans" stroke="#000000"/>
  <g stroke-width="1" stroke-linejoin="bevel" font-weight="400" stroke-linecap="square" font-size="83.3333" font-style="normal" fill="none" stroke-opacity="1" transform="matrix(23.619,0,0,23.619,-728.486,-229.753)" font-family="Noto Sans" stroke="#000000"/>
  <g stroke-width="1" stroke-linejoin="bevel" font-weight="400" stroke-linecap="square" font-size="83.3333" font-style="normal" fill="none" stroke-opacity="1" transform="matrix(23.619,0,0,23.619,-728.486,-229.753)" font-family="Noto Sans" stroke="#000000"/>
  <g stroke-width="1" stroke-linejoin="bevel" font-weight="400" stroke-linecap="square" font-size="83.3333" font-style="normal" fill="none" stroke-opacity="1" transform="matrix(23.619,0,0,23.619,-728.486,-229.753)" font-family="Noto Sans" stroke="#000000"/>
  <g stroke-width="1" stroke-linejoin="bevel" font-weight="400" stroke-linecap="square" font-size="83.3333" font-style="normal" fill="none" stroke-opacity="1" transform="matrix(1,0,0,1,0,0)" font-family="Noto Sans" stroke="#000000"/>
  <g stroke-width="1" stroke-linejoin="bevel" font-weight="400" stroke-linecap="square" font-size="83.3333" font-style="normal" fill="none" stroke-opacity="1" transform="matrix(23.619,0,0,23.619,-728.486,-229.753)" font-family="Noto Sans" stroke="#000000"/>
  <g stroke-width="1" stroke-linejoin="bevel" font-weight="400" stroke-linecap="square" font-size="83.3333" font-style="normal" fill="none" stroke-opacity="1" transform="matrix(23.619,0,0,23.619,-728.486,-229.753)" font-family="Noto Sans" stroke="#000000"/>
  <g stroke-width="1" stroke-linejoin="bevel" font-weight="400" stroke-linecap="square" font-size="83.3333" font-style="normal" fill="none" stroke-opacity="1" transform="matrix(1,0,0,1,0,0)" font-family="Noto Sans" stroke="#000000"/>
 </g>
 
</svg>