<svg xmlns="http://www.w3.org/2000/svg" version="1.2" baseProfile="tiny" xmlns:inkscape="http://www.inkscape.org/namespaces/inkscape" width="315.045mm" viewBox="1601.5 1286.16 67.03 80.34" height="227.076mm" xmlns:xlink="http://www.w3.org/1999/xlink" xmlns:cc="http://creativecommons.org/ns#">
<g stroke-linejoin="bevel" stroke="black" inkscape:label="Map 1: fid_15" fill-rule="evenodd" stroke-linecap="square" inkscape:groupmode="layer" stroke-width="1" fill="none" id="Map 1: fid_15">
  <g stroke-linejoin="bevel"  fill-opacity="1" stroke="#232323" font-style="normal" stroke-linecap="square" font-family="Noto Sans" font-size="41.6667" font-weight="400" stroke-width="1" fill="#f3a6b2" stroke-opacity="1">
   <path d="M1608.82,1297.43 L1611.62,1300.18 L1614.58,1301.92 L1615.28,1304.89 L1612.67,1308.2 L1612.49,1313.42 L1609.75,1315.08 L1606.5,1317.64 L1607.89,1325.88 L1610.92,1333.28 L1611.62,1331.36 L1615.45,1330.14 L1616.67,1335.19 L1621.72,1335.89 L1623.47,1334.85 L1622.59,1347.39 L1627.99,1347.39 L1626.6,1357.66 L1626.95,1361.5 L1631.13,1358.53 L1641.23,1354.53 L1647.5,1355.22 L1650.99,1348.61 L1663.18,1342.68 L1663.53,1320.39 L1661.44,1315.86 L1653.95,1308.11 L1653.08,1317.69 L1650.29,1320.48 L1650.46,1313.86 L1646.28,1313.51 L1644.02,1315.6 L1644.02,1308.11 L1633.39,1307.59 L1630.26,1309.68 L1622.94,1310.37 L1622.42,1303.06 L1617.19,1302.71 L1613.23,1291.16 L1608.82,1297.43" fill-rule="evenodd" vector-effect="none"/>

</g>
</g>
</svg>