<svg xmlns="http://www.w3.org/2000/svg" version="1.2" baseProfile="tiny" xmlns:inkscape="http://www.inkscape.org/namespaces/inkscape" width="315.045mm" viewBox="3247.6 3425.89 277.25 391.87" height="227.076mm" xmlns:xlink="http://www.w3.org/1999/xlink" xmlns:cc="http://creativecommons.org/ns#">
<g inkscape:groupmode="layer" stroke-width="1" stroke-linejoin="bevel" stroke-linecap="square" inkscape:label="Map 1: fid_86" fill="none" stroke="black" id="Map 1: fid_86" fill-rule="evenodd">
  <g stroke-width="1" stroke-linejoin="bevel" font-weight="400" stroke-linecap="square" font-size="83.3333" font-style="normal" fill="none" stroke-opacity="1" transform="matrix(1,0,0,1,0,0)" font-family="Noto Sans" stroke="#000000"/>
  <g stroke-width="1" stroke-linejoin="bevel" font-weight="400" stroke-linecap="square" font-size="83.3333" font-style="normal" fill="none" stroke-opacity="1" transform="matrix(1,0,0,1,0,0)" font-family="Noto Sans" stroke="#000000"/>
  <g stroke-width="1" stroke-linejoin="bevel" font-weight="400" stroke-linecap="square" font-size="83.3333" font-style="normal" fill="none" stroke-opacity="1" transform="matrix(23.6177,0,0,23.6177,23.6177,23.6177)" font-family="Noto Sans" stroke="#000000"/>
  <g stroke-width="1" stroke-linejoin="bevel" font-weight="400" stroke-linecap="square" font-size="83.3333" font-style="normal" fill="none" stroke-opacity="1" transform="matrix(23.6177,0,0,23.6177,23.6177,23.6177)" font-family="Noto Sans" stroke="#000000"/>
  <g fill-opacity="0" font-weight="400" font-size="83.3333" font-style="normal" fill="#000000" transform="matrix(0.999817,0,0,0.999817,23.6177,23.6177)" font-family="Noto Sans" stroke="none">
   <rect y="0" width="7395" height="5318" x="0"/>
  </g>
  <g stroke-width="1" stroke-linejoin="bevel" font-weight="400" stroke-linecap="square" font-size="83.3333" font-style="normal" fill="none" stroke-opacity="1" transform="matrix(0.999817,0,0,0.999817,23.6177,23.6177)" font-family="Noto Sans" stroke="#000000"/>
  <g fill-opacity="1" stroke-width="2" stroke-linejoin="bevel" font-weight="400" stroke-linecap="square" font-size="83.3333" font-style="normal" fill="#8d5a99" stroke-opacity="1" transform="matrix(0.999817,0,0,0.999817,23.6177,23.6177)" font-family="Noto Sans" stroke="#232323">
   <path d="M3272.28,3532.59 L3315.54,3486.48 L3355.8,3461.54 L3360.91,3463.35 L3364.21,3461.54 L3368.12,3458.24 L3369.62,3454.33 L3372.92,3452.23 L3374.43,3454.03 L3374.12,3459.74 L3370.52,3463.95 L3366.91,3466.05 L3366.31,3468.75 L3363.01,3469.05 L3363.01,3465.45 L3360.31,3465.45 L3361.21,3472.06 L3363.31,3475.66 L3362.11,3482.27 L3358.5,3486.18 L3353.4,3489.78 L3350.99,3495.19 L3346.79,3498.8 L3344.38,3503 L3348.89,3506.31 L3354.9,3509.91 L3361.21,3509.01 L3365.41,3504.8 L3367.52,3500.3 L3369.32,3496.39 L3375.33,3478.89 L3380.73,3480.7 L3394.55,3467.18 L3399.36,3451.56 L3417.69,3439.24 L3417.99,3435.33 L3431.5,3421.21 L3439.32,3419.71 L3439.92,3416.41 L3442.92,3416.11 L3449.83,3405.89 L3451.03,3411.9 L3464.85,3423.02 L3452.23,3446.75 L3453.43,3453.36 L3452.23,3461.17 L3448.03,3462.07 L3445.32,3463.57 L3426.4,3497.82 L3429.4,3507.43 L3417.38,3547.76 L3409.57,3554.07 L3394.85,3593.73 L3394.55,3604.54 L3382.84,3638.49 L3369.92,3649.61 L3364.51,3667.63 L3360.31,3670.63 L3360.61,3688.66 L3347.39,3690.16 L3339.28,3696.47 L3337.77,3704.28 L3328.16,3711.79 L3325.46,3719.6 L3319.45,3719 L3316.14,3730.72 L3311.94,3738.53 L3302.33,3741.53 L3295.42,3741.53 L3293.61,3742.73 L3290.31,3736.43 L3285.2,3737.93 L3284.9,3743.94 L3282.5,3746.64 L3274.09,3747.24 L3272.28,3753.25 L3266.58,3757.76 L3260.87,3755.35 L3258.16,3750.85 L3242.32,3725.42 L3237.21,3722.12 L3227.6,3683.36 L3275.36,3534.66 L3272.28,3532.59" vector-effect="none" fill-rule="evenodd"/>
  </g>
  <g stroke-width="1" stroke-linejoin="bevel" font-weight="400" stroke-linecap="square" font-size="83.3333" font-style="normal" fill="none" stroke-opacity="1" transform="matrix(0.999817,0,0,0.999817,23.6177,23.6177)" font-family="Noto Sans" stroke="#000000"/>
  <g stroke-width="1" stroke-linejoin="bevel" font-weight="400" stroke-linecap="square" font-size="83.3333" font-style="normal" fill="none" stroke-opacity="1" transform="matrix(23.6177,0,0,23.6177,23.6177,23.6177)" font-family="Noto Sans" stroke="#000000"/>
  <g stroke-width="1" stroke-linejoin="bevel" font-weight="400" stroke-linecap="square" font-size="83.3333" font-style="normal" fill="none" stroke-opacity="1" transform="matrix(23.6177,0,0,23.6177,23.6177,23.6177)" font-family="Noto Sans" stroke="#000000"/>
  <g stroke-width="1" stroke-linejoin="bevel" font-weight="400" stroke-linecap="square" font-size="83.3333" font-style="normal" fill="none" stroke-opacity="1" transform="matrix(23.6177,0,0,23.6177,23.6177,23.6177)" font-family="Noto Sans" stroke="#000000"/>
  <g stroke-width="1" stroke-linejoin="bevel" font-weight="400" stroke-linecap="square" font-size="83.3333" font-style="normal" fill="none" stroke-opacity="1" transform="matrix(1,0,0,1,0,0)" font-family="Noto Sans" stroke="#000000"/>
  <g stroke-width="1" stroke-linejoin="bevel" font-weight="400" stroke-linecap="square" font-size="83.3333" font-style="normal" fill="none" stroke-opacity="1" transform="matrix(23.6177,0,0,23.6177,23.6177,23.6177)" font-family="Noto Sans" stroke="#000000"/>
  <g stroke-width="1" stroke-linejoin="bevel" font-weight="400" stroke-linecap="square" font-size="83.3333" font-style="normal" fill="none" stroke-opacity="1" transform="matrix(23.6177,0,0,23.6177,23.6177,23.6177)" font-family="Noto Sans" stroke="#000000"/>
  <g stroke-width="1" stroke-linejoin="bevel" font-weight="400" stroke-linecap="square" font-size="83.3333" font-style="normal" fill="none" stroke-opacity="1" transform="matrix(1,0,0,1,0,0)" font-family="Noto Sans" stroke="#000000"/>
 </g>
 
</svg>