<svg xmlns="http://www.w3.org/2000/svg" version="1.2" baseProfile="tiny" xmlns:inkscape="http://www.inkscape.org/namespaces/inkscape" width="315.045mm" viewBox="1683.47 1474.19 116.45 167.87" height="227.076mm" xmlns:xlink="http://www.w3.org/1999/xlink" xmlns:cc="http://creativecommons.org/ns#">
<g stroke-linejoin="bevel" stroke="black" inkscape:label="Map 1: fid_86" fill-rule="evenodd" stroke-linecap="square" inkscape:groupmode="layer" stroke-width="1" fill="none" id="Map 1: fid_86">
  <g stroke-linejoin="bevel"  fill-opacity="1" stroke="#232323" font-style="normal" stroke-linecap="square" font-family="Noto Sans" font-size="41.6667" font-weight="400" stroke-width="1" fill="#e8718d" stroke-opacity="1">
   <path d="M1708.52,1536.03 L1727.93,1515.34 L1745.99,1504.16 L1748.28,1504.97 L1749.77,1504.16 L1751.52,1502.67 L1752.19,1500.92 L1753.67,1499.98 L1754.35,1500.79 L1754.21,1503.35 L1752.6,1505.24 L1750.98,1506.18 L1750.71,1507.39 L1749.23,1507.53 L1749.23,1505.91 L1748.01,1505.91 L1748.42,1508.87 L1749.36,1510.49 L1748.82,1513.46 L1747.2,1515.21 L1744.91,1516.83 L1743.84,1519.25 L1741.95,1520.87 L1740.87,1522.76 L1742.89,1524.24 L1745.59,1525.86 L1748.42,1525.45 L1750.31,1523.57 L1751.25,1521.54 L1752.06,1519.79 L1754.75,1511.94 L1757.18,1512.75 L1763.38,1506.68 L1765.54,1499.67 L1773.76,1494.15 L1773.89,1492.4 L1779.96,1486.06 L1783.46,1485.39 L1783.73,1483.9 L1785.08,1483.77 L1788.18,1479.19 L1788.72,1481.88 L1794.92,1486.87 L1789.26,1497.52 L1789.8,1500.48 L1789.26,1503.99 L1787.37,1504.39 L1786.16,1505.07 L1777.67,1520.43 L1779.02,1524.75 L1773.62,1542.84 L1770.12,1545.67 L1763.51,1563.46 L1763.38,1568.32 L1758.12,1583.55 L1752.33,1588.54 L1749.9,1596.62 L1748.01,1597.97 L1748.15,1606.06 L1742.22,1606.73 L1738.58,1609.56 L1737.9,1613.07 L1733.59,1616.44 L1732.38,1619.94 L1729.68,1619.67 L1728.2,1624.93 L1726.31,1628.43 L1722,1629.78 L1718.9,1629.78 L1718.09,1630.32 L1716.61,1627.49 L1714.32,1628.16 L1714.18,1630.86 L1713.1,1632.07 L1709.33,1632.34 L1708.52,1635.04 L1705.96,1637.06 L1703.4,1635.98 L1702.18,1633.96 L1695.07,1622.55 L1692.78,1621.07 L1688.47,1603.68 L1709.9,1536.96 L1708.52,1536.03" fill-rule="evenodd" vector-effect="none"/>

</g>
</g>
</svg>