<svg xmlns="http://www.w3.org/2000/svg" version="1.2" baseProfile="tiny" xmlns:inkscape="http://www.inkscape.org/namespaces/inkscape" width="315.045mm" viewBox="3762.78 3536.04 299.81 425.31" height="227.076mm" xmlns:xlink="http://www.w3.org/1999/xlink" xmlns:cc="http://creativecommons.org/ns#">
<g inkscape:groupmode="layer" stroke-width="1" stroke-linejoin="bevel" stroke-linecap="square" inkscape:label="Map 1: fid_86" fill="none" stroke="black" id="Map 1: fid_86" fill-rule="evenodd">
  <g stroke-width="1" stroke-linejoin="bevel" font-weight="400" stroke-linecap="square" font-size="83.3333" font-style="normal" fill="none" stroke-opacity="1" transform="matrix(1,0,0,1,0,0)" font-family="Noto Sans" stroke="#000000"/>
  <g stroke-width="1" stroke-linejoin="bevel" font-weight="400" stroke-linecap="square" font-size="83.3333" font-style="normal" fill="none" stroke-opacity="1" transform="matrix(1,0,0,1,0,0)" font-family="Noto Sans" stroke="#000000"/>
  <g stroke-width="1" stroke-linejoin="bevel" font-weight="400" stroke-linecap="square" font-size="83.3333" font-style="normal" fill="none" stroke-opacity="1" transform="matrix(23.619,0,0,23.619,-728.486,-229.753)" font-family="Noto Sans" stroke="#000000"/>
  <g stroke-width="1" stroke-linejoin="bevel" font-weight="400" stroke-linecap="square" font-size="83.3333" font-style="normal" fill="none" stroke-opacity="1" transform="matrix(23.619,0,0,23.619,-728.486,-229.753)" font-family="Noto Sans" stroke="#000000"/>
  <g fill-opacity="0" font-weight="400" font-size="83.3333" font-style="normal" fill="#000000" transform="matrix(0.999873,0,0,0.999873,-728.486,-229.753)" font-family="Noto Sans" stroke="none">
   <rect y="0" width="8098" height="5627" x="0"/>
  </g>
  <g stroke-width="1" stroke-linejoin="bevel" font-weight="400" stroke-linecap="square" font-size="83.3333" font-style="normal" fill="none" stroke-opacity="1" transform="matrix(0.999873,0,0,0.999873,-728.486,-229.753)" font-family="Noto Sans" stroke="#000000"/>
  <g fill-opacity="1" stroke-width="2" stroke-linejoin="bevel" font-weight="400" stroke-linecap="square" font-size="83.3333" font-style="normal" fill="#beb297" stroke-opacity="1" transform="matrix(0.999873,0,0,0.999873,-728.486,-229.753)" font-family="Noto Sans" stroke="#232323">
   <path d="M3791.71,3654.79 L3839.08,3604.29 L3883.17,3576.98 L3888.76,3578.96 L3892.38,3576.98 L3896.66,3573.37 L3898.3,3569.09 L3901.92,3566.79 L3903.56,3568.76 L3903.24,3575.01 L3899.29,3579.62 L3895.34,3581.92 L3894.68,3584.88 L3891.06,3585.21 L3891.06,3581.26 L3888.1,3581.26 L3889.09,3588.5 L3891.39,3592.45 L3890.08,3599.68 L3886.13,3603.96 L3880.54,3607.91 L3877.9,3613.83 L3873.3,3617.78 L3870.67,3622.38 L3875.6,3626 L3882.18,3629.95 L3889.09,3628.96 L3893.69,3624.36 L3896,3619.42 L3897.97,3615.15 L3904.55,3595.98 L3910.47,3597.96 L3925.61,3583.15 L3930.87,3566.05 L3950.94,3552.56 L3951.27,3548.28 L3966.07,3532.82 L3974.62,3531.17 L3975.28,3527.56 L3978.57,3527.23 L3986.14,3516.04 L3987.45,3522.62 L4002.59,3534.79 L3988.77,3560.78 L3990.08,3568.02 L3988.77,3576.57 L3984.16,3577.56 L3981.2,3579.2 L3960.48,3616.71 L3963.77,3627.24 L3950.61,3671.4 L3942.05,3678.31 L3925.93,3721.73 L3925.61,3733.58 L3912.78,3770.75 L3898.63,3782.92 L3892.71,3802.66 L3888.1,3805.95 L3888.43,3825.69 L3873.96,3827.33 L3865.07,3834.24 L3863.43,3842.8 L3852.9,3851.02 L3849.94,3859.57 L3843.36,3858.92 L3839.74,3871.75 L3835.14,3880.3 L3824.61,3883.59 L3817.04,3883.59 L3815.07,3884.91 L3811.45,3878 L3805.86,3879.64 L3805.53,3886.22 L3802.9,3889.18 L3793.69,3889.84 L3791.71,3896.42 L3785.46,3901.35 L3779.21,3898.72 L3776.25,3893.79 L3758.9,3865.95 L3753.3,3862.33 L3742.78,3819.89 L3795.08,3657.05 L3791.71,3654.79" vector-effect="none" fill-rule="evenodd"/>
  </g>
  <g stroke-width="1" stroke-linejoin="bevel" font-weight="400" stroke-linecap="square" font-size="83.3333" font-style="normal" fill="none" stroke-opacity="1" transform="matrix(0.999873,0,0,0.999873,-728.486,-229.753)" font-family="Noto Sans" stroke="#000000"/>
  <g stroke-width="1" stroke-linejoin="bevel" font-weight="400" stroke-linecap="square" font-size="83.3333" font-style="normal" fill="none" stroke-opacity="1" transform="matrix(23.619,0,0,23.619,-728.486,-229.753)" font-family="Noto Sans" stroke="#000000"/>
  <g stroke-width="1" stroke-linejoin="bevel" font-weight="400" stroke-linecap="square" font-size="83.3333" font-style="normal" fill="none" stroke-opacity="1" transform="matrix(23.619,0,0,23.619,-728.486,-229.753)" font-family="Noto Sans" stroke="#000000"/>
  <g stroke-width="1" stroke-linejoin="bevel" font-weight="400" stroke-linecap="square" font-size="83.3333" font-style="normal" fill="none" stroke-opacity="1" transform="matrix(23.619,0,0,23.619,-728.486,-229.753)" font-family="Noto Sans" stroke="#000000"/>
  <g stroke-width="1" stroke-linejoin="bevel" font-weight="400" stroke-linecap="square" font-size="83.3333" font-style="normal" fill="none" stroke-opacity="1" transform="matrix(1,0,0,1,0,0)" font-family="Noto Sans" stroke="#000000"/>
  <g stroke-width="1" stroke-linejoin="bevel" font-weight="400" stroke-linecap="square" font-size="83.3333" font-style="normal" fill="none" stroke-opacity="1" transform="matrix(23.619,0,0,23.619,-728.486,-229.753)" font-family="Noto Sans" stroke="#000000"/>
  <g stroke-width="1" stroke-linejoin="bevel" font-weight="400" stroke-linecap="square" font-size="83.3333" font-style="normal" fill="none" stroke-opacity="1" transform="matrix(23.619,0,0,23.619,-728.486,-229.753)" font-family="Noto Sans" stroke="#000000"/>
  <g stroke-width="1" stroke-linejoin="bevel" font-weight="400" stroke-linecap="square" font-size="83.3333" font-style="normal" fill="none" stroke-opacity="1" transform="matrix(1,0,0,1,0,0)" font-family="Noto Sans" stroke="#000000"/>
 </g>
 
</svg>