<svg xmlns="http://www.w3.org/2000/svg" version="1.2" baseProfile="tiny" xmlns:inkscape="http://www.inkscape.org/namespaces/inkscape" width="315.045mm" viewBox="2903.52 2032.94 178.78 177.28" height="227.076mm" xmlns:xlink="http://www.w3.org/1999/xlink" xmlns:cc="http://creativecommons.org/ns#">
<g inkscape:groupmode="layer" stroke-width="1" stroke-linejoin="bevel" stroke-linecap="square" inkscape:label="Map 1: fid_71" fill="none" stroke="black" id="Map 1: fid_71" fill-rule="evenodd">
  <g stroke-width="1" stroke-linejoin="bevel" font-weight="400" stroke-linecap="square" font-size="83.3333" font-style="normal" fill="none" stroke-opacity="1" transform="matrix(1,0,0,1,0,0)" font-family="Noto Sans" stroke="#000000"/>
  <g stroke-width="1" stroke-linejoin="bevel" font-weight="400" stroke-linecap="square" font-size="83.3333" font-style="normal" fill="none" stroke-opacity="1" transform="matrix(1,0,0,1,0,0)" font-family="Noto Sans" stroke="#000000"/>
  <g stroke-width="1" stroke-linejoin="bevel" font-weight="400" stroke-linecap="square" font-size="83.3333" font-style="normal" fill="none" stroke-opacity="1" transform="matrix(23.6177,0,0,23.6177,23.6177,23.6177)" font-family="Noto Sans" stroke="#000000"/>
  <g stroke-width="1" stroke-linejoin="bevel" font-weight="400" stroke-linecap="square" font-size="83.3333" font-style="normal" fill="none" stroke-opacity="1" transform="matrix(23.6177,0,0,23.6177,23.6177,23.6177)" font-family="Noto Sans" stroke="#000000"/>
  <g fill-opacity="0" font-weight="400" font-size="83.3333" font-style="normal" fill="#000000" transform="matrix(0.999817,0,0,0.999817,23.6177,23.6177)" font-family="Noto Sans" stroke="none">
   <rect y="0" width="7395" height="5318" x="0"/>
  </g>
  <g stroke-width="1" stroke-linejoin="bevel" font-weight="400" stroke-linecap="square" font-size="83.3333" font-style="normal" fill="none" stroke-opacity="1" transform="matrix(0.999817,0,0,0.999817,23.6177,23.6177)" font-family="Noto Sans" stroke="#000000"/>
  <g fill-opacity="1" stroke-width="2" stroke-linejoin="bevel" font-weight="400" stroke-linecap="square" font-size="83.3333" font-style="normal" fill="#7d8b8f" stroke-opacity="1" transform="matrix(0.999817,0,0,0.999817,23.6177,23.6177)" font-family="Noto Sans" stroke="#232323">
   <path d="M2884.12,2033.07 L2883.52,2025.86 L2891.93,2014.14 L2895.83,2012.94 L2901.84,2020.15 L2909.35,2024.96 L2915.96,2015.04 L2926.77,2013.54 L2938.79,2019.85 L2940.29,2023.45 L2944.5,2024.06 L2947.8,2032.17 L2954.71,2035.47 L2963.42,2034.57 L2968.83,2030.06 L2971.23,2024.66 L2976.34,2025.56 L2979.34,2021.95 L2985.65,2021.95 L2988.65,2027.96 L2991.96,2033.67 L2995.86,2043.88 L2994.06,2051.99 L2991.36,2058.3 L2989.56,2060.1 L2989.25,2063.41 L2987.15,2063.41 L2986.25,2070.92 L2989.25,2076.92 L2995.86,2079.33 L3000.07,2082.03 L2999.47,2086.24 L2995.56,2088.94 L2997.97,2094.95 L3004.57,2101.56 L3007.58,2105.76 L3006.08,2113.57 L3006.98,2120.78 L3014.79,2123.19 L3020.5,2127.39 L3022.3,2135.2 L3020.8,2139.71 L3011.78,2149.32 L3008.78,2150.22 L3008.18,2144.51 L3003.67,2142.71 L3000.37,2132.5 L3001.57,2127.69 L2999.77,2121.68 L2997.37,2118.08 L2992.86,2119.28 L2983.85,2118.08 L2983.25,2120.48 L2970.33,2115.68 L2967.03,2120.78 L2956.81,2114.17 L2956.81,2111.17 L2951.71,2110.57 L2950.5,2121.98 L2939.39,2122.28 L2938.79,2119.58 L2930.98,2115.68 L2930.68,2107.56 L2908.75,2082.93 L2912.65,2079.33 L2911.75,2074.22 L2911.15,2070.62 L2914.16,2067.61 L2922.27,2072.42 L2923.77,2075.72 L2927.97,2076.02 L2931.58,2080.23 L2932.48,2082.63 L2937.89,2081.73 L2937.89,2076.32 L2937.59,2064.61 L2928.27,2060.4 L2927.67,2055.6 L2923.47,2054.09 L2918.96,2058.6 L2910.85,2053.79 L2912.05,2049.89 L2915.96,2047.49 L2914.46,2040.28 L2905.14,2038.47 L2898.54,2044.48 L2885.62,2033.37 L2884.12,2033.07" vector-effect="none" fill-rule="evenodd"/>
  </g>
  <g stroke-width="1" stroke-linejoin="bevel" font-weight="400" stroke-linecap="square" font-size="83.3333" font-style="normal" fill="none" stroke-opacity="1" transform="matrix(0.999817,0,0,0.999817,23.6177,23.6177)" font-family="Noto Sans" stroke="#000000"/>
  <g stroke-width="1" stroke-linejoin="bevel" font-weight="400" stroke-linecap="square" font-size="83.3333" font-style="normal" fill="none" stroke-opacity="1" transform="matrix(23.6177,0,0,23.6177,23.6177,23.6177)" font-family="Noto Sans" stroke="#000000"/>
  <g stroke-width="1" stroke-linejoin="bevel" font-weight="400" stroke-linecap="square" font-size="83.3333" font-style="normal" fill="none" stroke-opacity="1" transform="matrix(23.6177,0,0,23.6177,23.6177,23.6177)" font-family="Noto Sans" stroke="#000000"/>
  <g stroke-width="1" stroke-linejoin="bevel" font-weight="400" stroke-linecap="square" font-size="83.3333" font-style="normal" fill="none" stroke-opacity="1" transform="matrix(23.6177,0,0,23.6177,23.6177,23.6177)" font-family="Noto Sans" stroke="#000000"/>
  <g stroke-width="1" stroke-linejoin="bevel" font-weight="400" stroke-linecap="square" font-size="83.3333" font-style="normal" fill="none" stroke-opacity="1" transform="matrix(1,0,0,1,0,0)" font-family="Noto Sans" stroke="#000000"/>
  <g stroke-width="1" stroke-linejoin="bevel" font-weight="400" stroke-linecap="square" font-size="83.3333" font-style="normal" fill="none" stroke-opacity="1" transform="matrix(23.6177,0,0,23.6177,23.6177,23.6177)" font-family="Noto Sans" stroke="#000000"/>
  <g stroke-width="1" stroke-linejoin="bevel" font-weight="400" stroke-linecap="square" font-size="83.3333" font-style="normal" fill="none" stroke-opacity="1" transform="matrix(23.6177,0,0,23.6177,23.6177,23.6177)" font-family="Noto Sans" stroke="#000000"/>
  <g stroke-width="1" stroke-linejoin="bevel" font-weight="400" stroke-linecap="square" font-size="83.3333" font-style="normal" fill="none" stroke-opacity="1" transform="matrix(1,0,0,1,0,0)" font-family="Noto Sans" stroke="#000000"/>
 </g>
 
</svg>