<svg xmlns="http://www.w3.org/2000/svg" version="1.2" baseProfile="tiny" xmlns:inkscape="http://www.inkscape.org/namespaces/inkscape" width="315.045mm" viewBox="1529.09 849.197 72.27 71.595" height="227.076mm" xmlns:xlink="http://www.w3.org/1999/xlink" xmlns:cc="http://creativecommons.org/ns#">
<g stroke-linejoin="bevel" stroke="black" inkscape:label="Map 1: fid_71" fill-rule="evenodd" stroke-linecap="square" inkscape:groupmode="layer" stroke-width="1" fill="none" id="Map 1: fid_71">
  <g stroke-linejoin="bevel"  fill-opacity="1" stroke="#232323" font-style="normal" stroke-linecap="square" font-family="Noto Sans" font-size="41.6667" font-weight="400" stroke-width="1" fill="#85b66f" stroke-opacity="1">
   <path d="M1534.36,863.227 L1534.09,859.993 L1537.86,854.736 L1539.61,854.197 L1542.31,857.432 L1545.68,859.588 L1548.64,855.141 L1553.5,854.467 L1558.89,857.297 L1559.56,858.914 L1561.45,859.184 L1562.93,862.823 L1566.03,864.306 L1569.94,863.901 L1572.37,861.88 L1573.44,859.453 L1575.73,859.858 L1577.08,858.24 L1579.91,858.24 L1581.26,860.936 L1582.74,863.497 L1584.5,868.079 L1583.69,871.719 L1582.47,874.549 L1581.67,875.358 L1581.53,876.84 L1580.59,876.84 L1580.18,880.21 L1581.53,882.905 L1584.5,883.984 L1586.38,885.197 L1586.11,887.084 L1584.36,888.297 L1585.44,890.992 L1588.4,893.957 L1589.75,895.844 L1589.08,899.349 L1589.48,902.583 L1592.99,903.662 L1595.55,905.549 L1596.36,909.053 L1595.68,911.075 L1591.64,915.388 L1590.29,915.792 L1590.02,913.231 L1588,912.422 L1586.52,907.84 L1587.06,905.683 L1586.25,902.988 L1585.17,901.37 L1583.15,901.909 L1579.1,901.37 L1578.83,902.449 L1573.04,900.292 L1571.56,902.583 L1566.97,899.618 L1566.97,898.27 L1564.68,898.001 L1564.14,903.122 L1559.16,903.257 L1558.89,902.044 L1555.38,900.292 L1555.25,896.653 L1545.41,885.601 L1547.16,883.984 L1546.76,881.692 L1546.49,880.075 L1547.84,878.727 L1551.47,880.884 L1552.15,882.366 L1554.04,882.501 L1555.65,884.388 L1556.06,885.466 L1558.48,885.062 L1558.48,882.636 L1558.35,877.379 L1554.17,875.492 L1553.9,873.336 L1552.01,872.662 L1549.99,874.684 L1546.35,872.527 L1546.89,870.775 L1548.64,869.697 L1547.97,866.462 L1543.79,865.653 L1540.83,868.349 L1535.03,863.362 L1534.36,863.227" fill-rule="evenodd" vector-effect="none"/>

</g>
</g>
</svg>