<svg xmlns="http://www.w3.org/2000/svg" version="1.2" baseProfile="tiny" xmlns:inkscape="http://www.inkscape.org/namespaces/inkscape" width="315.045mm" viewBox="3385.99 2010.67 191.97 190.33" height="227.076mm" xmlns:xlink="http://www.w3.org/1999/xlink" xmlns:cc="http://creativecommons.org/ns#">
<g inkscape:groupmode="layer" stroke-width="1" stroke-linejoin="bevel" stroke-linecap="square" inkscape:label="Map 1: fid_71" fill="none" stroke="black" id="Map 1: fid_71" fill-rule="evenodd">
  <g stroke-width="1" stroke-linejoin="bevel" font-weight="400" stroke-linecap="square" font-size="83.3333" font-style="normal" fill="none" stroke-opacity="1" transform="matrix(1,0,0,1,0,0)" font-family="Noto Sans" stroke="#000000"/>
  <g stroke-width="1" stroke-linejoin="bevel" font-weight="400" stroke-linecap="square" font-size="83.3333" font-style="normal" fill="none" stroke-opacity="1" transform="matrix(1,0,0,1,0,0)" font-family="Noto Sans" stroke="#000000"/>
  <g stroke-width="1" stroke-linejoin="bevel" font-weight="400" stroke-linecap="square" font-size="83.3333" font-style="normal" fill="none" stroke-opacity="1" transform="matrix(23.619,0,0,23.619,-728.486,-229.753)" font-family="Noto Sans" stroke="#000000"/>
  <g stroke-width="1" stroke-linejoin="bevel" font-weight="400" stroke-linecap="square" font-size="83.3333" font-style="normal" fill="none" stroke-opacity="1" transform="matrix(23.619,0,0,23.619,-728.486,-229.753)" font-family="Noto Sans" stroke="#000000"/>
  <g fill-opacity="0" font-weight="400" font-size="83.3333" font-style="normal" fill="#000000" transform="matrix(0.999873,0,0,0.999873,-728.486,-229.753)" font-family="Noto Sans" stroke="none">
   <rect y="0" width="8098" height="5627" x="0"/>
  </g>
  <g stroke-width="1" stroke-linejoin="bevel" font-weight="400" stroke-linecap="square" font-size="83.3333" font-style="normal" fill="none" stroke-opacity="1" transform="matrix(0.999873,0,0,0.999873,-728.486,-229.753)" font-family="Noto Sans" stroke="#000000"/>
  <g fill-opacity="1" stroke-width="2" stroke-linejoin="bevel" font-weight="400" stroke-linecap="square" font-size="83.3333" font-style="normal" fill="#e77148" stroke-opacity="1" transform="matrix(0.999873,0,0,0.999873,-728.486,-229.753)" font-family="Noto Sans" stroke="#232323">
   <path d="M3366.64,2012.71 L3365.99,2004.82 L3375.2,1991.99 L3379.47,1990.67 L3386.05,1998.56 L3394.28,2003.83 L3401.51,1992.97 L3413.36,1991.33 L3426.51,1998.24 L3428.16,2002.18 L3432.76,2002.84 L3436.38,2011.72 L3443.95,2015.34 L3453.49,2014.35 L3459.41,2009.42 L3462.04,2003.5 L3467.63,2004.49 L3470.92,2000.54 L3477.83,2000.54 L3481.12,2007.12 L3484.74,2013.37 L3489.01,2024.55 L3487.04,2033.43 L3484.08,2040.34 L3482.11,2042.32 L3481.78,2045.93 L3479.48,2045.93 L3478.49,2054.16 L3481.78,2060.74 L3489.01,2063.37 L3493.62,2066.33 L3492.96,2070.93 L3488.69,2073.89 L3491.32,2080.47 L3498.55,2087.71 L3501.84,2092.32 L3500.2,2100.87 L3501.19,2108.76 L3509.74,2111.39 L3515.99,2116 L3517.96,2124.55 L3516.32,2129.49 L3506.45,2140.01 L3503.16,2141 L3502.5,2134.75 L3497.57,2132.78 L3493.95,2121.59 L3495.26,2116.33 L3493.29,2109.75 L3490.66,2105.8 L3485.73,2107.12 L3475.86,2105.8 L3475.2,2108.43 L3461.05,2103.17 L3457.44,2108.76 L3446.25,2101.53 L3446.25,2098.24 L3440.66,2097.58 L3439.34,2110.08 L3427.17,2110.41 L3426.51,2107.45 L3417.96,2103.17 L3417.63,2094.29 L3393.62,2067.32 L3397.9,2063.37 L3396.91,2057.78 L3396.25,2053.83 L3399.54,2050.54 L3408.42,2055.8 L3410.07,2059.42 L3414.67,2059.75 L3418.62,2064.36 L3419.61,2066.99 L3425.53,2066 L3425.53,2060.08 L3425.2,2047.25 L3415,2042.64 L3414.34,2037.38 L3409.74,2035.74 L3404.8,2040.67 L3395.92,2035.41 L3397.24,2031.13 L3401.51,2028.5 L3399.87,2020.6 L3389.67,2018.63 L3382.43,2025.21 L3368.29,2013.04 L3366.64,2012.71" vector-effect="none" fill-rule="evenodd"/>
  </g>
  <g stroke-width="1" stroke-linejoin="bevel" font-weight="400" stroke-linecap="square" font-size="83.3333" font-style="normal" fill="none" stroke-opacity="1" transform="matrix(0.999873,0,0,0.999873,-728.486,-229.753)" font-family="Noto Sans" stroke="#000000"/>
  <g stroke-width="1" stroke-linejoin="bevel" font-weight="400" stroke-linecap="square" font-size="83.3333" font-style="normal" fill="none" stroke-opacity="1" transform="matrix(23.619,0,0,23.619,-728.486,-229.753)" font-family="Noto Sans" stroke="#000000"/>
  <g stroke-width="1" stroke-linejoin="bevel" font-weight="400" stroke-linecap="square" font-size="83.3333" font-style="normal" fill="none" stroke-opacity="1" transform="matrix(23.619,0,0,23.619,-728.486,-229.753)" font-family="Noto Sans" stroke="#000000"/>
  <g stroke-width="1" stroke-linejoin="bevel" font-weight="400" stroke-linecap="square" font-size="83.3333" font-style="normal" fill="none" stroke-opacity="1" transform="matrix(23.619,0,0,23.619,-728.486,-229.753)" font-family="Noto Sans" stroke="#000000"/>
  <g stroke-width="1" stroke-linejoin="bevel" font-weight="400" stroke-linecap="square" font-size="83.3333" font-style="normal" fill="none" stroke-opacity="1" transform="matrix(1,0,0,1,0,0)" font-family="Noto Sans" stroke="#000000"/>
  <g stroke-width="1" stroke-linejoin="bevel" font-weight="400" stroke-linecap="square" font-size="83.3333" font-style="normal" fill="none" stroke-opacity="1" transform="matrix(23.619,0,0,23.619,-728.486,-229.753)" font-family="Noto Sans" stroke="#000000"/>
  <g stroke-width="1" stroke-linejoin="bevel" font-weight="400" stroke-linecap="square" font-size="83.3333" font-style="normal" fill="none" stroke-opacity="1" transform="matrix(23.619,0,0,23.619,-728.486,-229.753)" font-family="Noto Sans" stroke="#000000"/>
  <g stroke-width="1" stroke-linejoin="bevel" font-weight="400" stroke-linecap="square" font-size="83.3333" font-style="normal" fill="none" stroke-opacity="1" transform="matrix(1,0,0,1,0,0)" font-family="Noto Sans" stroke="#000000"/>
 </g>
 
</svg>