<svg xmlns="http://www.w3.org/2000/svg" version="1.2" baseProfile="tiny" xmlns:inkscape="http://www.inkscape.org/namespaces/inkscape" width="315.045mm" viewBox="1575.02 1234.31 83.93 91.17" height="227.076mm" xmlns:xlink="http://www.w3.org/1999/xlink" xmlns:cc="http://creativecommons.org/ns#">
<g stroke-linejoin="bevel" stroke="black" inkscape:label="Map 1: fid_13" fill-rule="evenodd" stroke-linecap="square" inkscape:groupmode="layer" stroke-width="1" fill="none" id="Map 1: fid_13">
  <g stroke-linejoin="bevel"  fill-opacity="1" stroke="#232323" font-style="normal" stroke-linecap="square" font-family="Noto Sans" font-size="41.6667" font-weight="400" stroke-width="1" fill="#b7484b" stroke-opacity="1">
   <path d="M1613.23,1291.16 L1617.19,1302.71 L1622.42,1303.06 L1622.94,1310.37 L1630.26,1309.68 L1633.39,1307.59 L1644.02,1308.11 L1644.02,1315.6 L1646.28,1313.51 L1650.46,1313.86 L1650.29,1320.48 L1653.08,1317.69 L1653.95,1308.11 L1649.07,1295.39 L1643.84,1291.56 L1639.66,1290.86 L1637.23,1281.98 L1625.21,1279.37 L1626.6,1275.88 L1622.94,1275.01 L1626.08,1263.34 L1611.45,1255.68 L1610.92,1250.28 L1606.05,1248.54 L1595.07,1248.01 L1591.24,1244.88 L1591.24,1239.31 L1580.02,1241.23 L1591.63,1263.64 L1591.87,1279.08 L1597.79,1276.07 L1602.32,1270.14 L1611.14,1283.5 L1613.23,1291.16" fill-rule="evenodd" vector-effect="none"/>

</g>
</g>
</svg>