<svg xmlns="http://www.w3.org/2000/svg" version="1.2" baseProfile="tiny" xmlns:inkscape="http://www.inkscape.org/namespaces/inkscape" width="315.045mm" viewBox="3322.83 2665.75 95.32 76.27" height="227.076mm" xmlns:xlink="http://www.w3.org/1999/xlink" xmlns:cc="http://creativecommons.org/ns#">
<g inkscape:groupmode="layer" stroke-width="1" stroke-linejoin="bevel" stroke-linecap="square" inkscape:label="Map 1: fid_61" fill="none" stroke="black" id="Map 1: fid_61" fill-rule="evenodd">
  <g fill-opacity="1" stroke-width="2" stroke-linejoin="bevel" font-weight="400" stroke-linecap="square" font-size="83.3333" font-style="normal" fill="#becf50" stroke-opacity="1"  font-family="Noto Sans" stroke="#232323">
   <path d="M3348.26,2713.67 L3348.55,2711.71 L3327.83,2696.91 L3330.13,2696.91 L3340.82,2680.79 L3346.09,2670.75 L3348.39,2672.56 L3344.44,2680.62 L3347.73,2681.77 L3350.53,2676.84 L3351.68,2673.72 L3353.49,2676.35 L3349.38,2683.25 L3352.83,2688.19 L3356.12,2680.13 L3357.93,2680.95 L3358.75,2682.93 L3355.13,2689.83 L3358.91,2692.96 L3362.53,2684.9 L3367.63,2688.68 L3363.36,2694.44 L3365.66,2696.74 L3367.47,2694.11 L3369.44,2695.75 L3367.63,2698.55 L3369.44,2700.03 L3370.92,2697.24 L3373.06,2699.37 L3371.74,2701.68 L3373.72,2703.16 L3375.03,2701.68 L3376.84,2703.16 L3375.86,2704.8 L3377.66,2706.61 L3380.46,2702.99 L3399.05,2716.97 L3397.9,2718.29 L3399.54,2719.44 L3400.53,2718.12 L3412.16,2721.73 L3410.52,2727.48 L3413.15,2731.76 L3409.86,2737.02 L3388.15,2717.12 L3379.76,2733.9 L3374.33,2734.72 L3358.79,2719.59 L3348.26,2713.67" vector-effect="none" fill-rule="evenodd"/>

</g>
</g>
</svg>