<svg xmlns="http://www.w3.org/2000/svg" version="1.2" baseProfile="tiny" xmlns:inkscape="http://www.inkscape.org/namespaces/inkscape" width="315.045mm" viewBox="1513.45 1127.85 44.96 37.15" height="227.076mm" xmlns:xlink="http://www.w3.org/1999/xlink" xmlns:cc="http://creativecommons.org/ns#">
<g stroke-linejoin="bevel" stroke="black" inkscape:label="Map 1: fid_61" fill-rule="evenodd" stroke-linecap="square" inkscape:groupmode="layer" stroke-width="1" fill="none" id="Map 1: fid_61">
  <g stroke-linejoin="bevel"  fill-opacity="1" stroke="#232323" font-style="normal" stroke-linecap="square" font-family="Noto Sans" font-size="41.6667" font-weight="400" stroke-width="1" fill="#d5b43c" stroke-opacity="1">
   <path d="M1526.83,1150.43 L1526.94,1149.63 L1518.45,1143.56 L1519.4,1143.56 L1523.78,1136.96 L1525.93,1132.85 L1526.88,1133.59 L1525.26,1136.89 L1526.61,1137.36 L1527.75,1135.34 L1528.22,1134.06 L1528.97,1135.14 L1527.28,1137.97 L1528.7,1139.99 L1530.04,1136.69 L1530.79,1137.03 L1531.12,1137.83 L1529.64,1140.67 L1531.19,1141.95 L1532.67,1138.64 L1534.76,1140.19 L1533.01,1142.55 L1533.95,1143.5 L1534.69,1142.42 L1535.5,1143.09 L1534.76,1144.24 L1535.5,1144.84 L1536.11,1143.7 L1536.99,1144.57 L1536.45,1145.52 L1537.26,1146.12 L1537.79,1145.52 L1538.54,1146.12 L1538.13,1146.8 L1538.87,1147.54 L1540.02,1146.06 L1547.63,1151.78 L1547.16,1152.32 L1547.84,1152.8 L1548.24,1152.26 L1553.01,1153.73 L1552.33,1156.09 L1553.41,1157.84 L1552.06,1160 L1543.17,1151.85 L1539.73,1158.72 L1537.51,1159.06 L1531.14,1152.86 L1526.83,1150.43" fill-rule="evenodd" vector-effect="none"/>

</g>
</g>
</svg>