<svg xmlns="http://www.w3.org/2000/svg" version="1.2" baseProfile="tiny" xmlns:inkscape="http://www.inkscape.org/namespaces/inkscape" width="315.045mm" viewBox="1432.25 874.334 116.04 169.576" height="227.076mm" xmlns:xlink="http://www.w3.org/1999/xlink" xmlns:cc="http://creativecommons.org/ns#">
<g stroke-linejoin="bevel" stroke="black" inkscape:label="Map 1: fid_73" fill-rule="evenodd" stroke-linecap="square" inkscape:groupmode="layer" stroke-width="1" fill="none" id="Map 1: fid_73">
  <g stroke-linejoin="bevel"  fill-opacity="1" stroke="#232323" font-style="normal" stroke-linecap="square" font-family="Noto Sans" font-size="41.6667" font-weight="400" stroke-width="1" fill="#c43c39" stroke-opacity="1">
   <path d="M1447.69,879.94 L1442.91,879.334 L1442.1,882.029 L1443.99,883.916 L1446.41,892.003 L1445.87,895.507 L1448.57,896.855 L1448.57,899.012 L1451.26,901.707 L1449.92,903.325 L1451.8,906.02 L1452.34,908.177 L1449.11,911.951 L1445.33,910.872 L1445.6,915.185 L1444.53,915.185 L1445.33,917.611 L1442.64,918.151 L1439.13,914.377 L1437.25,917.881 L1441.02,921.655 L1441.83,924.62 L1444.53,928.663 L1446.68,935.133 L1455.04,948.611 L1458.54,948.881 L1465.01,952.924 L1466.9,962.359 L1469.86,963.976 L1470.13,973.141 L1474.45,977.184 L1475.26,979.341 L1478.22,981.497 L1478.22,984.463 L1481.19,985.541 L1483.61,985.81 L1485.23,988.236 L1483.61,991.741 L1479.84,991.202 L1480.38,997.132 L1483.88,1000.1 L1487.66,1003.06 L1489.54,1004.41 L1490.35,1008.72 L1493.32,1008.45 L1496.01,998.48 L1498.71,998.48 L1499.79,1004.95 L1501.67,1007.64 L1500.06,1014.92 L1496.82,1017.62 L1503.29,1023.28 L1502.21,1032.98 L1506.79,1038.91 L1510.84,1037.57 L1512.46,1026.24 L1514.61,1021.12 L1517.04,1020.04 L1520.54,1026.78 L1527.28,1030.29 L1532.37,1032.14 L1531.43,1025.94 L1543.29,1013.54 L1538.33,997.402 L1539.14,991.741 L1535.64,984.732 L1534.29,976.106 L1531.06,972.871 L1529.44,963.706 L1524.32,962.628 L1515.69,957.506 L1508.68,955.08 L1504.64,949.959 L1499.52,944.028 L1491.16,938.098 L1488.19,933.516 L1487.93,925.159 L1485.23,923.272 L1481.46,917.072 L1479.57,911.411 L1480.11,903.864 L1475.26,900.09 L1467.91,894.766 L1464.14,894.766 L1462.25,892.07 L1458.88,892.205 L1453.22,887.623 L1447.69,879.94" fill-rule="evenodd" vector-effect="none"/>

</g>
</g>
</svg>