<svg xmlns="http://www.w3.org/2000/svg" version="1.2" baseProfile="tiny" xmlns:inkscape="http://www.inkscape.org/namespaces/inkscape" width="315.045mm" viewBox="3124.64 2047.02 268.8 399.48" height="227.076mm" xmlns:xlink="http://www.w3.org/1999/xlink" xmlns:cc="http://creativecommons.org/ns#">
<g inkscape:groupmode="layer" stroke-width="1" stroke-linejoin="bevel" stroke-linecap="square" inkscape:label="Map 1: fid_73" fill="none" stroke="black" id="Map 1: fid_73" fill-rule="evenodd">
  <g fill-opacity="1" stroke-width="2" stroke-linejoin="bevel" font-weight="400" stroke-linecap="square" font-size="83.3333" font-style="normal" fill="#8d5a99" stroke-opacity="1"  font-family="Noto Sans" stroke="#232323">
   <path d="M3155.13,2053.5 L3143.45,2052.02 L3141.48,2058.6 L3146.08,2063.2 L3152,2082.94 L3150.69,2091.49 L3157.27,2094.78 L3157.27,2100.05 L3163.85,2106.63 L3160.56,2110.57 L3165.16,2117.15 L3166.48,2122.41 L3158.58,2131.63 L3149.37,2128.99 L3150.03,2139.52 L3147.4,2139.52 L3149.37,2145.44 L3142.79,2146.76 L3134.24,2137.55 L3129.64,2146.1 L3138.85,2155.31 L3140.82,2162.55 L3147.4,2172.42 L3152.66,2188.2 L3173.06,2221.1 L3181.61,2221.76 L3197.4,2231.63 L3202.01,2254.65 L3209.24,2258.6 L3209.9,2280.97 L3220.43,2290.84 L3222.4,2296.1 L3229.64,2301.36 L3229.64,2308.6 L3236.87,2311.23 L3242.8,2311.89 L3246.74,2317.81 L3242.8,2326.36 L3233.58,2325.05 L3234.9,2339.52 L3243.45,2346.76 L3252.66,2354 L3257.27,2357.29 L3259.24,2367.81 L3266.48,2367.15 L3273.06,2342.81 L3279.64,2342.81 L3282.27,2358.6 L3286.87,2365.18 L3282.93,2382.94 L3275.03,2389.52 L3290.82,2403.34 L3288.19,2427.02 L3299.37,2441.5 L3309.24,2438.21 L3313.19,2410.58 L3318.45,2398.08 L3324.37,2395.44 L3332.93,2411.89 L3349.38,2420.44 L3361.79,2424.97 L3359.49,2409.84 L3388.44,2379.58 L3376.35,2340.18 L3378.32,2326.36 L3369.77,2309.26 L3366.48,2288.21 L3358.59,2280.31 L3354.64,2257.94 L3342.14,2255.31 L3321.09,2242.81 L3303.98,2236.89 L3294.11,2224.39 L3281.61,2209.92 L3261.22,2195.44 L3253.98,2184.26 L3253.32,2163.86 L3246.74,2159.26 L3237.53,2144.13 L3232.93,2130.31 L3234.24,2111.89 L3222.4,2102.68 L3204.47,2089.68 L3195.26,2089.68 L3190.66,2083.11 L3182.43,2083.43 L3168.62,2072.25 L3155.13,2053.5" vector-effect="none" fill-rule="evenodd"/>

</g>
</g>
</svg>