<svg xmlns="http://www.w3.org/2000/svg" version="1.2" baseProfile="tiny" xmlns:inkscape="http://www.inkscape.org/namespaces/inkscape" width="315.045mm" viewBox="2687.68 2088.96 276.34 395.67" height="227.076mm" xmlns:xlink="http://www.w3.org/1999/xlink" xmlns:cc="http://creativecommons.org/ns#">
<g inkscape:groupmode="layer" stroke-width="1" stroke-linejoin="bevel" stroke-linecap="square" inkscape:label="Map 1: fid_73" fill="none" stroke="black" id="Map 1: fid_73" fill-rule="evenodd">
  <g stroke-width="1" stroke-linejoin="bevel" font-weight="400" stroke-linecap="square" font-size="83.3333" font-style="normal" fill="none" stroke-opacity="1" transform="matrix(1,0,0,1,0,0)" font-family="Noto Sans" stroke="#000000"/>
  <g stroke-width="1" stroke-linejoin="bevel" font-weight="400" stroke-linecap="square" font-size="83.3333" font-style="normal" fill="none" stroke-opacity="1" transform="matrix(1,0,0,1,0,0)" font-family="Noto Sans" stroke="#000000"/>
  <g stroke-width="1" stroke-linejoin="bevel" font-weight="400" stroke-linecap="square" font-size="83.3333" font-style="normal" fill="none" stroke-opacity="1" transform="matrix(23.6177,0,0,23.6177,23.6177,23.6177)" font-family="Noto Sans" stroke="#000000"/>
  <g stroke-width="1" stroke-linejoin="bevel" font-weight="400" stroke-linecap="square" font-size="83.3333" font-style="normal" fill="none" stroke-opacity="1" transform="matrix(23.6177,0,0,23.6177,23.6177,23.6177)" font-family="Noto Sans" stroke="#000000"/>
  <g fill-opacity="0" font-weight="400" font-size="83.3333" font-style="normal" fill="#000000" transform="matrix(0.999817,0,0,0.999817,23.6177,23.6177)" font-family="Noto Sans" stroke="none">
   <rect y="0" width="7395" height="5318" x="0"/>
  </g>
  <g stroke-width="1" stroke-linejoin="bevel" font-weight="400" stroke-linecap="square" font-size="83.3333" font-style="normal" fill="none" stroke-opacity="1" transform="matrix(0.999817,0,0,0.999817,23.6177,23.6177)" font-family="Noto Sans" stroke="#000000"/>
  <g fill-opacity="1" stroke-width="2" stroke-linejoin="bevel" font-weight="400" stroke-linecap="square" font-size="83.3333" font-style="normal" fill="#e5b636" stroke-opacity="1" transform="matrix(0.999817,0,0,0.999817,23.6177,23.6177)" font-family="Noto Sans" stroke="#232323">
   <path d="M2690.96,2070.32 L2680.3,2068.96 L2678.5,2074.97 L2682.7,2079.18 L2688.11,2097.2 L2686.91,2105.01 L2692.92,2108.02 L2692.92,2112.82 L2698.92,2118.83 L2695.92,2122.43 L2700.13,2128.44 L2701.33,2133.25 L2694.12,2141.66 L2685.71,2139.26 L2686.31,2148.87 L2683.9,2148.87 L2685.71,2154.28 L2679.7,2155.48 L2671.89,2147.07 L2667.68,2154.88 L2676.09,2163.29 L2677.9,2169.9 L2683.9,2178.91 L2688.71,2193.33 L2707.34,2223.37 L2715.15,2223.97 L2729.56,2232.98 L2733.77,2254.01 L2740.38,2257.61 L2740.98,2278.04 L2750.59,2287.05 L2752.39,2291.86 L2759,2296.66 L2759,2303.27 L2765.61,2305.67 L2771.02,2306.28 L2774.62,2311.68 L2771.02,2319.49 L2762.61,2318.29 L2763.81,2331.51 L2771.62,2338.12 L2780.03,2344.73 L2784.24,2347.73 L2786.04,2357.34 L2792.65,2356.74 L2798.65,2334.51 L2804.66,2334.51 L2807.07,2348.93 L2811.27,2354.94 L2807.67,2371.16 L2800.46,2377.17 L2814.88,2389.78 L2812.47,2411.41 L2822.69,2424.63 L2831.7,2421.63 L2835.3,2396.39 L2840.11,2384.98 L2845.52,2382.58 L2853.33,2397.6 L2868.35,2405.41 L2879.69,2409.54 L2877.58,2395.72 L2904.02,2368.09 L2892.98,2332.11 L2894.78,2319.49 L2886.97,2303.87 L2883.97,2284.65 L2876.76,2277.44 L2873.15,2257.01 L2861.74,2254.61 L2842.51,2243.19 L2826.89,2237.79 L2817.88,2226.37 L2806.47,2213.15 L2787.84,2199.94 L2781.23,2189.72 L2780.63,2171.1 L2774.62,2166.89 L2766.21,2153.07 L2762.01,2140.46 L2763.21,2123.64 L2752.39,2115.22 L2736.02,2103.36 L2727.61,2103.36 L2723.41,2097.35 L2715.9,2097.65 L2703.28,2087.44 L2690.96,2070.32" vector-effect="none" fill-rule="evenodd"/>
  </g>
  <g stroke-width="1" stroke-linejoin="bevel" font-weight="400" stroke-linecap="square" font-size="83.3333" font-style="normal" fill="none" stroke-opacity="1" transform="matrix(0.999817,0,0,0.999817,23.6177,23.6177)" font-family="Noto Sans" stroke="#000000"/>
  <g stroke-width="1" stroke-linejoin="bevel" font-weight="400" stroke-linecap="square" font-size="83.3333" font-style="normal" fill="none" stroke-opacity="1" transform="matrix(23.6177,0,0,23.6177,23.6177,23.6177)" font-family="Noto Sans" stroke="#000000"/>
  <g stroke-width="1" stroke-linejoin="bevel" font-weight="400" stroke-linecap="square" font-size="83.3333" font-style="normal" fill="none" stroke-opacity="1" transform="matrix(23.6177,0,0,23.6177,23.6177,23.6177)" font-family="Noto Sans" stroke="#000000"/>
  <g stroke-width="1" stroke-linejoin="bevel" font-weight="400" stroke-linecap="square" font-size="83.3333" font-style="normal" fill="none" stroke-opacity="1" transform="matrix(23.6177,0,0,23.6177,23.6177,23.6177)" font-family="Noto Sans" stroke="#000000"/>
  <g stroke-width="1" stroke-linejoin="bevel" font-weight="400" stroke-linecap="square" font-size="83.3333" font-style="normal" fill="none" stroke-opacity="1" transform="matrix(1,0,0,1,0,0)" font-family="Noto Sans" stroke="#000000"/>
  <g stroke-width="1" stroke-linejoin="bevel" font-weight="400" stroke-linecap="square" font-size="83.3333" font-style="normal" fill="none" stroke-opacity="1" transform="matrix(23.6177,0,0,23.6177,23.6177,23.6177)" font-family="Noto Sans" stroke="#000000"/>
  <g stroke-width="1" stroke-linejoin="bevel" font-weight="400" stroke-linecap="square" font-size="83.3333" font-style="normal" fill="none" stroke-opacity="1" transform="matrix(23.6177,0,0,23.6177,23.6177,23.6177)" font-family="Noto Sans" stroke="#000000"/>
  <g stroke-width="1" stroke-linejoin="bevel" font-weight="400" stroke-linecap="square" font-size="83.3333" font-style="normal" fill="none" stroke-opacity="1" transform="matrix(1,0,0,1,0,0)" font-family="Noto Sans" stroke="#000000"/>
 </g>
 
</svg>