<svg xmlns="http://www.w3.org/2000/svg" version="1.2" baseProfile="tiny" xmlns:inkscape="http://www.inkscape.org/namespaces/inkscape" width="315.045mm" viewBox="3150.79 1996.53 414.67 277.5" height="227.076mm" xmlns:xlink="http://www.w3.org/1999/xlink" xmlns:cc="http://creativecommons.org/ns#">
<g inkscape:groupmode="layer" stroke-width="1" stroke-linejoin="bevel" stroke-linecap="square" inkscape:label="Map 1: fid_72" fill="none" stroke="black" id="Map 1: fid_72" fill-rule="evenodd">
  <g stroke-width="1" stroke-linejoin="bevel" font-weight="400" stroke-linecap="square" font-size="83.3333" font-style="normal" fill="none" stroke-opacity="1" transform="matrix(1,0,0,1,0,0)" font-family="Noto Sans" stroke="#000000"/>
  <g stroke-width="1" stroke-linejoin="bevel" font-weight="400" stroke-linecap="square" font-size="83.3333" font-style="normal" fill="none" stroke-opacity="1" transform="matrix(1,0,0,1,0,0)" font-family="Noto Sans" stroke="#000000"/>
  <g stroke-width="1" stroke-linejoin="bevel" font-weight="400" stroke-linecap="square" font-size="83.3333" font-style="normal" fill="none" stroke-opacity="1" transform="matrix(23.619,0,0,23.619,-728.486,-229.753)" font-family="Noto Sans" stroke="#000000"/>
  <g stroke-width="1" stroke-linejoin="bevel" font-weight="400" stroke-linecap="square" font-size="83.3333" font-style="normal" fill="none" stroke-opacity="1" transform="matrix(23.619,0,0,23.619,-728.486,-229.753)" font-family="Noto Sans" stroke="#000000"/>
  <g fill-opacity="0" font-weight="400" font-size="83.3333" font-style="normal" fill="#000000" transform="matrix(0.999873,0,0,0.999873,-728.486,-229.753)" font-family="Noto Sans" stroke="none">
   <rect y="0" width="8098" height="5627" x="0"/>
  </g>
  <g stroke-width="1" stroke-linejoin="bevel" font-weight="400" stroke-linecap="square" font-size="83.3333" font-style="normal" fill="none" stroke-opacity="1" transform="matrix(0.999873,0,0,0.999873,-728.486,-229.753)" font-family="Noto Sans" stroke="#000000"/>
  <g fill-opacity="1" stroke-width="2" stroke-linejoin="bevel" font-weight="400" stroke-linecap="square" font-size="83.3333" font-style="normal" fill="#ff9e17" stroke-opacity="1" transform="matrix(0.999873,0,0,0.999873,-728.486,-229.753)" font-family="Noto Sans" stroke="#232323">
   <path d="M3155.13,2053.5 L3168.62,2072.25 L3182.43,2083.43 L3190.66,2083.11 L3195.26,2089.68 L3204.47,2089.68 L3209.41,2085.41 L3209.08,2078.17 L3211.38,2068.96 L3216.31,2068.96 L3224.21,2073.24 L3229.47,2079.49 L3232.1,2084.42 L3231.45,2089.36 L3244.6,2099.88 L3246.58,2099.55 L3247.56,2100.87 L3246.91,2103.17 L3257.43,2111.07 L3278.16,2112.71 L3286.38,2119.29 L3289.01,2127.18 L3297.89,2133.76 L3312.37,2143.96 L3321.25,2157.12 L3334.41,2166.33 L3342.96,2171.92 L3348.55,2180.8 L3354.47,2188.7 L3362.7,2190.34 L3366.64,2186.4 L3376.84,2179.82 L3384.74,2180.8 L3389.34,2172.25 L3395.92,2172.25 L3406.78,2185.08 L3431.78,2188.04 L3435.4,2178.5 L3443.62,2176.53 L3450.86,2182.12 L3456.78,2189.36 L3458.42,2194.62 L3461.38,2205.15 L3467.96,2211.72 L3474.87,2214.03 L3495.59,2195.61 L3497.57,2191.66 L3495.92,2188.7 L3498.23,2184.75 L3504.15,2184.75 L3505.46,2181.79 L3500.2,2180.15 L3488.36,2175.87 L3480.79,2166.66 L3476.51,2162.38 L3478.49,2158.11 L3482.11,2153.17 L3478.16,2149.55 L3472.9,2150.54 L3470.59,2153.5 L3462.37,2148.24 L3455.79,2143.63 L3458.42,2130.8 L3459.08,2125.21 L3462.7,2120.61 L3463.69,2118.63 L3463.69,2114.36 L3457.44,2108.76 L3446.25,2101.53 L3446.25,2098.24 L3440.66,2097.58 L3439.34,2103.83 L3439.34,2110.08 L3427.17,2110.41 L3426.51,2107.45 L3417.96,2103.17 L3417.63,2094.29 L3393.62,2067.32 L3389.67,2066.33 L3388.36,2069.29 L3384.08,2066.99 L3380.79,2069.95 L3372.57,2067.64 L3368.95,2069.29 L3363.36,2061.39 L3364.67,2073.89 L3364.01,2081.13 L3362.7,2084.42 L3364.34,2087.38 L3371.25,2094.29 L3373.88,2098.89 L3377.5,2100.54 L3380.46,2099.88 L3383.75,2100.54 L3386.38,2099.22 L3388.36,2101.53 L3393.29,2102.84 L3397.24,2107.45 L3397.57,2116 L3395.26,2124.55 L3391.97,2132.78 L3385.07,2135.08 L3362.7,2131.13 L3356.12,2126.53 L3350.53,2121.26 L3350.53,2112.05 L3348.55,2106.79 L3341.32,2102.51 L3335.07,2096.26 L3330.13,2090.67 L3323.88,2087.38 L3316.64,2081.13 L3311.38,2073.89 L3302.17,2068.3 L3298.88,2078.17 L3290.66,2072.58 L3289.01,2064.36 L3290.99,2056.46 L3288.03,2054.82 L3286.71,2043.3 L3279.47,2041.33 L3270.26,2039.03 L3266.32,2042.97 L3261.38,2029.82 L3257.76,2029.82 L3250.2,2023.89 L3246.25,2023.24 L3242.96,2016.33 L3238.03,2014.03 L3234.41,2007.45 L3226.51,2007.12 L3222.24,2000.54 L3217.63,1998.89 L3215.66,1992.31 L3207.1,1991.99 L3204.14,1988.37 L3170.59,1981.13 L3141.64,1976.53 L3145.26,1984.09 L3140.66,1984.09 L3137.7,1989.03 L3130.79,1988.37 L3131.45,1993.63 L3130.79,1998.89 L3147.24,2010.08 L3147.89,2016 L3152.17,2020.6 L3151.84,2024.55 L3156.77,2026.53 L3155.79,2033.1 L3157.43,2038.04 L3154.8,2041.99 L3157.76,2044.29 L3155.13,2053.5" vector-effect="none" fill-rule="evenodd"/>
  </g>
  <g stroke-width="1" stroke-linejoin="bevel" font-weight="400" stroke-linecap="square" font-size="83.3333" font-style="normal" fill="none" stroke-opacity="1" transform="matrix(0.999873,0,0,0.999873,-728.486,-229.753)" font-family="Noto Sans" stroke="#000000"/>
  <g stroke-width="1" stroke-linejoin="bevel" font-weight="400" stroke-linecap="square" font-size="83.3333" font-style="normal" fill="none" stroke-opacity="1" transform="matrix(23.619,0,0,23.619,-728.486,-229.753)" font-family="Noto Sans" stroke="#000000"/>
  <g stroke-width="1" stroke-linejoin="bevel" font-weight="400" stroke-linecap="square" font-size="83.3333" font-style="normal" fill="none" stroke-opacity="1" transform="matrix(23.619,0,0,23.619,-728.486,-229.753)" font-family="Noto Sans" stroke="#000000"/>
  <g stroke-width="1" stroke-linejoin="bevel" font-weight="400" stroke-linecap="square" font-size="83.3333" font-style="normal" fill="none" stroke-opacity="1" transform="matrix(23.619,0,0,23.619,-728.486,-229.753)" font-family="Noto Sans" stroke="#000000"/>
  <g stroke-width="1" stroke-linejoin="bevel" font-weight="400" stroke-linecap="square" font-size="83.3333" font-style="normal" fill="none" stroke-opacity="1" transform="matrix(1,0,0,1,0,0)" font-family="Noto Sans" stroke="#000000"/>
  <g stroke-width="1" stroke-linejoin="bevel" font-weight="400" stroke-linecap="square" font-size="83.3333" font-style="normal" fill="none" stroke-opacity="1" transform="matrix(23.619,0,0,23.619,-728.486,-229.753)" font-family="Noto Sans" stroke="#000000"/>
  <g stroke-width="1" stroke-linejoin="bevel" font-weight="400" stroke-linecap="square" font-size="83.3333" font-style="normal" fill="none" stroke-opacity="1" transform="matrix(23.619,0,0,23.619,-728.486,-229.753)" font-family="Noto Sans" stroke="#000000"/>
  <g stroke-width="1" stroke-linejoin="bevel" font-weight="400" stroke-linecap="square" font-size="83.3333" font-style="normal" fill="none" stroke-opacity="1" transform="matrix(1,0,0,1,0,0)" font-family="Noto Sans" stroke="#000000"/>
 </g>
 
</svg>