<svg xmlns="http://www.w3.org/2000/svg" version="1.2" baseProfile="tiny" xmlns:inkscape="http://www.inkscape.org/namespaces/inkscape" width="315.045mm" viewBox="1432.72 843.401 163.51 107.312" height="227.076mm" xmlns:xlink="http://www.w3.org/1999/xlink" xmlns:cc="http://creativecommons.org/ns#">
<g stroke-linejoin="bevel" stroke="black" inkscape:label="Map 1: fid_72" fill-rule="evenodd" stroke-linecap="square" inkscape:groupmode="layer" stroke-width="1" fill="none" id="Map 1: fid_72">
  <g stroke-linejoin="bevel"  fill-opacity="1" stroke="#232323" font-style="normal" stroke-linecap="square" font-family="Noto Sans" font-size="41.6667" font-weight="400" stroke-width="1" fill="#91522d" stroke-opacity="1">
   <path d="M1447.69,879.94 L1453.22,887.623 L1458.88,892.205 L1462.25,892.07 L1464.14,894.766 L1467.91,894.766 L1469.93,893.014 L1469.8,890.049 L1470.74,886.275 L1472.76,886.275 L1476,888.027 L1478.15,890.588 L1479.23,892.61 L1478.96,894.631 L1484.35,898.944 L1485.16,898.809 L1485.57,899.349 L1485.3,900.292 L1489.61,903.527 L1498.1,904.201 L1501.47,906.896 L1502.55,910.131 L1506.19,912.827 L1512.12,917.005 L1515.76,922.396 L1521.15,926.17 L1524.65,928.461 L1526.94,932.1 L1529.37,935.335 L1532.74,936.009 L1534.36,934.392 L1538.54,931.696 L1541.77,932.1 L1543.66,928.596 L1546.35,928.596 L1550.8,933.852 L1561.04,935.065 L1562.53,931.157 L1565.9,930.348 L1568.86,932.639 L1571.29,935.605 L1571.96,937.761 L1573.17,942.074 L1575.87,944.77 L1578.7,945.713 L1587.19,938.165 L1588,936.548 L1587.33,935.335 L1588.27,933.718 L1590.7,933.718 L1591.23,932.505 L1589.08,931.831 L1584.23,930.079 L1581.13,926.305 L1579.37,924.553 L1580.18,922.8 L1581.67,920.779 L1580.05,919.296 L1577.89,919.7 L1576.95,920.914 L1573.58,918.757 L1570.88,916.87 L1571.96,911.614 L1572.23,909.322 L1573.71,907.435 L1574.12,906.627 L1574.12,904.875 L1571.56,902.583 L1566.97,899.618 L1566.97,898.27 L1564.68,898.001 L1564.14,900.562 L1564.14,903.122 L1559.16,903.257 L1558.89,902.044 L1555.38,900.292 L1555.25,896.653 L1545.41,885.601 L1543.79,885.197 L1543.25,886.41 L1541.5,885.466 L1540.15,886.679 L1536.78,885.736 L1535.3,886.41 L1533.01,883.175 L1533.55,888.297 L1533.28,891.262 L1532.74,892.61 L1533.41,893.823 L1536.24,896.653 L1537.32,898.54 L1538.81,899.214 L1540.02,898.944 L1541.37,899.214 L1542.44,898.675 L1543.25,899.618 L1545.27,900.157 L1546.89,902.044 L1547.03,905.549 L1546.08,909.053 L1544.74,912.422 L1541.9,913.366 L1532.74,911.748 L1530.04,909.861 L1527.75,907.705 L1527.75,903.931 L1526.94,901.775 L1523.98,900.022 L1521.42,897.462 L1519.4,895.17 L1516.84,893.823 L1513.87,891.262 L1511.71,888.297 L1507.94,886.005 L1506.59,890.049 L1503.22,887.757 L1502.55,884.388 L1503.36,881.153 L1502.14,880.479 L1501.61,875.762 L1498.64,874.953 L1494.87,874.01 L1493.25,875.627 L1491.23,870.236 L1489.74,870.236 L1486.64,867.81 L1485.03,867.54 L1483.68,864.71 L1481.66,863.766 L1480.18,861.071 L1476.94,860.936 L1475.19,858.24 L1473.3,857.567 L1472.49,854.871 L1468.99,854.736 L1467.78,853.254 L1454.03,850.288 L1442.17,848.401 L1443.65,851.501 L1441.76,851.501 L1440.55,853.523 L1437.72,853.254 L1437.99,855.41 L1437.72,857.567 L1444.46,862.149 L1444.73,864.575 L1446.48,866.462 L1446.35,868.079 L1448.37,868.888 L1447.96,871.584 L1448.64,873.605 L1447.56,875.223 L1448.77,876.166 L1447.69,879.94" fill-rule="evenodd" vector-effect="none"/>

</g>
</g>
</svg>