<svg xmlns="http://www.w3.org/2000/svg" version="1.2" baseProfile="tiny" xmlns:inkscape="http://www.inkscape.org/namespaces/inkscape" width="315.045mm" viewBox="2688.73 2020.02 382.15 256.89" height="227.076mm" xmlns:xlink="http://www.w3.org/1999/xlink" xmlns:cc="http://creativecommons.org/ns#">
<g inkscape:groupmode="layer" stroke-width="1" stroke-linejoin="bevel" stroke-linecap="square" inkscape:label="Map 1: fid_72" fill="none" stroke="black" id="Map 1: fid_72" fill-rule="evenodd">
  <g stroke-width="1" stroke-linejoin="bevel" font-weight="400" stroke-linecap="square" font-size="83.3333" font-style="normal" fill="none" stroke-opacity="1" transform="matrix(1,0,0,1,0,0)" font-family="Noto Sans" stroke="#000000"/>
  <g stroke-width="1" stroke-linejoin="bevel" font-weight="400" stroke-linecap="square" font-size="83.3333" font-style="normal" fill="none" stroke-opacity="1" transform="matrix(1,0,0,1,0,0)" font-family="Noto Sans" stroke="#000000"/>
  <g stroke-width="1" stroke-linejoin="bevel" font-weight="400" stroke-linecap="square" font-size="83.3333" font-style="normal" fill="none" stroke-opacity="1" transform="matrix(23.6177,0,0,23.6177,23.6177,23.6177)" font-family="Noto Sans" stroke="#000000"/>
  <g stroke-width="1" stroke-linejoin="bevel" font-weight="400" stroke-linecap="square" font-size="83.3333" font-style="normal" fill="none" stroke-opacity="1" transform="matrix(23.6177,0,0,23.6177,23.6177,23.6177)" font-family="Noto Sans" stroke="#000000"/>
  <g fill-opacity="0" font-weight="400" font-size="83.3333" font-style="normal" fill="#000000" transform="matrix(0.999817,0,0,0.999817,23.6177,23.6177)" font-family="Noto Sans" stroke="none">
   <rect y="0" width="7395" height="5318" x="0"/>
  </g>
  <g stroke-width="1" stroke-linejoin="bevel" font-weight="400" stroke-linecap="square" font-size="83.3333" font-style="normal" fill="none" stroke-opacity="1" transform="matrix(0.999817,0,0,0.999817,23.6177,23.6177)" font-family="Noto Sans" stroke="#000000"/>
  <g fill-opacity="1" stroke-width="2" stroke-linejoin="bevel" font-weight="400" stroke-linecap="square" font-size="83.3333" font-style="normal" fill="#beb297" stroke-opacity="1" transform="matrix(0.999817,0,0,0.999817,23.6177,23.6177)" font-family="Noto Sans" stroke="#232323">
   <path d="M2690.96,2070.32 L2703.28,2087.44 L2715.9,2097.65 L2723.41,2097.35 L2727.61,2103.36 L2736.02,2103.36 L2740.53,2099.45 L2740.23,2092.85 L2742.33,2084.43 L2746.84,2084.43 L2754.05,2088.34 L2758.85,2094.05 L2761.26,2098.55 L2760.65,2103.06 L2772.67,2112.67 L2774.47,2112.37 L2775.37,2113.57 L2774.77,2115.68 L2784.39,2122.88 L2803.31,2124.39 L2810.82,2130.39 L2813.22,2137.6 L2821.33,2143.61 L2834.55,2152.92 L2842.66,2164.94 L2854.68,2173.35 L2862.49,2178.46 L2867.6,2186.57 L2873,2193.78 L2880.51,2195.28 L2884.12,2191.68 L2893.43,2185.67 L2900.64,2186.57 L2904.84,2178.76 L2910.85,2178.76 L2920.76,2190.47 L2943.59,2193.18 L2946.9,2184.47 L2954.41,2182.66 L2961.02,2187.77 L2966.42,2194.38 L2967.93,2199.18 L2970.63,2208.8 L2976.64,2214.81 L2982.95,2216.91 L3001.87,2200.09 L3003.67,2196.48 L3002.17,2193.78 L3004.27,2190.17 L3009.68,2190.17 L3010.88,2187.47 L3006.08,2185.97 L2995.26,2182.06 L2988.35,2173.65 L2984.45,2169.75 L2986.25,2165.84 L2989.56,2161.34 L2985.95,2158.03 L2981.14,2158.93 L2979.04,2161.64 L2971.53,2156.83 L2965.52,2152.62 L2967.93,2140.91 L2968.53,2135.8 L2971.83,2131.6 L2972.73,2129.79 L2972.73,2125.89 L2967.03,2120.78 L2956.81,2114.17 L2956.81,2111.17 L2951.71,2110.57 L2950.5,2116.28 L2950.5,2121.98 L2939.39,2122.28 L2938.79,2119.58 L2930.98,2115.68 L2930.68,2107.56 L2908.75,2082.93 L2905.14,2082.03 L2903.94,2084.73 L2900.04,2082.63 L2897.03,2085.34 L2889.52,2083.23 L2886.22,2084.73 L2881.11,2077.53 L2882.31,2088.94 L2881.71,2095.55 L2880.51,2098.55 L2882.01,2101.26 L2888.32,2107.56 L2890.73,2111.77 L2894.03,2113.27 L2896.73,2112.67 L2899.74,2113.27 L2902.14,2112.07 L2903.94,2114.17 L2908.45,2115.38 L2912.05,2119.58 L2912.35,2127.39 L2910.25,2135.2 L2907.25,2142.71 L2900.94,2144.81 L2880.51,2141.21 L2874.5,2137 L2869.4,2132.2 L2869.4,2123.79 L2867.6,2118.98 L2860.99,2115.07 L2855.28,2109.37 L2850.77,2104.26 L2845.07,2101.26 L2838.46,2095.55 L2833.65,2088.94 L2825.24,2083.83 L2822.24,2092.85 L2814.73,2087.74 L2813.22,2080.23 L2815.03,2073.02 L2812.32,2071.52 L2811.12,2061 L2804.51,2059.2 L2796.1,2057.1 L2792.5,2060.7 L2787.99,2048.69 L2784.69,2048.69 L2777.78,2043.28 L2774.17,2042.68 L2771.17,2036.37 L2766.66,2034.27 L2763.36,2028.26 L2756.15,2027.96 L2752.24,2021.95 L2748.04,2020.45 L2746.24,2014.44 L2738.43,2014.14 L2735.72,2010.84 L2705.08,2004.23 L2678.65,2000.02 L2681.95,2006.93 L2677.75,2006.93 L2675.04,2011.44 L2668.73,2010.84 L2669.34,2015.64 L2668.73,2020.45 L2683.75,2030.66 L2684.35,2036.07 L2688.26,2040.28 L2687.96,2043.88 L2692.47,2045.68 L2691.56,2051.69 L2693.07,2056.2 L2690.66,2059.8 L2693.37,2061.91 L2690.96,2070.32" vector-effect="none" fill-rule="evenodd"/>
  </g>
  <g stroke-width="1" stroke-linejoin="bevel" font-weight="400" stroke-linecap="square" font-size="83.3333" font-style="normal" fill="none" stroke-opacity="1" transform="matrix(0.999817,0,0,0.999817,23.6177,23.6177)" font-family="Noto Sans" stroke="#000000"/>
  <g stroke-width="1" stroke-linejoin="bevel" font-weight="400" stroke-linecap="square" font-size="83.3333" font-style="normal" fill="none" stroke-opacity="1" transform="matrix(23.6177,0,0,23.6177,23.6177,23.6177)" font-family="Noto Sans" stroke="#000000"/>
  <g stroke-width="1" stroke-linejoin="bevel" font-weight="400" stroke-linecap="square" font-size="83.3333" font-style="normal" fill="none" stroke-opacity="1" transform="matrix(23.6177,0,0,23.6177,23.6177,23.6177)" font-family="Noto Sans" stroke="#000000"/>
  <g stroke-width="1" stroke-linejoin="bevel" font-weight="400" stroke-linecap="square" font-size="83.3333" font-style="normal" fill="none" stroke-opacity="1" transform="matrix(23.6177,0,0,23.6177,23.6177,23.6177)" font-family="Noto Sans" stroke="#000000"/>
  <g stroke-width="1" stroke-linejoin="bevel" font-weight="400" stroke-linecap="square" font-size="83.3333" font-style="normal" fill="none" stroke-opacity="1" transform="matrix(1,0,0,1,0,0)" font-family="Noto Sans" stroke="#000000"/>
  <g stroke-width="1" stroke-linejoin="bevel" font-weight="400" stroke-linecap="square" font-size="83.3333" font-style="normal" fill="none" stroke-opacity="1" transform="matrix(23.6177,0,0,23.6177,23.6177,23.6177)" font-family="Noto Sans" stroke="#000000"/>
  <g stroke-width="1" stroke-linejoin="bevel" font-weight="400" stroke-linecap="square" font-size="83.3333" font-style="normal" fill="none" stroke-opacity="1" transform="matrix(23.6177,0,0,23.6177,23.6177,23.6177)" font-family="Noto Sans" stroke="#000000"/>
  <g stroke-width="1" stroke-linejoin="bevel" font-weight="400" stroke-linecap="square" font-size="83.3333" font-style="normal" fill="none" stroke-opacity="1" transform="matrix(1,0,0,1,0,0)" font-family="Noto Sans" stroke="#000000"/>
 </g>
 
</svg>