<svg xmlns="http://www.w3.org/2000/svg" version="1.2" baseProfile="tiny" xmlns:inkscape="http://www.inkscape.org/namespaces/inkscape" width="315.045mm" viewBox="1113.56 1377.12 102.06 99.68" height="227.076mm" xmlns:xlink="http://www.w3.org/1999/xlink" xmlns:cc="http://creativecommons.org/ns#">
<g stroke-linejoin="bevel" stroke="black" inkscape:label="Map 1: fid_94" fill-rule="evenodd" stroke-linecap="square" inkscape:groupmode="layer" stroke-width="1" fill="none" id="Map 1: fid_94">
  <g stroke-linejoin="bevel"  fill-opacity="1" stroke="#232323" font-style="normal" stroke-linecap="square" font-family="Noto Sans" font-size="41.6667" font-weight="400" stroke-width="1" fill="#b7484b" stroke-opacity="1">
   <path d="M1177.27,1471.8 L1180.66,1466.94 L1183.69,1467.58 L1190.37,1459.89 L1193.58,1451.83 L1196.88,1444.68 L1198.89,1440.01 L1197.88,1437.27 L1199.26,1432.96 L1198.98,1424.9 L1201.82,1423.8 L1204.02,1422.88 L1204.39,1419.86 L1206.31,1418.67 L1209.97,1418.67 L1210.62,1415.37 L1208.33,1413.27 L1201.46,1402.37 L1189.64,1393.85 L1190.19,1388.26 L1186.25,1382.12 L1170.68,1388.9 L1167.75,1394.4 L1169.85,1395.86 L1168.94,1402.55 L1166.92,1403.83 L1162.89,1406.49 L1162.07,1408.5 L1159.23,1407.77 L1157.76,1406.03 L1154.65,1405.94 L1153.28,1406.67 L1151.99,1408.05 L1150.8,1408.05 L1150.44,1406.4 L1148.88,1405.02 L1148.79,1403.65 L1147.78,1402.46 L1146.5,1402.37 L1145.31,1407.77 L1146.22,1409.33 L1144.57,1415.37 L1145.31,1417.11 L1143.48,1419.77 L1143.48,1422.15 L1141.55,1424.9 L1136.88,1425.08 L1134.68,1423.25 L1133.86,1421.24 L1134.04,1419.59 L1134.68,1418.31 L1135.78,1417.21 L1136.42,1413.91 L1138.8,1413.08 L1139.99,1412.9 L1140.45,1414.37 L1140.45,1417.11 L1142.01,1417.3 L1142.19,1414.37 L1142.56,1413.54 L1143.11,1412.26 L1142.47,1411.53 L1139.54,1410.89 L1139.99,1404.84 L1138.9,1405.85 L1138.16,1402.09 L1136.42,1400.72 L1133.95,1398.89 L1132.48,1400.26 L1130.47,1400.26 L1129.19,1398.98 L1127.54,1399.71 L1127.54,1401.63 L1126.62,1402.55 L1122.68,1402.18 L1122.5,1404.02 L1124.61,1404.47 L1124.06,1405.94 L1122.32,1405.66 L1122.13,1408.5 L1120.94,1410.06 L1119.2,1411.62 L1118.56,1413.45 L1119.11,1415.56 L1119.57,1417.76 L1121.58,1418.67 L1122.68,1418.58 L1123.6,1418.67 L1124.33,1419.31 L1125.52,1420.23 L1124.42,1424.26 L1122.77,1424.63 L1125.98,1430.21 L1125.98,1432.14 L1130.1,1432.41 L1130.74,1431.13 L1130.74,1429.85 L1129.74,1428.29 L1128.45,1427.28 L1127.35,1426.55 L1126.35,1425.27 L1126.99,1424.08 L1128.09,1423.25 L1129.19,1422.79 L1130.19,1421.05 L1130.19,1420.05 L1131.57,1419.77 L1132.76,1430.49 L1133.58,1432.87 L1133.58,1436.53 L1136.24,1436.72 L1137.43,1439.01 L1137.43,1448.44 L1139.54,1448.35 L1139.81,1446.88 L1141.37,1445.69 L1142.65,1445.51 L1144.02,1445.42 L1145.22,1444.41 L1146.59,1445.14 L1146.77,1446.33 L1147.14,1447.8 L1149.06,1448.17 L1149.98,1447.8 L1150.62,1447.07 L1151.08,1446.24 L1151.81,1445.05 L1152.82,1444.23 L1153.55,1444.23 L1154.38,1444.78 L1155.02,1446.33 L1155.02,1447.34 L1154.92,1448.62 L1155.2,1449.08 L1156.94,1450.09 L1158.95,1448.72 L1160.51,1448.81 L1161.15,1449.91 L1161.52,1451.01 L1163.08,1455.68 L1165.46,1455.31 L1166.74,1453.2 L1167.38,1451.01 L1169.12,1448.53 L1172.79,1447.52 L1174.8,1448.44 L1174.98,1452.1 L1173.79,1457.14 L1176.27,1458.88 L1177.37,1461.08 L1175.81,1471.25 L1177.27,1471.8" fill-rule="evenodd" vector-effect="none"/>

</g>
</g>
</svg>