<svg xmlns="http://www.w3.org/2000/svg" version="1.2" baseProfile="tiny" xmlns:inkscape="http://www.inkscape.org/namespaces/inkscape" width="315.045mm" viewBox="1630.13 1617.55 122.98 107.51" height="227.076mm" xmlns:xlink="http://www.w3.org/1999/xlink" xmlns:cc="http://creativecommons.org/ns#">
<g stroke-linejoin="bevel" stroke="black" inkscape:label="Map 1: fid_90" fill-rule="evenodd" stroke-linecap="square" inkscape:groupmode="layer" stroke-width="1" fill="none" id="Map 1: fid_90">
  <g stroke-linejoin="bevel"  fill-opacity="1" stroke="#232323" font-style="normal" stroke-linecap="square" font-family="Noto Sans" font-size="41.6667" font-weight="400" stroke-width="1" fill="#91522d" stroke-opacity="1">
   <path d="M1635.13,1676.81 L1639.47,1679.08 L1642.84,1677.6 L1644.6,1678.27 L1645.67,1680.97 L1642.44,1686.77 L1640.42,1690.4 L1641.23,1692.83 L1646.62,1693.5 L1650.26,1692.02 L1655.38,1694.18 L1657.67,1696.47 L1658.61,1702.13 L1658.21,1704.42 L1662.39,1706.31 L1667.11,1706.18 L1668.59,1706.58 L1676.14,1717.5 L1678.83,1720.06 L1684.09,1714.94 L1686.92,1714.26 L1690.83,1710.22 L1695.82,1713.05 L1723.58,1700.11 L1725.6,1699.17 L1748.11,1673.02 L1742.45,1667.09 L1741.11,1661.96 L1742.86,1655.9 L1744.61,1652.26 L1743.8,1650.24 L1742.99,1648.48 L1742.72,1646.87 L1740.43,1642.79 L1737.26,1643.06 L1735.44,1641.44 L1734.57,1638.68 L1732.34,1637.6 L1730.93,1634.3 L1729.31,1632.68 L1728.2,1624.93 L1726.31,1628.43 L1722,1629.78 L1718.9,1629.78 L1718.09,1630.32 L1716.61,1627.49 L1714.32,1628.16 L1714.18,1630.86 L1713.1,1632.07 L1709.33,1632.34 L1708.52,1635.04 L1705.96,1637.06 L1703.4,1635.98 L1695.07,1622.55 L1681.86,1637.25 L1682.27,1641.24 L1682.2,1642.65 L1678.9,1644.61 L1679.51,1646.23 L1679.3,1650.07 L1680.79,1652.36 L1680.99,1654.31 L1681.93,1656.67 L1683.35,1658.22 L1684.9,1659.84 L1685.77,1659.44 L1686.11,1657.08 L1687.32,1655.33 L1688.6,1654.38 L1689.14,1652.83 L1689.95,1652.49 L1690.42,1653.1 L1690.83,1654.11 L1691.91,1655.26 L1693.12,1656.88 L1692.99,1659.44 L1692.92,1661.26 L1691.5,1662.4 L1689.89,1663.41 L1689.89,1664.69 L1688.6,1665.91 L1688.07,1666.45 L1687.86,1667.93 L1687.46,1669.75 L1685.17,1669.61 L1683.82,1669.01 L1679.37,1666.78 L1674.45,1669.48 L1671.42,1668.13 L1669.53,1666.04 L1670.54,1662.87 L1671.55,1662.06 L1672.97,1662.4 L1673.1,1663.75 L1677.55,1664.02 L1677.21,1659.57 L1675.8,1656.54 L1676.14,1655.53 L1677.89,1655.33 L1678.43,1650.88 L1676.74,1650.41 L1676.34,1652.22 L1675.13,1652.36 L1669.53,1656.81 L1665.62,1661.73 L1663.2,1662.33 L1660.43,1663.01 L1658.88,1662.94 L1657.13,1663.88 L1654.27,1664.41 L1650.36,1666.7 L1647.39,1671.96 L1644.83,1669.66 L1641.73,1669.12 L1635.13,1676.81" fill-rule="evenodd" vector-effect="none"/>

</g>
</g>
</svg>