<svg xmlns="http://www.w3.org/2000/svg" version="1.2" baseProfile="tiny" xmlns:inkscape="http://www.inkscape.org/namespaces/inkscape" width="315.045mm" viewBox="3607.58 3860.95 285.77 247.97" height="227.076mm" xmlns:xlink="http://www.w3.org/1999/xlink" xmlns:cc="http://creativecommons.org/ns#">
<g inkscape:groupmode="layer" stroke-width="1" stroke-linejoin="bevel" stroke-linecap="square" inkscape:label="Map 1: fid_90" fill="none" stroke="black" id="Map 1: fid_90" fill-rule="evenodd">
  <g fill-opacity="1" stroke-width="2" stroke-linejoin="bevel" font-weight="400" stroke-linecap="square" font-size="83.3333" font-style="normal" fill="#ff9e17" stroke-opacity="1"  font-family="Noto Sans" stroke="#232323">
   <path d="M3612.58,3998.36 L3623.19,4003.91 L3631.42,4000.29 L3635.7,4001.94 L3638.33,4008.52 L3630.43,4022.66 L3625.5,4031.55 L3627.47,4037.47 L3640.63,4039.11 L3649.51,4035.49 L3662.01,4040.76 L3667.61,4046.35 L3669.91,4060.17 L3668.92,4065.76 L3679.12,4070.37 L3690.63,4070.04 L3694.25,4071.02 L3712.68,4097.67 L3719.26,4103.92 L3732.09,4091.42 L3738.99,4089.78 L3748.53,4079.91 L3760.71,4086.81 L3828.48,4055.23 L3833.41,4052.93 L3888.35,3989.11 L3874.53,3974.63 L3871.24,3962.13 L3875.52,3947.33 L3879.8,3938.45 L3877.82,3933.51 L3875.85,3929.24 L3875.19,3925.29 L3869.6,3915.34 L3861.87,3915.99 L3857.43,3912.05 L3855.29,3905.3 L3849.86,3902.67 L3846.4,3894.61 L3842.46,3890.66 L3839.74,3871.75 L3835.14,3880.3 L3824.61,3883.59 L3817.04,3883.59 L3815.07,3884.91 L3811.45,3878 L3805.86,3879.64 L3805.53,3886.22 L3802.9,3889.18 L3793.69,3889.84 L3791.71,3896.42 L3785.46,3901.35 L3779.21,3898.72 L3758.9,3865.95 L3726.66,3901.81 L3727.64,3911.55 L3727.48,3915.01 L3719.42,3919.78 L3720.9,3923.72 L3720.41,3933.1 L3724.03,3938.69 L3724.52,3943.46 L3726.82,3949.22 L3730.28,3953 L3734.06,3956.95 L3736.2,3955.96 L3737.02,3950.21 L3739.98,3945.93 L3743.11,3943.63 L3744.42,3939.84 L3746.4,3939.02 L3747.55,3940.5 L3748.53,3942.97 L3751.17,3945.77 L3754.13,3949.71 L3753.8,3955.96 L3753.63,3960.41 L3750.18,3963.2 L3746.23,3965.67 L3746.23,3968.79 L3743.11,3971.76 L3741.79,3973.07 L3741.3,3976.69 L3740.31,3981.13 L3734.72,3980.8 L3731.43,3979.32 L3720.57,3973.89 L3708.56,3980.47 L3701.16,3977.18 L3696.56,3972.08 L3699.02,3964.35 L3701.49,3962.38 L3704.94,3963.2 L3705.27,3966.49 L3716.13,3967.15 L3715.31,3956.29 L3711.85,3948.89 L3712.68,3946.42 L3716.95,3945.93 L3718.27,3935.07 L3714.16,3933.92 L3713.17,3938.36 L3710.21,3938.69 L3696.56,3949.55 L3687.02,3961.56 L3681.09,3963.04 L3674.35,3964.68 L3670.57,3964.52 L3666.29,3966.82 L3659.3,3968.1 L3649.76,3973.69 L3642.52,3986.52 L3636.27,3980.93 L3628.7,3979.61 L3612.58,3998.36" vector-effect="none" fill-rule="evenodd"/>

</g>
</g>
</svg>