<svg xmlns="http://www.w3.org/2000/svg" version="1.2" baseProfile="tiny" xmlns:inkscape="http://www.inkscape.org/namespaces/inkscape" width="315.045mm" viewBox="3128.71 3745.42 291.82 257.32" height="227.076mm" xmlns:xlink="http://www.w3.org/1999/xlink" xmlns:cc="http://creativecommons.org/ns#">
<g inkscape:groupmode="layer" stroke-width="1" stroke-linejoin="bevel" stroke-linecap="square" inkscape:label="Map 1: fid_90" fill="none" stroke="black" id="Map 1: fid_90" fill-rule="evenodd">
  <g stroke-width="1" stroke-linejoin="bevel" font-weight="400" stroke-linecap="square" font-size="83.3333" font-style="normal" fill="none" stroke-opacity="1" transform="matrix(1,0,0,1,0,0)" font-family="Noto Sans" stroke="#000000"/>
  <g stroke-width="1" stroke-linejoin="bevel" font-weight="400" stroke-linecap="square" font-size="83.3333" font-style="normal" fill="none" stroke-opacity="1" transform="matrix(1,0,0,1,0,0)" font-family="Noto Sans" stroke="#000000"/>
  <g stroke-width="1" stroke-linejoin="bevel" font-weight="400" stroke-linecap="square" font-size="83.3333" font-style="normal" fill="none" stroke-opacity="1" transform="matrix(23.6177,0,0,23.6177,23.6177,23.6177)" font-family="Noto Sans" stroke="#000000"/>
  <g stroke-width="1" stroke-linejoin="bevel" font-weight="400" stroke-linecap="square" font-size="83.3333" font-style="normal" fill="none" stroke-opacity="1" transform="matrix(23.6177,0,0,23.6177,23.6177,23.6177)" font-family="Noto Sans" stroke="#000000"/>
  <g fill-opacity="0" font-weight="400" font-size="83.3333" font-style="normal" fill="#000000" transform="matrix(0.999817,0,0,0.999817,23.6177,23.6177)" font-family="Noto Sans" stroke="none">
   <rect y="0" width="7395" height="5318" x="0"/>
  </g>
  <g stroke-width="1" stroke-linejoin="bevel" font-weight="400" stroke-linecap="square" font-size="83.3333" font-style="normal" fill="none" stroke-opacity="1" transform="matrix(0.999817,0,0,0.999817,23.6177,23.6177)" font-family="Noto Sans" stroke="#000000"/>
  <g fill-opacity="1" stroke-width="2" stroke-linejoin="bevel" font-weight="400" stroke-linecap="square" font-size="83.3333" font-style="normal" fill="#beb297" stroke-opacity="1" transform="matrix(0.999817,0,0,0.999817,23.6177,23.6177)" font-family="Noto Sans" stroke="#232323">
   <path d="M3108.71,3846.34 L3118.39,3851.41 L3125.91,3848.11 L3129.81,3849.61 L3132.21,3855.62 L3125,3868.53 L3120.5,3876.65 L3122.3,3882.05 L3134.32,3883.56 L3142.43,3880.25 L3153.84,3885.06 L3158.95,3890.16 L3161.05,3902.78 L3160.15,3907.89 L3169.47,3912.1 L3179.98,3911.79 L3183.28,3912.7 L3200.11,3937.03 L3206.12,3942.74 L3217.83,3931.32 L3224.14,3929.82 L3232.85,3920.81 L3243.97,3927.12 L3305.85,3898.28 L3310.36,3896.17 L3360.53,3837.89 L3347.91,3824.67 L3344.91,3813.26 L3348.81,3799.74 L3352.72,3791.63 L3350.92,3787.12 L3349.12,3783.22 L3348.51,3779.61 L3343.41,3770.52 L3336.35,3771.12 L3332.29,3767.52 L3330.34,3761.36 L3325.38,3758.96 L3322.23,3751.6 L3318.62,3747.99 L3316.14,3730.72 L3311.94,3738.53 L3302.33,3741.53 L3295.42,3741.53 L3293.61,3742.73 L3290.31,3736.43 L3285.2,3737.93 L3284.9,3743.94 L3282.5,3746.64 L3274.09,3747.24 L3272.28,3753.25 L3266.58,3757.76 L3260.87,3755.35 L3242.32,3725.42 L3212.88,3758.17 L3213.78,3767.07 L3213.63,3770.22 L3206.27,3774.58 L3207.62,3778.18 L3207.17,3786.75 L3210.47,3791.85 L3210.92,3796.21 L3213.03,3801.47 L3216.18,3804.92 L3219.64,3808.53 L3221.59,3807.62 L3222.34,3802.37 L3225.04,3798.46 L3227.9,3796.36 L3229.1,3792.9 L3230.9,3792.15 L3231.95,3793.51 L3232.85,3795.76 L3235.26,3798.31 L3237.96,3801.92 L3237.66,3807.62 L3237.51,3811.68 L3234.36,3814.23 L3230.75,3816.49 L3230.75,3819.34 L3227.9,3822.04 L3226.7,3823.25 L3226.24,3826.55 L3225.34,3830.61 L3220.24,3830.31 L3217.23,3828.95 L3207.32,3824 L3196.35,3830.01 L3189.59,3827 L3185.39,3822.35 L3187.64,3815.29 L3189.89,3813.48 L3193.05,3814.23 L3193.35,3817.24 L3203.26,3817.84 L3202.51,3807.93 L3199.36,3801.17 L3200.11,3798.91 L3204.01,3798.46 L3205.22,3788.55 L3201.46,3787.5 L3200.56,3791.55 L3197.85,3791.85 L3185.39,3801.77 L3176.68,3812.73 L3171.27,3814.08 L3165.11,3815.59 L3161.65,3815.44 L3157.75,3817.54 L3151.37,3818.7 L3142.65,3823.81 L3136.04,3835.53 L3130.34,3830.42 L3123.43,3829.22 L3108.71,3846.34" vector-effect="none" fill-rule="evenodd"/>
  </g>
  <g stroke-width="1" stroke-linejoin="bevel" font-weight="400" stroke-linecap="square" font-size="83.3333" font-style="normal" fill="none" stroke-opacity="1" transform="matrix(0.999817,0,0,0.999817,23.6177,23.6177)" font-family="Noto Sans" stroke="#000000"/>
  <g stroke-width="1" stroke-linejoin="bevel" font-weight="400" stroke-linecap="square" font-size="83.3333" font-style="normal" fill="none" stroke-opacity="1" transform="matrix(23.6177,0,0,23.6177,23.6177,23.6177)" font-family="Noto Sans" stroke="#000000"/>
  <g stroke-width="1" stroke-linejoin="bevel" font-weight="400" stroke-linecap="square" font-size="83.3333" font-style="normal" fill="none" stroke-opacity="1" transform="matrix(23.6177,0,0,23.6177,23.6177,23.6177)" font-family="Noto Sans" stroke="#000000"/>
  <g stroke-width="1" stroke-linejoin="bevel" font-weight="400" stroke-linecap="square" font-size="83.3333" font-style="normal" fill="none" stroke-opacity="1" transform="matrix(23.6177,0,0,23.6177,23.6177,23.6177)" font-family="Noto Sans" stroke="#000000"/>
  <g stroke-width="1" stroke-linejoin="bevel" font-weight="400" stroke-linecap="square" font-size="83.3333" font-style="normal" fill="none" stroke-opacity="1" transform="matrix(1,0,0,1,0,0)" font-family="Noto Sans" stroke="#000000"/>
  <g stroke-width="1" stroke-linejoin="bevel" font-weight="400" stroke-linecap="square" font-size="83.3333" font-style="normal" fill="none" stroke-opacity="1" transform="matrix(23.6177,0,0,23.6177,23.6177,23.6177)" font-family="Noto Sans" stroke="#000000"/>
  <g stroke-width="1" stroke-linejoin="bevel" font-weight="400" stroke-linecap="square" font-size="83.3333" font-style="normal" fill="none" stroke-opacity="1" transform="matrix(23.6177,0,0,23.6177,23.6177,23.6177)" font-family="Noto Sans" stroke="#000000"/>
  <g stroke-width="1" stroke-linejoin="bevel" font-weight="400" stroke-linecap="square" font-size="83.3333" font-style="normal" fill="none" stroke-opacity="1" transform="matrix(1,0,0,1,0,0)" font-family="Noto Sans" stroke="#000000"/>
 </g>
 
</svg>