<svg xmlns="http://www.w3.org/2000/svg" version="1.2" baseProfile="tiny" xmlns:inkscape="http://www.inkscape.org/namespaces/inkscape" width="315.045mm" viewBox="1534.87 1513.43 85.93 99.13" height="227.076mm" xmlns:xlink="http://www.w3.org/1999/xlink" xmlns:cc="http://creativecommons.org/ns#">
<g stroke-linejoin="bevel" stroke="black" inkscape:label="Map 1: fid_103" fill-rule="evenodd" stroke-linecap="square" inkscape:groupmode="layer" stroke-width="1" fill="none" id="Map 1: fid_103">
  <g stroke-linejoin="bevel"  fill-opacity="1" stroke="#232323" font-style="normal" stroke-linecap="square" font-family="Noto Sans" font-size="41.6667" font-weight="400" stroke-width="1" fill="#b7484b" stroke-opacity="1">
   <path d="M1555.46,1602.17 L1556.24,1592.53 L1551.11,1589.55 L1551.42,1586.49 L1549.81,1585.95 L1546.14,1588.93 L1542.62,1585.87 L1543.16,1582.51 L1545.22,1580.6 L1547.98,1580.82 L1550.35,1576.46 L1553.94,1574.25 L1553.79,1573.02 L1551.57,1572.41 L1548.97,1572.94 L1543.92,1577.76 L1541.78,1579.37 L1539.87,1578.45 L1540.94,1573.94 L1540.94,1571.03 L1540.63,1569.58 L1546.45,1566.8 L1547.82,1564.82 L1547.52,1563.74 L1544.84,1564.05 L1545.07,1560.3 L1548.74,1554.1 L1550.27,1551.27 L1549.05,1535.67 L1550.5,1535.21 L1552.49,1537.73 L1554.1,1539.11 L1555.4,1539.01 L1555.32,1534.96 L1553.25,1530.37 L1553.64,1528.3 L1554.94,1527.84 L1556.32,1529.22 L1557.16,1529.68 L1558.07,1529.22 L1558.15,1527.84 L1559.45,1524.25 L1561.52,1524.32 L1562.28,1527.08 L1562.21,1529.22 L1562.59,1530.67 L1561.75,1531.75 L1559.99,1532.66 L1558.3,1536.87 L1561.82,1538.1 L1563.2,1537.25 L1563.89,1539.09 L1565.27,1540.24 L1566.72,1540.01 L1566.8,1538.94 L1565.5,1537.02 L1564.04,1534.81 L1564.12,1532.74 L1564.88,1531.36 L1566.8,1530.9 L1568.25,1531.75 L1568.94,1533.28 L1568.4,1535.34 L1567.41,1536.57 L1567.26,1537.41 L1567.79,1539.4 L1568.79,1538.86 L1571.46,1540.47 L1571.77,1540.77 L1573.07,1523.94 L1571.77,1522.26 L1570.77,1521.11 L1571,1519.73 L1571.69,1518.43 L1573.22,1518.51 L1574.22,1518.89 L1575.14,1520.04 L1575.75,1521.19 L1576.13,1522.34 L1572.53,1541.62 L1573.84,1542.76 L1575.29,1542.84 L1575.75,1542.76 L1576.82,1538.94 L1578.88,1537.18 L1581.03,1538.4 L1581.64,1539.55 L1583.25,1540.54 L1583.36,1539.43 L1581.06,1538.01 L1579.44,1536.74 L1580.41,1530.9 L1582.21,1529.91 L1585.35,1531.17 L1587.34,1532.63 L1583.78,1540.7 L1587.91,1537.68 L1590.28,1534.92 L1592.12,1534.65 L1592.66,1534.19 L1595.18,1535.51 L1596.33,1538.31 L1596.17,1542.46 L1596.83,1550.63 L1600.42,1556.9 L1599.96,1562.18 L1605.78,1569.76 L1608.76,1571.74 L1611.36,1569.91 L1613.12,1568.3 L1615.8,1569.98 L1614.35,1572.89 L1609.14,1576.33 L1609.68,1578.88 L1612.28,1580.79 L1607.63,1585.3 L1606.54,1585.92 L1605.81,1583.12 L1603.67,1582.74 L1603.33,1583.39 L1602.83,1585.15 L1601.11,1585.65 L1598.97,1586.3 L1597.71,1587.26 L1597.4,1589.21 L1596.29,1590.39 L1597.92,1592.71 L1594.82,1595.14 L1591.99,1601.76 L1582.29,1602.03 L1581.21,1604.59 L1577.84,1607.56 L1571.91,1607.56 L1563.96,1602.84 L1563.55,1599.07 L1562.2,1598.53 L1557.62,1602.84 L1555.46,1602.17" fill-rule="evenodd" vector-effect="none"/>

</g>
</g>
</svg>