<?xml version='1.0' encoding='UTF-8' standalone='no'?>
<svg height="209.994mm" width="296.989mm" viewBox="0 0 14031 9921" baseProfile="tiny" xmlns:cc="http://creativecommons.org/ns#" xmlns="http://www.w3.org/2000/svg" xmlns:xlink="http://www.w3.org/1999/xlink" version="1.2" xmlns:inkscape="http://www.inkscape.org/namespaces/inkscape">
 <defs/>
 <g fill-rule="evenodd" stroke-linejoin="bevel" stroke="black" id="Map 1: fid_28" fill="none" stroke-linecap="square" inkscape:groupmode="layer" inkscape:label="Map 1: fid_28" stroke-width="1">
  <g font-style="normal" stroke-linejoin="bevel" stroke="#000000" stroke-opacity="1" transform="matrix(1,0,0,1,0,0)" font-family="Noto Sans" font-size="166.667" fill="none" font-weight="400" stroke-linecap="square" stroke-width="1"/>
  <g font-style="normal" stroke-linejoin="bevel" stroke="#000000" stroke-opacity="1" transform="matrix(1,0,0,1,0,0)" font-family="Noto Sans" font-size="166.667" fill="none" font-weight="400" stroke-linecap="square" stroke-width="1"/>
  <g font-style="normal" stroke-linejoin="bevel" stroke="#000000" stroke-opacity="1" transform="matrix(47.2424,0,0,47.2424,777.249,-113.467)" font-family="Noto Sans" font-size="166.667" fill="none" font-weight="400" stroke-linecap="square" stroke-width="1"/>
  <g font-style="normal" stroke-linejoin="bevel" stroke="#000000" stroke-opacity="1" transform="matrix(47.2424,0,0,47.2424,777.249,-113.467)" font-family="Noto Sans" font-size="166.667" fill="none" font-weight="400" stroke-linecap="square" stroke-width="1"/>
  <g font-style="normal" stroke="none" transform="matrix(0.999965,0,0,0.999965,777.249,-113.467)" font-family="Noto Sans" font-size="166.667" fill="#000000" fill-opacity="0" font-weight="400">
   <rect y="0" height="10905" width="15727" x="0"/>
  </g>
  <g font-style="normal" stroke-linejoin="bevel" stroke="#000000" stroke-opacity="1" transform="matrix(0.999965,0,0,0.999965,777.249,-113.467)" font-family="Noto Sans" font-size="166.667" fill="none" font-weight="400" stroke-linecap="square" stroke-width="1"/>
  <g font-style="normal" stroke-linejoin="bevel" stroke="#232323" stroke-opacity="1" transform="matrix(0.999965,0,0,0.999965,777.249,-113.467)" font-family="Noto Sans" font-size="166.667" fill="none" font-weight="400" stroke-linecap="square" stroke-width="12.2835">
   <path fill-rule="evenodd" vector-effect="none" d="M6839.07,7024.02 L6888.55,7018.31 L6947.55,7052.56 L6989.41,7014.5 L7248.22,6917.45 L7229.19,6820.4 L7078.85,6571.1 L7056.02,6426.47 L7088.37,6340.84 L7076,6273.04 L6945.64,6164.57 L6891.41,6153.15 L6854.3,6184.79 L6875.23,6220.95 L6873.33,6306.58 L6865.72,6338.94 L6823.85,6356.06 L6795.3,6354.16 L6793.4,6392.22 L6778.18,6388.41 L6766.76,6338.94 L6742.02,6274.23 L6709.67,6238.08 L6715.38,6161.96 L6711.57,6123.9 L6694.45,6097.25 L6675.42,6021.13 L6686.83,5954.53 L6694.45,5884.12 L6681.12,5832.74 L6696.35,5727.12 L6610.71,5733.78 L6589.78,5935.5 L6625.94,6123.9 L6635.45,6253.3 L6656.39,6394.12 L6637.36,6498.79 L6664,6536.85 L6698.25,6525.43 L6806.72,6729.05 L6867.62,6854.65 L6839.07,7024.02"/>
  </g>
  <g font-style="normal" stroke-linejoin="bevel" stroke="#000000" stroke-opacity="1" transform="matrix(0.999965,0,0,0.999965,777.249,-113.467)" font-family="Noto Sans" font-size="166.667" fill="none" font-weight="400" stroke-linecap="square" stroke-width="1"/>
  <g font-style="normal" stroke-linejoin="bevel" stroke="#000000" stroke-opacity="1" transform="matrix(47.2424,0,0,47.2424,777.249,-113.467)" font-family="Noto Sans" font-size="166.667" fill="none" font-weight="400" stroke-linecap="square" stroke-width="1"/>
  <g font-style="normal" stroke-linejoin="bevel" stroke="#000000" stroke-opacity="1" transform="matrix(47.2424,0,0,47.2424,777.249,-113.467)" font-family="Noto Sans" font-size="166.667" fill="none" font-weight="400" stroke-linecap="square" stroke-width="1"/>
  <g font-style="normal" stroke-linejoin="bevel" stroke="#000000" stroke-opacity="1" transform="matrix(47.2424,0,0,47.2424,777.249,-113.467)" font-family="Noto Sans" font-size="166.667" fill="none" font-weight="400" stroke-linecap="square" stroke-width="1"/>
  <g font-style="normal" stroke-linejoin="bevel" stroke="#000000" stroke-opacity="1" transform="matrix(1,0,0,1,0,0)" font-family="Noto Sans" font-size="166.667" fill="none" font-weight="400" stroke-linecap="square" stroke-width="1"/>
  <g font-style="normal" stroke-linejoin="bevel" stroke="#000000" stroke-opacity="1" transform="matrix(47.2424,0,0,47.2424,777.249,-113.467)" font-family="Noto Sans" font-size="166.667" fill="none" font-weight="400" stroke-linecap="square" stroke-width="1"/>
  <g font-style="normal" stroke-linejoin="bevel" stroke="#000000" stroke-opacity="1" transform="matrix(47.2424,0,0,47.2424,777.249,-113.467)" font-family="Noto Sans" font-size="166.667" fill="none" font-weight="400" stroke-linecap="square" stroke-width="1"/>
  <g font-style="normal" stroke-linejoin="bevel" stroke="#000000" stroke-opacity="1" transform="matrix(1,0,0,1,0,0)" font-family="Noto Sans" font-size="166.667" fill="none" font-weight="400" stroke-linecap="square" stroke-width="1"/>
 </g>
 <defs/>
 <metadata>
  <rdf:RDF xmlns:rdf="http://www.w3.org/1999/02/22-rdf-syntax-ns#" xmlns:dc="http://purl.org/dc/elements/1.1/" xmlns:rdfs="http://www.w3.org/2000/01/rdf-schema#">
   <rdf:Description dc:date="2023-10-07T15:41:53" dc:format="image/svg+xml" dc:description="" dc:title="Bergen Boligområder" dc:identifier="">
    <dc:creator>
     <rdf:Bag>
      <rdf:li>Lukas</rdf:li>
     </rdf:Bag>
    </dc:creator>
    <dc:publisher>
     <rdf:Bag>
      <rdf:li>QGIS 3.32.3-Lima</rdf:li>
     </rdf:Bag>
    </dc:publisher>
    <dc:subject>
     <rdf:Bag/>
    </dc:subject>
   </rdf:Description>
   <cc:Work rdf:about="">
    <dc:format>image/svg+xml</dc:format>
    <dc:title>Bergen Boligområder</dc:title>
    <dc:date>2023-10-07T15:41:53</dc:date>
    <dc:identifier></dc:identifier>
    <dc:description></dc:description>
    <dc:creator>
     <cc:Agent>
      <dc:title>Lukas</dc:title>
     </cc:Agent>
    </dc:creator>
    <dc:publisher>
     <cc:Agent>
      <dc:title>QGIS 3.32.3-Lima</dc:title>
     </cc:Agent>
    </dc:publisher>
   </cc:Work>
  </rdf:RDF>
 </metadata>
</svg>
