<svg xmlns="http://www.w3.org/2000/svg" version="1.2" baseProfile="tiny" xmlns:inkscape="http://www.inkscape.org/namespaces/inkscape" width="315.045mm" viewBox="1638.46 767.212 137.29 191.791" height="227.076mm" xmlns:xlink="http://www.w3.org/1999/xlink" xmlns:cc="http://creativecommons.org/ns#">
<g stroke-linejoin="bevel" stroke="black" inkscape:label="Map 1: fid_75" fill-rule="evenodd" stroke-linecap="square" inkscape:groupmode="layer" stroke-width="1" fill="none" id="Map 1: fid_75">
  <g stroke-linejoin="bevel"  fill-opacity="1" stroke="#232323" font-style="normal" stroke-linecap="square" font-family="Noto Sans" font-size="41.6667" font-weight="400" stroke-width="1" fill="#987db7" stroke-opacity="1">
   <path d="M1743.52,950.891 L1751.56,954.003 L1762.71,952.447 L1770.75,937.925 L1765.57,925.477 L1750.01,908.362 L1744.82,901.1 L1743.26,891.505 L1735.23,871.796 L1723.3,861.683 L1717.59,846.901 L1717.07,839.121 L1718.89,830.823 L1719.93,827.711 L1714.48,829.007 L1710.85,822.524 L1708.26,823.043 L1707.48,818.634 L1707.74,816.819 L1708.26,813.966 L1707.22,812.41 L1706.44,810.077 L1706.76,807.678 L1711.39,807.74 L1709.64,806.999 L1707.48,804.707 L1705.39,804.236 L1702.77,806.19 L1701.42,808.953 L1700.34,810.368 L1698.18,812.457 L1695.29,812.794 L1692.25,812.12 L1688.01,809.155 L1686.39,806.931 L1685.11,803.427 L1680.46,795.879 L1677.7,792.038 L1674.19,788.668 L1670.22,785.434 L1665.7,781.121 L1661.19,777.751 L1657.08,775.392 L1652.22,773.371 L1648.18,772.697 L1643.93,772.212 L1644.94,774.954 L1643.46,778.459 L1656.57,788.836 L1673.17,809.842 L1677.57,830.847 L1703.51,890.752 L1743.52,950.891" fill-rule="evenodd" vector-effect="none"/>

</g>
</g>
</svg>