<svg xmlns="http://www.w3.org/2000/svg" version="1.2" baseProfile="tiny" xmlns:inkscape="http://www.inkscape.org/namespaces/inkscape" width="315.045mm" viewBox="3627.93 1785.57 320.67 453.69" height="227.076mm" xmlns:xlink="http://www.w3.org/1999/xlink" xmlns:cc="http://creativecommons.org/ns#">
<g inkscape:groupmode="layer" stroke-width="1" stroke-linejoin="bevel" stroke-linecap="square" inkscape:label="Map 1: fid_75" fill="none" stroke="black" id="Map 1: fid_75" fill-rule="evenodd">
  <g fill-opacity="1" stroke-width="2" stroke-linejoin="bevel" font-weight="400" stroke-linecap="square" font-size="83.3333" font-style="normal" fill="#a47158" stroke-opacity="1"  font-family="Noto Sans" stroke="#232323">
   <path d="M3877.14,2226.67 L3896.77,2234.26 L3923.98,2230.46 L3943.6,2195.02 L3930.94,2164.64 L3892.97,2122.87 L3880.31,2105.14 L3876.51,2081.73 L3856.89,2033.62 L3827.78,2008.94 L3813.85,1972.86 L3812.59,1953.88 L3817.02,1933.62 L3819.55,1926.03 L3806.26,1929.19 L3797.4,1913.37 L3791.07,1914.63 L3789.17,1903.87 L3789.8,1899.44 L3791.07,1892.48 L3788.54,1888.68 L3786.64,1882.99 L3787.43,1877.13 L3798.72,1877.29 L3794.45,1875.48 L3789.18,1869.88 L3784.08,1868.73 L3777.67,1873.5 L3774.38,1880.25 L3771.75,1883.7 L3766.48,1888.8 L3759.41,1889.62 L3752.01,1887.98 L3741.65,1880.74 L3737.7,1875.31 L3734.58,1866.76 L3723.23,1848.34 L3716.48,1838.96 L3707.93,1830.74 L3698.23,1822.84 L3687.21,1812.32 L3676.19,1804.09 L3666.15,1798.34 L3654.31,1793.4 L3644.44,1791.76 L3634.08,1790.57 L3636.55,1797.27 L3632.93,1805.82 L3664.92,1831.15 L3705.42,1882.41 L3716.18,1933.68 L3779.48,2079.89 L3877.14,2226.67" vector-effect="none" fill-rule="evenodd"/>

</g>
</g>
</svg>