<svg xmlns="http://www.w3.org/2000/svg" version="1.2" baseProfile="tiny" xmlns:inkscape="http://www.inkscape.org/namespaces/inkscape" width="315.045mm" viewBox="1338.86 1803.11 144.13 119.38" height="227.076mm" xmlns:xlink="http://www.w3.org/1999/xlink" xmlns:cc="http://creativecommons.org/ns#">
<g stroke-linejoin="bevel" stroke="black" inkscape:label="Map 1: fid_105" fill-rule="evenodd" stroke-linecap="square" inkscape:groupmode="layer" stroke-width="1" fill="none" id="Map 1: fid_105">
  <g stroke-linejoin="bevel"  fill-opacity="1" stroke="#232323" font-style="normal" stroke-linecap="square" font-family="Noto Sans" font-size="41.6667" font-weight="400" stroke-width="1" fill="#f3a6b2" stroke-opacity="1">
   <path d="M1343.86,1829.22 L1346.05,1833.64 L1345.43,1835.78 L1344.36,1837.46 L1345.74,1839.91 L1347.42,1841.75 L1350.94,1841.13 L1352.47,1841.9 L1353.54,1841.59 L1355.84,1838.23 L1357.83,1836.39 L1358.44,1836.24 L1358.29,1832.87 L1357.83,1831.65 L1359.51,1830.27 L1361.5,1829.35 L1363.8,1830.42 L1364.41,1830.27 L1365.48,1828.89 L1366.55,1826.14 L1367.47,1825.22 L1368.54,1825.83 L1369.15,1827.06 L1370.83,1827.06 L1371.6,1826.44 L1372.21,1828.59 L1369.76,1832.26 L1368.69,1833.18 L1370.07,1834.86 L1369.3,1836.08 L1366.7,1837.46 L1365.94,1837.77 L1364.87,1840.22 L1362.72,1840.67 L1362.11,1843.28 L1361.5,1846.03 L1361.65,1848.32 L1362.42,1849.55 L1361.81,1851.84 L1361.65,1852.46 L1362.27,1853.99 L1361.04,1855.67 L1361.5,1856.89 L1361.81,1858.12 L1360.43,1859.65 L1359.21,1859.65 L1357.68,1859.04 L1356.3,1859.04 L1355.84,1856.74 L1355.84,1856.28 L1355.84,1853.83 L1356.15,1851.69 L1359.21,1847.41 L1357.68,1846.34 L1354.77,1847.25 L1353.09,1850.16 L1353.09,1852.3 L1352.78,1853.37 L1353.54,1855.21 L1353.54,1856.74 L1353.54,1858.73 L1352.17,1858.88 L1350.64,1857.51 L1350.79,1854.9 L1350.48,1853.37 L1349.87,1852.92 L1348.65,1853.37 L1347.58,1853.99 L1346.96,1855.36 L1346.96,1856.89 L1347.42,1858.42 L1349.11,1859.19 L1350.18,1860.11 L1345.43,1864.09 L1346.81,1867.3 L1351.1,1869.29 L1353.24,1871.43 L1355.23,1870.36 L1356.15,1869.13 L1357.06,1867.45 L1358.29,1867.91 L1359.82,1867.91 L1360.58,1866.38 L1361.04,1865 L1362.57,1863.93 L1364.26,1864.85 L1364.87,1867.6 L1364.87,1869.44 L1366.09,1870.97 L1366.55,1872.19 L1366.7,1873.57 L1365.17,1875.41 L1364.1,1875.56 L1361.96,1875.26 L1361.35,1874.95 L1360.43,1872.96 L1360.58,1871.12 L1360.12,1870.21 L1359.21,1870.21 L1358.44,1870.82 L1357.06,1871.89 L1355.07,1873.88 L1354.16,1875.26 L1353.7,1877.7 L1354.31,1880.15 L1355.53,1881.07 L1358.44,1879.54 L1360.89,1879.08 L1361.65,1879.54 L1363.64,1879.54 L1364.1,1879.69 L1366.24,1880.15 L1367.77,1879.54 L1368.23,1879.85 L1368.39,1881.38 L1368.69,1883.06 L1371.14,1884.44 L1373.13,1884.9 L1374.66,1883.06 L1375.58,1877.7 L1377.41,1875.87 L1381.09,1876.33 L1383.53,1874.34 L1384.15,1872.35 L1386.29,1867.3 L1389.96,1859.8 L1393.63,1855.82 L1398.84,1851.84 L1399.91,1849.09 L1400.67,1846.95 L1402.51,1847.25 L1403.58,1849.7 L1401.9,1852.3 L1401.74,1853.68 L1402.81,1855.36 L1403.43,1855.36 L1404.19,1856.74 L1403.89,1858.58 L1401.74,1860.41 L1399.75,1861.03 L1398.84,1863.78 L1396.08,1864.85 L1394.4,1866.53 L1392.26,1867.76 L1391.03,1867.91 L1390.57,1868.06 L1389.81,1869.75 L1388.43,1870.97 L1388.28,1872.5 L1391.34,1873.11 L1388.89,1875.87 L1386.75,1877.24 L1387.21,1879.23 L1389.81,1880.61 L1390.73,1882.6 L1393.02,1884.13 L1394.4,1886.88 L1395.47,1888.57 L1397.15,1887.96 L1399.6,1888.11 L1400.21,1890.56 L1399.91,1892.7 L1401.28,1894.38 L1402.05,1893.92 L1403.27,1892.24 L1405.11,1894.23 L1406.03,1897.14 L1406.18,1898.97 L1406.18,1902.8 L1407.1,1903.87 L1408.02,1904.79 L1407.86,1906.16 L1406.18,1907.39 L1405.72,1908.92 L1406.79,1910.75 L1409.55,1911.21 L1410.46,1913.05 L1413.07,1913.05 L1414.44,1915.65 L1415.67,1916.11 L1417.04,1916.57 L1418.88,1915.8 L1420.72,1917.49 L1422.55,1916.87 L1424.08,1914.58 L1424.08,1914.12 L1417.2,1904.33 L1413.37,1902.26 L1413.68,1901.11 L1412,1900.43 L1412.45,1897.67 L1414.37,1897.14 L1416.05,1897.21 L1416.74,1898.9 L1419.72,1900.12 L1425.46,1889.18 L1424.62,1881.3 L1428.37,1871.58 L1437.55,1860.03 L1442.83,1857.43 L1450.86,1855.29 L1456.6,1855.36 L1460.96,1842.78 L1465.24,1839.11 L1473.81,1836.12 L1477.59,1834.63 L1477.99,1830.32 L1464.78,1821.96 L1462.63,1825.2 L1460.61,1827.22 L1459.26,1826.27 L1457.77,1823.44 L1455.75,1823.17 L1451.57,1826 L1445.1,1824.39 L1443.49,1820.34 L1435.94,1815.63 L1433.92,1813.33 L1432.42,1816.67 L1430.43,1817.59 L1430.36,1819.04 L1429.67,1820.5 L1427.76,1822.03 L1427.91,1823.1 L1426.76,1824.47 L1424.7,1825.16 L1424.08,1826.92 L1421.86,1827.38 L1419.95,1829.37 L1418.04,1833.73 L1411.69,1837.71 L1409.7,1836.41 L1410.92,1833.27 L1412.91,1830.98 L1413.14,1829.52 L1416.2,1828.07 L1417.96,1826.23 L1418.42,1825.55 L1417.89,1821.95 L1418.57,1820.27 L1418.19,1818.12 L1419.19,1816.21 L1423.47,1816.06 L1424.62,1816.21 L1425.54,1814.83 L1423.7,1812.92 L1424.24,1811.16 L1424.77,1810.09 L1423.73,1808.11 L1347.07,1810.25 L1343.86,1829.22" fill-rule="evenodd" vector-effect="none"/>

</g>
</g>
</svg>