<svg xmlns="http://www.w3.org/2000/svg" version="1.2" baseProfile="tiny" xmlns:inkscape="http://www.inkscape.org/namespaces/inkscape" width="315.045mm" viewBox="1337.07 1131.39 72.84 119.03" height="227.076mm" xmlns:xlink="http://www.w3.org/1999/xlink" xmlns:cc="http://creativecommons.org/ns#">
<g stroke-linejoin="bevel" stroke="black" inkscape:label="Map 1: fid_6" fill-rule="evenodd" stroke-linecap="square" inkscape:groupmode="layer" stroke-width="1" fill="none" id="Map 1: fid_6">
  <g stroke-linejoin="bevel"  fill-opacity="1" stroke="#232323" font-style="normal" stroke-linecap="square" font-family="Noto Sans" font-size="41.6667" font-weight="400" stroke-width="1" fill="#f3a6b2" stroke-opacity="1">
   <path d="M1396.55,1150.15 L1394.68,1144.57 L1385.79,1140.39 L1383.88,1145.44 L1387.88,1150.49 L1383.88,1154.33 L1379.7,1152.06 L1378.3,1153.63 L1379.35,1157.11 L1376.56,1159.38 L1374.82,1163.91 L1366.11,1164.43 L1366.11,1160.77 L1364.89,1159.2 L1366.81,1156.07 L1365.94,1154.15 L1363.32,1154.15 L1360.88,1157.98 L1358.79,1154.15 L1356.88,1151.54 L1353.39,1150.84 L1352.18,1146.49 L1354.79,1145.97 L1354.61,1141.78 L1349.39,1136.39 L1344.16,1137.95 L1342.25,1141.61 L1342.07,1146.14 L1343.99,1149.8 L1345.03,1152.58 L1351.83,1159.03 L1353.57,1165.3 L1352.29,1170.93 L1359.95,1205.66 L1361.44,1211.23 L1358.66,1213.92 L1354.96,1215.64 L1348.17,1225.22 L1348.34,1235.5 L1351.3,1239.5 L1356.53,1240.9 L1358.27,1245.42 L1369.07,1235.15 L1381.61,1230.79 L1386.66,1230.1 L1397.42,1219.25 L1401.43,1209.85 L1401.08,1208.24 L1397.94,1205.8 L1398.12,1200.05 L1402.12,1199.87 L1404.91,1194.82 L1404.65,1190.56 L1399.6,1184.98 L1399.86,1167.13 L1396.55,1150.15 M1368.61,1234.04 L1373.44,1232.2 L1377.42,1230.81 L1381.05,1229.82 L1384.23,1229.72 L1385.77,1229.52 L1384.13,1223.1 L1385.18,1222.1 L1384.98,1221.06 L1383.39,1220.26 L1382.69,1219.91 L1382.69,1219.57 L1382.44,1214.04 L1383.73,1213.35 L1383.93,1212.25 L1383.29,1210.36 L1382.79,1207.48 L1382.04,1204.59 L1385.53,1203.59 L1386.87,1202.55 L1387.37,1200.91 L1386.62,1199.76 L1384.68,1199.47 L1383.64,1199.66 L1382.79,1200.01 L1382.44,1199.42 L1382.39,1198.22 L1382.99,1197.92 L1383.19,1197.03 L1382.54,1196.18 L1382.09,1195.63 L1380.05,1189.37 L1378.96,1188.17 L1377.52,1188.12 L1375.92,1188.97 L1375.53,1190.21 L1372.99,1205.73 L1373.78,1209.07 L1373.54,1211.01 L1371.99,1211.85 L1370.55,1211.85 L1370.45,1211.85 L1370.85,1218.12 L1369.95,1220.31 L1370.1,1222.5 L1370.5,1222.95 L1370.65,1223.35 L1370.05,1224.49 L1368.96,1225.69 L1368.61,1227.28 L1367.86,1230.21 L1367.42,1232.95 L1368.01,1233.89 L1368.61,1234.04" fill-rule="evenodd" vector-effect="none"/>

</g>
</g>
</svg>