<svg xmlns="http://www.w3.org/2000/svg" version="1.2" baseProfile="tiny" xmlns:inkscape="http://www.inkscape.org/namespaces/inkscape" width="315.045mm" viewBox="2892.35 2674.39 163.36 276.12" height="227.076mm" xmlns:xlink="http://www.w3.org/1999/xlink" xmlns:cc="http://creativecommons.org/ns#">
<g inkscape:groupmode="layer" stroke-width="1" stroke-linejoin="bevel" stroke-linecap="square" inkscape:label="Map 1: fid_6" fill="none" stroke="black" id="Map 1: fid_6" fill-rule="evenodd">
  <g fill-opacity="1" stroke-width="2" stroke-linejoin="bevel" font-weight="400" stroke-linecap="square" font-size="83.3333" font-style="normal" fill="#e5b636" stroke-opacity="1"  font-family="Noto Sans" stroke="#232323">
   <path d="M3030.3,2712.97 L3025.73,2699.37 L3004.05,2689.17 L2999.38,2701.49 L3009.15,2713.82 L2999.38,2723.18 L2989.17,2717.65 L2985.77,2721.47 L2988.32,2729.98 L2981.52,2735.5 L2977.27,2746.56 L2956.01,2747.83 L2956.01,2738.9 L2953.04,2735.08 L2957.72,2727.43 L2955.59,2722.75 L2949.21,2722.75 L2943.26,2732.1 L2938.16,2722.75 L2933.48,2716.37 L2924.98,2714.67 L2922.01,2704.04 L2928.38,2702.77 L2927.96,2692.57 L2915.2,2679.39 L2902.45,2683.21 L2897.77,2692.14 L2897.35,2703.19 L2902.02,2712.12 L2904.58,2718.92 L2921.15,2734.65 L2925.41,2749.96 L2931.36,2750.81 L2949.64,2855.39 L2941.56,2871.97 L2928.81,2872.82 L2912.23,2896.2 L2912.65,2921.28 L2919.88,2931.06 L2932.63,2934.46 L2936.88,2945.51 L2963.24,2920.43 L2993.85,2909.8 L3006.18,2908.1 L3032.43,2881.64 L3042.21,2858.68 L3041.36,2854.75 L3033.7,2848.8 L3034.13,2834.77 L3043.91,2834.34 L3050.71,2822.02 L3050.07,2811.6 L3037.74,2798 L3038.38,2754.42 L3030.3,2712.97" vector-effect="none" fill-rule="evenodd"/>

</g>
</g>
</svg>