<svg xmlns="http://www.w3.org/2000/svg" version="1.2" baseProfile="tiny" xmlns:inkscape="http://www.inkscape.org/namespaces/inkscape" width="315.045mm" viewBox="1531.29 1146.85 42.54 46.87" height="227.076mm" xmlns:xlink="http://www.w3.org/1999/xlink" xmlns:cc="http://creativecommons.org/ns#">
<g stroke-linejoin="bevel" stroke="black" inkscape:label="Map 1: fid_54" fill-rule="evenodd" stroke-linecap="square" inkscape:groupmode="layer" stroke-width="1" fill="none" id="Map 1: fid_54">
  <g stroke-linejoin="bevel"  fill-opacity="1" stroke="#232323" font-style="normal" stroke-linecap="square" font-family="Noto Sans" font-size="41.6667" font-weight="400" stroke-width="1" fill="#91522d" stroke-opacity="1">
   <path d="M1536.29,1161.08 L1537.51,1159.06 L1539.73,1158.72 L1543.17,1151.85 L1552.06,1160 L1553.41,1157.84 L1556.11,1157.64 L1559.81,1160.2 L1561.36,1162.02 L1562.58,1165.12 L1564.4,1165.05 L1566.62,1166.2 L1568.83,1169.49 L1565.05,1174.94 L1561.3,1174.83 L1559.54,1176.85 L1559.93,1180.77 L1549.62,1188.72 L1549.01,1187.98 L1541.35,1183.52 L1547.01,1176.31 L1544.92,1174.29 L1548.02,1170.11 L1544.92,1167.75 L1547.48,1164.85 L1544.92,1163.64 L1542.7,1165.32 L1538.86,1163.23 L1538.65,1163.57 L1536.29,1161.08" fill-rule="evenodd" vector-effect="none"/>

</g>
</g>
</svg>