<svg xmlns="http://www.w3.org/2000/svg" version="1.2" baseProfile="tiny" xmlns:inkscape="http://www.inkscape.org/namespaces/inkscape" width="315.045mm" viewBox="1335.25 1318.61 162.58 138.48" height="227.076mm" xmlns:xlink="http://www.w3.org/1999/xlink" xmlns:cc="http://creativecommons.org/ns#">
<g stroke-linejoin="bevel" stroke="black" inkscape:label="Map 1: fid_40" fill-rule="evenodd" stroke-linecap="square" inkscape:groupmode="layer" stroke-width="1" fill="none" id="Map 1: fid_40">
  <g stroke-linejoin="bevel"  fill-opacity="1" stroke="#232323" font-style="normal" stroke-linecap="square" font-family="Noto Sans" font-size="41.6667" font-weight="400" stroke-width="1" fill="#b7484b" stroke-opacity="1">
   <path d="M1340.25,1391.1 L1342.34,1410.17 L1349.68,1416.46 L1354.71,1416.46 L1370.01,1404.51 L1376.93,1405.77 L1376.51,1413.11 L1376.3,1426.1 L1383.42,1428.41 L1393.06,1425.26 L1394.53,1419.81 L1400.4,1421.91 L1404.59,1420.02 L1407.74,1407.66 L1412.77,1406.4 L1419.05,1413.11 L1428.49,1411.43 L1435.61,1411.64 L1455.11,1420.86 L1454.9,1428.62 L1460.14,1430.29 L1462.86,1435.32 L1460.97,1445.18 L1464.33,1448.53 L1468.1,1446.85 L1469.99,1444.13 L1470.41,1452.09 L1475.44,1451.67 L1477.32,1446.64 L1479.84,1446.22 L1484.66,1418.56 L1483.4,1405.98 L1492.83,1385.65 L1486.54,1377.69 L1485.5,1367.21 L1476.69,1358.4 L1475.86,1345.2 L1466.84,1339.33 L1462.23,1341.43 L1453.43,1342.68 L1446.72,1335.14 L1444.63,1329.06 L1441.27,1326.33 L1432.89,1323.61 L1419.47,1327.8 L1408.57,1326.12 L1406.9,1331.78 L1399.98,1337.02 L1393.69,1335.35 L1387.82,1340.95 L1366.03,1356.46 L1364.77,1359.61 L1362.67,1360.66 L1340.25,1391.1" fill-rule="evenodd" vector-effect="none"/>

</g>
</g>
</svg>