<svg xmlns="http://www.w3.org/2000/svg" version="1.2" baseProfile="tiny" xmlns:inkscape="http://www.inkscape.org/namespaces/inkscape" width="315.045mm" viewBox="2887.89 3131.33 382.41 323.58" height="227.076mm" xmlns:xlink="http://www.w3.org/1999/xlink" xmlns:cc="http://creativecommons.org/ns#">
<g inkscape:groupmode="layer" stroke-width="1" stroke-linejoin="bevel" stroke-linecap="square" inkscape:label="Map 1: fid_40" fill="none" stroke="black" id="Map 1: fid_40" fill-rule="evenodd">
  <g fill-opacity="1" stroke-width="2" stroke-linejoin="bevel" font-weight="400" stroke-linecap="square" font-size="83.3333" font-style="normal" fill="#7d8b8f" stroke-opacity="1"  font-family="Noto Sans" stroke="#232323">
   <path d="M2892.89,3301.05 L2898.01,3347.6 L2915.91,3362.95 L2928.19,3362.95 L2965.53,3333.79 L2982.41,3336.86 L2981.39,3354.77 L2980.88,3386.48 L2998.27,3392.11 L3021.8,3384.44 L3025.38,3371.14 L3039.71,3376.25 L3049.94,3371.65 L3057.61,3341.47 L3069.89,3338.4 L3085.23,3354.77 L3108.25,3350.67 L3125.65,3351.19 L3173.22,3373.69 L3172.71,3392.62 L3185.5,3396.71 L3192.15,3408.99 L3187.54,3433.03 L3195.73,3441.22 L3204.94,3437.13 L3209.54,3430.47 L3210.56,3449.91 L3222.84,3448.89 L3227.44,3436.61 L3233.58,3435.59 L3245.35,3368.07 L3242.28,3337.37 L3265.3,3287.75 L3249.95,3268.31 L3247.39,3242.74 L3225.91,3221.25 L3223.86,3189.02 L3201.87,3174.7 L3190.61,3179.82 L3169.13,3182.89 L3152.76,3164.47 L3147.64,3149.64 L3139.46,3142.99 L3119,3136.33 L3086.26,3146.57 L3059.66,3142.47 L3055.56,3156.29 L3038.68,3169.07 L3023.34,3164.98 L3009.01,3178.67 L2955.81,3216.52 L2952.74,3224.19 L2947.63,3226.75 L2892.89,3301.05" vector-effect="none" fill-rule="evenodd"/>

</g>
</g>
</svg>