<svg xmlns="http://www.w3.org/2000/svg" version="1.2" baseProfile="tiny" xmlns:inkscape="http://www.inkscape.org/namespaces/inkscape" width="315.045mm" viewBox="3025.3 2689.9 73.77 230.0" height="227.076mm" xmlns:xlink="http://www.w3.org/1999/xlink" xmlns:cc="http://creativecommons.org/ns#">
<g inkscape:groupmode="layer" stroke-width="1" stroke-linejoin="bevel" stroke-linecap="square" inkscape:label="Map 1: fid_5" fill="none" stroke="black" id="Map 1: fid_5" fill-rule="evenodd">
  <g fill-opacity="1" stroke-width="2" stroke-linejoin="bevel" font-weight="400" stroke-linecap="square" font-size="83.3333" font-style="normal" fill="#beb297" stroke-opacity="1"  font-family="Noto Sans" stroke="#232323">
   <path d="M3093.79,2720.34 L3091.31,2708.08 L3069.41,2695.76 L3061.34,2694.9 L3055.17,2701.71 L3054.11,2718.07 L3035.83,2708.72 L3030.3,2712.97 L3038.38,2754.42 L3037.74,2798 L3050.07,2811.6 L3050.71,2822.02 L3043.91,2834.34 L3034.13,2834.77 L3033.7,2848.8 L3041.36,2854.75 L3042.21,2858.68 L3032.43,2881.64 L3046.46,2881.74 L3050.39,2897.69 L3060.91,2914.9 L3071.43,2904.59 L3079.51,2892.58 L3083.34,2872.6 L3084.29,2855.28 L3086.31,2825.2 L3089.29,2800.33 L3094.07,2780.42 L3090.67,2763.42 L3093.79,2720.34" vector-effect="none" fill-rule="evenodd"/>

</g>
</g>
</svg>