<svg xmlns="http://www.w3.org/2000/svg" version="1.2" baseProfile="tiny" xmlns:inkscape="http://www.inkscape.org/namespaces/inkscape" width="315.045mm" viewBox="1391.55 1137.74 36.13 100.14" height="227.076mm" xmlns:xlink="http://www.w3.org/1999/xlink" xmlns:cc="http://creativecommons.org/ns#">
<g stroke-linejoin="bevel" stroke="black" inkscape:label="Map 1: fid_5" fill-rule="evenodd" stroke-linecap="square" inkscape:groupmode="layer" stroke-width="1" fill="none" id="Map 1: fid_5">
  <g stroke-linejoin="bevel"  fill-opacity="1" stroke="#232323" font-style="normal" stroke-linecap="square" font-family="Noto Sans" font-size="41.6667" font-weight="400" stroke-width="1" fill="#e8718d" stroke-opacity="1">
   <path d="M1422.56,1153.16 L1421.54,1148.14 L1412.57,1143.09 L1409.26,1142.74 L1406.74,1145.53 L1406.3,1152.24 L1398.81,1148.4 L1396.55,1150.15 L1399.86,1167.13 L1399.6,1184.98 L1404.65,1190.56 L1404.91,1194.82 L1402.12,1199.87 L1398.12,1200.05 L1397.94,1205.8 L1401.08,1208.24 L1401.43,1209.85 L1397.42,1219.25 L1403.17,1219.3 L1404.78,1225.83 L1409.09,1232.88 L1413.4,1228.66 L1416.71,1223.74 L1418.28,1215.55 L1418.67,1208.45 L1419.5,1196.13 L1420.72,1185.94 L1422.68,1177.78 L1421.28,1170.82 L1422.56,1153.16" fill-rule="evenodd" vector-effect="none"/>

</g>
</g>
</svg>