<svg xmlns="http://www.w3.org/2000/svg" version="1.2" baseProfile="tiny" xmlns:inkscape="http://www.inkscape.org/namespaces/inkscape" width="315.045mm" viewBox="1457.25 779.894 138.0 89.412" height="227.076mm" xmlns:xlink="http://www.w3.org/1999/xlink" xmlns:cc="http://creativecommons.org/ns#">
<g stroke-linejoin="bevel" stroke="black" inkscape:label="Map 1: fid_100" fill-rule="evenodd" stroke-linecap="square" inkscape:groupmode="layer" stroke-width="1" fill="none" id="Map 1: fid_100">
  <g stroke-linejoin="bevel"  fill-opacity="1" stroke="#232323" font-style="normal" stroke-linecap="square" font-family="Noto Sans" font-size="41.6667" font-weight="400" stroke-width="1" fill="#c43c39" stroke-opacity="1">
   <path d="M1510.23,814.504 L1507.24,817.405 L1509.84,818.476 L1511.98,819.241 L1513.82,819.547 L1515.5,818.476 L1516.88,816.793 L1518.41,815.568 L1521.93,815.721 L1523.3,816.793 L1524.53,818.17 L1525.44,819.547 L1524.83,821.23 L1523,821.995 L1521.77,822.148 L1520.24,822.148 L1516.88,820.159 L1517.34,822.454 L1517.95,823.831 L1519.02,824.902 L1520.4,825.82 L1521.47,826.738 L1520.55,828.268 L1518.71,828.728 L1517.34,828.268 L1515.65,827.197 L1513.36,825.514 L1510.91,825.055 L1509.07,822.76 L1508,821.23 L1505.86,818.782 L1504.48,817.711 L1502.14,816.391 L1500.53,818.413 L1500.89,821.077 L1502.26,822.913 L1502.11,824.749 L1501.8,826.203 L1502.72,828.192 L1502.49,830.105 L1503.03,831.099 L1503.33,831.941 L1503.64,832.476 L1504.41,832.935 L1505.86,833.7 L1506.24,835.46 L1505.09,836.99 L1504.25,837.067 L1502.65,836.072 L1501.57,834.312 L1500.73,832.706 L1500.04,831.864 L1498.21,829.493 L1495.99,828.575 L1494.69,827.044 L1494,826.585 L1493.39,826.509 L1489.03,826.279 L1487.34,828.498 L1485.2,829.263 L1482.75,827.656 L1480.46,825.285 L1478.7,823.984 L1477.09,821.765 L1476.48,820.847 L1473.04,820.618 L1469.37,820.618 L1465.08,819.47 L1462.86,819.623 L1462.25,821.306 L1465.31,823.908 L1465.16,826.279 L1468.14,827.197 L1471.58,828.192 L1474.03,829.569 L1474.41,832.476 L1475.33,834.236 L1477.86,836.149 L1480.84,837.373 L1482.83,839.209 L1485.2,839.209 L1489.33,836.837 L1510.22,848.944 L1513.28,850.398 L1513.82,851.928 L1514.05,854.529 L1515.42,856.136 L1517.11,856.442 L1519.4,855.906 L1521.39,857.207 L1523.61,857.59 L1525.9,857.59 L1526.9,858.508 L1529.73,859.349 L1530.72,859.732 L1531.34,860.497 L1532.18,860.879 L1534.09,859.993 L1537.86,854.736 L1539.61,854.197 L1542.31,857.432 L1545.68,859.588 L1548.64,855.141 L1553.5,854.467 L1558.89,857.297 L1559.56,858.914 L1561.45,859.184 L1562.93,862.823 L1566.03,864.306 L1569.94,863.901 L1572.37,861.88 L1573.44,859.453 L1575.73,859.858 L1577.08,858.24 L1579.91,858.24 L1580.45,850.838 L1584.97,849.996 L1585.5,848.237 L1584.13,843.799 L1584.58,840.203 L1586.34,839.362 L1589.71,836.149 L1590.25,830.946 L1587.26,830.181 L1584.51,830.411 L1581.98,829.263 L1581.06,826.05 L1577.93,824.673 L1577.39,821.153 L1574.79,818.705 L1574.18,812.423 L1569.06,810.806 L1565.29,812.019 L1562.19,809.323 L1561.65,801.641 L1561.92,796.385 L1561.25,792.745 L1557.07,791.634 L1552.75,790.286 L1550.46,795.138 L1545.75,794.464 L1545.48,790.555 L1529.17,784.894 L1525.39,786.377 L1526.67,792.535 L1523.84,796.848 L1520.47,795.904 L1516.84,797.117 L1514.27,803.048 L1511.04,809.113 L1510.23,814.504" fill-rule="evenodd" vector-effect="none"/>

</g>
</g>
</svg>