<svg xmlns="http://www.w3.org/2000/svg" version="1.2" baseProfile="tiny" xmlns:inkscape="http://www.inkscape.org/namespaces/inkscape" width="315.045mm" viewBox="1345.73 1555.59 124.32 92.12" height="227.076mm" xmlns:xlink="http://www.w3.org/1999/xlink" xmlns:cc="http://creativecommons.org/ns#">
<g stroke-linejoin="bevel" stroke="black" inkscape:label="Map 1: fid_95" fill-rule="evenodd" stroke-linecap="square" inkscape:groupmode="layer" stroke-width="1" fill="none" id="Map 1: fid_95">
  <g stroke-linejoin="bevel"  fill-opacity="1" stroke="#232323" font-style="normal" stroke-linecap="square" font-family="Noto Sans" font-size="41.6667" font-weight="400" stroke-width="1" fill="#e8718d" stroke-opacity="1">
   <path d="M1366.22,1630.3 L1370.4,1637.45 L1374.71,1642.03 L1382.12,1642.3 L1389,1637.58 L1393.85,1625.99 L1406.52,1624.78 L1406.39,1622.08 L1413.26,1620.73 L1412.59,1630.17 L1410.56,1633.67 L1420.13,1642.71 L1423.5,1641.9 L1425.26,1641.63 L1429.17,1636.37 L1432.92,1629 L1435.35,1628.45 L1436.68,1630.69 L1438.74,1633.27 L1447.23,1634.62 L1449.65,1637.04 L1451.33,1636.19 L1449.16,1633.92 L1447.44,1632.94 L1448.77,1631.47 L1451.35,1631.75 L1451.65,1629.78 L1454.51,1627.84 L1456.99,1625 L1457.81,1622.44 L1458.09,1620.61 L1458.27,1618.68 L1458.18,1616.12 L1457.26,1613.65 L1456.16,1611.91 L1454.7,1610.26 L1452.5,1608.52 L1451.31,1607.33 L1454.88,1603.3 L1458.64,1600.64 L1461.2,1600.73 L1463.95,1599.45 L1464.68,1597.71 L1465.05,1595.14 L1464.68,1593.49 L1464.04,1592.67 L1462.48,1590.93 L1461.38,1590.01 L1460.38,1589.46 L1457.99,1587.91 L1454.88,1586.35 L1452.5,1586.17 L1449.75,1586.53 L1447.09,1587.08 L1445.26,1587.72 L1443.98,1588.27 L1442.97,1588.73 L1441.87,1589.74 L1441.05,1592.03 L1442.61,1594.69 L1442.97,1596.15 L1442.06,1597.53 L1438.67,1596.98 L1436.38,1595.78 L1433.9,1594.69 L1428.68,1601.19 L1424.93,1600.73 L1423.46,1598.44 L1423.83,1594.78 L1420.99,1594.32 L1418.61,1596.79 L1416.5,1596.24 L1415.95,1594.32 L1416.5,1592.4 L1418.06,1591.57 L1418.06,1590.56 L1416.59,1590.47 L1414.67,1590.93 L1413.84,1592.12 L1412.75,1592.76 L1411.01,1592.12 L1410.46,1589.1 L1408.81,1588.27 L1406.15,1588.09 L1404.96,1588.18 L1405.69,1585.62 L1408.53,1584.7 L1410.09,1584.7 L1411.65,1583.88 L1412.56,1582.5 L1412.1,1581.59 L1409.63,1582.41 L1410.36,1580.03 L1410,1577.37 L1413.02,1576 L1412.29,1572.89 L1410,1571.97 L1408.53,1572.24 L1407.25,1570.3 L1405.78,1568.65 L1404.41,1568.01 L1404.23,1566.91 L1404.23,1565.53 L1404.78,1564.07 L1405.6,1563.52 L1404.69,1561.96 L1402.85,1560.86 L1401.75,1560.59 L1400.93,1560.68 L1400.11,1561.05 L1394.7,1562.24 L1393.97,1563.43 L1391.5,1563.89 L1391.5,1565.63 L1388.56,1565.53 L1385.18,1567.37 L1384.17,1569.02 L1382.61,1569.47 L1379.86,1569.57 L1379.13,1568.65 L1376.12,1567.05 L1375.45,1566.99 L1373.04,1567.47 L1372.26,1565.73 L1370.89,1565.68 L1370.79,1567.33 L1370.11,1567.33 L1369.92,1565.91 L1368.46,1566.23 L1367.31,1567.38 L1366.54,1567.93 L1366.4,1569.07 L1366.35,1569.62 L1364.7,1569.71 L1363.79,1569.53 L1363.15,1569.71 L1362.96,1570.95 L1361.82,1571.64 L1360.76,1571 L1360.58,1569.9 L1360.44,1569.3 L1358.93,1569.49 L1358.34,1570.17 L1357.38,1570.22 L1356.69,1570.17 L1356.41,1570.95 L1356.96,1572 L1356.78,1572.87 L1355.41,1573.84 L1354.35,1573.93 L1354.26,1574.8 L1354.54,1575.44 L1350.78,1578.19 L1351.56,1579.93 L1350.73,1583.36 L1352.93,1583.68 L1353.48,1586.2 L1353.16,1589 L1357.33,1589.77 L1356.87,1593.07 L1358.89,1593.53 L1358.7,1597.06 L1361.27,1597.19 L1361.31,1600.26 L1363.42,1599.94 L1366.81,1596.96 L1366.95,1596 L1368.96,1594.4 L1370.34,1595.42 L1370.15,1596.56 L1371.12,1596.93 L1371.99,1596.84 L1372.67,1597.2 L1372.72,1598.17 L1372.31,1599.31 L1373.54,1599.77 L1374.92,1600.32 L1371.99,1601.37 L1370.93,1602.61 L1370.61,1603.94 L1370.38,1605.31 L1369.97,1606.73 L1369.24,1607.69 L1369.37,1608.61 L1369.05,1609.57 L1368.41,1610.39 L1368.05,1611.08 L1367.91,1612.36 L1367.45,1613.42 L1366.86,1614.33 L1366.9,1615.98 L1366.4,1617.08 L1362.73,1615.26 L1361.45,1620.62 L1362.83,1624.97 L1364.43,1627.21 L1366.22,1630.3" fill-rule="evenodd" vector-effect="none"/>

</g>
</g>
</svg>