<?xml version='1.0' encoding='UTF-8' standalone='no'?>
<svg height="209.994mm" width="296.989mm" viewBox="0 0 14031 9921" baseProfile="tiny" xmlns:cc="http://creativecommons.org/ns#" xmlns="http://www.w3.org/2000/svg" xmlns:xlink="http://www.w3.org/1999/xlink" version="1.2" xmlns:inkscape="http://www.inkscape.org/namespaces/inkscape">
 <defs/>
 <g fill-rule="evenodd" stroke-linejoin="bevel" stroke="black" id="Page" fill="none" stroke-linecap="square" inkscape:groupmode="layer" inkscape:label="Page" stroke-width="1">
  <g font-style="normal" stroke-linejoin="bevel" stroke="#000000" stroke-opacity="1" transform="matrix(1,0,0,1,0,0)" font-family="Noto Sans" font-size="166.667" fill="none" font-weight="400" stroke-linecap="square" stroke-width="1"/>
  <g font-style="normal" stroke-linejoin="bevel" stroke="#000000" stroke-opacity="1" transform="matrix(1,0,0,1,0,0)" font-family="Noto Sans" font-size="166.667" fill="none" font-weight="400" stroke-linecap="square" stroke-width="1"/>
  <g font-style="normal" stroke-linejoin="bevel" stroke="#000000" stroke-opacity="1" transform="matrix(47.2424,0,0,47.2424,0,0)" font-family="Noto Sans" font-size="166.667" fill="none" font-weight="400" stroke-linecap="square" stroke-width="1"/>
  <g font-style="normal" stroke-linejoin="bevel" stroke="#000000" stroke-opacity="1" transform="matrix(0.999965,0,0,0.999965,0,0)" font-family="Noto Sans" font-size="166.667" fill="none" font-weight="400" stroke-linecap="square" stroke-width="1"/>
  <g font-style="normal" stroke="none" transform="matrix(0.999965,0,0,0.999965,0,0)" font-family="Noto Sans" font-size="166.667" fill="#ffffff" fill-opacity="1" font-weight="400">
   <path fill-rule="evenodd" vector-effect="none" d="M-2,-2 L14034,-2 L14034,9924 L-2,9924 L-2,-2"/>
  </g>
  <g font-style="normal" stroke-linejoin="bevel" stroke="#000000" stroke-opacity="1" transform="matrix(0.999965,0,0,0.999965,0,0)" font-family="Noto Sans" font-size="166.667" fill="none" font-weight="400" stroke-linecap="square" stroke-width="1"/>
  <g font-style="normal" stroke-linejoin="bevel" stroke="#000000" stroke-opacity="1" transform="matrix(47.2424,0,0,47.2424,0,0)" font-family="Noto Sans" font-size="166.667" fill="none" font-weight="400" stroke-linecap="square" stroke-width="1"/>
  <g font-style="normal" stroke-linejoin="bevel" stroke="#000000" stroke-opacity="1" transform="matrix(47.2424,0,0,47.2424,0,0)" font-family="Noto Sans" font-size="166.667" fill="none" font-weight="400" stroke-linecap="square" stroke-width="1"/>
  <g font-style="normal" stroke-linejoin="bevel" stroke="#000000" stroke-opacity="1" transform="matrix(1,0,0,1,0,0)" font-family="Noto Sans" font-size="166.667" fill="none" font-weight="400" stroke-linecap="square" stroke-width="1"/>
 </g>
 <defs/>
 <g fill-rule="evenodd" stroke-linejoin="bevel" stroke="black" id="Map 1: fid_26" fill="none" stroke-linecap="square" inkscape:groupmode="layer" inkscape:label="Map 1: fid_26" stroke-width="1">
  <g font-style="normal" stroke-linejoin="bevel" stroke="#000000" stroke-opacity="1" transform="matrix(1,0,0,1,0,0)" font-family="Noto Sans" font-size="166.667" fill="none" font-weight="400" stroke-linecap="square" stroke-width="1"/>
  <g font-style="normal" stroke-linejoin="bevel" stroke="#000000" stroke-opacity="1" transform="matrix(1,0,0,1,0,0)" font-family="Noto Sans" font-size="166.667" fill="none" font-weight="400" stroke-linecap="square" stroke-width="1"/>
  <g font-style="normal" stroke-linejoin="bevel" stroke="#000000" stroke-opacity="1" transform="matrix(47.2424,0,0,47.2424,777.249,-113.467)" font-family="Noto Sans" font-size="166.667" fill="none" font-weight="400" stroke-linecap="square" stroke-width="1"/>
  <g font-style="normal" stroke-linejoin="bevel" stroke="#000000" stroke-opacity="1" transform="matrix(47.2424,0,0,47.2424,777.249,-113.467)" font-family="Noto Sans" font-size="166.667" fill="none" font-weight="400" stroke-linecap="square" stroke-width="1"/>
  <g font-style="normal" stroke="none" transform="matrix(0.999965,0,0,0.999965,777.249,-113.467)" font-family="Noto Sans" font-size="166.667" fill="#000000" fill-opacity="0" font-weight="400">
   <rect y="0" height="10905" width="15727" x="0"/>
  </g>
  <g font-style="normal" stroke-linejoin="bevel" stroke="#000000" stroke-opacity="1" transform="matrix(0.999965,0,0,0.999965,777.249,-113.467)" font-family="Noto Sans" font-size="166.667" fill="none" font-weight="400" stroke-linecap="square" stroke-width="1"/>
  <g font-style="normal" stroke-linejoin="bevel" stroke="#232323" stroke-opacity="1" transform="matrix(0.999965,0,0,0.999965,777.249,-113.467)" font-family="Noto Sans" font-size="166.667" fill="none" font-weight="400" stroke-linecap="square" stroke-width="12.2835">
   <path fill-rule="evenodd" vector-effect="none" d="M7389.04,6332.04 L7458.26,6272.81 L7400.46,6149.35 L7414.73,6139.83 L7385.24,6037.07 L7397.61,5999.01 L7421.39,5999.01 L7416.64,5971.42 L7398.56,5940.97 L7371.92,5942.87 L7341.47,5944.78 L7332.9,5933.36 L7309.12,5933.36 L7286.28,5919.08 L7266.3,5909.57 L7240.61,5896.25 L7225.38,5883.88 L7209.21,5865.8 L7218.72,5847.72 L7153.07,5762.09 L7135.94,5759.23 L7140.7,5804.9 L7112.16,5800.15 L7044.6,5648.86 L7034.13,5648.86 L7037.94,5685.01 L6995.12,5672.65 L6984.65,5658.37 L6968.48,5587.01 L6984.65,5520.4 L7006.54,5513.74 L6991.31,5489.01 L6977.99,5481.39 L6966.58,5483.3 L6951.35,5467.12 L6934.22,5464.27 L6929.47,5435.72 L6914.24,5420.5 L6910.44,5405.27 L6896.16,5404.32 L6886.65,5391.95 L6877.13,5391 L6865.72,5373.87 L6854.3,5373.87 L6843.83,5362.46 L6825.75,5355.79 L6812.43,5345.33 L6808.63,5320.59 L6795.3,5317.73 L6785.79,5327.25 L6781.98,5343.43 L6794.35,5359.6 L6790.55,5371.97 L6802.92,5417.64 L6798.16,5444.28 L6781.03,5458.56 L6776.27,5479.49 L6776.27,5506.13 L6764.86,5508.99 L6764.86,5535.63 L6774.37,5551.8 L6772.47,5579.4 L6759.15,5687.87 L6765.81,5724.98 L6760.1,5778.26 L6745.83,5809.66 L6759.15,5840.11 L6785.79,5944.78 L6782.94,6019.94 L6828.61,6088.45 L6844.78,6082.74 L6891.41,6153.15 L6945.64,6164.57 L7076,6273.04 L7174,6319.67 L7269.15,6274 L7293.89,6321.57 L7389.04,6332.04"/>
  </g>
  <g font-style="normal" stroke-linejoin="bevel" stroke="#000000" stroke-opacity="1" transform="matrix(0.999965,0,0,0.999965,777.249,-113.467)" font-family="Noto Sans" font-size="166.667" fill="none" font-weight="400" stroke-linecap="square" stroke-width="1"/>
  <g font-style="normal" stroke-linejoin="bevel" stroke="#000000" stroke-opacity="1" transform="matrix(47.2424,0,0,47.2424,777.249,-113.467)" font-family="Noto Sans" font-size="166.667" fill="none" font-weight="400" stroke-linecap="square" stroke-width="1"/>
  <g font-style="normal" stroke-linejoin="bevel" stroke="#000000" stroke-opacity="1" transform="matrix(47.2424,0,0,47.2424,777.249,-113.467)" font-family="Noto Sans" font-size="166.667" fill="none" font-weight="400" stroke-linecap="square" stroke-width="1"/>
  <g font-style="normal" stroke-linejoin="bevel" stroke="#000000" stroke-opacity="1" transform="matrix(47.2424,0,0,47.2424,777.249,-113.467)" font-family="Noto Sans" font-size="166.667" fill="none" font-weight="400" stroke-linecap="square" stroke-width="1"/>
  <g font-style="normal" stroke-linejoin="bevel" stroke="#000000" stroke-opacity="1" transform="matrix(1,0,0,1,0,0)" font-family="Noto Sans" font-size="166.667" fill="none" font-weight="400" stroke-linecap="square" stroke-width="1"/>
  <g font-style="normal" stroke-linejoin="bevel" stroke="#000000" stroke-opacity="1" transform="matrix(47.2424,0,0,47.2424,777.249,-113.467)" font-family="Noto Sans" font-size="166.667" fill="none" font-weight="400" stroke-linecap="square" stroke-width="1"/>
  <g font-style="normal" stroke-linejoin="bevel" stroke="#000000" stroke-opacity="1" transform="matrix(47.2424,0,0,47.2424,777.249,-113.467)" font-family="Noto Sans" font-size="166.667" fill="none" font-weight="400" stroke-linecap="square" stroke-width="1"/>
  <g font-style="normal" stroke-linejoin="bevel" stroke="#000000" stroke-opacity="1" transform="matrix(1,0,0,1,0,0)" font-family="Noto Sans" font-size="166.667" fill="none" font-weight="400" stroke-linecap="square" stroke-width="1"/>
 </g>
 <defs/>
 <metadata>
  <rdf:RDF xmlns:rdf="http://www.w3.org/1999/02/22-rdf-syntax-ns#" xmlns:dc="http://purl.org/dc/elements/1.1/" xmlns:rdfs="http://www.w3.org/2000/01/rdf-schema#">
   <rdf:Description dc:date="2023-10-07T15:41:53" dc:format="image/svg+xml" dc:description="" dc:title="Bergen Boligområder" dc:identifier="">
    <dc:creator>
     <rdf:Bag>
      <rdf:li>Lukas</rdf:li>
     </rdf:Bag>
    </dc:creator>
    <dc:publisher>
     <rdf:Bag>
      <rdf:li>QGIS 3.32.3-Lima</rdf:li>
     </rdf:Bag>
    </dc:publisher>
    <dc:subject>
     <rdf:Bag/>
    </dc:subject>
   </rdf:Description>
   <cc:Work rdf:about="">
    <dc:format>image/svg+xml</dc:format>
    <dc:title>Bergen Boligområder</dc:title>
    <dc:date>2023-10-07T15:41:53</dc:date>
    <dc:identifier></dc:identifier>
    <dc:description></dc:description>
    <dc:creator>
     <cc:Agent>
      <dc:title>Lukas</dc:title>
     </cc:Agent>
    </dc:creator>
    <dc:publisher>
     <cc:Agent>
      <dc:title>QGIS 3.32.3-Lima</dc:title>
     </cc:Agent>
    </dc:publisher>
   </cc:Work>
  </rdf:RDF>
 </metadata>
</svg>
