<svg xmlns="http://www.w3.org/2000/svg" version="1.2" baseProfile="tiny" xmlns:inkscape="http://www.inkscape.org/namespaces/inkscape" width="315.045mm" viewBox="1484.68 1111.19 44.1 37.37" height="227.076mm" xmlns:xlink="http://www.w3.org/1999/xlink" xmlns:cc="http://creativecommons.org/ns#">
<g stroke-linejoin="bevel" stroke="black" inkscape:label="Map 1: fid_63" fill-rule="evenodd" stroke-linecap="square" inkscape:groupmode="layer" stroke-width="1" fill="none" id="Map 1: fid_63">
  <g stroke-linejoin="bevel"  fill-opacity="1" stroke="#232323" font-style="normal" stroke-linecap="square" font-family="Noto Sans" font-size="41.6667" font-weight="400" stroke-width="1" fill="#91522d" stroke-opacity="1">
   <path d="M1523.78,1136.96 L1522.23,1135.96 L1523.07,1134.35 L1518.69,1130.84 L1521.12,1128.65 L1522.09,1129.43 L1523.64,1127.47 L1521.86,1125.99 L1517.85,1130.2 L1516.57,1128.85 L1520.27,1124.98 L1516.94,1122.35 L1515.66,1124.81 L1514.27,1125.45 L1513.06,1125.11 L1512.49,1124.37 L1510.5,1122.18 L1509.66,1123.03 L1508.88,1122.39 L1509.62,1121.61 L1508.18,1120.2 L1508.68,1119.49 L1508.21,1119.15 L1507.5,1119.69 L1506.86,1119.39 L1507.06,1118.54 L1501.3,1117.16 L1497.09,1117.4 L1497.26,1116.19 L1496.55,1116.19 L1496.62,1117.16 L1489.68,1117.7 L1490.76,1123.13 L1494.73,1127.78 L1496.85,1128.48 L1497.12,1130.24 L1500.86,1135.88 L1503.83,1133.18 L1506.73,1134.8 L1508.41,1138.04 L1512.46,1137.77 L1518.45,1143.56 L1519.4,1143.56 L1523.78,1136.96" fill-rule="evenodd" vector-effect="none"/>

</g>
</g>
</svg>