<?xml version='1.0' encoding='UTF-8' standalone='no'?>
<svg height="209.994mm" width="296.989mm" viewBox="0 0 14031 9921" baseProfile="tiny" xmlns:cc="http://creativecommons.org/ns#" xmlns="http://www.w3.org/2000/svg" xmlns:xlink="http://www.w3.org/1999/xlink" version="1.2" xmlns:inkscape="http://www.inkscape.org/namespaces/inkscape">
 <defs/>
 <g fill-rule="evenodd" stroke-linejoin="bevel" stroke="black" id="Page" fill="none" stroke-linecap="square" inkscape:groupmode="layer" inkscape:label="Page" stroke-width="1">
  <g font-style="normal" stroke-linejoin="bevel" stroke="#000000" stroke-opacity="1" transform="matrix(1,0,0,1,0,0)" font-family="Noto Sans" font-size="166.667" fill="none" font-weight="400" stroke-linecap="square" stroke-width="1"/>
  <g font-style="normal" stroke-linejoin="bevel" stroke="#000000" stroke-opacity="1" transform="matrix(1,0,0,1,0,0)" font-family="Noto Sans" font-size="166.667" fill="none" font-weight="400" stroke-linecap="square" stroke-width="1"/>
  <g font-style="normal" stroke-linejoin="bevel" stroke="#000000" stroke-opacity="1" transform="matrix(47.2424,0,0,47.2424,0,0)" font-family="Noto Sans" font-size="166.667" fill="none" font-weight="400" stroke-linecap="square" stroke-width="1"/>
  <g font-style="normal" stroke-linejoin="bevel" stroke="#000000" stroke-opacity="1" transform="matrix(0.999965,0,0,0.999965,0,0)" font-family="Noto Sans" font-size="166.667" fill="none" font-weight="400" stroke-linecap="square" stroke-width="1"/>
  <g font-style="normal" stroke="none" transform="matrix(0.999965,0,0,0.999965,0,0)" font-family="Noto Sans" font-size="166.667" fill="#ffffff" fill-opacity="1" font-weight="400">
   <path fill-rule="evenodd" vector-effect="none" d="M-2,-2 L14034,-2 L14034,9924 L-2,9924 L-2,-2"/>
  </g>
  <g font-style="normal" stroke-linejoin="bevel" stroke="#000000" stroke-opacity="1" transform="matrix(0.999965,0,0,0.999965,0,0)" font-family="Noto Sans" font-size="166.667" fill="none" font-weight="400" stroke-linecap="square" stroke-width="1"/>
  <g font-style="normal" stroke-linejoin="bevel" stroke="#000000" stroke-opacity="1" transform="matrix(47.2424,0,0,47.2424,0,0)" font-family="Noto Sans" font-size="166.667" fill="none" font-weight="400" stroke-linecap="square" stroke-width="1"/>
  <g font-style="normal" stroke-linejoin="bevel" stroke="#000000" stroke-opacity="1" transform="matrix(47.2424,0,0,47.2424,0,0)" font-family="Noto Sans" font-size="166.667" fill="none" font-weight="400" stroke-linecap="square" stroke-width="1"/>
  <g font-style="normal" stroke-linejoin="bevel" stroke="#000000" stroke-opacity="1" transform="matrix(1,0,0,1,0,0)" font-family="Noto Sans" font-size="166.667" fill="none" font-weight="400" stroke-linecap="square" stroke-width="1"/>
 </g>
 <defs/>
 <g fill-rule="evenodd" stroke-linejoin="bevel" stroke="black" id="Map 1: Background" fill="none" stroke-linecap="square" inkscape:groupmode="layer" inkscape:label="Map 1: Background" stroke-width="1">
  <g font-style="normal" stroke-linejoin="bevel" stroke="#000000" stroke-opacity="1" transform="matrix(1,0,0,1,0,0)" font-family="Noto Sans" font-size="166.667" fill="none" font-weight="400" stroke-linecap="square" stroke-width="1"/>
  <g font-style="normal" stroke-linejoin="bevel" stroke="#000000" stroke-opacity="1" transform="matrix(1,0,0,1,0,0)" font-family="Noto Sans" font-size="166.667" fill="none" font-weight="400" stroke-linecap="square" stroke-width="1"/>
  <g font-style="normal" stroke-linejoin="bevel" stroke="#000000" stroke-opacity="1" transform="matrix(47.2424,0,0,47.2424,777.249,-113.467)" font-family="Noto Sans" font-size="166.667" fill="none" font-weight="400" stroke-linecap="square" stroke-width="1"/>
  <g font-style="normal" stroke="none" transform="matrix(47.2424,0,0,47.2424,777.249,-113.467)" font-family="Noto Sans" font-size="166.667" fill="#ffffff" fill-opacity="1" font-weight="400">
   <path fill-rule="evenodd" vector-effect="none" d="M0,0 L332.89,0 L332.89,230.813 L0,230.813 L0,0"/>
  </g>
  <g font-style="normal" stroke-linejoin="bevel" stroke="#000000" stroke-opacity="1" transform="matrix(47.2424,0,0,47.2424,777.249,-113.467)" font-family="Noto Sans" font-size="166.667" fill="none" font-weight="400" stroke-linecap="square" stroke-width="1"/>
  <g font-style="normal" stroke-linejoin="bevel" stroke="#000000" stroke-opacity="1" transform="matrix(47.2424,0,0,47.2424,777.249,-113.467)" font-family="Noto Sans" font-size="166.667" fill="none" font-weight="400" stroke-linecap="square" stroke-width="1"/>
  <g font-style="normal" stroke-linejoin="bevel" stroke="#000000" stroke-opacity="1" transform="matrix(47.2424,0,0,47.2424,777.249,-113.467)" font-family="Noto Sans" font-size="166.667" fill="none" font-weight="400" stroke-linecap="square" stroke-width="1"/>
  <g font-style="normal" stroke-linejoin="bevel" stroke="#000000" stroke-opacity="1" transform="matrix(47.2424,0,0,47.2424,777.249,-113.467)" font-family="Noto Sans" font-size="166.667" fill="none" font-weight="400" stroke-linecap="square" stroke-width="1"/>
  <g font-style="normal" stroke-linejoin="bevel" stroke="#000000" stroke-opacity="1" transform="matrix(1,0,0,1,0,0)" font-family="Noto Sans" font-size="166.667" fill="none" font-weight="400" stroke-linecap="square" stroke-width="1"/>
  <g font-style="normal" stroke-linejoin="bevel" stroke="#000000" stroke-opacity="1" transform="matrix(47.2424,0,0,47.2424,777.249,-113.467)" font-family="Noto Sans" font-size="166.667" fill="none" font-weight="400" stroke-linecap="square" stroke-width="1"/>
  <g font-style="normal" stroke-linejoin="bevel" stroke="#000000" stroke-opacity="1" transform="matrix(47.2424,0,0,47.2424,777.249,-113.467)" font-family="Noto Sans" font-size="166.667" fill="none" font-weight="400" stroke-linecap="square" stroke-width="1"/>
  <g font-style="normal" stroke-linejoin="bevel" stroke="#000000" stroke-opacity="1" transform="matrix(1,0,0,1,0,0)" font-family="Noto Sans" font-size="166.667" fill="none" font-weight="400" stroke-linecap="square" stroke-width="1"/>
 </g>
 <defs/>
 <g fill-rule="evenodd" stroke-linejoin="bevel" stroke="black" id="Map 1: fid_25" fill="none" stroke-linecap="square" inkscape:groupmode="layer" inkscape:label="Map 1: fid_25" stroke-width="1">
  <g font-style="normal" stroke-linejoin="bevel" stroke="#000000" stroke-opacity="1" transform="matrix(1,0,0,1,0,0)" font-family="Noto Sans" font-size="166.667" fill="none" font-weight="400" stroke-linecap="square" stroke-width="1"/>
  <g font-style="normal" stroke-linejoin="bevel" stroke="#000000" stroke-opacity="1" transform="matrix(1,0,0,1,0,0)" font-family="Noto Sans" font-size="166.667" fill="none" font-weight="400" stroke-linecap="square" stroke-width="1"/>
  <g font-style="normal" stroke-linejoin="bevel" stroke="#000000" stroke-opacity="1" transform="matrix(47.2424,0,0,47.2424,777.249,-113.467)" font-family="Noto Sans" font-size="166.667" fill="none" font-weight="400" stroke-linecap="square" stroke-width="1"/>
  <g font-style="normal" stroke-linejoin="bevel" stroke="#000000" stroke-opacity="1" transform="matrix(47.2424,0,0,47.2424,777.249,-113.467)" font-family="Noto Sans" font-size="166.667" fill="none" font-weight="400" stroke-linecap="square" stroke-width="1"/>
  <g font-style="normal" stroke="none" transform="matrix(0.999965,0,0,0.999965,777.249,-113.467)" font-family="Noto Sans" font-size="166.667" fill="#000000" fill-opacity="0" font-weight="400">
   <rect y="0" height="10905" width="15727" x="0"/>
  </g>
  <g font-style="normal" stroke-linejoin="bevel" stroke="#000000" stroke-opacity="1" transform="matrix(0.999965,0,0,0.999965,777.249,-113.467)" font-family="Noto Sans" font-size="166.667" fill="none" font-weight="400" stroke-linecap="square" stroke-width="1"/>
  <g font-style="normal" stroke-linejoin="bevel" stroke="#232323" stroke-opacity="1" transform="matrix(0.999965,0,0,0.999965,777.249,-113.467)" font-family="Noto Sans" font-size="166.667" fill="none" font-weight="400" stroke-linecap="square" stroke-width="12.2835">
   <path fill-rule="evenodd" vector-effect="none" d="M7374.53,6345.12 L7458.26,6272.81 L7488.71,6274.71 L7505.84,6310.87 L7549.61,6333.7 L7564.83,6326.09 L7599.09,6352.73 L7629.54,6352.73 L7648.57,6339.41 L7673.3,6411.73 L7739.91,6440.27 L7852.19,6432.66 L7880.73,6406.02 L7954.95,6369.86 L7998.72,6386.99 L8021.55,6386.99 L8050.1,6345.12 L8078.64,6348.93 L8116.71,6381.28 L8156.67,6350.83 L8198.53,6358.44 L8217.56,6390.79 L8253.72,6398.4 L8318.42,6390.79 L8428.8,6322.28 L8483.99,6269 L8493.5,6244.26 L8539.17,6246.16 L8556.3,6204.3 L8588.65,6171.95 L8636.23,6173.85 L8653.35,6187.17 L8687.61,6183.36 L8706.64,6166.24 L8728.05,6181.46 L8706.64,6251.87 L8643.84,6314.67 L8634.32,6354.64 L8512.53,6461.2 L8428.8,6482.14 L8272.75,6552.55 L8240.4,6600.12 L8238.5,6641.99 L8234.69,6691.47 L8263.24,6796.13 L8257.53,6874.16 L8234.69,6910.31 L8232.79,6938.86 L8217.56,6961.69 L8124.32,6967.4 L8036.78,6906.51 L8010.14,6841.81 L7897.86,6740.95 L7791.29,6674.34 L7753.23,6678.15 L7663.79,6626.77 L7490.62,6581.09 L7395.47,6524 L7347.89,6421.24 L7363.11,6356.54 L7374.53,6345.12"/>
  </g>
  <g font-style="normal" stroke-linejoin="bevel" stroke="#000000" stroke-opacity="1" transform="matrix(0.999965,0,0,0.999965,777.249,-113.467)" font-family="Noto Sans" font-size="166.667" fill="none" font-weight="400" stroke-linecap="square" stroke-width="1"/>
  <g font-style="normal" stroke-linejoin="bevel" stroke="#000000" stroke-opacity="1" transform="matrix(47.2424,0,0,47.2424,777.249,-113.467)" font-family="Noto Sans" font-size="166.667" fill="none" font-weight="400" stroke-linecap="square" stroke-width="1"/>
  <g font-style="normal" stroke-linejoin="bevel" stroke="#000000" stroke-opacity="1" transform="matrix(47.2424,0,0,47.2424,777.249,-113.467)" font-family="Noto Sans" font-size="166.667" fill="none" font-weight="400" stroke-linecap="square" stroke-width="1"/>
  <g font-style="normal" stroke-linejoin="bevel" stroke="#000000" stroke-opacity="1" transform="matrix(47.2424,0,0,47.2424,777.249,-113.467)" font-family="Noto Sans" font-size="166.667" fill="none" font-weight="400" stroke-linecap="square" stroke-width="1"/>
  <g font-style="normal" stroke-linejoin="bevel" stroke="#000000" stroke-opacity="1" transform="matrix(1,0,0,1,0,0)" font-family="Noto Sans" font-size="166.667" fill="none" font-weight="400" stroke-linecap="square" stroke-width="1"/>
  <g font-style="normal" stroke-linejoin="bevel" stroke="#000000" stroke-opacity="1" transform="matrix(47.2424,0,0,47.2424,777.249,-113.467)" font-family="Noto Sans" font-size="166.667" fill="none" font-weight="400" stroke-linecap="square" stroke-width="1"/>
  <g font-style="normal" stroke-linejoin="bevel" stroke="#000000" stroke-opacity="1" transform="matrix(47.2424,0,0,47.2424,777.249,-113.467)" font-family="Noto Sans" font-size="166.667" fill="none" font-weight="400" stroke-linecap="square" stroke-width="1"/>
  <g font-style="normal" stroke-linejoin="bevel" stroke="#000000" stroke-opacity="1" transform="matrix(1,0,0,1,0,0)" font-family="Noto Sans" font-size="166.667" fill="none" font-weight="400" stroke-linecap="square" stroke-width="1"/>
 </g>
 <metadata>
  <rdf:RDF xmlns:rdf="http://www.w3.org/1999/02/22-rdf-syntax-ns#" xmlns:dc="http://purl.org/dc/elements/1.1/" xmlns:rdfs="http://www.w3.org/2000/01/rdf-schema#">
   <rdf:Description dc:date="2023-10-07T15:41:53" dc:format="image/svg+xml" dc:description="" dc:title="Bergen Boligområder" dc:identifier="">
    <dc:creator>
     <rdf:Bag>
      <rdf:li>Lukas</rdf:li>
     </rdf:Bag>
    </dc:creator>
    <dc:publisher>
     <rdf:Bag>
      <rdf:li>QGIS 3.32.3-Lima</rdf:li>
     </rdf:Bag>
    </dc:publisher>
    <dc:subject>
     <rdf:Bag/>
    </dc:subject>
   </rdf:Description>
   <cc:Work rdf:about="">
    <dc:format>image/svg+xml</dc:format>
    <dc:title>Bergen Boligområder</dc:title>
    <dc:date>2023-10-07T15:41:53</dc:date>
    <dc:identifier></dc:identifier>
    <dc:description></dc:description>
    <dc:creator>
     <cc:Agent>
      <dc:title>Lukas</dc:title>
     </cc:Agent>
    </dc:creator>
    <dc:publisher>
     <cc:Agent>
      <dc:title>QGIS 3.32.3-Lima</dc:title>
     </cc:Agent>
    </dc:publisher>
   </cc:Work>
  </rdf:RDF>
 </metadata>
</svg>
