<svg xmlns="http://www.w3.org/2000/svg" version="1.2" baseProfile="tiny" xmlns:inkscape="http://www.inkscape.org/namespaces/inkscape" width="315.045mm" viewBox="3044.7 1059.1 139.28 197.69" height="227.076mm" xmlns:xlink="http://www.w3.org/1999/xlink" xmlns:cc="http://creativecommons.org/ns#">
<g inkscape:groupmode="layer" stroke-width="1" stroke-linejoin="bevel" stroke-linecap="square" inkscape:label="Map 1: fid_64" fill="none" stroke="black" id="Map 1: fid_64" fill-rule="evenodd">
  <g fill-opacity="1" stroke-width="2" stroke-linejoin="bevel" font-weight="400" stroke-linecap="square" font-size="83.3333" font-style="normal" fill="#8d5a99" stroke-opacity="1"  font-family="Noto Sans" stroke="#232323">
   <path d="M3065.82,1250.8 L3089.5,1251.79 L3086.54,1232.05 L3093.78,1218.23 L3118.78,1207.05 L3120.75,1163.63 L3140.49,1147.18 L3159.9,1150.8 L3178.98,1133.36 L3174.74,1077.28 L3166.66,1064.1 L3162.2,1072.51 L3158.25,1083.03 L3146.08,1082.38 L3147.07,1085.99 L3142.79,1087.97 L3141.15,1092.9 L3143.12,1111.98 L3135.89,1120.53 L3127,1118.23 L3122.07,1122.84 L3119.77,1120.53 L3123.72,1114.61 L3127.33,1108.69 L3123.72,1106.72 L3120.43,1111.65 L3110.89,1112.97 L3109.57,1120.21 L3106.94,1121.19 L3106.28,1125.47 L3101.35,1125.14 L3100.03,1119.22 L3091.15,1120.21 L3089.83,1123.17 L3084.9,1123.82 L3084.24,1128.1 L3079.96,1129.09 L3079.96,1132.38 L3076.02,1134.02 L3076.68,1136.65 L3078.65,1140.6 L3069.11,1149.48 L3070.43,1155.4 L3062.2,1160.01 L3065.16,1165.6 L3062.2,1171.85 L3064.5,1178.1 L3062.86,1183.04 L3056.28,1185.67 L3051.35,1190.6 L3049.7,1193.56 L3052.99,1194.88 L3052,1199.81 L3054.96,1200.47 L3054.64,1196.52 L3057.27,1195.86 L3059.57,1194.55 L3064.83,1190.93 L3068.45,1191.59 L3070.43,1194.88 L3069.77,1199.15 L3067.46,1201.13 L3055.29,1215.93 L3061.21,1220.86 L3060.23,1231.06 L3055.95,1236.65 L3064.83,1242.9 L3065.82,1250.8" vector-effect="none" fill-rule="evenodd"/>

</g>
</g>
</svg>