<svg xmlns="http://www.w3.org/2000/svg" version="1.2" baseProfile="tiny" xmlns:inkscape="http://www.inkscape.org/namespaces/inkscape" width="315.045mm" viewBox="1399.5 469.555 62.96 86.899" height="227.076mm" xmlns:xlink="http://www.w3.org/1999/xlink" xmlns:cc="http://creativecommons.org/ns#">
<g stroke-linejoin="bevel" stroke="black" inkscape:label="Map 1: fid_64" fill-rule="evenodd" stroke-linecap="square" inkscape:groupmode="layer" stroke-width="1" fill="none" id="Map 1: fid_64">
  <g stroke-linejoin="bevel"  fill-opacity="1" stroke="#232323" font-style="normal" stroke-linecap="square" font-family="Noto Sans" font-size="41.6667" font-weight="400" stroke-width="1" fill="#c43c39" stroke-opacity="1">
   <path d="M1411.1,551.05 L1420.8,551.454 L1419.59,543.367 L1422.56,537.707 L1432.8,533.124 L1433.61,515.333 L1441.7,508.594 L1449.65,510.077 L1457.46,502.933 L1455.73,479.954 L1452.42,474.555 L1450.59,477.999 L1448.97,482.312 L1443.99,482.042 L1444.39,483.525 L1442.64,484.333 L1441.97,486.355 L1442.77,494.172 L1439.81,497.677 L1436.17,496.733 L1434.15,498.62 L1433.2,497.677 L1434.82,495.251 L1436.3,492.825 L1434.82,492.016 L1433.47,494.038 L1429.57,494.577 L1429.03,497.542 L1427.95,497.946 L1427.68,499.698 L1425.66,499.564 L1425.12,497.138 L1421.48,497.542 L1420.94,498.755 L1418.92,499.024 L1418.65,500.777 L1416.9,501.181 L1416.9,502.529 L1415.28,503.203 L1415.55,504.281 L1416.36,505.898 L1412.45,509.537 L1412.99,511.963 L1409.62,513.85 L1410.83,516.142 L1409.62,518.702 L1410.56,521.263 L1409.89,523.285 L1407.19,524.363 L1405.17,526.385 L1404.5,527.598 L1405.84,528.137 L1405.44,530.159 L1406.65,530.428 L1406.52,528.811 L1407.6,528.541 L1408.54,528.002 L1410.7,526.52 L1412.18,526.789 L1412.99,528.137 L1412.72,529.889 L1411.77,530.698 L1406.79,536.763 L1409.21,538.785 L1408.81,542.963 L1407.06,545.254 L1410.7,547.815 L1411.1,551.05" fill-rule="evenodd" vector-effect="none"/>

</g>
</g>
</svg>