<svg xmlns="http://www.w3.org/2000/svg" version="1.2" baseProfile="tiny" xmlns:inkscape="http://www.inkscape.org/namespaces/inkscape" width="315.045mm" viewBox="2436.39 3503.96 187.36 161.97" height="227.076mm" xmlns:xlink="http://www.w3.org/1999/xlink" xmlns:cc="http://creativecommons.org/ns#">
<g inkscape:groupmode="layer" stroke-width="1" stroke-linejoin="bevel" stroke-linecap="square" inkscape:label="Map 1: fid_77" fill="none" stroke="black" id="Map 1: fid_77" fill-rule="evenodd">
  <g stroke-width="1" stroke-linejoin="bevel" font-weight="400" stroke-linecap="square" font-size="83.3333" font-style="normal" fill="none" stroke-opacity="1" transform="matrix(1,0,0,1,0,0)" font-family="Noto Sans" stroke="#000000"/>
  <g stroke-width="1" stroke-linejoin="bevel" font-weight="400" stroke-linecap="square" font-size="83.3333" font-style="normal" fill="none" stroke-opacity="1" transform="matrix(1,0,0,1,0,0)" font-family="Noto Sans" stroke="#000000"/>
  <g stroke-width="1" stroke-linejoin="bevel" font-weight="400" stroke-linecap="square" font-size="83.3333" font-style="normal" fill="none" stroke-opacity="1" transform="matrix(23.6177,0,0,23.6177,23.6177,23.6177)" font-family="Noto Sans" stroke="#000000"/>
  <g stroke-width="1" stroke-linejoin="bevel" font-weight="400" stroke-linecap="square" font-size="83.3333" font-style="normal" fill="none" stroke-opacity="1" transform="matrix(23.6177,0,0,23.6177,23.6177,23.6177)" font-family="Noto Sans" stroke="#000000"/>
  <g fill-opacity="0" font-weight="400" font-size="83.3333" font-style="normal" fill="#000000" transform="matrix(0.999817,0,0,0.999817,23.6177,23.6177)" font-family="Noto Sans" stroke="none">
   <rect y="0" width="7395" height="5318" x="0"/>
  </g>
  <g stroke-width="1" stroke-linejoin="bevel" font-weight="400" stroke-linecap="square" font-size="83.3333" font-style="normal" fill="none" stroke-opacity="1" transform="matrix(0.999817,0,0,0.999817,23.6177,23.6177)" font-family="Noto Sans" stroke="#000000"/>
  <g fill-opacity="1" stroke-width="2" stroke-linejoin="bevel" font-weight="400" stroke-linecap="square" font-size="83.3333" font-style="normal" fill="#8d5a99" stroke-opacity="1" transform="matrix(0.999817,0,0,0.999817,23.6177,23.6177)" font-family="Noto Sans" stroke="#232323">
   <path d="M2416.39,3517.31 L2428.86,3520.31 L2436.07,3528.42 L2440.13,3529.03 L2446.89,3522.12 L2453.95,3524.37 L2460.71,3520.91 L2465.21,3517.76 L2476.48,3518.36 L2481.28,3515.96 L2487.44,3510.25 L2491.2,3513.55 L2492.7,3519.71 L2498.86,3521.06 L2499.31,3518.81 L2501.11,3518.81 L2501.56,3521.52 L2505.92,3520.31 L2509.67,3515.51 L2512.68,3515.51 L2510.58,3510.1 L2515.98,3504.99 L2515.83,3499.58 L2510.73,3499.89 L2510.58,3496.58 L2512.23,3495.23 L2511.03,3492.22 L2507.42,3491.92 L2503.82,3494.33 L2503.97,3497.18 L2501.56,3498.98 L2503.67,3501.69 L2501.41,3503.49 L2500.96,3505.29 L2497.66,3505.74 L2497.81,3487.72 L2510.73,3485.31 L2513.73,3488.17 L2525.15,3483.96 L2530.25,3484.56 L2537.61,3486.52 L2542.57,3490.72 L2547.08,3494.78 L2551.73,3500.04 L2555.94,3503.79 L2559.24,3507.85 L2561.95,3512.35 L2562.55,3517.31 L2562.85,3522.72 L2563.3,3527.07 L2562.85,3534.13 L2563.15,3540.59 L2561.65,3547.2 L2558.64,3559.97 L2563.75,3562.07 L2562.7,3563.72 L2559.09,3563.72 L2558.94,3570.03 L2555.34,3570.18 L2554.89,3578.59 L2549.18,3579.65 L2548.73,3584.6 L2538.81,3587.16 L2538.96,3590.91 L2541.37,3591.36 L2540.77,3597.97 L2531.3,3598.27 L2531.45,3601.73 L2529.95,3601.58 L2529.95,3598.27 L2525.45,3598.27 L2525.6,3596.62 L2529.2,3596.02 L2529.05,3591.36 L2523.79,3589.41 L2523.94,3586.1 L2520.04,3585.8 L2520.79,3579.2 L2513.43,3568.83 L2504.12,3568.38 L2484.44,3594.52 L2480.68,3595.87 L2480.98,3599.62 L2482.04,3603.68 L2473.47,3603.83 L2472.87,3600.07 L2467.17,3602.03 L2465.51,3605.93 L2458.9,3605.93 L2457.25,3600.83 L2452.6,3600.07 L2452.6,3590.91 L2445.84,3590.16 L2441.33,3583.4 L2436.22,3576.49 L2434.87,3570.93 L2434.27,3565.98 L2434.57,3562.52 L2435.62,3558.47 L2436.52,3552.76 L2434.42,3551.86 L2434.42,3544.95 L2424.06,3541.79 L2422.7,3530.68 L2418.8,3530.23 L2416.39,3517.31" vector-effect="none" fill-rule="evenodd"/>
  </g>
  <g stroke-width="1" stroke-linejoin="bevel" font-weight="400" stroke-linecap="square" font-size="83.3333" font-style="normal" fill="none" stroke-opacity="1" transform="matrix(0.999817,0,0,0.999817,23.6177,23.6177)" font-family="Noto Sans" stroke="#000000"/>
  <g stroke-width="1" stroke-linejoin="bevel" font-weight="400" stroke-linecap="square" font-size="83.3333" font-style="normal" fill="none" stroke-opacity="1" transform="matrix(23.6177,0,0,23.6177,23.6177,23.6177)" font-family="Noto Sans" stroke="#000000"/>
  <g stroke-width="1" stroke-linejoin="bevel" font-weight="400" stroke-linecap="square" font-size="83.3333" font-style="normal" fill="none" stroke-opacity="1" transform="matrix(23.6177,0,0,23.6177,23.6177,23.6177)" font-family="Noto Sans" stroke="#000000"/>
  <g stroke-width="1" stroke-linejoin="bevel" font-weight="400" stroke-linecap="square" font-size="83.3333" font-style="normal" fill="none" stroke-opacity="1" transform="matrix(23.6177,0,0,23.6177,23.6177,23.6177)" font-family="Noto Sans" stroke="#000000"/>
  <g stroke-width="1" stroke-linejoin="bevel" font-weight="400" stroke-linecap="square" font-size="83.3333" font-style="normal" fill="none" stroke-opacity="1" transform="matrix(1,0,0,1,0,0)" font-family="Noto Sans" stroke="#000000"/>
  <g stroke-width="1" stroke-linejoin="bevel" font-weight="400" stroke-linecap="square" font-size="83.3333" font-style="normal" fill="none" stroke-opacity="1" transform="matrix(23.6177,0,0,23.6177,23.6177,23.6177)" font-family="Noto Sans" stroke="#000000"/>
  <g stroke-width="1" stroke-linejoin="bevel" font-weight="400" stroke-linecap="square" font-size="83.3333" font-style="normal" fill="none" stroke-opacity="1" transform="matrix(23.6177,0,0,23.6177,23.6177,23.6177)" font-family="Noto Sans" stroke="#000000"/>
  <g stroke-width="1" stroke-linejoin="bevel" font-weight="400" stroke-linecap="square" font-size="83.3333" font-style="normal" fill="none" stroke-opacity="1" transform="matrix(1,0,0,1,0,0)" font-family="Noto Sans" stroke="#000000"/>
 </g>
 
</svg>