<svg xmlns="http://www.w3.org/2000/svg" version="1.2" baseProfile="tiny" xmlns:inkscape="http://www.inkscape.org/namespaces/inkscape" width="315.045mm" viewBox="2849.46 3596.53 171.36 143.57" height="227.076mm" xmlns:xlink="http://www.w3.org/1999/xlink" xmlns:cc="http://creativecommons.org/ns#">
<g inkscape:groupmode="layer" stroke-width="1" stroke-linejoin="bevel" stroke-linecap="square" inkscape:label="Map 1: fid_77" fill="none" stroke="black" id="Map 1: fid_77" fill-rule="evenodd">
  <g fill-opacity="1" stroke-width="2" stroke-linejoin="bevel" font-weight="400" stroke-linecap="square" font-size="83.3333" font-style="normal" fill="#beb297" stroke-opacity="1"  font-family="Noto Sans" stroke="#232323">
   <path d="M2854.46,3638.05 L2868.11,3641.34 L2876.01,3650.22 L2880.45,3650.88 L2887.85,3643.31 L2895.58,3645.78 L2902.98,3642 L2907.92,3638.54 L2920.25,3639.2 L2925.52,3636.57 L2932.26,3630.32 L2936.37,3633.94 L2938.02,3640.68 L2944.76,3642.16 L2945.26,3639.7 L2947.23,3639.7 L2947.72,3642.66 L2952.49,3641.34 L2956.61,3636.08 L2959.9,3636.08 L2957.59,3630.15 L2963.51,3624.56 L2963.35,3618.64 L2957.76,3618.97 L2957.59,3615.35 L2959.4,3613.87 L2958.09,3610.58 L2954.14,3610.25 L2950.19,3612.88 L2950.36,3616.01 L2947.72,3617.98 L2950.03,3620.94 L2947.56,3622.92 L2947.07,3624.89 L2943.45,3625.38 L2943.61,3605.65 L2957.76,3603.01 L2961.05,3606.14 L2973.55,3601.53 L2979.14,3602.19 L2987.2,3604.33 L2992.63,3608.94 L2997.56,3613.38 L3002.66,3619.13 L3007.27,3623.25 L3010.89,3627.69 L3013.85,3632.62 L3014.51,3638.05 L3014.84,3643.97 L3015.33,3648.74 L3014.84,3656.47 L3015.16,3663.55 L3013.52,3670.78 L3010.23,3684.76 L3015.82,3687.07 L3014.67,3688.88 L3010.72,3688.88 L3010.56,3695.79 L3006.61,3695.95 L3006.12,3705.16 L2999.87,3706.31 L2999.37,3711.74 L2988.52,3714.54 L2988.68,3718.65 L2991.31,3719.14 L2990.66,3726.38 L2980.29,3726.71 L2980.46,3730.49 L2978.81,3730.33 L2978.81,3726.71 L2973.88,3726.71 L2974.04,3724.9 L2977.99,3724.24 L2977.83,3719.14 L2972.07,3717 L2972.23,3713.39 L2967.96,3713.06 L2968.78,3705.82 L2960.72,3694.47 L2950.52,3693.98 L2928.97,3722.6 L2924.86,3724.08 L2925.19,3728.19 L2926.34,3732.63 L2916.96,3732.8 L2916.31,3728.68 L2910.06,3730.82 L2908.25,3735.1 L2901.01,3735.1 L2899.2,3729.51 L2894.1,3728.68 L2894.1,3718.65 L2886.7,3717.83 L2881.76,3710.42 L2876.17,3702.86 L2874.69,3696.77 L2874.03,3691.34 L2874.36,3687.56 L2875.51,3683.12 L2876.5,3676.87 L2874.2,3675.88 L2874.2,3668.32 L2862.85,3664.86 L2861.37,3652.69 L2857.09,3652.2 L2854.46,3638.05" vector-effect="none" fill-rule="evenodd"/>

</g>
</g>
</svg>