<svg xmlns="http://www.w3.org/2000/svg" version="1.2" baseProfile="tiny" xmlns:inkscape="http://www.inkscape.org/namespaces/inkscape" width="315.045mm" viewBox="1319.5 1509.22 76.11 64.72" height="227.076mm" xmlns:xlink="http://www.w3.org/1999/xlink" xmlns:cc="http://creativecommons.org/ns#">
<g stroke-linejoin="bevel" stroke="black" inkscape:label="Map 1: fid_77" fill-rule="evenodd" stroke-linecap="square" inkscape:groupmode="layer" stroke-width="1" fill="none" id="Map 1: fid_77">
  <g stroke-linejoin="bevel"  fill-opacity="1" stroke="#232323" font-style="normal" stroke-linecap="square" font-family="Noto Sans" font-size="41.6667" font-weight="400" stroke-width="1" fill="#e8718d" stroke-opacity="1">
   <path d="M1324.5,1529.18 L1330.09,1530.53 L1333.33,1534.16 L1335.15,1534.43 L1338.18,1531.33 L1341.35,1532.35 L1344.38,1530.79 L1346.4,1529.38 L1351.46,1529.65 L1353.61,1528.57 L1356.38,1526.01 L1358.06,1527.49 L1358.74,1530.26 L1361.5,1530.86 L1361.7,1529.85 L1362.51,1529.85 L1362.71,1531.06 L1364.67,1530.53 L1366.35,1528.37 L1367.7,1528.37 L1366.76,1525.94 L1369.18,1523.65 L1369.12,1521.22 L1366.82,1521.36 L1366.76,1519.88 L1367.5,1519.27 L1366.96,1517.92 L1365.34,1517.79 L1363.72,1518.87 L1363.79,1520.15 L1362.71,1520.96 L1363.66,1522.17 L1362.65,1522.98 L1362.44,1523.79 L1360.96,1523.99 L1361.03,1515.9 L1366.82,1514.82 L1368.17,1516.1 L1373.29,1514.22 L1375.59,1514.49 L1378.89,1515.36 L1381.11,1517.25 L1383.13,1519.07 L1385.22,1521.43 L1387.11,1523.11 L1388.59,1524.93 L1389.81,1526.95 L1390.08,1529.18 L1390.21,1531.6 L1390.41,1533.56 L1390.21,1536.73 L1390.35,1539.62 L1389.67,1542.59 L1388.32,1548.32 L1390.61,1549.26 L1390.14,1550 L1388.53,1550 L1388.46,1552.83 L1386.84,1552.9 L1386.64,1556.67 L1384.08,1557.15 L1383.88,1559.37 L1379.43,1560.52 L1379.49,1562.2 L1380.57,1562.4 L1380.3,1565.37 L1376.06,1565.5 L1376.12,1567.05 L1375.45,1566.99 L1375.45,1565.5 L1373.43,1565.5 L1373.5,1564.76 L1375.11,1564.49 L1375.05,1562.4 L1372.69,1561.53 L1372.75,1560.04 L1371,1559.91 L1371.34,1556.94 L1368.04,1552.29 L1363.86,1552.09 L1355.03,1563.82 L1353.34,1564.43 L1353.48,1566.11 L1353.95,1567.93 L1350.11,1568 L1349.84,1566.31 L1347.28,1567.19 L1346.54,1568.94 L1343.57,1568.94 L1342.83,1566.65 L1340.74,1566.31 L1340.74,1562.2 L1337.71,1561.86 L1335.69,1558.83 L1333.4,1555.73 L1332.79,1553.24 L1332.52,1551.01 L1332.65,1549.46 L1333.13,1547.64 L1333.53,1545.08 L1332.59,1544.68 L1332.59,1541.58 L1327.94,1540.16 L1327.33,1535.18 L1325.58,1534.97 L1324.5,1529.18" fill-rule="evenodd" vector-effect="none"/>

</g>
</g>
</svg>