<svg xmlns="http://www.w3.org/2000/svg" version="1.2" baseProfile="tiny" xmlns:inkscape="http://www.inkscape.org/namespaces/inkscape" width="315.045mm" viewBox="1461.77 1614.66 85.48 100.74" height="227.076mm" xmlns:xlink="http://www.w3.org/1999/xlink" xmlns:cc="http://creativecommons.org/ns#">
<g stroke-linejoin="bevel" stroke="black" inkscape:label="Map 1: fid_81" fill-rule="evenodd" stroke-linecap="square" inkscape:groupmode="layer" stroke-width="1" fill="none" id="Map 1: fid_81">
  <g stroke-linejoin="bevel"  fill-opacity="1" stroke="#232323" font-style="normal" stroke-linecap="square" font-family="Noto Sans" font-size="41.6667" font-weight="400" stroke-width="1" fill="#91522d" stroke-opacity="1">
   <path d="M1482.95,1683.68 L1489.82,1684.25 L1491.98,1686.82 L1490.76,1692.34 L1492.79,1696.39 L1496.97,1699.76 L1498.99,1700.29 L1499.53,1699.62 L1501.41,1695.85 L1505.19,1695.85 L1507.34,1697.73 L1508.29,1701.64 L1513.27,1710.4 L1516.51,1710.13 L1518.8,1707.17 L1522.17,1704.34 L1522.44,1702.32 L1523.52,1698 L1524.33,1695.71 L1527.83,1694.63 L1531.07,1695.44 L1535.38,1697.33 L1537.67,1696.93 L1539.15,1699.62 L1537,1671.85 L1538.48,1665.25 L1542.25,1647.86 L1537.67,1635.06 L1532.95,1634.89 L1532.82,1632.33 L1527.43,1631.92 L1527.02,1628.82 L1524.19,1630.44 L1525.14,1627.47 L1526.21,1627.2 L1526.62,1625.59 L1525.27,1625.59 L1524.6,1626.4 L1524.06,1630.03 L1521.5,1627.34 L1520.01,1624.64 L1520.28,1619.66 L1517.86,1619.79 L1518.13,1621.68 L1516.37,1621.68 L1516.37,1627.74 L1515.03,1630.17 L1511.66,1631.65 L1509.5,1631.38 L1508.69,1630.84 L1507.75,1633 L1507.48,1635.97 L1505.05,1637.45 L1503.17,1636.5 L1502.49,1634.75 L1502.36,1633 L1501.01,1632.33 L1498.72,1634.48 L1496.7,1634.89 L1495.62,1634.08 L1494.27,1635.83 L1492.38,1635.97 L1491.03,1635.29 L1489.82,1637.99 L1491.57,1639.47 L1490.63,1642.97 L1489.42,1646.61 L1485.78,1648.77 L1481.06,1646.08 L1479.04,1645.54 L1476.48,1646.88 L1476.61,1649.71 L1476.75,1651.6 L1474.86,1654.16 L1472.43,1654.84 L1471.35,1658.48 L1469.2,1659.96 L1467.31,1662.38 L1466.91,1664.54 L1466.77,1667.37 L1466.77,1669.93 L1468.12,1673.17 L1477.56,1674.11 L1479.44,1675.32 L1479.31,1679.1 L1482.95,1683.68" fill-rule="evenodd" vector-effect="none"/>

</g>
</g>
</svg>