<svg xmlns="http://www.w3.org/2000/svg" version="1.2" baseProfile="tiny" xmlns:inkscape="http://www.inkscape.org/namespaces/inkscape" width="315.045mm" viewBox="3221.69 3878.88 224.23 261.48" height="227.076mm" xmlns:xlink="http://www.w3.org/1999/xlink" xmlns:cc="http://creativecommons.org/ns#">
<g inkscape:groupmode="layer" stroke-width="1" stroke-linejoin="bevel" stroke-linecap="square" inkscape:label="Map 1: fid_81" fill="none" stroke="black" id="Map 1: fid_81" fill-rule="evenodd">
  <g stroke-width="1" stroke-linejoin="bevel" font-weight="400" stroke-linecap="square" font-size="83.3333" font-style="normal" fill="none" stroke-opacity="1" transform="matrix(1,0,0,1,0,0)" font-family="Noto Sans" stroke="#000000"/>
  <g stroke-width="1" stroke-linejoin="bevel" font-weight="400" stroke-linecap="square" font-size="83.3333" font-style="normal" fill="none" stroke-opacity="1" transform="matrix(1,0,0,1,0,0)" font-family="Noto Sans" stroke="#000000"/>
  <g stroke-width="1" stroke-linejoin="bevel" font-weight="400" stroke-linecap="square" font-size="83.3333" font-style="normal" fill="none" stroke-opacity="1" transform="matrix(23.619,0,0,23.619,-728.486,-229.753)" font-family="Noto Sans" stroke="#000000"/>
  <g stroke-width="1" stroke-linejoin="bevel" font-weight="400" stroke-linecap="square" font-size="83.3333" font-style="normal" fill="none" stroke-opacity="1" transform="matrix(23.619,0,0,23.619,-728.486,-229.753)" font-family="Noto Sans" stroke="#000000"/>
  <g fill-opacity="0" font-weight="400" font-size="83.3333" font-style="normal" fill="#000000" transform="matrix(0.999873,0,0,0.999873,-728.486,-229.753)" font-family="Noto Sans" stroke="none">
   <rect y="0" width="8098" height="5627" x="0"/>
  </g>
  <g stroke-width="1" stroke-linejoin="bevel" font-weight="400" stroke-linecap="square" font-size="83.3333" font-style="normal" fill="none" stroke-opacity="1" transform="matrix(0.999873,0,0,0.999873,-728.486,-229.753)" font-family="Noto Sans" stroke="#000000"/>
  <g fill-opacity="1" stroke-width="2" stroke-linejoin="bevel" font-weight="400" stroke-linecap="square" font-size="83.3333" font-style="normal" fill="#ff9e17" stroke-opacity="1" transform="matrix(0.999873,0,0,0.999873,-728.486,-229.753)" font-family="Noto Sans" stroke="#232323">
   <path d="M3241.17,4015.14 L3257.95,4016.54 L3263.21,4022.79 L3260.25,4036.28 L3265.19,4046.15 L3275.38,4054.37 L3280.32,4055.69 L3281.63,4054.04 L3286.24,4044.83 L3295.45,4044.83 L3300.72,4049.43 L3303.02,4058.98 L3315.19,4080.36 L3323.09,4079.7 L3328.68,4072.46 L3336.9,4065.55 L3337.56,4060.62 L3340.19,4050.09 L3342.17,4044.5 L3350.72,4041.87 L3358.62,4043.84 L3369.14,4048.45 L3374.73,4047.46 L3378.35,4054.04 L3373.09,3986.27 L3376.71,3970.15 L3385.92,3927.71 L3374.73,3896.46 L3363.22,3896.05 L3362.89,3889.8 L3349.73,3888.81 L3348.75,3881.25 L3341.84,3885.19 L3344.14,3877.96 L3346.77,3877.3 L3347.76,3873.35 L3344.47,3873.35 L3342.82,3875.32 L3341.51,3884.21 L3335.26,3877.63 L3331.64,3871.05 L3332.3,3858.88 L3326.38,3859.2 L3327.03,3863.81 L3322.76,3863.81 L3322.76,3878.61 L3319.47,3884.54 L3311.24,3888.15 L3305.98,3887.5 L3304.01,3886.18 L3301.7,3891.44 L3301.04,3898.68 L3295.12,3902.3 L3290.52,3900 L3288.87,3895.72 L3288.54,3891.44 L3285.25,3889.8 L3279.66,3895.06 L3274.73,3896.05 L3272.09,3894.08 L3268.8,3898.35 L3264.2,3898.68 L3260.91,3897.04 L3257.95,3903.62 L3262.23,3907.23 L3259.92,3915.79 L3256.96,3924.67 L3248.08,3929.93 L3236.57,3923.35 L3231.63,3922.04 L3225.38,3925.33 L3225.71,3932.24 L3226.04,3936.84 L3221.43,3943.09 L3215.51,3944.74 L3212.88,3953.62 L3207.62,3957.24 L3203.01,3963.16 L3202.02,3968.42 L3201.69,3975.33 L3201.69,3981.58 L3204.98,3989.48 L3228.01,3991.78 L3232.62,3994.74 L3232.29,4003.95 L3241.17,4015.14" vector-effect="none" fill-rule="evenodd"/>
  </g>
  <g stroke-width="1" stroke-linejoin="bevel" font-weight="400" stroke-linecap="square" font-size="83.3333" font-style="normal" fill="none" stroke-opacity="1" transform="matrix(0.999873,0,0,0.999873,-728.486,-229.753)" font-family="Noto Sans" stroke="#000000"/>
  <g stroke-width="1" stroke-linejoin="bevel" font-weight="400" stroke-linecap="square" font-size="83.3333" font-style="normal" fill="none" stroke-opacity="1" transform="matrix(23.619,0,0,23.619,-728.486,-229.753)" font-family="Noto Sans" stroke="#000000"/>
  <g stroke-width="1" stroke-linejoin="bevel" font-weight="400" stroke-linecap="square" font-size="83.3333" font-style="normal" fill="none" stroke-opacity="1" transform="matrix(23.619,0,0,23.619,-728.486,-229.753)" font-family="Noto Sans" stroke="#000000"/>
  <g stroke-width="1" stroke-linejoin="bevel" font-weight="400" stroke-linecap="square" font-size="83.3333" font-style="normal" fill="none" stroke-opacity="1" transform="matrix(23.619,0,0,23.619,-728.486,-229.753)" font-family="Noto Sans" stroke="#000000"/>
  <g stroke-width="1" stroke-linejoin="bevel" font-weight="400" stroke-linecap="square" font-size="83.3333" font-style="normal" fill="none" stroke-opacity="1" transform="matrix(1,0,0,1,0,0)" font-family="Noto Sans" stroke="#000000"/>
  <g stroke-width="1" stroke-linejoin="bevel" font-weight="400" stroke-linecap="square" font-size="83.3333" font-style="normal" fill="none" stroke-opacity="1" transform="matrix(23.619,0,0,23.619,-728.486,-229.753)" font-family="Noto Sans" stroke="#000000"/>
  <g stroke-width="1" stroke-linejoin="bevel" font-weight="400" stroke-linecap="square" font-size="83.3333" font-style="normal" fill="none" stroke-opacity="1" transform="matrix(23.619,0,0,23.619,-728.486,-229.753)" font-family="Noto Sans" stroke="#000000"/>
  <g stroke-width="1" stroke-linejoin="bevel" font-weight="400" stroke-linecap="square" font-size="83.3333" font-style="normal" fill="none" stroke-opacity="1" transform="matrix(1,0,0,1,0,0)" font-family="Noto Sans" stroke="#000000"/>
 </g>
 
</svg>