<svg xmlns="http://www.w3.org/2000/svg" version="1.2" baseProfile="tiny" xmlns:inkscape="http://www.inkscape.org/namespaces/inkscape" width="315.045mm" viewBox="2753.49 3738.96 208.23 242.26" height="227.076mm" xmlns:xlink="http://www.w3.org/1999/xlink" xmlns:cc="http://creativecommons.org/ns#">
<g inkscape:groupmode="layer" stroke-width="1" stroke-linejoin="bevel" stroke-linecap="square" inkscape:label="Map 1: fid_81" fill="none" stroke="black" id="Map 1: fid_81" fill-rule="evenodd">
  <g stroke-width="1" stroke-linejoin="bevel" font-weight="400" stroke-linecap="square" font-size="83.3333" font-style="normal" fill="none" stroke-opacity="1" transform="matrix(1,0,0,1,0,0)" font-family="Noto Sans" stroke="#000000"/>
  <g stroke-width="1" stroke-linejoin="bevel" font-weight="400" stroke-linecap="square" font-size="83.3333" font-style="normal" fill="none" stroke-opacity="1" transform="matrix(1,0,0,1,0,0)" font-family="Noto Sans" stroke="#000000"/>
  <g stroke-width="1" stroke-linejoin="bevel" font-weight="400" stroke-linecap="square" font-size="83.3333" font-style="normal" fill="none" stroke-opacity="1" transform="matrix(23.6177,0,0,23.6177,23.6177,23.6177)" font-family="Noto Sans" stroke="#000000"/>
  <g stroke-width="1" stroke-linejoin="bevel" font-weight="400" stroke-linecap="square" font-size="83.3333" font-style="normal" fill="none" stroke-opacity="1" transform="matrix(23.6177,0,0,23.6177,23.6177,23.6177)" font-family="Noto Sans" stroke="#000000"/>
  <g fill-opacity="0" font-weight="400" font-size="83.3333" font-style="normal" fill="#000000" transform="matrix(0.999817,0,0,0.999817,23.6177,23.6177)" font-family="Noto Sans" stroke="none">
   <rect y="0" width="7395" height="5318" x="0"/>
  </g>
  <g stroke-width="1" stroke-linejoin="bevel" font-weight="400" stroke-linecap="square" font-size="83.3333" font-style="normal" fill="none" stroke-opacity="1" transform="matrix(0.999817,0,0,0.999817,23.6177,23.6177)" font-family="Noto Sans" stroke="#000000"/>
  <g fill-opacity="1" stroke-width="2" stroke-linejoin="bevel" font-weight="400" stroke-linecap="square" font-size="83.3333" font-style="normal" fill="#beb297" stroke-opacity="1" transform="matrix(0.999817,0,0,0.999817,23.6177,23.6177)" font-family="Noto Sans" stroke="#232323">
   <path d="M2769.54,3861.66 L2784.86,3862.94 L2789.66,3868.65 L2786.96,3880.96 L2791.47,3889.98 L2800.78,3897.49 L2805.28,3898.69 L2806.49,3897.19 L2810.69,3888.78 L2819.1,3888.78 L2823.91,3892.98 L2826.01,3901.69 L2837.13,3921.22 L2844.34,3920.62 L2849.45,3914.01 L2856.96,3907.7 L2857.56,3903.2 L2859.96,3893.58 L2861.76,3888.47 L2869.57,3886.07 L2876.78,3887.87 L2886.4,3892.08 L2891.5,3891.18 L2894.81,3897.19 L2890,3835.3 L2893.31,3820.58 L2901.72,3781.83 L2891.5,3753.29 L2880.99,3752.91 L2880.69,3747.2 L2868.67,3746.3 L2867.77,3739.39 L2861.46,3743 L2863.57,3736.39 L2865.97,3735.79 L2866.87,3732.18 L2863.87,3732.18 L2862.36,3733.99 L2861.16,3742.1 L2855.45,3736.09 L2852.15,3730.08 L2852.75,3718.96 L2847.34,3719.26 L2847.94,3723.47 L2844.04,3723.47 L2844.04,3736.99 L2841.03,3742.4 L2833.52,3745.7 L2828.72,3745.1 L2826.91,3743.9 L2824.81,3748.71 L2824.21,3755.31 L2818.8,3758.62 L2814.6,3756.52 L2813.1,3752.61 L2812.8,3748.71 L2809.79,3747.2 L2804.68,3752.01 L2800.18,3752.91 L2797.77,3751.11 L2794.77,3755.01 L2790.56,3755.31 L2787.56,3753.81 L2784.86,3759.82 L2788.76,3763.13 L2786.66,3770.94 L2783.96,3779.05 L2775.84,3783.85 L2765.33,3777.85 L2760.82,3776.64 L2755.12,3779.65 L2755.42,3785.96 L2755.72,3790.16 L2751.51,3795.87 L2746.1,3797.37 L2743.7,3805.48 L2738.89,3808.79 L2734.69,3814.2 L2733.79,3819 L2733.49,3825.31 L2733.49,3831.02 L2736.49,3838.23 L2757.52,3840.33 L2761.72,3843.04 L2761.42,3851.45 L2769.54,3861.66" vector-effect="none" fill-rule="evenodd"/>
  </g>
  <g stroke-width="1" stroke-linejoin="bevel" font-weight="400" stroke-linecap="square" font-size="83.3333" font-style="normal" fill="none" stroke-opacity="1" transform="matrix(0.999817,0,0,0.999817,23.6177,23.6177)" font-family="Noto Sans" stroke="#000000"/>
  <g stroke-width="1" stroke-linejoin="bevel" font-weight="400" stroke-linecap="square" font-size="83.3333" font-style="normal" fill="none" stroke-opacity="1" transform="matrix(23.6177,0,0,23.6177,23.6177,23.6177)" font-family="Noto Sans" stroke="#000000"/>
  <g stroke-width="1" stroke-linejoin="bevel" font-weight="400" stroke-linecap="square" font-size="83.3333" font-style="normal" fill="none" stroke-opacity="1" transform="matrix(23.6177,0,0,23.6177,23.6177,23.6177)" font-family="Noto Sans" stroke="#000000"/>
  <g stroke-width="1" stroke-linejoin="bevel" font-weight="400" stroke-linecap="square" font-size="83.3333" font-style="normal" fill="none" stroke-opacity="1" transform="matrix(23.6177,0,0,23.6177,23.6177,23.6177)" font-family="Noto Sans" stroke="#000000"/>
  <g stroke-width="1" stroke-linejoin="bevel" font-weight="400" stroke-linecap="square" font-size="83.3333" font-style="normal" fill="none" stroke-opacity="1" transform="matrix(1,0,0,1,0,0)" font-family="Noto Sans" stroke="#000000"/>
  <g stroke-width="1" stroke-linejoin="bevel" font-weight="400" stroke-linecap="square" font-size="83.3333" font-style="normal" fill="none" stroke-opacity="1" transform="matrix(23.6177,0,0,23.6177,23.6177,23.6177)" font-family="Noto Sans" stroke="#000000"/>
  <g stroke-width="1" stroke-linejoin="bevel" font-weight="400" stroke-linecap="square" font-size="83.3333" font-style="normal" fill="none" stroke-opacity="1" transform="matrix(23.6177,0,0,23.6177,23.6177,23.6177)" font-family="Noto Sans" stroke="#000000"/>
  <g stroke-width="1" stroke-linejoin="bevel" font-weight="400" stroke-linecap="square" font-size="83.3333" font-style="normal" fill="none" stroke-opacity="1" transform="matrix(1,0,0,1,0,0)" font-family="Noto Sans" stroke="#000000"/>
 </g>
 
</svg>