<svg xmlns="http://www.w3.org/2000/svg" version="1.2" baseProfile="tiny" xmlns:inkscape="http://www.inkscape.org/namespaces/inkscape" width="315.045mm" viewBox="2665.84 3881.66 308.87 382.52" height="227.076mm" xmlns:xlink="http://www.w3.org/1999/xlink" xmlns:cc="http://creativecommons.org/ns#">
<g inkscape:groupmode="layer" stroke-width="1" stroke-linejoin="bevel" stroke-linecap="square" inkscape:label="Map 1: fid_93" fill="none" stroke="black" id="Map 1: fid_93" fill-rule="evenodd">
  <g stroke-width="1" stroke-linejoin="bevel" font-weight="400" stroke-linecap="square" font-size="83.3333" font-style="normal" fill="none" stroke-opacity="1" transform="matrix(1,0,0,1,0,0)" font-family="Noto Sans" stroke="#000000"/>
  <g stroke-width="1" stroke-linejoin="bevel" font-weight="400" stroke-linecap="square" font-size="83.3333" font-style="normal" fill="none" stroke-opacity="1" transform="matrix(1,0,0,1,0,0)" font-family="Noto Sans" stroke="#000000"/>
  <g stroke-width="1" stroke-linejoin="bevel" font-weight="400" stroke-linecap="square" font-size="83.3333" font-style="normal" fill="none" stroke-opacity="1" transform="matrix(23.6177,0,0,23.6177,23.6177,23.6177)" font-family="Noto Sans" stroke="#000000"/>
  <g stroke-width="1" stroke-linejoin="bevel" font-weight="400" stroke-linecap="square" font-size="83.3333" font-style="normal" fill="none" stroke-opacity="1" transform="matrix(23.6177,0,0,23.6177,23.6177,23.6177)" font-family="Noto Sans" stroke="#000000"/>
  <g fill-opacity="0" font-weight="400" font-size="83.3333" font-style="normal" fill="#000000" transform="matrix(0.999817,0,0,0.999817,23.6177,23.6177)" font-family="Noto Sans" stroke="none">
   <rect y="0" width="7395" height="5318" x="0"/>
  </g>
  <g stroke-width="1" stroke-linejoin="bevel" font-weight="400" stroke-linecap="square" font-size="83.3333" font-style="normal" fill="none" stroke-opacity="1" transform="matrix(0.999817,0,0,0.999817,23.6177,23.6177)" font-family="Noto Sans" stroke="#000000"/>
  <g fill-opacity="1" stroke-width="2" stroke-linejoin="bevel" font-weight="400" stroke-linecap="square" font-size="83.3333" font-style="normal" fill="#e77148" stroke-opacity="1" transform="matrix(0.999817,0,0,0.999817,23.6177,23.6177)" font-family="Noto Sans" stroke="#232323">
   <path d="M2678.51,4010.52 L2675.28,4030.76 L2655.15,4048.78 L2654.55,4069.21 L2649.44,4087.24 L2645.84,4105.26 L2657.25,4110.67 L2658.76,4116.38 L2656.95,4119.68 L2662.36,4119.38 L2671.07,4123.59 L2660.56,4142.52 L2660.26,4150.63 L2664.76,4155.73 L2681.59,4166.25 L2685.19,4175.26 L2699.61,4178.87 L2708.93,4172.56 L2713.43,4173.16 L2716.74,4179.47 L2719.74,4181.57 L2724.25,4177.06 L2729.05,4169.85 L2758.49,4188.48 L2757.59,4198.09 L2778.62,4204.18 L2788.54,4192.76 L2801.75,4193.96 L2807.76,4178.64 L2816.17,4177.14 L2816.48,4178.34 L2819.18,4177.44 L2825.49,4170.53 L2836.6,4155.51 L2842.91,4150.1 L2853.43,4154.91 L2858.53,4148.9 L2872.65,4147.1 L2880.46,4129.37 L2876.86,4106.54 L2886.17,4059.37 L2885.57,4048.56 L2900.59,4024.98 L2906,3977.51 L2912.01,3948.67 L2911.41,3938.46 L2914.71,3932.45 L2913.43,3911.91 L2906.53,3915.21 L2897.81,3913.71 L2892.11,3907.1 L2892.41,3899.89 L2894.81,3897.19 L2891.5,3891.18 L2886.4,3892.08 L2869.57,3886.07 L2861.76,3888.47 L2859.96,3893.58 L2857.56,3903.2 L2856.96,3907.7 L2849.45,3914.01 L2844.34,3920.62 L2837.13,3921.22 L2826.01,3901.69 L2823.91,3892.98 L2819.1,3888.78 L2810.69,3888.78 L2806.49,3897.19 L2805.28,3898.69 L2800.78,3897.49 L2791.47,3889.98 L2786.96,3880.96 L2789.66,3868.65 L2784.86,3862.94 L2769.54,3861.66 L2759.32,3867.67 L2758.42,3894.11 L2748.21,3897.11 L2742.8,3908.23 L2736.49,3900.72 L2731.08,3904.92 L2727.18,3915.14 L2722.67,3917.54 L2720.27,3929.86 L2716.66,3931.96 L2706.82,3958.83 L2695.63,3951.79 L2689.02,3952.99 L2675.2,3993.7 L2678.51,4010.52" vector-effect="none" fill-rule="evenodd"/>
  </g>
  <g stroke-width="1" stroke-linejoin="bevel" font-weight="400" stroke-linecap="square" font-size="83.3333" font-style="normal" fill="none" stroke-opacity="1" transform="matrix(0.999817,0,0,0.999817,23.6177,23.6177)" font-family="Noto Sans" stroke="#000000"/>
  <g stroke-width="1" stroke-linejoin="bevel" font-weight="400" stroke-linecap="square" font-size="83.3333" font-style="normal" fill="none" stroke-opacity="1" transform="matrix(23.6177,0,0,23.6177,23.6177,23.6177)" font-family="Noto Sans" stroke="#000000"/>
  <g stroke-width="1" stroke-linejoin="bevel" font-weight="400" stroke-linecap="square" font-size="83.3333" font-style="normal" fill="none" stroke-opacity="1" transform="matrix(23.6177,0,0,23.6177,23.6177,23.6177)" font-family="Noto Sans" stroke="#000000"/>
  <g stroke-width="1" stroke-linejoin="bevel" font-weight="400" stroke-linecap="square" font-size="83.3333" font-style="normal" fill="none" stroke-opacity="1" transform="matrix(23.6177,0,0,23.6177,23.6177,23.6177)" font-family="Noto Sans" stroke="#000000"/>
  <g stroke-width="1" stroke-linejoin="bevel" font-weight="400" stroke-linecap="square" font-size="83.3333" font-style="normal" fill="none" stroke-opacity="1" transform="matrix(1,0,0,1,0,0)" font-family="Noto Sans" stroke="#000000"/>
  <g stroke-width="1" stroke-linejoin="bevel" font-weight="400" stroke-linecap="square" font-size="83.3333" font-style="normal" fill="none" stroke-opacity="1" transform="matrix(23.6177,0,0,23.6177,23.6177,23.6177)" font-family="Noto Sans" stroke="#000000"/>
  <g stroke-width="1" stroke-linejoin="bevel" font-weight="400" stroke-linecap="square" font-size="83.3333" font-style="normal" fill="none" stroke-opacity="1" transform="matrix(23.6177,0,0,23.6177,23.6177,23.6177)" font-family="Noto Sans" stroke="#000000"/>
  <g stroke-width="1" stroke-linejoin="bevel" font-weight="400" stroke-linecap="square" font-size="83.3333" font-style="normal" fill="none" stroke-opacity="1" transform="matrix(1,0,0,1,0,0)" font-family="Noto Sans" stroke="#000000"/>
 </g>
 
</svg>