<svg xmlns="http://www.w3.org/2000/svg" version="1.2" baseProfile="tiny" xmlns:inkscape="http://www.inkscape.org/namespaces/inkscape" width="315.045mm" viewBox="3125.71 4035.14 334.44 415.07" height="227.076mm" xmlns:xlink="http://www.w3.org/1999/xlink" xmlns:cc="http://creativecommons.org/ns#">
<g inkscape:groupmode="layer" stroke-width="1" stroke-linejoin="bevel" stroke-linecap="square" inkscape:label="Map 1: fid_93" fill="none" stroke="black" id="Map 1: fid_93" fill-rule="evenodd">
  <g stroke-width="1" stroke-linejoin="bevel" font-weight="400" stroke-linecap="square" font-size="83.3333" font-style="normal" fill="none" stroke-opacity="1" transform="matrix(1,0,0,1,0,0)" font-family="Noto Sans" stroke="#000000"/>
  <g stroke-width="1" stroke-linejoin="bevel" font-weight="400" stroke-linecap="square" font-size="83.3333" font-style="normal" fill="none" stroke-opacity="1" transform="matrix(1,0,0,1,0,0)" font-family="Noto Sans" stroke="#000000"/>
  <g stroke-width="1" stroke-linejoin="bevel" font-weight="400" stroke-linecap="square" font-size="83.3333" font-style="normal" fill="none" stroke-opacity="1" transform="matrix(23.619,0,0,23.619,-728.486,-229.753)" font-family="Noto Sans" stroke="#000000"/>
  <g stroke-width="1" stroke-linejoin="bevel" font-weight="400" stroke-linecap="square" font-size="83.3333" font-style="normal" fill="none" stroke-opacity="1" transform="matrix(23.619,0,0,23.619,-728.486,-229.753)" font-family="Noto Sans" stroke="#000000"/>
  <g fill-opacity="0" font-weight="400" font-size="83.3333" font-style="normal" fill="#000000" transform="matrix(0.999873,0,0,0.999873,-728.486,-229.753)" font-family="Noto Sans" stroke="none">
   <rect y="0" width="8098" height="5627" x="0"/>
  </g>
  <g stroke-width="1" stroke-linejoin="bevel" font-weight="400" stroke-linecap="square" font-size="83.3333" font-style="normal" fill="none" stroke-opacity="1" transform="matrix(0.999873,0,0,0.999873,-728.486,-229.753)" font-family="Noto Sans" stroke="#000000"/>
  <g fill-opacity="1" stroke-width="2" stroke-linejoin="bevel" font-weight="400" stroke-linecap="square" font-size="83.3333" font-style="normal" fill="#a47158" stroke-opacity="1" transform="matrix(0.999873,0,0,0.999873,-728.486,-229.753)" font-family="Noto Sans" stroke="#232323">
   <path d="M3141.49,4178.15 L3137.95,4200.31 L3115.91,4220.05 L3115.26,4242.42 L3109.66,4262.16 L3105.71,4281.9 L3118.22,4287.82 L3119.86,4294.07 L3117.89,4297.69 L3123.81,4297.36 L3133.35,4301.97 L3121.83,4322.69 L3121.51,4331.57 L3126.44,4337.17 L3144.86,4348.68 L3148.81,4358.55 L3164.6,4362.5 L3174.8,4355.59 L3179.73,4356.25 L3183.35,4363.15 L3186.64,4365.46 L3191.58,4360.52 L3196.84,4352.63 L3229.08,4373.02 L3228.09,4383.55 L3251.12,4390.21 L3261.98,4377.71 L3276.45,4379.03 L3283.03,4362.25 L3292.24,4360.61 L3292.57,4361.92 L3295.53,4360.93 L3302.44,4353.37 L3314.61,4336.92 L3321.52,4331 L3333.04,4336.26 L3338.63,4329.68 L3354.09,4327.71 L3362.65,4308.3 L3358.7,4283.3 L3368.9,4231.65 L3368.24,4219.8 L3384.69,4193.98 L3390.61,4142 L3397.19,4110.42 L3396.53,4099.23 L3400.15,4092.65 L3398.75,4070.16 L3391.18,4073.78 L3381.64,4072.13 L3375.39,4064.9 L3375.72,4057 L3378.35,4054.04 L3374.73,4047.46 L3369.14,4048.45 L3350.72,4041.87 L3342.17,4044.5 L3340.19,4050.09 L3337.56,4060.62 L3336.9,4065.55 L3328.68,4072.46 L3323.09,4079.7 L3315.19,4080.36 L3303.02,4058.98 L3300.72,4049.43 L3295.45,4044.83 L3286.24,4044.83 L3281.63,4054.04 L3280.32,4055.69 L3275.38,4054.37 L3265.19,4046.15 L3260.25,4036.28 L3263.21,4022.79 L3257.95,4016.54 L3241.17,4015.14 L3229.99,4021.72 L3229,4050.67 L3217.81,4053.96 L3211.89,4066.13 L3204.98,4057.91 L3199.06,4062.51 L3194.79,4073.7 L3189.85,4076.33 L3187.22,4089.82 L3183.27,4092.12 L3172.5,4121.54 L3160.24,4113.83 L3153.01,4115.15 L3137.87,4159.72 L3141.49,4178.15" vector-effect="none" fill-rule="evenodd"/>
  </g>
  <g stroke-width="1" stroke-linejoin="bevel" font-weight="400" stroke-linecap="square" font-size="83.3333" font-style="normal" fill="none" stroke-opacity="1" transform="matrix(0.999873,0,0,0.999873,-728.486,-229.753)" font-family="Noto Sans" stroke="#000000"/>
  <g stroke-width="1" stroke-linejoin="bevel" font-weight="400" stroke-linecap="square" font-size="83.3333" font-style="normal" fill="none" stroke-opacity="1" transform="matrix(23.619,0,0,23.619,-728.486,-229.753)" font-family="Noto Sans" stroke="#000000"/>
  <g stroke-width="1" stroke-linejoin="bevel" font-weight="400" stroke-linecap="square" font-size="83.3333" font-style="normal" fill="none" stroke-opacity="1" transform="matrix(23.619,0,0,23.619,-728.486,-229.753)" font-family="Noto Sans" stroke="#000000"/>
  <g stroke-width="1" stroke-linejoin="bevel" font-weight="400" stroke-linecap="square" font-size="83.3333" font-style="normal" fill="none" stroke-opacity="1" transform="matrix(23.619,0,0,23.619,-728.486,-229.753)" font-family="Noto Sans" stroke="#000000"/>
  <g stroke-width="1" stroke-linejoin="bevel" font-weight="400" stroke-linecap="square" font-size="83.3333" font-style="normal" fill="none" stroke-opacity="1" transform="matrix(1,0,0,1,0,0)" font-family="Noto Sans" stroke="#000000"/>
  <g stroke-width="1" stroke-linejoin="bevel" font-weight="400" stroke-linecap="square" font-size="83.3333" font-style="normal" fill="none" stroke-opacity="1" transform="matrix(23.619,0,0,23.619,-728.486,-229.753)" font-family="Noto Sans" stroke="#000000"/>
  <g stroke-width="1" stroke-linejoin="bevel" font-weight="400" stroke-linecap="square" font-size="83.3333" font-style="normal" fill="none" stroke-opacity="1" transform="matrix(23.619,0,0,23.619,-728.486,-229.753)" font-family="Noto Sans" stroke="#000000"/>
  <g stroke-width="1" stroke-linejoin="bevel" font-weight="400" stroke-linecap="square" font-size="83.3333" font-style="normal" fill="none" stroke-opacity="1" transform="matrix(1,0,0,1,0,0)" font-family="Noto Sans" stroke="#000000"/>
 </g>
 
</svg>