<svg xmlns="http://www.w3.org/2000/svg" version="1.2" baseProfile="tiny" xmlns:inkscape="http://www.inkscape.org/namespaces/inkscape" width="315.045mm" viewBox="1422.45 1678.68 130.63 163.68" height="227.076mm" xmlns:xlink="http://www.w3.org/1999/xlink" xmlns:cc="http://creativecommons.org/ns#">
<g stroke-linejoin="bevel" stroke="black" inkscape:label="Map 1: fid_93" fill-rule="evenodd" stroke-linecap="square" inkscape:groupmode="layer" stroke-width="1" fill="none" id="Map 1: fid_93">
  <g stroke-linejoin="bevel"  fill-opacity="1" stroke="#232323" font-style="normal" stroke-linecap="square" font-family="Noto Sans" font-size="41.6667" font-weight="400" stroke-width="1" fill="#987db7" stroke-opacity="1">
   <path d="M1442.1,1750.47 L1440.66,1759.55 L1431.62,1767.64 L1431.36,1776.81 L1429.06,1784.89 L1427.45,1792.98 L1432.57,1795.41 L1433.24,1797.97 L1432.43,1799.45 L1434.86,1799.32 L1438.77,1801.2 L1434.05,1809.69 L1433.92,1813.33 L1435.94,1815.63 L1443.49,1820.34 L1445.1,1824.39 L1451.57,1826 L1455.75,1823.17 L1457.77,1823.44 L1459.26,1826.27 L1460.61,1827.22 L1462.63,1825.2 L1464.78,1821.96 L1477.99,1830.32 L1477.59,1834.63 L1487.02,1837.36 L1491.47,1832.24 L1497.4,1832.78 L1500.1,1825.9 L1503.87,1825.23 L1504.01,1825.77 L1505.22,1825.36 L1508.05,1822.26 L1513.04,1815.52 L1515.87,1813.1 L1520.59,1815.26 L1522.88,1812.56 L1529.21,1811.75 L1532.72,1803.8 L1531.1,1793.55 L1535.28,1772.39 L1535.01,1767.54 L1541.75,1756.96 L1544.18,1735.66 L1546.87,1722.72 L1546.6,1718.14 L1548.08,1715.44 L1547.51,1706.23 L1544.41,1707.71 L1540.5,1707.03 L1537.94,1704.07 L1538.08,1700.83 L1539.15,1699.62 L1537.67,1696.93 L1535.38,1697.33 L1527.83,1694.63 L1524.33,1695.71 L1523.52,1698 L1522.44,1702.32 L1522.17,1704.34 L1518.8,1707.17 L1516.51,1710.13 L1513.27,1710.4 L1508.29,1701.64 L1507.34,1697.73 L1505.19,1695.85 L1501.41,1695.85 L1499.53,1699.62 L1498.99,1700.29 L1496.97,1699.76 L1492.79,1696.39 L1490.76,1692.34 L1491.98,1686.82 L1489.82,1684.25 L1482.95,1683.68 L1478.36,1686.38 L1477.96,1698.24 L1473.38,1699.59 L1470.95,1704.57 L1468.12,1701.2 L1465.69,1703.09 L1463.94,1707.67 L1461.92,1708.75 L1460.84,1714.28 L1459.22,1715.22 L1454.81,1727.28 L1449.79,1724.12 L1446.82,1724.66 L1440.62,1742.92 L1442.1,1750.47" fill-rule="evenodd" vector-effect="none"/>

</g>
</g>
</svg>