<svg xmlns="http://www.w3.org/2000/svg" version="1.2" baseProfile="tiny" xmlns:inkscape="http://www.inkscape.org/namespaces/inkscape" width="315.045mm" viewBox="1539.08 1397.08 54.81 71.51" height="227.076mm" xmlns:xlink="http://www.w3.org/1999/xlink" xmlns:cc="http://creativecommons.org/ns#">
<g stroke-linejoin="bevel" stroke="black" inkscape:label="Map 1: fid_17" fill-rule="evenodd" stroke-linecap="square" inkscape:groupmode="layer" stroke-width="1" fill="none" id="Map 1: fid_17">
  <g stroke-linejoin="bevel"  fill-opacity="1" stroke="#232323" font-style="normal" stroke-linecap="square" font-family="Noto Sans" font-size="41.6667" font-weight="400" stroke-width="1" fill="#85b66f" stroke-opacity="1">
   <path d="M1559.1,1431.17 L1555.06,1436.42 L1554.71,1445.82 L1552.09,1454.01 L1544.08,1461.5 L1551.4,1463.59 L1554.18,1459.58 L1559.41,1460.8 L1561.33,1458.01 L1558.19,1455.58 L1563.76,1442.16 L1566.55,1440.25 L1570.03,1439.9 L1575.26,1436.94 L1577.52,1437.63 L1576.83,1442.34 L1578.05,1441.99 L1582.92,1438.68 L1584.14,1434.33 L1580.14,1426.66 L1581.53,1418.47 L1580.66,1414.29 L1584.49,1408.02 L1588.89,1408.18 L1587.67,1404.52 L1585.75,1405.04 L1584.54,1402.95 L1578.44,1402.08 L1576.87,1415.32 L1573.74,1415.32 L1570.25,1419.32 L1565.72,1415.49 L1559.1,1431.17" fill-rule="evenodd" vector-effect="none"/>

</g>
</g>
</svg>