<svg xmlns="http://www.w3.org/2000/svg" version="1.2" baseProfile="tiny" xmlns:inkscape="http://www.inkscape.org/namespaces/inkscape" width="315.045mm" viewBox="3385.38 3322.85 119.36 160.12" height="227.076mm" xmlns:xlink="http://www.w3.org/1999/xlink" xmlns:cc="http://creativecommons.org/ns#">
<g inkscape:groupmode="layer" stroke-width="1" stroke-linejoin="bevel" stroke-linecap="square" inkscape:label="Map 1: fid_17" fill="none" stroke="black" id="Map 1: fid_17" fill-rule="evenodd">
  <g fill-opacity="1" stroke-width="2" stroke-linejoin="bevel" font-weight="400" stroke-linecap="square" font-size="83.3333" font-style="normal" fill="#e77148" stroke-opacity="1"  font-family="Noto Sans" stroke="#232323">
   <path d="M3427.04,3398.85 L3417.16,3411.65 L3416.31,3434.61 L3409.93,3454.59 L3390.38,3472.87 L3408.23,3477.97 L3415.04,3468.19 L3427.79,3471.17 L3432.46,3464.37 L3424.81,3458.42 L3438.42,3425.68 L3445.22,3421.01 L3453.72,3420.16 L3466.47,3412.93 L3472,3414.63 L3470.3,3426.11 L3473.28,3425.26 L3485.18,3417.18 L3488.16,3406.55 L3478.38,3387.85 L3481.78,3367.87 L3479.65,3357.66 L3489.01,3342.36 L3499.74,3342.73 L3496.76,3333.8 L3492.09,3335.08 L3489.11,3329.98 L3474.23,3327.85 L3470.41,3360.16 L3462.75,3360.16 L3454.25,3369.94 L3443.2,3360.59 L3427.04,3398.85" vector-effect="none" fill-rule="evenodd"/>

</g>
</g>
</svg>