<svg xmlns="http://www.w3.org/2000/svg" version="1.2" baseProfile="tiny" xmlns:inkscape="http://www.inkscape.org/namespaces/inkscape" width="315.045mm" viewBox="2336.4 2759.52 331.5 357.74" height="227.076mm" xmlns:xlink="http://www.w3.org/1999/xlink" xmlns:cc="http://creativecommons.org/ns#">
<g inkscape:groupmode="layer" stroke-width="1" stroke-linejoin="bevel" stroke-linecap="square" inkscape:label="Map 1: fid_10" fill="none" stroke="black" id="Map 1: fid_10" fill-rule="evenodd">
  <g fill-opacity="1" stroke-width="2" stroke-linejoin="bevel" font-weight="400" stroke-linecap="square" font-size="83.3333" font-style="normal" fill="#8d5a99" stroke-opacity="1"  font-family="Noto Sans" stroke="#232323">
   <path d="M2661.62,3025.86 L2632.18,3003.86 L2614.33,2998.76 L2597.32,2996.21 L2563.31,2997.91 L2565.01,3014.49 L2559.49,3018.31 L2562.89,3030.64 L2557.36,3034.47 L2567.14,3053.6 L2566.71,3062.1 L2560.76,3066.78 L2556.09,3065.5 L2562.04,3082.08 L2519.1,3099.09 L2508.9,3099.09 L2505.5,3102.49 L2496.14,3102.49 L2491.47,3112.26 L2489.77,3096.11 L2486.37,3088.88 L2477.86,3086.76 L2474.46,3079.53 L2440.03,3065.08 L2436.63,3071.88 L2432.8,3074.85 L2421.32,3073.58 L2415.37,3071.88 L2399.22,3073.58 L2391.57,3070.18 L2382.21,3070.18 L2374.99,3065.08 L2364.36,3064.23 L2362.23,3036.17 L2366.91,3025.97 L2365.21,3022.56 L2356.28,3029.79 L2351.6,3022.14 L2350.33,3011.09 L2352.45,3008.54 L2352.03,3000.88 L2348.63,2998.76 L2344.8,3000.88 L2341.83,2996.63 L2344.8,2994.08 L2341.4,2962.62 L2344.8,2951.99 L2349.9,2951.14 L2350.33,2944.34 L2356.71,2942.64 L2359.68,2944.34 L2361.81,2937.12 L2370.31,2936.69 L2374.56,2937.12 L2374.99,2929.04 L2380.51,2928.19 L2388.59,2926.91 L2389.01,2918.41 L2383.49,2913.31 L2386.04,2909.06 L2392.42,2911.61 L2396.24,2916.71 L2398.79,2922.24 L2398.79,2930.74 L2402.62,2932.44 L2405.59,2915.43 L2411.12,2917.14 L2417.07,2911.61 L2413.25,2904.38 L2413.67,2900.13 L2421.32,2896.3 L2424.72,2892.48 L2428.55,2896.73 L2434.08,2892.05 L2442.15,2896.73 L2449.38,2894.6 L2451.51,2896.73 L2454.91,2902.68 L2458.73,2904.38 L2464.26,2910.33 L2468.09,2917.99 L2473.19,2916.71 L2474.04,2920.54 L2468.94,2920.96 L2469.36,2926.49 L2480.41,2925.21 L2480.41,2916.71 L2483.39,2910.76 L2490.62,2910.33 L2493.59,2918.41 L2502.1,2918.41 L2502.95,2910.33 L2513.15,2909.91 L2516.12,2913.73 L2521.65,2911.61 L2522.93,2904.38 L2523.78,2858.89 L2531.43,2847.42 L2536.1,2855.07 L2541.63,2855.92 L2543.76,2849.97 L2542.91,2829.56 L2545.03,2818.51 L2551.41,2807.88 L2559.06,2815.53 L2564.59,2815.53 L2562.04,2807.45 L2570.54,2806.18 L2585.84,2794.7 L2581.17,2771.74 L2596.47,2764.52 L2605.93,2772.49 L2605.93,2772.49 L2608.06,2777.17 L2602.95,2783.54 L2606.36,2795.87 L2600.83,2820.53 L2598.7,2848.58 L2607.21,2861.76 L2631.44,2883.44 L2635.26,2891.1 L2639.94,2895.35 L2651.84,2911.5 L2657.37,2929.36 L2656.09,2952.31 L2652.69,2961.67 L2662.9,2982.5 L2661.62,3025.86" vector-effect="none" fill-rule="evenodd"/>

</g>
</g>
</svg>