<svg xmlns="http://www.w3.org/2000/svg" version="1.2" baseProfile="tiny" xmlns:inkscape="http://www.inkscape.org/namespaces/inkscape" width="315.045mm" viewBox="1967.88 2739.61 333.58 357.56" height="227.076mm" xmlns:xlink="http://www.w3.org/1999/xlink" xmlns:cc="http://creativecommons.org/ns#">
<g inkscape:groupmode="layer" stroke-width="1" stroke-linejoin="bevel" stroke-linecap="square" inkscape:label="Map 1: fid_10" fill="none" stroke="black" id="Map 1: fid_10" fill-rule="evenodd">
  <g stroke-width="1" stroke-linejoin="bevel" font-weight="400" stroke-linecap="square" font-size="83.3333" font-style="normal" fill="none" stroke-opacity="1" transform="matrix(1,0,0,1,0,0)" font-family="Noto Sans" stroke="#000000"/>
  <g stroke-width="1" stroke-linejoin="bevel" font-weight="400" stroke-linecap="square" font-size="83.3333" font-style="normal" fill="none" stroke-opacity="1" transform="matrix(1,0,0,1,0,0)" font-family="Noto Sans" stroke="#000000"/>
  <g stroke-width="1" stroke-linejoin="bevel" font-weight="400" stroke-linecap="square" font-size="83.3333" font-style="normal" fill="none" stroke-opacity="1" transform="matrix(23.6177,0,0,23.6177,23.6177,23.6177)" font-family="Noto Sans" stroke="#000000"/>
  <g stroke-width="1" stroke-linejoin="bevel" font-weight="400" stroke-linecap="square" font-size="83.3333" font-style="normal" fill="none" stroke-opacity="1" transform="matrix(23.6177,0,0,23.6177,23.6177,23.6177)" font-family="Noto Sans" stroke="#000000"/>
  <g fill-opacity="0" font-weight="400" font-size="83.3333" font-style="normal" fill="#000000" transform="matrix(0.999817,0,0,0.999817,23.6177,23.6177)" font-family="Noto Sans" stroke="none">
   <rect y="0" width="7395" height="5318" x="0"/>
  </g>
  <g stroke-width="1" stroke-linejoin="bevel" font-weight="400" stroke-linecap="square" font-size="83.3333" font-style="normal" fill="none" stroke-opacity="1" transform="matrix(0.999817,0,0,0.999817,23.6177,23.6177)" font-family="Noto Sans" stroke="#000000"/>
  <g fill-opacity="1" stroke-width="2" stroke-linejoin="bevel" font-weight="400" stroke-linecap="square" font-size="83.3333" font-style="normal" fill="#e5b636" stroke-opacity="1" transform="matrix(0.999817,0,0,0.999817,23.6177,23.6177)" font-family="Noto Sans" stroke="#232323">
   <path d="M2240.3,2958.26 L2213.41,2938.17 L2197.11,2933.51 L2181.58,2931.19 L2150.52,2932.74 L2152.08,2947.88 L2147.03,2951.37 L2150.13,2962.63 L2145.09,2966.12 L2154.02,2983.59 L2153.63,2991.36 L2148.19,2995.63 L2143.92,2994.46 L2149.36,3009.6 L2110.15,3025.13 L2100.83,3025.13 L2097.73,3028.24 L2089.19,3028.24 L2084.91,3037.17 L2083.36,3022.42 L2080.26,3015.82 L2072.49,3013.87 L2069.39,3007.27 L2037.94,2994.08 L2034.84,3000.29 L2031.34,3003 L2020.86,3001.84 L2015.42,3000.29 L2000.67,3001.84 L1993.69,2998.73 L1985.14,2998.73 L1978.54,2994.08 L1968.84,2993.3 L1966.9,2967.68 L1971.17,2958.36 L1969.62,2955.25 L1961.46,2961.85 L1957.19,2954.87 L1956.03,2944.77 L1957.97,2942.44 L1957.58,2935.46 L1954.48,2933.51 L1950.98,2935.46 L1948.26,2931.57 L1950.98,2929.24 L1947.88,2900.52 L1950.98,2890.81 L1955.64,2890.03 L1956.03,2883.82 L1961.85,2882.27 L1964.57,2883.82 L1966.51,2877.22 L1974.27,2876.84 L1978.16,2877.22 L1978.54,2869.85 L1983.59,2869.07 L1990.97,2867.91 L1991.36,2860.14 L1986.31,2855.48 L1988.64,2851.6 L1994.46,2853.93 L1997.96,2858.59 L2000.28,2863.64 L2000.28,2871.4 L2003.78,2872.95 L2006.5,2857.43 L2011.54,2858.98 L2016.98,2853.93 L2013.48,2847.33 L2013.87,2843.45 L2020.86,2839.96 L2023.97,2836.46 L2027.46,2840.34 L2032.51,2836.07 L2039.88,2840.34 L2046.48,2838.4 L2048.42,2840.34 L2051.53,2845.78 L2055.02,2847.33 L2060.07,2852.77 L2063.56,2859.75 L2068.22,2858.59 L2069,2862.08 L2064.34,2862.47 L2064.73,2867.52 L2074.82,2866.35 L2074.82,2858.59 L2077.54,2853.15 L2084.14,2852.77 L2086.86,2860.14 L2094.62,2860.14 L2095.4,2852.77 L2104.71,2852.38 L2107.43,2855.87 L2112.48,2853.93 L2113.64,2847.33 L2114.42,2805.79 L2121.41,2795.31 L2125.68,2802.3 L2130.72,2803.08 L2132.67,2797.64 L2131.89,2779.01 L2133.83,2768.91 L2139.65,2759.21 L2146.64,2766.2 L2151.69,2766.2 L2149.36,2758.82 L2157.12,2757.65 L2171.1,2747.17 L2166.83,2726.21 L2180.8,2719.61 L2189.44,2726.89 L2189.44,2726.89 L2191.38,2731.16 L2186.72,2736.98 L2189.83,2748.24 L2184.78,2770.76 L2182.84,2796.38 L2190.61,2808.41 L2212.73,2828.21 L2216.23,2835.2 L2220.5,2839.08 L2231.37,2853.83 L2236.41,2870.14 L2235.25,2891.1 L2232.14,2899.64 L2241.46,2918.67 L2240.3,2958.26" vector-effect="none" fill-rule="evenodd"/>
  </g>
  <g stroke-width="1" stroke-linejoin="bevel" font-weight="400" stroke-linecap="square" font-size="83.3333" font-style="normal" fill="none" stroke-opacity="1" transform="matrix(0.999817,0,0,0.999817,23.6177,23.6177)" font-family="Noto Sans" stroke="#000000"/>
  <g stroke-width="1" stroke-linejoin="bevel" font-weight="400" stroke-linecap="square" font-size="83.3333" font-style="normal" fill="none" stroke-opacity="1" transform="matrix(23.6177,0,0,23.6177,23.6177,23.6177)" font-family="Noto Sans" stroke="#000000"/>
  <g stroke-width="1" stroke-linejoin="bevel" font-weight="400" stroke-linecap="square" font-size="83.3333" font-style="normal" fill="none" stroke-opacity="1" transform="matrix(23.6177,0,0,23.6177,23.6177,23.6177)" font-family="Noto Sans" stroke="#000000"/>
  <g stroke-width="1" stroke-linejoin="bevel" font-weight="400" stroke-linecap="square" font-size="83.3333" font-style="normal" fill="none" stroke-opacity="1" transform="matrix(23.6177,0,0,23.6177,23.6177,23.6177)" font-family="Noto Sans" stroke="#000000"/>
  <g stroke-width="1" stroke-linejoin="bevel" font-weight="400" stroke-linecap="square" font-size="83.3333" font-style="normal" fill="none" stroke-opacity="1" transform="matrix(1,0,0,1,0,0)" font-family="Noto Sans" stroke="#000000"/>
  <g stroke-width="1" stroke-linejoin="bevel" font-weight="400" stroke-linecap="square" font-size="83.3333" font-style="normal" fill="none" stroke-opacity="1" transform="matrix(23.6177,0,0,23.6177,23.6177,23.6177)" font-family="Noto Sans" stroke="#000000"/>
  <g stroke-width="1" stroke-linejoin="bevel" font-weight="400" stroke-linecap="square" font-size="83.3333" font-style="normal" fill="none" stroke-opacity="1" transform="matrix(23.6177,0,0,23.6177,23.6177,23.6177)" font-family="Noto Sans" stroke="#000000"/>
  <g stroke-width="1" stroke-linejoin="bevel" font-weight="400" stroke-linecap="square" font-size="83.3333" font-style="normal" fill="none" stroke-opacity="1" transform="matrix(1,0,0,1,0,0)" font-family="Noto Sans" stroke="#000000"/>
 </g>
 
</svg>