<svg xmlns="http://www.w3.org/2000/svg" version="1.2" baseProfile="tiny" xmlns:inkscape="http://www.inkscape.org/namespaces/inkscape" width="315.045mm" viewBox="1109.28 1166.27 141.73 152.48" height="227.076mm" xmlns:xlink="http://www.w3.org/1999/xlink" xmlns:cc="http://creativecommons.org/ns#">
<g stroke-linejoin="bevel" stroke="black" inkscape:label="Map 1: fid_10" fill-rule="evenodd" stroke-linecap="square" inkscape:groupmode="layer" stroke-width="1" fill="none" id="Map 1: fid_10">
  <g stroke-linejoin="bevel"  fill-opacity="1" stroke="#232323" font-style="normal" stroke-linecap="square" font-family="Noto Sans" font-size="41.6667" font-weight="400" stroke-width="1" fill="#c43c39" stroke-opacity="1">
   <path d="M1245.49,1278.34 L1233.43,1269.33 L1226.11,1267.24 L1219.14,1266.2 L1205.21,1266.89 L1205.9,1273.69 L1203.64,1275.25 L1205.03,1280.3 L1202.77,1281.87 L1206.78,1289.71 L1206.6,1293.19 L1204.16,1295.11 L1202.25,1294.59 L1204.69,1301.38 L1187.09,1308.35 L1182.91,1308.35 L1181.52,1309.74 L1177.69,1309.74 L1175.77,1313.75 L1175.07,1307.13 L1173.68,1304.17 L1170.2,1303.3 L1168.8,1300.34 L1154.7,1294.41 L1153.3,1297.2 L1151.73,1298.42 L1147.03,1297.9 L1144.59,1297.2 L1137.97,1297.9 L1134.84,1296.5 L1131.01,1296.5 L1128.05,1294.41 L1123.69,1294.06 L1122.82,1282.57 L1124.74,1278.39 L1124.04,1276.99 L1120.38,1279.96 L1118.46,1276.82 L1117.94,1272.29 L1118.81,1271.25 L1118.64,1268.11 L1117.25,1267.24 L1115.68,1268.11 L1114.46,1266.37 L1115.68,1265.32 L1114.28,1252.43 L1115.68,1248.08 L1117.77,1247.73 L1117.94,1244.94 L1120.56,1244.25 L1121.77,1244.94 L1122.65,1241.98 L1126.13,1241.81 L1127.87,1241.98 L1128.05,1238.67 L1130.31,1238.33 L1133.62,1237.8 L1133.79,1234.32 L1131.53,1232.23 L1132.57,1230.49 L1135.19,1231.53 L1136.75,1233.62 L1137.8,1235.89 L1137.8,1239.37 L1139.37,1240.07 L1140.59,1233.1 L1142.85,1233.8 L1145.29,1231.53 L1143.72,1228.57 L1143.9,1226.83 L1147.03,1225.26 L1148.42,1223.69 L1149.99,1225.44 L1152.26,1223.52 L1155.57,1225.44 L1158.53,1224.57 L1159.4,1225.44 L1160.79,1227.87 L1162.36,1228.57 L1164.62,1231.01 L1166.19,1234.15 L1168.28,1233.62 L1168.63,1235.19 L1166.54,1235.36 L1166.71,1237.63 L1171.24,1237.11 L1171.24,1233.62 L1172.46,1231.18 L1175.42,1231.01 L1176.64,1234.32 L1180.13,1234.32 L1180.47,1231.01 L1184.65,1230.84 L1185.87,1232.4 L1188.14,1231.53 L1188.66,1228.57 L1189.01,1209.93 L1192.14,1205.23 L1194.06,1208.37 L1196.32,1208.71 L1197.2,1206.28 L1196.85,1197.92 L1197.72,1193.39 L1200.33,1189.03 L1203.47,1192.17 L1205.73,1192.17 L1204.69,1188.86 L1208.17,1188.34 L1214.44,1183.63 L1212.52,1174.23 L1218.79,1171.27 L1222.67,1174.53 L1222.67,1174.53 L1223.54,1176.45 L1221.45,1179.06 L1222.84,1184.11 L1220.58,1194.21 L1219.71,1205.71 L1223.19,1211.11 L1233.12,1219.99 L1234.69,1223.13 L1236.6,1224.87 L1241.48,1231.49 L1243.75,1238.8 L1243.22,1248.21 L1241.83,1252.04 L1246.01,1260.58 L1245.49,1278.34" fill-rule="evenodd" vector-effect="none"/>

</g>
</g>
</svg>