<svg xmlns="http://www.w3.org/2000/svg" version="1.2" baseProfile="tiny" xmlns:inkscape="http://www.inkscape.org/namespaces/inkscape" width="315.045mm" viewBox="1187.38 1552.18 183.84 104.05" height="227.076mm" xmlns:xlink="http://www.w3.org/1999/xlink" xmlns:cc="http://creativecommons.org/ns#">
<g stroke-linejoin="bevel" stroke="black" inkscape:label="Map 1: fid_96" fill-rule="evenodd" stroke-linecap="square" inkscape:groupmode="layer" stroke-width="1" fill="none" id="Map 1: fid_96">
  <g stroke-linejoin="bevel"  fill-opacity="1" stroke="#232323" font-style="normal" stroke-linecap="square" font-family="Noto Sans" font-size="41.6667" font-weight="400" stroke-width="1" fill="#f3a6b2" stroke-opacity="1">
   <path d="M1260.14,1651.23 L1236.89,1640.73 L1234.51,1640.37 L1234.33,1638.72 L1235.61,1637.35 L1235.43,1636.61 L1236.8,1635.42 L1237.99,1635.42 L1238.18,1634.78 L1237.17,1634.51 L1236.34,1633.04 L1235.34,1632.4 L1234.79,1631.03 L1234.79,1630.11 L1235.43,1628.83 L1234.14,1627.82 L1229.93,1629.74 L1231.95,1631.94 L1231.4,1633.13 L1230.48,1634.51 L1230.94,1636.98 L1230.76,1639.27 L1230.66,1640.46 L1204.19,1638.72 L1204.83,1635.88 L1204.56,1633.22 L1203.55,1633.13 L1202.18,1631.85 L1202.45,1629.74 L1197.51,1626.9 L1198.42,1620.86 L1195.67,1621.96 L1193.48,1621.13 L1192.38,1617.74 L1197.14,1611.33 L1199.89,1610.69 L1205.29,1590.26 L1204.83,1587.15 L1209.14,1583.03 L1210.06,1583.49 L1212.89,1580.56 L1214.45,1580.56 L1216.19,1582.3 L1217.57,1582.94 L1219.03,1582.11 L1220.77,1580.56 L1221.23,1579.46 L1220.77,1577.81 L1218.39,1574.14 L1216.47,1572.86 L1216.47,1571.3 L1221.41,1568.35 L1225.81,1566.98 L1227.73,1567.89 L1227.09,1570.09 L1228.47,1568.72 L1234.05,1570.37 L1233.5,1572.56 L1231.67,1571.92 L1230.66,1573.48 L1232.95,1575.4 L1233.41,1577.33 L1232.31,1581.82 L1233.69,1582.73 L1235.24,1580.44 L1240.19,1572.01 L1236.89,1570.46 L1235.52,1571.1 L1235.34,1570.37 L1235.98,1568.72 L1235.79,1568.17 L1234.88,1567.16 L1235.34,1565.79 L1233.96,1564.87 L1235.24,1562.95 L1237.08,1563.31 L1237.81,1564.32 L1239,1564.41 L1239.27,1563.04 L1241.11,1563.04 L1240.92,1569.91 L1244.04,1569.54 L1245.32,1567.98 L1247.79,1566.34 L1251.09,1566.43 L1253.75,1567.16 L1255.3,1565.51 L1256.59,1564.69 L1257.78,1564.05 L1259.7,1563.59 L1261.53,1562.12 L1262.63,1562.03 L1264.1,1561.21 L1265.47,1560.47 L1266.57,1561.85 L1267.49,1563.31 L1268.31,1563.4 L1269.23,1562.31 L1269.23,1560.02 L1270.05,1558.55 L1273.35,1558.46 L1275.73,1558.64 L1277.29,1560.75 L1277.84,1562.31 L1278.11,1564.14 L1277.84,1566.34 L1277.1,1567.8 L1276.37,1569.54 L1275.91,1570.92 L1277.38,1571.19 L1280.4,1571.1 L1282.42,1570.55 L1283.61,1569.63 L1283.88,1567.71 L1283.7,1565.79 L1282.97,1564.87 L1282.14,1564.23 L1282.51,1563.31 L1283.88,1563.04 L1285.62,1562.67 L1287,1562.21 L1288.28,1563.04 L1288.83,1564.41 L1289.47,1565.6 L1290.11,1566.06 L1291.3,1566.06 L1292.4,1563.86 L1293.04,1562.58 L1294.32,1562.31 L1296.43,1562.85 L1298.63,1562.21 L1299.82,1563.22 L1301.74,1562.12 L1302.66,1561.39 L1303.3,1559.37 L1304.58,1557.91 L1305.77,1557.36 L1306.87,1557.18 L1309.44,1557.36 L1312.83,1557.45 L1314.84,1558 L1316.86,1558.64 L1318.41,1559.28 L1319.42,1560.38 L1322.44,1559.92 L1322.54,1561.57 L1320.06,1562.31 L1319.05,1565.33 L1315.76,1565.6 L1316.12,1566.98 L1319.05,1566.88 L1319.15,1567.8 L1318.14,1568.53 L1318.14,1569.82 L1320.43,1569.63 L1321.71,1570.55 L1323.54,1570.27 L1324.64,1571.74 L1326.47,1572.29 L1326.75,1573.48 L1327.21,1575.59 L1326.84,1576.78 L1328.03,1577.97 L1327.21,1579.71 L1328.12,1581.54 L1328.12,1583.37 L1327.48,1584.75 L1324.73,1585.48 L1324.55,1586.76 L1326.84,1587.95 L1328.67,1587.49 L1334.17,1591.25 L1337.19,1594.91 L1340.58,1600.04 L1342.05,1603.25 L1349.1,1604.81 L1350.75,1609.57 L1350.56,1612.59 L1349.37,1614.7 L1351.3,1616.99 L1353.31,1618.18 L1355.51,1618.82 L1356.52,1620.38 L1358.72,1620.84 L1361.45,1620.62 L1362.83,1624.97 L1364.43,1627.21 L1366.22,1630.3 L1362.85,1634.21 L1363.25,1637.35 L1352.06,1628.32 L1323.76,1620.9 L1318.5,1614.43 L1312.3,1611.06 L1284.26,1610.66 L1260.14,1651.23" fill-rule="evenodd" vector-effect="none"/>

</g>
</g>
</svg>