<svg xmlns="http://www.w3.org/2000/svg" version="1.2" baseProfile="tiny" xmlns:inkscape="http://www.inkscape.org/namespaces/inkscape" width="315.045mm" viewBox="1116.93 1261.2 134.43 138.2" height="227.076mm" xmlns:xlink="http://www.w3.org/1999/xlink" xmlns:cc="http://creativecommons.org/ns#">
<g stroke-linejoin="bevel" stroke="black" inkscape:label="Map 1: fid_110" fill-rule="evenodd" stroke-linecap="square" inkscape:groupmode="layer" stroke-width="1" fill="none" id="Map 1: fid_110">
  <g stroke-linejoin="bevel"  fill-opacity="1" stroke="#232323" font-style="normal" stroke-linecap="square" font-family="Noto Sans" font-size="41.6667" font-weight="400" stroke-width="1" fill="#e15989" stroke-opacity="1">
   <path d="M1219.14,1266.2 L1206.81,1267.02 L1207.31,1273.59 L1211.39,1279.76 L1213.87,1289.51 L1211.29,1289.51 L1209.4,1288.31 L1207.31,1295.18 L1209.6,1294.98 L1210.49,1296.08 L1209.89,1298.46 L1209.1,1301.65 L1207.41,1302.34 L1204.69,1301.38 L1187.09,1308.35 L1182.91,1308.35 L1181.52,1309.74 L1177.69,1309.74 L1175.77,1313.75 L1175.07,1307.13 L1173.68,1304.17 L1170.2,1303.3 L1168.8,1300.34 L1154.7,1294.41 L1153.3,1297.2 L1151.73,1298.42 L1144.59,1297.2 L1137.97,1297.9 L1134.84,1296.5 L1131.01,1296.5 L1128.05,1294.41 L1124.91,1294.51 L1123.92,1298.09 L1125.51,1298.89 L1125.51,1299.58 L1121.93,1301.97 L1122.33,1306.95 L1125.01,1306.75 L1126.11,1307.74 L1127.5,1308.24 L1128,1310.43 L1129.79,1311.42 L1130.69,1311.42 L1132.48,1308.04 L1133.47,1308.24 L1133.87,1310.13 L1135.16,1311.62 L1137.35,1311.92 L1139.04,1311.62 L1140.44,1312.42 L1141.23,1313.81 L1139.44,1322.87 L1139.74,1325.06 L1137.65,1325.45 L1138.15,1326.25 L1137.15,1327.64 L1137.65,1328.44 L1139.14,1328.64 L1140.04,1329.44 L1139.84,1332.12 L1138.05,1333.22 L1136.36,1333.12 L1135.26,1332.52 L1135.36,1333.91 L1137.45,1334.81 L1137.55,1335.8 L1135.66,1335.6 L1134.67,1336.4 L1133.27,1338.29 L1132.18,1341.18 L1133.27,1342.17 L1133.77,1342.27 L1134.07,1343.86 L1132.68,1346.05 L1130.88,1346.45 L1129.99,1347.35 L1127.9,1350.03 L1125.91,1352.32 L1126.41,1354.11 L1127,1356 L1126.31,1358.19 L1126.31,1359.69 L1125.41,1361.68 L1125.61,1363.87 L1125.11,1366.35 L1125.81,1368.74 L1126.31,1371.03 L1128.79,1368.74 L1130.19,1368.04 L1131.28,1368.34 L1132.58,1367.94 L1133.17,1369.54 L1133.87,1370.83 L1133.07,1373.72 L1133.17,1375.71 L1132.58,1377.4 L1131.18,1378.19 L1130.78,1380.38 L1132.08,1380.98 L1134.27,1381.38 L1135.06,1382.67 L1136.36,1380.98 L1137.45,1378.09 L1139.04,1378.59 L1140.54,1377 L1139.74,1376.01 L1138.85,1375.21 L1137.75,1374.11 L1137.45,1371.63 L1138.65,1370.13 L1138.75,1368.14 L1137.35,1367.35 L1136.06,1366.05 L1136.26,1364.76 L1136.76,1363.96 L1138.05,1363.27 L1138.75,1362.17 L1140.64,1362.27 L1141.93,1360.88 L1144.32,1361.28 L1146.11,1361.48 L1146.91,1361.87 L1147.6,1363.77 L1146.91,1366.35 L1146.91,1368.54 L1145.21,1370.43 L1145.31,1371.73 L1145.31,1374.41 L1146.31,1376.6 L1148.3,1377.8 L1148.7,1377.8 L1151.48,1375.31 L1153.57,1373.32 L1155.36,1373.22 L1159.24,1367.94 L1159.24,1365.76 L1160.94,1364.26 L1162.33,1364.96 L1163.03,1366.45 L1162.63,1370.03 L1161.53,1373.22 L1160.54,1373.22 L1160.14,1372.42 L1159.24,1374.21 L1159.34,1376.3 L1158.35,1378.29 L1157.06,1379.29 L1156.36,1377.7 L1154.77,1377.8 L1153.27,1379.59 L1152.68,1383.39 L1153.67,1384.79 L1155.66,1385.38 L1156.76,1384.99 L1157.35,1383.89 L1157.95,1383.1 L1159.94,1383.1 L1161.53,1383.29 L1162.13,1384.09 L1161.04,1385.58 L1158.15,1385.38 L1157.35,1386.38 L1157.15,1388.07 L1157.15,1389.96 L1158.45,1390.96 L1160.34,1390.26 L1161.23,1390.46 L1162.53,1390.86 L1162.83,1392.05 L1162.83,1394.24 L1167.75,1394.4 L1170.68,1388.9 L1186.25,1382.12 L1186.76,1378.77 L1186.81,1377.27 L1185.27,1375.58 L1184.42,1375.23 L1184.27,1373.89 L1184.82,1372.2 L1184.82,1370.86 L1184.17,1370.06 L1184.02,1368.62 L1184.37,1366.58 L1183.72,1364.04 L1182.23,1363.39 L1181.04,1363.39 L1179.2,1366.18 L1177.4,1363.29 L1177.65,1360.76 L1177.6,1354.88 L1176.86,1353.59 L1176.06,1352.7 L1175.86,1351 L1175.71,1349.16 L1175.51,1348.37 L1174.07,1349.21 L1172.98,1348.81 L1173.23,1347.42 L1173.23,1346.08 L1172.23,1346.63 L1170.94,1348.27 L1170.14,1349.96 L1169.34,1351.1 L1168.25,1348.22 L1168.7,1341.39 L1171.88,1336.11 L1174.07,1336.56 L1174.97,1335.22 L1175.56,1333.63 L1176.81,1332.03 L1178.35,1331.14 L1179.59,1331.34 L1180.49,1332.53 L1181.09,1333.28 L1181.98,1333.38 L1182.13,1334.22 L1183.03,1334.27 L1183.08,1336.11 L1181.78,1337.86 L1182.68,1339.35 L1183.72,1340 L1184.52,1341.69 L1185.76,1342.28 L1186.86,1344.08 L1187.7,1344.47 L1189,1344.17 L1189.79,1344.03 L1190.24,1345.22 L1189.15,1346.51 L1187.75,1348.01 L1187.55,1349.7 L1189.3,1350.34 L1190.39,1349.65 L1191.04,1348.2 L1192.08,1346.61 L1192.78,1345.07 L1193.72,1343.68 L1194.77,1342.13 L1196.06,1334.92 L1197.01,1334.57 L1198.15,1334.82 L1198.7,1335.72 L1198.7,1337.66 L1198.2,1345.32 L1199.64,1346.81 L1199.99,1351.59 L1199.05,1353.73 L1199.3,1354.32 L1201.63,1354.57 L1203.08,1354.57 L1203.48,1362.58 L1201.04,1365.79 L1201.19,1374.15 L1202.98,1374.1 L1204.67,1372.56 L1205.62,1372.41 L1206.31,1373.16 L1206.51,1374.35 L1209.4,1374.75 L1210.49,1376.09 L1209.55,1377.44 L1208.65,1377.54 L1208.75,1385.35 L1207.26,1387.14 L1207.31,1389.08 L1208.15,1390.02 L1210.49,1389.77 L1213.63,1389.38 L1218.75,1377.29 L1218.65,1374.85 L1217.76,1371.93 L1219.25,1370.13 L1220.24,1368.94 L1217.16,1366.95 L1217.16,1363.57 L1216.66,1360.28 L1217.06,1357 L1218.45,1357.2 L1221.24,1359.09 L1222.53,1356.6 L1220.14,1354.11 L1218.45,1352.22 L1218.85,1350.03 L1218.45,1346.05 L1218.75,1342.77 L1220.04,1341.77 L1218.85,1339.49 L1219.35,1337.4 L1219.25,1335.21 L1219.65,1333.61 L1217.85,1331.03 L1215.07,1328.84 L1212.38,1329.93 L1211.19,1329.24 L1211.69,1325.45 L1211.88,1322.07 L1212.98,1319.48 L1215.76,1317.49 L1215.86,1311.92 L1212.98,1311.13 L1212.58,1307.54 L1213.87,1302.97 L1215.37,1303.17 L1216.66,1305.16 L1219.05,1305.85 L1221.64,1303.86 L1221.64,1294.36 L1224.02,1293.16 L1224.02,1290.48 L1223.92,1287.59 L1224.82,1283.11 L1225.32,1281.42 L1227.21,1278.04 L1228.5,1276.15 L1229.4,1277.34 L1230.69,1278.14 L1231.89,1276.75 L1232.68,1274.36 L1233.48,1273.26 L1236.96,1274.76 L1238.65,1275.35 L1245.05,1281.59 L1246.36,1279.67 L1245.49,1278.34 L1233.43,1269.33 L1226.11,1267.24 L1219.14,1266.2" fill-rule="evenodd" vector-effect="none"/>

</g>
</g>
</svg>