<svg xmlns="http://www.w3.org/2000/svg" version="1.2" baseProfile="tiny" xmlns:inkscape="http://www.inkscape.org/namespaces/inkscape" width="315.045mm" viewBox="1168.46 1633.72 124.04 210.54" height="227.076mm" xmlns:xlink="http://www.w3.org/1999/xlink" xmlns:cc="http://creativecommons.org/ns#">
<g stroke-linejoin="bevel" stroke="black" inkscape:label="Map 1: fid_97" fill-rule="evenodd" stroke-linecap="square" inkscape:groupmode="layer" stroke-width="1" fill="none" id="Map 1: fid_97">
  <g stroke-linejoin="bevel"  fill-opacity="1" stroke="#232323" font-style="normal" stroke-linecap="square" font-family="Noto Sans" font-size="41.6667" font-weight="400" stroke-width="1" fill="#d5b43c" stroke-opacity="1">
   <path d="M1204.19,1638.72 L1202.96,1642.36 L1202.77,1643.64 L1201.22,1644.93 L1199.84,1645.2 L1199.66,1646.85 L1198.1,1647.4 L1197.55,1649.5 L1194.71,1650.42 L1193.06,1652.71 L1192.33,1655.55 L1190.77,1656.37 L1191.96,1658.3 L1190.87,1660.13 L1192.15,1662.24 L1190.77,1665.08 L1191.51,1667.64 L1190.96,1670.39 L1188.76,1673.23 L1189.67,1675.88 L1188.03,1678.17 L1188.48,1680.46 L1189.86,1681.38 L1189.58,1682.85 L1191.14,1683.3 L1191.23,1684.68 L1193.06,1684.77 L1193.71,1686.14 L1195.26,1686.24 L1197.19,1685.87 L1198.01,1688.16 L1196.36,1689.81 L1196.82,1693.13 L1197.64,1695.05 L1197,1696.79 L1197.92,1698.53 L1196.91,1700.55 L1197.28,1702.56 L1197,1703.48 L1196.82,1703.94 L1197,1704.94 L1197.46,1706.78 L1197.92,1708.42 L1191.32,1706.41 L1190.41,1708.24 L1191.87,1709.62 L1193.34,1709.98 L1193.06,1711.9 L1191.87,1713.28 L1190.5,1714.56 L1189.95,1716.76 L1190.13,1718.13 L1190.96,1719.87 L1192.42,1721.71 L1194.35,1722.9 L1195.17,1724.18 L1195.54,1726.19 L1194.71,1727.29 L1193.25,1728.21 L1192.06,1728.58 L1190.59,1728.67 L1189.31,1729.03 L1188.39,1728.76 L1187.38,1727.75 L1186.84,1726.84 L1186.84,1725.28 L1187.29,1723.45 L1186.1,1722.99 L1185.83,1725.19 L1183.72,1726.38 L1181.52,1726.29 L1181.06,1725.37 L1181.25,1724.45 L1181.98,1723.63 L1183.35,1723.26 L1183.72,1722.9 L1182.81,1722.07 L1181.8,1722.44 L1181.25,1723.35 L1180.42,1724.55 L1179.69,1725.83 L1179.6,1726.56 L1176.76,1728.44 L1174.1,1730.09 L1173.46,1732.56 L1173.65,1734.94 L1174.84,1736.68 L1175.39,1737.23 L1176.58,1737.51 L1178.13,1736.68 L1179.14,1735.77 L1179.78,1735.4 L1180.88,1735.4 L1181.06,1736.68 L1180.24,1737.51 L1178.96,1737.96 L1177.86,1738.15 L1177.49,1738.24 L1177.4,1739.06 L1178.23,1740.62 L1178.23,1741.35 L1177.68,1741.81 L1176.39,1742.27 L1175.2,1742.82 L1175.2,1744.47 L1175.57,1745.66 L1177.13,1748.22 L1177.68,1748.68 L1179.14,1749.05 L1180.24,1749.23 L1180.88,1749.23 L1181.89,1749.05 L1183.08,1748.59 L1184,1748.04 L1184.45,1747.49 L1185.37,1746.67 L1186.1,1746.67 L1186.65,1747.31 L1186.47,1748.31 L1185.92,1749.69 L1186.1,1750.33 L1187.02,1751.15 L1186.65,1752.16 L1185.83,1752.8 L1182.94,1754.77 L1181.71,1755.55 L1181.8,1756.88 L1181.52,1757.57 L1180.79,1758.21 L1179.42,1759.21 L1179.32,1760.13 L1179.14,1760.54 L1178,1761.28 L1177.86,1762.24 L1178,1762.92 L1178.91,1763.7 L1179.87,1764.53 L1181.48,1764.48 L1181.61,1765.49 L1181.66,1766.59 L1182.48,1766.82 L1182.3,1767.55 L1181.93,1768.69 L1181.8,1769.38 L1182.12,1770.02 L1182.9,1770.66 L1183.4,1771.44 L1183.49,1771.76 L1184,1772.22 L1182.62,1779.49 L1182.67,1780.45 L1184.32,1782.88 L1185.46,1784.85 L1186.65,1786.13 L1187.66,1786.77 L1189.35,1787.69 L1190.87,1788.38 L1191.92,1788.42 L1192.7,1788.1 L1193.29,1787.6 L1194.07,1786.87 L1194.85,1786.13 L1195.58,1785.31 L1196.27,1784.8 L1197.41,1784.9 L1198.74,1786.68 L1198.24,1787.41 L1196.64,1788.97 L1195.31,1789.75 L1194.99,1790.62 L1196.82,1792.13 L1196.91,1793.73 L1195.67,1795.84 L1194.48,1797.12 L1194.16,1797.54 L1194.9,1805 L1192.24,1806.47 L1191.6,1810.22 L1189.31,1811.69 L1190.41,1818.47 L1193.71,1821.95 L1196,1824.05 L1197,1828.08 L1199.84,1829.18 L1202.77,1829.64 L1205.98,1829.73 L1207.44,1831.11 L1205.98,1833.67 L1203.23,1834.31 L1202.5,1836.42 L1205.06,1839.26 L1206.16,1839.26 L1207.54,1838.43 L1209.18,1835.41 L1210.74,1832.76 L1212.02,1831.29 L1213.67,1828.82 L1214.96,1827.17 L1214.68,1825.34 L1215.41,1823.87 L1216.51,1820.48 L1218.16,1818.92 L1219.17,1818.92 L1220.82,1817.82 L1222.19,1816.82 L1221.83,1809.21 L1218.07,1804.36 L1219.08,1800.42 L1218.25,1798.13 L1219.9,1796.76 L1221.46,1799.23 L1222.37,1803.35 L1224.94,1806.83 L1226.31,1809.31 L1228.69,1809.58 L1232.63,1809.4 L1252.6,1798.86 L1269.27,1798.5 L1272.2,1795.66 L1279.07,1796.67 L1281.18,1795.66 L1276.51,1782.45 L1271.38,1777.41 L1270.65,1773.01 L1271.2,1768.71 L1271.93,1765.23 L1272.66,1763.03 L1273.3,1761.01 L1272.57,1758.72 L1270,1755.88 L1267.62,1756.52 L1265.79,1756.98 L1264.97,1755.33 L1265.7,1748.35 L1265.15,1741.11 L1270.74,1735.5 L1270,1729.64 L1271.56,1726.25 L1273.94,1725.52 L1276.78,1726.34 L1279.9,1726.62 L1281.82,1729.18 L1287.5,1730.35 L1280.76,1719.97 L1281.16,1703.13 L1278.74,1695.44 L1280.36,1693.69 L1274.16,1682.91 L1273.62,1657.16 L1270.28,1655.61 L1267.44,1656.89 L1265.53,1653.79 L1260.14,1651.23 L1236.89,1640.73 L1237.44,1642.46 L1236.66,1643.01 L1236.66,1644.16 L1237.58,1644.66 L1238.4,1645.03 L1238.54,1646.22 L1239.37,1646.54 L1239.5,1648 L1241.01,1648.55 L1241.24,1649.7 L1242.25,1649.88 L1242.62,1650.94 L1242.76,1651.76 L1238.82,1654.6 L1238.54,1656.16 L1240.19,1656.48 L1241.34,1657.16 L1241.34,1658.54 L1240.88,1659.41 L1241.52,1660.46 L1240.92,1661.7 L1240.74,1662.25 L1239.41,1661.97 L1239.59,1664.13 L1240.97,1664.58 L1241.84,1664.77 L1242.07,1665.91 L1241.66,1667.97 L1243.17,1668.39 L1243.99,1667.01 L1244.45,1666.87 L1245.87,1667.33 L1247.24,1667.93 L1248.75,1667.7 L1250.08,1667.93 L1251.04,1667.01 L1251.78,1666.23 L1252.78,1666.92 L1252.97,1668.52 L1252.28,1669.9 L1251.23,1670.26 L1250.49,1670.72 L1249.99,1671.13 L1248.85,1670.35 L1247.47,1669.76 L1246.46,1669.85 L1245.64,1669.58 L1244.5,1669.71 L1243.72,1669.67 L1242.8,1670.58 L1241.88,1671.59 L1240.97,1671.68 L1240.05,1671.55 L1239.14,1671.87 L1237.76,1671.73 L1236.71,1672.74 L1235.7,1673.56 L1234.47,1673.61 L1234.69,1674.89 L1235.84,1675.44 L1235.34,1676.9 L1234.6,1678.37 L1235.61,1679.38 L1236.76,1679.24 L1237.44,1678.28 L1237.81,1677 L1238.59,1676.72 L1239.87,1676.03 L1241.06,1676.4 L1242.16,1677.27 L1243.4,1678.23 L1244.31,1679.19 L1244.86,1679.88 L1245,1680.8 L1244.91,1681.99 L1244.36,1682.67 L1243.12,1682.86 L1242.3,1682.99 L1241.29,1682.86 L1240.14,1681.77 L1240.19,1680.44 L1239.23,1679.89 L1238.45,1681.31 L1239.14,1682.73 L1240.56,1683.42 L1241.01,1684.2 L1240.69,1685.25 L1239.64,1685.89 L1239.37,1686.17 L1239.64,1688.04 L1241.56,1689.1 L1243.44,1689.05 L1245.23,1689.33 L1245.59,1690.24 L1245.32,1691.3 L1244.17,1692.94 L1242.57,1693.95 L1240.56,1693.54 L1239.78,1692.94 L1239.27,1691.62 L1237.21,1690.2 L1231.86,1690.24 L1229.38,1663.67 L1230.53,1661.7 L1229.7,1659.68 L1230.62,1657.3 L1230.21,1652.08 L1230.89,1648.05 L1231.99,1646.77 L1230.66,1640.46 L1204.19,1638.72" fill-rule="evenodd" vector-effect="none"/>

</g>
</g>
</svg>