<svg xmlns="http://www.w3.org/2000/svg" version="1.2" baseProfile="tiny" xmlns:inkscape="http://www.inkscape.org/namespaces/inkscape" width="315.045mm" viewBox="1586.24 1205.39 88.73 95.0" height="227.076mm" xmlns:xlink="http://www.w3.org/1999/xlink" xmlns:cc="http://creativecommons.org/ns#">
<g stroke-linejoin="bevel" stroke="black" inkscape:label="Map 1: fid_14" fill-rule="evenodd" stroke-linecap="square" inkscape:groupmode="layer" stroke-width="1" fill="none" id="Map 1: fid_14">
  <g stroke-linejoin="bevel"  fill-opacity="1" stroke="#232323" font-style="normal" stroke-linecap="square" font-family="Noto Sans" font-size="41.6667" font-weight="400" stroke-width="1" fill="#e8718d" stroke-opacity="1">
   <path d="M1591.24,1239.31 L1599.78,1245.58 L1605,1245.58 L1607.09,1242.62 L1610.05,1240.52 L1616.32,1241.22 L1619.29,1244.36 L1626.77,1240.7 L1629.74,1240.7 L1628.17,1231.64 L1626.6,1229.2 L1623.12,1221.89 L1628.17,1216.49 L1631.83,1214.22 L1634.26,1218.23 L1640.19,1221.36 L1653.6,1210.39 L1658.82,1218.4 L1662.48,1219.1 L1666.84,1222.93 L1669.97,1228.16 L1668.58,1233.21 L1669.97,1238.43 L1668.4,1244.88 L1662.13,1251.5 L1661.79,1273.45 L1662.66,1279.02 L1653.77,1283.03 L1652.73,1294.7 L1649.07,1295.39 L1643.84,1291.56 L1639.66,1290.86 L1637.23,1281.98 L1625.21,1279.37 L1626.6,1275.88 L1622.94,1275.01 L1626.08,1263.34 L1611.45,1255.68 L1610.92,1250.28 L1606.05,1248.54 L1595.07,1248.01 L1591.24,1244.88 L1591.24,1239.31" fill-rule="evenodd" vector-effect="none"/>

</g>
</g>
</svg>