<svg xmlns="http://www.w3.org/2000/svg" version="1.2" baseProfile="tiny" xmlns:inkscape="http://www.inkscape.org/namespaces/inkscape" width="315.045mm" viewBox="3133.39 1739.38 238.37 241.28" height="227.076mm" xmlns:xlink="http://www.w3.org/1999/xlink" xmlns:cc="http://creativecommons.org/ns#">
<g inkscape:groupmode="layer" stroke-width="1" stroke-linejoin="bevel" stroke-linecap="square" inkscape:label="Map 1: fid_67" fill="none" stroke="black" id="Map 1: fid_67" fill-rule="evenodd">
  <g stroke-width="1" stroke-linejoin="bevel" font-weight="400" stroke-linecap="square" font-size="83.3333" font-style="normal" fill="none" stroke-opacity="1" transform="matrix(1,0,0,1,0,0)" font-family="Noto Sans" stroke="#000000"/>
  <g stroke-width="1" stroke-linejoin="bevel" font-weight="400" stroke-linecap="square" font-size="83.3333" font-style="normal" fill="none" stroke-opacity="1" transform="matrix(1,0,0,1,0,0)" font-family="Noto Sans" stroke="#000000"/>
  <g stroke-width="1" stroke-linejoin="bevel" font-weight="400" stroke-linecap="square" font-size="83.3333" font-style="normal" fill="none" stroke-opacity="1" transform="matrix(23.6177,0,0,23.6177,23.6177,23.6177)" font-family="Noto Sans" stroke="#000000"/>
  <g stroke-width="1" stroke-linejoin="bevel" font-weight="400" stroke-linecap="square" font-size="83.3333" font-style="normal" fill="none" stroke-opacity="1" transform="matrix(23.6177,0,0,23.6177,23.6177,23.6177)" font-family="Noto Sans" stroke="#000000"/>
  <g fill-opacity="0" font-weight="400" font-size="83.3333" font-style="normal" fill="#000000" transform="matrix(0.999817,0,0,0.999817,23.6177,23.6177)" font-family="Noto Sans" stroke="none">
   <rect y="0" width="7395" height="5318" x="0"/>
  </g>
  <g stroke-width="1" stroke-linejoin="bevel" font-weight="400" stroke-linecap="square" font-size="83.3333" font-style="normal" fill="none" stroke-opacity="1" transform="matrix(0.999817,0,0,0.999817,23.6177,23.6177)" font-family="Noto Sans" stroke="#000000"/>
  <g fill-opacity="1" stroke-width="2" stroke-linejoin="bevel" font-weight="400" stroke-linecap="square" font-size="83.3333" font-style="normal" fill="#ff9e17" stroke-opacity="1" transform="matrix(0.999817,0,0,0.999817,23.6177,23.6177)" font-family="Noto Sans" stroke="#232323">
   <path d="M3128.33,1830.22 L3137.8,1831.3 L3146.81,1832.8 L3157.63,1837.3 L3166.79,1842.56 L3176.85,1850.07 L3186.91,1859.68 L3195.78,1866.89 L3203.59,1874.4 L3209.74,1882.96 L3215.45,1892.43 L3220.11,1899.79 L3222.96,1907.6 L3226.57,1912.55 L3236.03,1919.16 L3242.79,1920.66 L3249.25,1919.91 L3254.05,1915.26 L3256.45,1912.1 L3259.46,1905.94 L3265.32,1901.59 L3269.97,1902.64 L3274.78,1907.75 L3278.68,1909.4 L3284.54,1910.9 L3288.9,1909.1 L3291.3,1903.54 L3294.45,1900.54 L3298.36,1898.73 L3300.16,1892.28 L3301.21,1887.47 L3303.77,1882.66 L3307.52,1878.91 L3309.93,1875.6 L3311.76,1875.68 L3293.9,1817.45 L3275.27,1804.25 L3244.99,1767.76 L3241.11,1728.16 L3176.86,1719.38 L3153.95,1721.32 L3145.41,1742.67 L3142.5,1755.48 L3149.68,1769.07 L3143.28,1787.9 L3150.07,1804.79 L3148.71,1808.86 L3128.33,1791.59 L3120.18,1791.78 L3117.46,1805.56 L3113.39,1809.06 L3130.47,1819.73 L3128.33,1830.22" vector-effect="none" fill-rule="evenodd"/>
  </g>
  <g stroke-width="1" stroke-linejoin="bevel" font-weight="400" stroke-linecap="square" font-size="83.3333" font-style="normal" fill="none" stroke-opacity="1" transform="matrix(0.999817,0,0,0.999817,23.6177,23.6177)" font-family="Noto Sans" stroke="#000000"/>
  <g stroke-width="1" stroke-linejoin="bevel" font-weight="400" stroke-linecap="square" font-size="83.3333" font-style="normal" fill="none" stroke-opacity="1" transform="matrix(23.6177,0,0,23.6177,23.6177,23.6177)" font-family="Noto Sans" stroke="#000000"/>
  <g stroke-width="1" stroke-linejoin="bevel" font-weight="400" stroke-linecap="square" font-size="83.3333" font-style="normal" fill="none" stroke-opacity="1" transform="matrix(23.6177,0,0,23.6177,23.6177,23.6177)" font-family="Noto Sans" stroke="#000000"/>
  <g stroke-width="1" stroke-linejoin="bevel" font-weight="400" stroke-linecap="square" font-size="83.3333" font-style="normal" fill="none" stroke-opacity="1" transform="matrix(23.6177,0,0,23.6177,23.6177,23.6177)" font-family="Noto Sans" stroke="#000000"/>
  <g stroke-width="1" stroke-linejoin="bevel" font-weight="400" stroke-linecap="square" font-size="83.3333" font-style="normal" fill="none" stroke-opacity="1" transform="matrix(1,0,0,1,0,0)" font-family="Noto Sans" stroke="#000000"/>
  <g stroke-width="1" stroke-linejoin="bevel" font-weight="400" stroke-linecap="square" font-size="83.3333" font-style="normal" fill="none" stroke-opacity="1" transform="matrix(23.6177,0,0,23.6177,23.6177,23.6177)" font-family="Noto Sans" stroke="#000000"/>
  <g stroke-width="1" stroke-linejoin="bevel" font-weight="400" stroke-linecap="square" font-size="83.3333" font-style="normal" fill="none" stroke-opacity="1" transform="matrix(23.6177,0,0,23.6177,23.6177,23.6177)" font-family="Noto Sans" stroke="#000000"/>
  <g stroke-width="1" stroke-linejoin="bevel" font-weight="400" stroke-linecap="square" font-size="83.3333" font-style="normal" fill="none" stroke-opacity="1" transform="matrix(1,0,0,1,0,0)" font-family="Noto Sans" stroke="#000000"/>
 </g>
 
</svg>