<svg xmlns="http://www.w3.org/2000/svg" version="1.2" baseProfile="tiny" xmlns:inkscape="http://www.inkscape.org/namespaces/inkscape" width="315.045mm" viewBox="1632.23 717.482 99.0 100.312" height="227.076mm" xmlns:xlink="http://www.w3.org/1999/xlink" xmlns:cc="http://creativecommons.org/ns#">
<g stroke-linejoin="bevel" stroke="black" inkscape:label="Map 1: fid_67" fill-rule="evenodd" stroke-linecap="square" inkscape:groupmode="layer" stroke-width="1" fill="none" id="Map 1: fid_67">
  <g stroke-linejoin="bevel"  fill-opacity="1" stroke="#232323" font-style="normal" stroke-linecap="square" font-family="Noto Sans" font-size="41.6667" font-weight="400" stroke-width="1" fill="#b7484b" stroke-opacity="1">
   <path d="M1643.93,772.212 L1648.18,772.697 L1652.22,773.371 L1657.08,775.392 L1661.19,777.751 L1665.7,781.121 L1670.22,785.434 L1674.19,788.668 L1677.7,792.038 L1680.46,795.879 L1683.02,800.125 L1685.11,803.427 L1686.39,806.931 L1688.01,809.155 L1692.25,812.12 L1695.29,812.794 L1698.18,812.457 L1700.34,810.368 L1701.42,808.953 L1702.77,806.19 L1705.39,804.236 L1707.48,804.707 L1709.64,806.999 L1711.39,807.74 L1714.02,808.414 L1715.97,807.605 L1717.05,805.112 L1718.47,803.764 L1720.22,802.955 L1721.03,800.057 L1721.5,797.901 L1722.65,795.744 L1724.33,794.06 L1725.41,792.577 L1726.23,792.613 L1718.22,766.485 L1709.86,760.563 L1696.27,744.19 L1694.53,726.423 L1665.7,722.482 L1655.43,723.353 L1651.6,732.933 L1650.29,738.682 L1653.51,744.778 L1650.64,753.226 L1653.69,760.803 L1653.08,762.632 L1643.93,754.881 L1640.27,754.968 L1639.05,761.151 L1637.23,762.719 L1644.89,767.509 L1643.93,772.212" fill-rule="evenodd" vector-effect="none"/>

</g>
</g>
</svg>