<svg xmlns="http://www.w3.org/2000/svg" version="1.2" baseProfile="tiny" xmlns:inkscape="http://www.inkscape.org/namespaces/inkscape" width="315.045mm" viewBox="3612.71 1664.2 227.23 230.42" height="227.076mm" xmlns:xlink="http://www.w3.org/1999/xlink" xmlns:cc="http://creativecommons.org/ns#">
<g inkscape:groupmode="layer" stroke-width="1" stroke-linejoin="bevel" stroke-linecap="square" inkscape:label="Map 1: fid_67" fill="none" stroke="black" id="Map 1: fid_67" fill-rule="evenodd">
  <g fill-opacity="1" stroke-width="2" stroke-linejoin="bevel" font-weight="400" stroke-linecap="square" font-size="83.3333" font-style="normal" fill="#7d8b8f" stroke-opacity="1"  font-family="Noto Sans" stroke="#232323">
   <path d="M3634.08,1790.57 L3644.44,1791.76 L3654.31,1793.4 L3666.15,1798.34 L3676.19,1804.09 L3687.21,1812.32 L3698.23,1822.84 L3707.93,1830.74 L3716.48,1838.96 L3723.23,1848.34 L3729.48,1858.7 L3734.58,1866.76 L3737.7,1875.31 L3741.65,1880.74 L3752.01,1887.98 L3759.41,1889.62 L3766.48,1888.8 L3771.75,1883.7 L3774.38,1880.25 L3777.67,1873.5 L3784.08,1868.73 L3789.18,1869.88 L3794.45,1875.48 L3798.72,1877.29 L3805.14,1878.93 L3809.91,1876.96 L3812.54,1870.87 L3815.99,1867.58 L3820.27,1865.61 L3822.24,1858.53 L3823.39,1853.27 L3826.19,1848.01 L3830.3,1843.9 L3832.93,1840.28 L3834.94,1840.37 L3815.39,1776.6 L3794.98,1762.14 L3761.82,1722.18 L3757.57,1678.82 L3687.22,1669.2 L3662.13,1671.33 L3652.78,1694.71 L3649.59,1708.74 L3657.46,1723.62 L3650.44,1744.24 L3657.88,1762.73 L3656.4,1767.19 L3634.08,1748.27 L3625.15,1748.49 L3622.17,1763.58 L3617.71,1767.41 L3636.41,1779.1 L3634.08,1790.57" vector-effect="none" fill-rule="evenodd"/>

</g>
</g>
</svg>