<svg xmlns="http://www.w3.org/2000/svg" version="1.2" baseProfile="tiny" xmlns:inkscape="http://www.inkscape.org/namespaces/inkscape" width="315.045mm" viewBox="3354.49 2374.58 146.84 203.75" height="227.076mm" xmlns:xlink="http://www.w3.org/1999/xlink" xmlns:cc="http://creativecommons.org/ns#">
<g inkscape:groupmode="layer" stroke-width="1" stroke-linejoin="bevel" stroke-linecap="square" inkscape:label="Map 1: fid_43" fill="none" stroke="black" id="Map 1: fid_43" fill-rule="evenodd">
  <g fill-opacity="1" stroke-width="2" stroke-linejoin="bevel" font-weight="400" stroke-linecap="square" font-size="83.3333" font-style="normal" fill="#becf50" stroke-opacity="1"  font-family="Noto Sans" stroke="#232323">
   <path d="M3404.56,2571.03 L3450.94,2573.33 L3496.33,2566.75 L3473.64,2525.3 L3455.21,2465.1 L3423.64,2433.85 L3418.37,2405.24 L3388.44,2379.58 L3359.49,2409.84 L3361.79,2424.97 L3370.02,2430.24 L3377.91,2429.91 L3389.42,2448.99 L3382.52,2452.28 L3390.08,2462.8 L3382.19,2465.76 L3385.15,2470.37 L3394.36,2468.39 L3396.33,2470.7 L3390.08,2475.96 L3384.82,2473.33 L3379.56,2476.62 L3387.78,2487.14 L3394.36,2485.17 L3394.03,2478.59 L3399.29,2473.33 L3403.9,2472.67 L3409.16,2484.84 L3414.1,2498.33 L3407.85,2510.17 L3396.66,2511.49 L3392.71,2517.41 L3387.12,2518.07 L3377.58,2507.21 L3371.66,2508.85 L3374.95,2526.95 L3383.83,2532.54 L3391.73,2532.54 L3390.41,2538.79 L3394.36,2545.04 L3402.58,2545.04 L3407.19,2554.58 L3404.56,2571.03" vector-effect="none" fill-rule="evenodd"/>

</g>
</g>
</svg>