<svg xmlns="http://www.w3.org/2000/svg" version="1.2" baseProfile="tiny" xmlns:inkscape="http://www.inkscape.org/namespaces/inkscape" width="315.045mm" viewBox="1526.43 1008.54 66.06 89.39" height="227.076mm" xmlns:xlink="http://www.w3.org/1999/xlink" xmlns:cc="http://creativecommons.org/ns#">
<g stroke-linejoin="bevel" stroke="black" inkscape:label="Map 1: fid_43" fill-rule="evenodd" stroke-linecap="square" inkscape:groupmode="layer" stroke-width="1" fill="none" id="Map 1: fid_43">
  <g stroke-linejoin="bevel"  fill-opacity="1" stroke="#232323" font-style="normal" stroke-linecap="square" font-family="Noto Sans" font-size="41.6667" font-weight="400" stroke-width="1" fill="#d5b43c" stroke-opacity="1">
   <path d="M1549.89,1091.99 L1568.89,1092.93 L1587.49,1090.23 L1578.19,1073.25 L1570.65,1048.59 L1557.71,1035.78 L1555.55,1024.06 L1543.29,1013.54 L1531.43,1025.94 L1532.37,1032.14 L1535.74,1034.3 L1538.97,1034.17 L1543.69,1041.98 L1540.86,1043.33 L1543.96,1047.64 L1540.73,1048.86 L1541.94,1050.74 L1545.71,1049.93 L1546.52,1050.88 L1543.96,1053.03 L1541.8,1051.96 L1539.65,1053.3 L1543.02,1057.62 L1545.71,1056.81 L1545.58,1054.11 L1547.73,1051.96 L1549.62,1051.69 L1551.78,1056.67 L1553.8,1062.2 L1551.24,1067.05 L1546.66,1067.59 L1545.04,1070.02 L1542.75,1070.29 L1538.84,1065.84 L1536.41,1066.51 L1537.76,1073.93 L1541.4,1076.22 L1544.63,1076.22 L1544.1,1078.78 L1545.71,1081.34 L1549.08,1081.34 L1550.97,1085.25 L1549.89,1091.99" fill-rule="evenodd" vector-effect="none"/>

</g>
</g>
</svg>