<svg xmlns="http://www.w3.org/2000/svg" version="1.2" baseProfile="tiny" xmlns:inkscape="http://www.inkscape.org/namespaces/inkscape" width="315.045mm" viewBox="1326.32 1214.25 87.77 151.41" height="227.076mm" xmlns:xlink="http://www.w3.org/1999/xlink" xmlns:cc="http://creativecommons.org/ns#">
<g stroke-linejoin="bevel" stroke="black" inkscape:label="Map 1: fid_39" fill-rule="evenodd" stroke-linecap="square" inkscape:groupmode="layer" stroke-width="1" fill="none" id="Map 1: fid_39">
  <g stroke-linejoin="bevel"  fill-opacity="1" stroke="#232323" font-style="normal" stroke-linecap="square" font-family="Noto Sans" font-size="41.6667" font-weight="400" stroke-width="1" fill="#987db7" stroke-opacity="1">
   <path d="M1331.32,1305.87 L1332.07,1310.56 L1338.99,1313.08 L1344.86,1327.75 L1362.67,1360.66 L1364.77,1359.61 L1366.03,1356.46 L1387.82,1340.95 L1388.03,1330.89 L1385.1,1327.96 L1383.42,1306.16 L1383.84,1293.38 L1386.99,1282.69 L1389.71,1265.29 L1398.93,1257.33 L1403.33,1240.77 L1409.09,1232.88 L1404.78,1225.83 L1403.17,1219.3 L1397.42,1219.25 L1386.66,1230.1 L1381.61,1230.79 L1369.07,1235.15 L1358.27,1245.42 L1341.25,1265.45 L1340.2,1280.43 L1338.46,1284.27 L1337.76,1294.2 L1333.06,1299.59 L1331.32,1305.87" fill-rule="evenodd" vector-effect="none"/>

</g>
</g>
</svg>