<svg xmlns="http://www.w3.org/2000/svg" version="1.2" baseProfile="tiny" xmlns:inkscape="http://www.inkscape.org/namespaces/inkscape" width="315.045mm" viewBox="1215.53 1720.52 231.57 180.68" height="227.076mm" xmlns:xlink="http://www.w3.org/1999/xlink" xmlns:cc="http://creativecommons.org/ns#">
<g stroke-linejoin="bevel" stroke="black" inkscape:label="Map 1: fid_101" fill-rule="evenodd" stroke-linecap="square" inkscape:groupmode="layer" stroke-width="1" fill="none" id="Map 1: fid_101">
  <g stroke-linejoin="bevel"  fill-opacity="1" stroke="#232323" font-style="normal" stroke-linecap="square" font-family="Noto Sans" font-size="41.6667" font-weight="400" stroke-width="1" fill="#e15989" stroke-opacity="1">
   <path d="M1427.45,1792.98 L1422.96,1796.63 L1424.04,1799.84 L1423.42,1802.29 L1423.27,1805.35 L1423.73,1808.11 L1347.07,1810.25 L1343.86,1829.22 L1340.03,1831.06 L1339.42,1835.5 L1337.58,1837.03 L1334.98,1838.4 L1332.07,1839.32 L1330.54,1840.55 L1330.85,1843.3 L1332.07,1848.35 L1333.45,1850.34 L1334.83,1850.64 L1337.12,1849.88 L1338.81,1848.5 L1343.24,1850.15 L1339.73,1854.58 L1337.28,1856.73 L1337.28,1858.56 L1334.98,1859.79 L1330.85,1861.01 L1328.71,1862.69 L1325.49,1862.08 L1323.81,1863.61 L1320.45,1862.39 L1317.69,1864.38 L1314.94,1863.76 L1313.25,1866.21 L1312.34,1867.59 L1308.51,1866.98 L1305.3,1869.12 L1303.31,1868.51 L1301.47,1868.2 L1298.72,1870.04 L1295.66,1869.12 L1294.13,1868.2 L1291.22,1868.66 L1288.01,1871.72 L1286.02,1874.17 L1284.95,1876.47 L1284.33,1879.68 L1284.33,1881.21 L1285.1,1883.04 L1285.86,1883.96 L1287.7,1884.57 L1291.22,1883.96 L1294.13,1882.74 L1296.12,1882.28 L1297.03,1884.12 L1299.18,1885.34 L1301.62,1885.19 L1302.85,1887.18 L1306.06,1888.71 L1306.22,1890.85 L1301.32,1891.77 L1297.34,1891 L1293.97,1888.86 L1293.82,1888.55 L1291.99,1888.55 L1289.69,1888.55 L1288.16,1890.24 L1286.94,1890.7 L1283.88,1889.47 L1281.89,1891.15 L1278.37,1890.08 L1276.22,1892.07 L1273.16,1891.31 L1269.34,1894.67 L1265.36,1896.2 L1263.52,1894.98 L1261.54,1892.38 L1261.54,1889.78 L1260.77,1888.4 L1259.09,1887.79 L1257.86,1885.34 L1255.57,1885.19 L1254.5,1883.81 L1252.81,1881.51 L1252.35,1879.53 L1253.27,1877.69 L1255.11,1874.93 L1255.26,1873.4 L1253.88,1871.42 L1251.74,1870.96 L1250.98,1872.18 L1250.21,1873.86 L1249.29,1875.09 L1246.39,1876.92 L1245.01,1876.92 L1242.71,1875.39 L1243.79,1871.57 L1240.73,1869.73 L1238.28,1869.73 L1236.14,1870.5 L1234.91,1871.42 L1232.92,1872.95 L1229.25,1872.95 L1226.8,1872.18 L1226.5,1866.67 L1226.04,1864.38 L1224.05,1861.47 L1223.74,1858.41 L1224.81,1855.2 L1227.57,1854.43 L1228.94,1853.36 L1230.17,1851.37 L1227.26,1849.08 L1225.12,1848.16 L1223.13,1847.55 L1220.83,1846.47 L1220.53,1845.25 L1222.06,1844.03 L1223.89,1842.34 L1224.97,1841.58 L1226.34,1841.27 L1227.11,1841.12 L1229.4,1840.05 L1231.85,1837.45 L1232.31,1836.38 L1230.01,1834.85 L1229.71,1832.55 L1229.86,1830.87 L1228.64,1830.56 L1227.57,1829.64 L1229.1,1825.21 L1227.72,1824.75 L1226.8,1823.22 L1227.57,1820.62 L1228.03,1819.24 L1228.03,1818.32 L1227.87,1816.02 L1225.27,1815.41 L1222.19,1816.82 L1223.66,1808.72 L1226.31,1809.31 L1228.69,1809.58 L1232.63,1809.4 L1252.6,1798.86 L1269.27,1798.5 L1272.2,1795.66 L1279.07,1796.67 L1281.18,1795.66 L1276.51,1782.45 L1271.38,1777.41 L1270.65,1773.01 L1271.2,1768.71 L1271.93,1765.23 L1272.66,1763.03 L1273.3,1761.01 L1272.57,1758.72 L1270,1755.88 L1267.62,1756.52 L1265.79,1756.98 L1264.97,1755.33 L1265.7,1748.35 L1265.15,1741.11 L1270.74,1735.5 L1270,1729.64 L1271.56,1726.25 L1273.94,1725.52 L1276.78,1726.34 L1279.9,1726.62 L1281.82,1729.18 L1287.5,1730.35 L1305.83,1734.26 L1320.52,1743.56 L1351.66,1752.73 L1418.52,1746.56 L1420.4,1748.72 L1421.62,1756 L1428.76,1757.21 L1433.88,1752.9 L1440.08,1750.47 L1442.1,1750.47 L1440.66,1759.55 L1431.62,1767.64 L1431.36,1776.81 L1427.45,1792.98" fill-rule="evenodd" vector-effect="none"/>

</g>
</g>
</svg>