<svg xmlns="http://www.w3.org/2000/svg" version="1.2" baseProfile="tiny" xmlns:inkscape="http://www.inkscape.org/namespaces/inkscape" width="315.045mm" viewBox="2050.74 981.218 262.66 156.662" height="227.076mm" xmlns:xlink="http://www.w3.org/1999/xlink" xmlns:cc="http://creativecommons.org/ns#">
<g stroke-linejoin="bevel" stroke="black" inkscape:label="Map 1: fid_25" fill-rule="evenodd" stroke-linecap="square" inkscape:groupmode="layer" stroke-width="1" fill="none" id="Map 1: fid_25">
  <g stroke-linejoin="bevel"  fill-opacity="1" stroke="#232323" font-style="normal" stroke-linecap="square" font-family="Noto Sans" font-size="41.6667" font-weight="400" stroke-width="1" fill="#d5b43c" stroke-opacity="1">
   <path d="M2060.62,1018.96 L2075.95,1005.73 L2081.52,1006.07 L2084.66,1012.69 L2092.67,1016.87 L2095.46,1015.48 L2101.73,1020.36 L2107.3,1020.36 L2110.79,1017.92 L2115.32,1031.16 L2127.51,1036.38 L2148.06,1034.99 L2153.29,1030.11 L2166.87,1023.49 L2174.89,1026.63 L2179.07,1026.63 L2184.29,1018.96 L2189.52,1019.66 L2196.48,1025.58 L2203.8,1020.01 L2211.46,1021.4 L2214.95,1027.32 L2221.57,1028.72 L2233.41,1027.32 L2253.62,1014.78 L2263.72,1005.03 L2265.46,1000.5 L2273.82,1000.85 L2276.96,993.185 L2282.88,987.263 L2291.59,987.611 L2294.72,990.05 L2300.99,989.353 L2304.48,986.218 L2308.4,989.004 L2304.48,1001.89 L2292.98,1013.39 L2291.24,1020.71 L2268.94,1040.21 L2253.62,1044.05 L2225.05,1056.94 L2219.13,1065.65 L2218.78,1073.31 L2218.08,1082.37 L2223.31,1101.53 L2222.26,1115.81 L2218.08,1122.43 L2217.73,1127.65 L2214.95,1131.83 L2197.88,1132.88 L2181.85,1121.73 L2176.98,1109.89 L2156.42,1091.42 L2136.91,1079.23 L2129.95,1079.93 L2113.57,1070.52 L2081.87,1062.16 L2064.45,1051.71 L2055.74,1032.9 L2058.53,1021.05 L2060.62,1018.96" fill-rule="evenodd" vector-effect="none"/>

</g>
</g>
</svg>