<svg xmlns="http://www.w3.org/2000/svg" version="1.2" baseProfile="tiny" xmlns:inkscape="http://www.inkscape.org/namespaces/inkscape" width="315.045mm" viewBox="4634.16 2307.88 626.63 367.95" height="227.076mm" xmlns:xlink="http://www.w3.org/1999/xlink" xmlns:cc="http://creativecommons.org/ns#">
<g inkscape:groupmode="layer" stroke-width="1" stroke-linejoin="bevel" stroke-linecap="square" inkscape:label="Map 1: fid_25" fill="none" stroke="black" id="Map 1: fid_25" fill-rule="evenodd">
  <g fill-opacity="1" stroke-width="2" stroke-linejoin="bevel" font-weight="400" stroke-linecap="square" font-size="83.3333" font-style="normal" fill="#becf50" stroke-opacity="1"  font-family="Noto Sans" stroke="#232323">
   <path d="M4651.06,2392.81 L4688.47,2360.5 L4702.08,2361.35 L4709.73,2377.5 L4729.29,2387.7 L4736.09,2384.3 L4751.39,2396.21 L4765,2396.21 L4773.5,2390.26 L4784.55,2422.56 L4814.31,2435.32 L4864.47,2431.92 L4877.23,2420.01 L4910.39,2403.86 L4929.94,2411.51 L4940.14,2411.51 L4952.9,2392.81 L4965.65,2394.51 L4982.66,2408.96 L5000.51,2395.36 L5019.22,2398.76 L5027.72,2413.21 L5043.87,2416.61 L5072.78,2413.21 L5122.09,2382.6 L5146.75,2358.8 L5151,2347.74 L5171.41,2348.59 L5179.06,2329.89 L5193.51,2315.43 L5214.77,2316.28 L5222.42,2322.24 L5237.73,2320.54 L5246.23,2312.88 L5255.79,2319.69 L5246.23,2351.14 L5218.17,2379.2 L5213.92,2397.06 L5159.5,2444.67 L5122.09,2454.02 L5052.37,2485.48 L5037.92,2506.74 L5037.07,2525.44 L5035.37,2547.55 L5048.12,2594.31 L5045.57,2629.17 L5035.37,2645.33 L5034.52,2658.08 L5027.72,2668.28 L4986.06,2670.83 L4946.95,2643.63 L4935.04,2614.72 L4884.88,2569.65 L4837.27,2539.9 L4820.26,2541.6 L4780.3,2518.64 L4702.93,2498.24 L4660.42,2472.73 L4639.16,2426.82 L4645.96,2397.91 L4651.06,2392.81" vector-effect="none" fill-rule="evenodd"/>

</g>
</g>
</svg>