<svg xmlns="http://www.w3.org/2000/svg" version="1.2" baseProfile="tiny" xmlns:inkscape="http://www.inkscape.org/namespaces/inkscape" width="315.045mm" viewBox="1301.79 1399.51 173.62 130.42" height="227.076mm" xmlns:xlink="http://www.w3.org/1999/xlink" xmlns:cc="http://creativecommons.org/ns#">
<g stroke-linejoin="bevel" stroke="black" inkscape:label="Map 1: fid_38" fill-rule="evenodd" stroke-linecap="square" inkscape:groupmode="layer" stroke-width="1" fill="none" id="Map 1: fid_38">
  <g stroke-linejoin="bevel"  fill-opacity="1" stroke="#232323" font-style="normal" stroke-linecap="square" font-family="Noto Sans" font-size="41.6667" font-weight="400" stroke-width="1" fill="#e15989" stroke-opacity="1">
   <path d="M1342.34,1410.17 L1343.21,1414.71 L1339.43,1417.69 L1337.24,1418.49 L1337.04,1419.09 L1337.64,1420.68 L1338.23,1423.27 L1334.65,1426.85 L1331.27,1430.03 L1330.87,1431.62 L1332.66,1433.42 L1335.05,1434.61 L1335.45,1438.79 L1334.25,1440.98 L1331.47,1442.77 L1326.29,1442.97 L1323.51,1442.57 L1321.52,1440.98 L1319.73,1431.03 L1324.5,1418.69 L1324.7,1417.49 L1325.3,1414.51 L1323.91,1412.52 L1321.12,1412.12 L1320.52,1410.73 L1322.25,1406.73 L1318.47,1406.46 L1315.24,1414.28 L1321.71,1453.1 L1312,1464.96 L1312,1464.96 L1310.97,1470.63 L1307.79,1473.82 L1306.79,1475.81 L1308.18,1478.39 L1309.18,1480.58 L1311.77,1482.57 L1311.77,1486.55 L1314.75,1487.75 L1316.74,1488.14 L1319.33,1488.54 L1320.52,1489.74 L1320.72,1494.31 L1321.12,1496.7 L1320.32,1499.29 L1319.33,1501.28 L1319.33,1502.87 L1323.31,1504.07 L1325.1,1503.07 L1325.5,1507.05 L1323.51,1511.63 L1323.31,1515.41 L1325.9,1517 L1330.07,1516.8 L1331.87,1508.44 L1333.66,1504.86 L1336.64,1503.07 L1338.63,1500.28 L1340.22,1500.09 L1341.82,1498.1 L1343.41,1498.1 L1345.2,1497.7 L1346.99,1497.9 L1348.19,1500.09 L1350.57,1503.87 L1352.17,1507.45 L1357.14,1509.04 L1358.53,1509.44 L1359.33,1511.83 L1360.13,1510.43 L1361.92,1511.23 L1361.03,1515.9 L1366.82,1514.82 L1368.17,1516.1 L1373.29,1514.22 L1375.59,1514.49 L1378.89,1515.36 L1381.11,1517.25 L1383.13,1519.07 L1385.22,1521.43 L1387.11,1523.11 L1388.59,1524.93 L1390.68,1524.12 L1390.77,1523.28 L1390.95,1522.11 L1389.71,1521.31 L1389.43,1519.99 L1387.62,1519.62 L1386.99,1519 L1384.88,1518.85 L1373.63,1503.03 L1373.04,1499.84 L1373.73,1496.96 L1375.03,1494.37 L1376.82,1492.38 L1379.9,1492.08 L1381.3,1492.88 L1381.3,1493.77 L1380.3,1495.37 L1377.71,1497.36 L1377.52,1499.84 L1378.01,1500.84 L1379.7,1499.94 L1380.3,1498.25 L1381.4,1498.25 L1382.09,1499.35 L1381.5,1501.73 L1380.4,1502.73 L1380.1,1504.22 L1380.1,1506.51 L1381.6,1508.9 L1382.99,1510.89 L1384.38,1511.49 L1385.68,1512.38 L1387.67,1509.1 L1386.97,1505.61 L1388.36,1504.22 L1390.55,1506.31 L1393.54,1506.81 L1395.33,1505.51 L1395.63,1503.13 L1395.03,1500.44 L1393.93,1497.65 L1390.85,1496.06 L1388.46,1499.05 L1386.77,1499.44 L1385.08,1497.45 L1386.67,1494.87 L1388.26,1493.57 L1388.56,1492.28 L1387.07,1490.59 L1386.87,1488.7 L1387.57,1486.31 L1390.45,1480.24 L1393.34,1478.45 L1396.12,1478.05 L1394.13,1472.98 L1394.53,1468.5 L1396.12,1463.92 L1397.12,1460.24 L1399.11,1459.94 L1399.51,1460.44 L1399.81,1464.72 L1399.51,1470.09 L1400.3,1472.48 L1402.19,1472.88 L1402.49,1475.66 L1402.59,1479.54 L1404.48,1481.83 L1406.07,1481.53 L1407.27,1478.95 L1408.86,1476.96 L1411.25,1477.45 L1412.44,1478.35 L1412.94,1477.85 L1413.94,1475.66 L1415.03,1474.97 L1414.73,1472.98 L1412.94,1471.38 L1412.34,1469.39 L1412.04,1467.1 L1412.14,1465.11 L1414.03,1464.72 L1416.22,1466.21 L1418.02,1467.8 L1419.01,1469.49 L1422,1475.76 L1421.6,1478.45 L1421.3,1480.64 L1423.93,1483.81 L1432.65,1476.08 L1432.04,1471.57 L1434.64,1463.77 L1436.86,1463.99 L1440,1467.44 L1441.76,1466.37 L1443.52,1465.75 L1446.19,1467.97 L1446.65,1465.07 L1451.23,1460.84 L1454.9,1454.97 L1459.19,1453.09 L1470.41,1452.09 L1469.99,1444.13 L1468.1,1446.85 L1464.33,1448.53 L1460.97,1445.18 L1462.86,1435.32 L1460.14,1430.29 L1454.9,1428.62 L1455.11,1420.86 L1435.61,1411.64 L1428.49,1411.43 L1419.05,1413.11 L1412.77,1406.4 L1407.74,1407.66 L1404.59,1420.02 L1400.4,1421.91 L1394.53,1419.81 L1393.06,1425.26 L1383.42,1428.41 L1376.3,1426.1 L1376.93,1405.77 L1370.01,1404.51 L1354.71,1416.46 L1349.68,1416.46 L1342.34,1410.17" fill-rule="evenodd" vector-effect="none"/>

</g>
</g>
</svg>