<svg xmlns="http://www.w3.org/2000/svg" version="1.2" baseProfile="tiny" xmlns:inkscape="http://www.inkscape.org/namespaces/inkscape" width="315.045mm" viewBox="1176.06 1370.4 122.55 158.46" height="227.076mm" xmlns:xlink="http://www.w3.org/1999/xlink" xmlns:cc="http://creativecommons.org/ns#">
<g stroke-linejoin="bevel" stroke="black" inkscape:label="Map 1: fid_7" fill-rule="evenodd" stroke-linecap="square" inkscape:groupmode="layer" stroke-width="1" fill="none" id="Map 1: fid_7">
  <g stroke-linejoin="bevel"  fill-opacity="1" stroke="#232323" font-style="normal" stroke-linecap="square" font-family="Noto Sans" font-size="41.6667" font-weight="400" stroke-width="1" fill="#d5b43c" stroke-opacity="1">
   <path d="M1251.24,1424.66 L1250.39,1424.81 L1248.15,1425.46 L1246.96,1426.95 L1247.01,1429.89 L1247.26,1431.28 L1247.71,1431.83 L1248.65,1431.78 L1248.55,1432.18 L1247.63,1432.13 L1247.43,1432.1 L1245.42,1433.92 L1245.09,1435.98 L1246.81,1438 L1247.73,1438.67 L1248.9,1439.24 L1249.7,1439.42 L1250.37,1440.21 L1252.26,1440.46 L1253.78,1440.01 L1255.02,1440.16 L1255.87,1440.24 L1256.39,1439.29 L1257.56,1436.41 L1260.1,1436.41 L1261.54,1433.97 L1262.61,1433.52 L1263.55,1434.14 L1264.87,1433.84 L1266.24,1434.69 L1268.21,1434.57 L1269.75,1434.24 L1271.12,1434.69 L1272.81,1434.69 L1273.28,1435.01 L1274.28,1436.83 L1277.11,1436.8 L1277.34,1435.91 L1276.89,1434.96 L1275.59,1434.24 L1275.44,1432.97 L1275.37,1431.7 L1276.19,1430.83 L1276.44,1429.57 L1276.76,1428.25 L1272.71,1427.62 L1272.58,1428.5 L1271.54,1429.54 L1269.97,1430.06 L1268.8,1429.22 L1267.24,1427.8 L1266.91,1425.98 L1267.43,1424.49 L1268.28,1423.52 L1269.72,1423.72 L1270.2,1424.19 L1270.27,1424.96 L1270.25,1425.78 L1270.54,1427.03 L1271.89,1426.95 L1272.76,1427.35 L1276.84,1428.05 L1278.8,1427.38 L1283.36,1429.79 L1285.54,1433.69 L1287.34,1442.85 L1285.64,1444.14 L1286.34,1445.24 L1284.55,1445.74 L1283.95,1446.63 L1287.14,1447.13 L1287.83,1450.61 L1290.22,1452.5 L1290.12,1455.79 L1289.23,1458.37 L1287.73,1459.47 L1288.83,1462.45 L1290.82,1462.45 L1291.81,1461.16 L1292.51,1458.07 L1293.61,1458.67 L1284.45,1485.94 L1283.36,1485.35 L1287.54,1473.9 L1284.85,1473.4 L1282.26,1474.4 L1282.36,1477.19 L1282.76,1479.97 L1283.26,1482.96 L1281.47,1484.65 L1278.58,1485.05 L1276.69,1482.16 L1276.69,1479.47 L1275.59,1475.69 L1272.31,1474.5 L1270.52,1477.39 L1270.22,1480.57 L1271.61,1483.46 L1273.4,1483.16 L1273.8,1484.05 L1272.61,1484.75 L1273.11,1486.94 L1274.4,1488.63 L1276.99,1488.73 L1278.48,1490.72 L1277.19,1492.31 L1275.1,1492.51 L1273.01,1492.81 L1272.31,1494.7 L1272.61,1496.49 L1274.3,1497.19 L1275.4,1497.88 L1275.99,1499.38 L1276.19,1502.16 L1275.89,1503.95 L1274.6,1507.04 L1274,1508.83 L1272.51,1509.82 L1272.01,1512.61 L1269.72,1514.5 L1268.73,1515.99 L1266.64,1517.59 L1264.55,1517.09 L1263.35,1518.58 L1262.96,1520.47 L1261.36,1523.56 L1259.18,1523.86 L1256.59,1523.46 L1254.5,1520.47 L1253.5,1518.38 L1253.5,1517.39 L1255.19,1513.81 L1257.19,1512.41 L1258.88,1511.02 L1258.88,1508.83 L1256.69,1507.93 L1255.1,1507.93 L1254.6,1506.74 L1254.8,1505.35 L1254.9,1503.26 L1255.19,1501.07 L1257.09,1500.37 L1257.38,1498.58 L1255.1,1497.09 L1252.41,1496.69 L1251.51,1496.59 L1249.03,1495 L1248.23,1492.61 L1246.74,1491.52 L1246.24,1490.12 L1247.73,1488.13 L1245.94,1487.04 L1243.45,1488.33 L1241.56,1483.26 L1240.47,1483.06 L1240.17,1485.84 L1238.88,1485.94 L1239.87,1472.51 L1239.07,1472.61 L1239.57,1464.35 L1237.28,1464.05 L1235.99,1470.72 L1233.9,1471.12 L1232.71,1478.68 L1230.62,1481.86 L1231.01,1484.35 L1229.82,1487.83 L1230.62,1490.02 L1229.72,1491.61 L1224.94,1495.69 L1223.85,1498.38 L1221.26,1500.27 L1219.27,1501.47 L1218.28,1503.75 L1215.69,1504.35 L1214.5,1505.94 L1213.3,1507.14 L1211.61,1508.43 L1211.61,1509.92 L1211.61,1510.82 L1209.62,1511.32 L1205.24,1513.11 L1204.84,1514.2 L1203.65,1516.39 L1202.26,1517.49 L1200.56,1517.89 L1199.97,1519.78 L1197.68,1519.58 L1193.3,1520.37 L1191.11,1521.17 L1188.62,1521.17 L1188.43,1520.17 L1189.02,1518.28 L1190.71,1517.39 L1192.11,1517.39 L1192.9,1518.28 L1193.5,1519.28 L1193.9,1519.68 L1197.28,1519.08 L1195.89,1516.29 L1195.59,1514.6 L1193.5,1512.21 L1192.11,1511.91 L1190.61,1512.51 L1189.92,1514 L1188.23,1515.2 L1185.24,1514.6 L1184.94,1512.21 L1186.14,1509.73 L1188.23,1507.44 L1190.02,1506.64 L1189.82,1503.56 L1188.62,1502.36 L1186.43,1502.16 L1185.04,1501.76 L1184.44,1499.68 L1184.15,1498.48 L1182.36,1497.88 L1181.16,1497.49 L1181.16,1495.1 L1182.26,1493.8 L1184.15,1491.81 L1184.05,1491.12 L1182.65,1490.32 L1181.06,1489.53 L1181.86,1487.63 L1185.04,1485.74 L1186.43,1483.95 L1186.63,1481.07 L1185.54,1478.78 L1183.35,1477.78 L1181.86,1477.58 L1181.26,1475.69 L1183.25,1472.91 L1183.25,1472.61 L1182.75,1470.62 L1183.15,1468.83 L1190.96,1460.12 L1197.53,1444.29 L1202.36,1444.24 L1203.25,1439.21 L1202.31,1437.12 L1200.42,1436.33 L1199.72,1435.33 L1199.62,1433.89 L1199.87,1433.14 L1200.61,1433.14 L1201.21,1433.79 L1202.01,1434.68 L1203.4,1435.08 L1204.89,1434.83 L1205.29,1434.44 L1204.94,1431.19 L1203.7,1430.59 L1203.15,1429.15 L1203.15,1427.31 L1203.15,1424.62 L1203.7,1423.68 L1204.35,1423.48 L1204.84,1422.48 L1204.94,1421.04 L1205.19,1419.94 L1206.14,1419.45 L1207.53,1418.95 L1209.97,1418.67 L1210.62,1415.37 L1209.17,1412.95 L1209.32,1409.92 L1209.92,1407.58 L1210.76,1405.64 L1210.81,1404.6 L1211.86,1403.25 L1213.15,1402.16 L1214.2,1402.16 L1214.84,1403.25 L1214.6,1405.29 L1215.49,1406.39 L1216.78,1406.04 L1217.43,1405.09 L1217.23,1403.25 L1216.74,1401.76 L1217.48,1400.12 L1217.18,1398.28 L1216.39,1396.39 L1215.39,1395.54 L1214.45,1394.15 L1213.3,1393.1 L1213.35,1391.41 L1213.63,1389.38 L1218.75,1377.29 L1220.52,1377.54 L1220.96,1376.55 L1221.41,1375.6 L1222.61,1375.4 L1223.45,1375.8 L1223.75,1376.75 L1223.8,1377.64 L1223.7,1378.74 L1224,1379.83 L1226.09,1380.43 L1227.13,1380.78 L1227.58,1381.72 L1227.63,1383.21 L1233.25,1392.92 L1233.8,1392.67 L1234.1,1389.08 L1233.55,1388.09 L1233.3,1387.19 L1233.15,1385.5 L1233.4,1383.76 L1233.65,1381.67 L1234.45,1380.38 L1235.14,1380.08 L1235.94,1380.08 L1236.98,1380.87 L1237.38,1382.77 L1238.18,1383.66 L1238.68,1383.61 L1239.05,1381.98 L1243.23,1385.86 L1243.13,1388.74 L1243.73,1392.03 L1243.63,1394.12 L1237.26,1404.96 L1238.95,1412.72 L1240.94,1413.62 L1242.04,1415.91 L1244.52,1416.31 L1246.02,1419.19 L1251.59,1420.88 L1251.24,1424.66" fill-rule="evenodd" vector-effect="none"/>

</g>
</g>
</svg>