<svg xmlns="http://www.w3.org/2000/svg" version="1.2" baseProfile="tiny" xmlns:inkscape="http://www.inkscape.org/namespaces/inkscape" width="315.045mm" viewBox="2782.69 2643.17 226.95 574.48" height="227.076mm" xmlns:xlink="http://www.w3.org/1999/xlink" xmlns:cc="http://creativecommons.org/ns#">
<g inkscape:groupmode="layer" stroke-width="1" stroke-linejoin="bevel" stroke-linecap="square" inkscape:label="Map 1: fid_7" fill="none" stroke="black" id="Map 1: fid_7" fill-rule="evenodd">
  <g stroke-width="1" stroke-linejoin="bevel" font-weight="400" stroke-linecap="square" font-size="83.3333" font-style="normal" fill="none" stroke-opacity="1" transform="matrix(1,0,0,1,0,0)" font-family="Noto Sans" stroke="#000000"/>
  <g stroke-width="1" stroke-linejoin="bevel" font-weight="400" stroke-linecap="square" font-size="83.3333" font-style="normal" fill="none" stroke-opacity="1" transform="matrix(1,0,0,1,0,0)" font-family="Noto Sans" stroke="#000000"/>
  <g stroke-width="1" stroke-linejoin="bevel" font-weight="400" stroke-linecap="square" font-size="83.3333" font-style="normal" fill="none" stroke-opacity="1" transform="matrix(23.619,0,0,23.619,-728.486,-229.753)" font-family="Noto Sans" stroke="#000000"/>
  <g stroke-width="1" stroke-linejoin="bevel" font-weight="400" stroke-linecap="square" font-size="83.3333" font-style="normal" fill="none" stroke-opacity="1" transform="matrix(23.619,0,0,23.619,-728.486,-229.753)" font-family="Noto Sans" stroke="#000000"/>
  <g fill-opacity="0" font-weight="400" font-size="83.3333" font-style="normal" fill="#000000" transform="matrix(0.999873,0,0,0.999873,-728.486,-229.753)" font-family="Noto Sans" stroke="none">
   <rect y="0" width="8098" height="5627" x="0"/>
  </g>
  <g stroke-width="1" stroke-linejoin="bevel" font-weight="400" stroke-linecap="square" font-size="83.3333" font-style="normal" fill="none" stroke-opacity="1" transform="matrix(0.999873,0,0,0.999873,-728.486,-229.753)" font-family="Noto Sans" stroke="#000000"/>
  <g fill-opacity="1" stroke-width="2" stroke-linejoin="bevel" font-weight="400" stroke-linecap="square" font-size="83.3333" font-style="normal" fill="#becf50" stroke-opacity="1" transform="matrix(0.999873,0,0,0.999873,-728.486,-229.753)" font-family="Noto Sans" stroke="#232323">
   <path d="M2915.2,2679.39 L2906.59,2668.02 L2897.88,2663.55 L2863.66,2631.67 L2853.67,2629.97 L2847.72,2623.17 L2843.68,2630.61 L2833.47,2634.64 L2831.14,2639.96 L2830.5,2648.04 L2824.33,2657.18 L2817.96,2676.73 L2816.04,2689.27 L2816.26,2699.05 L2821.36,2706.28 L2817.11,2736.67 L2807.54,2746.03 L2800.53,2766.22 L2779.06,2764.94 L2762.69,2798.53 L2762.91,2822.65 L2771.83,2831.37 L2772.05,2840.51 L2781.82,2850.5 L2788.62,2861.34 L2784.37,2905.87 L2792.88,2955.18 L2790.75,2978.14 L2778,2968.36 L2771.62,2978.56 L2775.02,3004.07 L2784.8,3025.75 L2786.5,3043.71 L2787.35,3084.95 L2796.28,3103.66 L2796.28,3141.49 L2804.78,3154.67 L2817.53,3157.65 L2829.01,3150.42 L2854.94,3098.13 L2871.1,3093.03 L2875.35,3077.72 L2886.83,3064.54 L2888.53,3040.31 L2892.78,3030.96 L2895.33,2994.4 L2936.88,2945.51 L2932.63,2934.46 L2919.88,2931.06 L2912.65,2921.28 L2912.23,2896.2 L2928.81,2872.82 L2941.56,2871.97 L2949.64,2855.39 L2931.36,2750.81 L2925.41,2749.96 L2921.15,2734.65 L2904.58,2718.92 L2897.35,2703.19 L2897.77,2692.14 L2902.45,2683.21 L2915.2,2679.39" vector-effect="none" fill-rule="evenodd"/>
  </g>
  <g stroke-width="1" stroke-linejoin="bevel" font-weight="400" stroke-linecap="square" font-size="83.3333" font-style="normal" fill="none" stroke-opacity="1" transform="matrix(0.999873,0,0,0.999873,-728.486,-229.753)" font-family="Noto Sans" stroke="#000000"/>
  <g stroke-width="1" stroke-linejoin="bevel" font-weight="400" stroke-linecap="square" font-size="83.3333" font-style="normal" fill="none" stroke-opacity="1" transform="matrix(23.619,0,0,23.619,-728.486,-229.753)" font-family="Noto Sans" stroke="#000000"/>
  <g stroke-width="1" stroke-linejoin="bevel" font-weight="400" stroke-linecap="square" font-size="83.3333" font-style="normal" fill="none" stroke-opacity="1" transform="matrix(23.619,0,0,23.619,-728.486,-229.753)" font-family="Noto Sans" stroke="#000000"/>
  <g stroke-width="1" stroke-linejoin="bevel" font-weight="400" stroke-linecap="square" font-size="83.3333" font-style="normal" fill="none" stroke-opacity="1" transform="matrix(23.619,0,0,23.619,-728.486,-229.753)" font-family="Noto Sans" stroke="#000000"/>
  <g stroke-width="1" stroke-linejoin="bevel" font-weight="400" stroke-linecap="square" font-size="83.3333" font-style="normal" fill="none" stroke-opacity="1" transform="matrix(1,0,0,1,0,0)" font-family="Noto Sans" stroke="#000000"/>
  <g stroke-width="1" stroke-linejoin="bevel" font-weight="400" stroke-linecap="square" font-size="83.3333" font-style="normal" fill="none" stroke-opacity="1" transform="matrix(23.619,0,0,23.619,-728.486,-229.753)" font-family="Noto Sans" stroke="#000000"/>
  <g stroke-width="1" stroke-linejoin="bevel" font-weight="400" stroke-linecap="square" font-size="83.3333" font-style="normal" fill="none" stroke-opacity="1" transform="matrix(23.619,0,0,23.619,-728.486,-229.753)" font-family="Noto Sans" stroke="#000000"/>
  <g stroke-width="1" stroke-linejoin="bevel" font-weight="400" stroke-linecap="square" font-size="83.3333" font-style="normal" fill="none" stroke-opacity="1" transform="matrix(1,0,0,1,0,0)" font-family="Noto Sans" stroke="#000000"/>
 </g>
 
</svg>