<svg xmlns="http://www.w3.org/2000/svg" version="1.2" baseProfile="tiny" xmlns:inkscape="http://www.inkscape.org/namespaces/inkscape" width="315.045mm" viewBox="1282.51 1884.04 128.22 140.31" height="227.076mm" xmlns:xlink="http://www.w3.org/1999/xlink" xmlns:cc="http://creativecommons.org/ns#">
<g stroke-linejoin="bevel" stroke="black" inkscape:label="Map 1: fid_109" fill-rule="evenodd" stroke-linecap="square" inkscape:groupmode="layer" stroke-width="1" fill="none" id="Map 1: fid_109">
  <g stroke-linejoin="bevel"  fill-opacity="1" stroke="#232323" font-style="normal" stroke-linecap="square" font-family="Noto Sans" font-size="41.6667" font-weight="400" stroke-width="1" fill="#c43c39" stroke-opacity="1">
   <path d="M1287.86,1995.59 L1287.51,1998.55 L1289.6,1998.55 L1292.39,1996.96 L1293.38,1997.16 L1292.78,1998.45 L1295.17,1998.65 L1295.07,2000.15 L1292.88,2000.64 L1291.89,2001.94 L1293.78,2003.33 L1294.18,2005.42 L1291.79,2007.81 L1292.88,2010.39 L1291.39,2012.78 L1293.58,2013.48 L1292.59,2016.96 L1293.88,2018.36 L1296.37,2018.95 L1297.66,2017.46 L1297.26,2015.37 L1297.36,2013.58 L1298.75,2012.19 L1300.55,2013.08 L1302.34,2013.78 L1304.03,2012.38 L1306.32,2013.18 L1307.71,2011.79 L1309.2,2012.29 L1310,2011.29 L1310.4,2009.8 L1310.2,2009.2 L1309.5,2006.22 L1309.6,2003.93 L1313.38,2004.52 L1314.88,2004.92 L1314.78,2007.81 L1314.58,2009.2 L1315.57,2010.89 L1315.17,2012.58 L1317.36,2013.68 L1320.45,2012.78 L1331.99,2019.35 L1333.98,2019.25 L1334.78,2016.86 L1335.37,2014.87 L1338.06,2014.47 L1339.75,2013.88 L1338.26,2007.01 L1340.85,2004.42 L1342.24,2003.83 L1342.04,2000.44 L1343.43,1998.45 L1346.32,1998.95 L1348.21,2001.64 L1350.4,2001.94 L1351.2,2001.44 L1351.79,1999.15 L1354.48,1998.95 L1355.67,1997.46 L1356.87,1995.97 L1358.26,1994.57 L1358.46,1992.98 L1359.75,1991.79 L1360.15,1990.59 L1360.55,1988.6 L1360.05,1987.41 L1359.55,1987.01 L1351.29,1983.93 L1351.59,1981.54 L1348.91,1980.24 L1346.72,1981.34 L1343.33,1980.84 L1342.84,1978.75 L1344.83,1975.07 L1347.02,1972.88 L1349.9,1973.48 L1352.59,1975.87 L1354.58,1977.86 L1356.77,1978.35 L1359.65,1977.66 L1361.15,1975.22 L1360.05,1974.62 L1360.25,1972.23 L1361.35,1969.84 L1362.44,1967.95 L1364.13,1966.76 L1364.33,1964.87 L1365.33,1964.77 L1365.62,1961.88 L1366.02,1959.89 L1366.92,1956.31 L1369.01,1954.42 L1371.1,1954.02 L1371.89,1951.54 L1371.69,1950.04 L1371.2,1948.35 L1368.71,1946.86 L1366.02,1944.77 L1366.02,1942.78 L1367.32,1940.29 L1369.8,1940.99 L1370.6,1943.38 L1372.39,1942.98 L1373.19,1941.29 L1374.08,1941.49 L1375.87,1943.08 L1377.37,1944.57 L1377.96,1946.06 L1378.86,1947.46 L1378.36,1950.44 L1381.05,1951.24 L1382.04,1949.15 L1382.04,1947.85 L1385.33,1941.68 L1387.32,1941.68 L1387.32,1943.08 L1388.41,1943.18 L1388.51,1941.58 L1390.7,1941.98 L1391.89,1939.1 L1393.69,1938.8 L1393.98,1936.61 L1392.39,1935.81 L1391.3,1936.81 L1390.3,1937.8 L1389.71,1938 L1388.71,1939.59 L1385.72,1940.09 L1385.43,1939 L1389.21,1935.51 L1392.59,1935.12 L1388.81,1925.56 L1386.92,1918 L1385.92,1916.11 L1386.52,1914.62 L1387.32,1914.12 L1388.01,1912.53 L1388.61,1910.34 L1390.3,1910.64 L1391.3,1911.83 L1390.4,1913.62 L1389.71,1914.22 L1390,1920.59 L1391.89,1921.48 L1392.69,1923.57 L1394.48,1924.47 L1394.98,1926.06 L1396.47,1926.66 L1396.67,1928.45 L1396.07,1931.53 L1396.37,1933.72 L1399.06,1934.02 L1400.95,1933.03 L1401.35,1932.03 L1401.65,1929.74 L1402.44,1928.05 L1404.73,1925.86 L1405.73,1923.77 L1404.53,1920.69 L1401.94,1919.99 L1399.56,1919.89 L1399.06,1918.2 L1399.16,1916.31 L1398.86,1913.52 L1398.76,1910.44 L1397.17,1908.85 L1394.28,1906.86 L1392.39,1904.47 L1389.71,1903.27 L1388.01,1902.18 L1387.81,1899.39 L1385.82,1894.82 L1382.84,1894.42 L1381.84,1897 L1382.54,1899.59 L1384.73,1900.89 L1383.93,1903.67 L1385.03,1905.07 L1385.53,1906.76 L1384.03,1907.65 L1382.04,1907.95 L1380.25,1904.27 L1378.56,1902.88 L1377.37,1899.09 L1377.86,1894.82 L1377.76,1892.13 L1377.37,1890.44 L1376.37,1889.04 L1371.2,1893.42 L1370.9,1895.31 L1369.8,1896.51 L1370.6,1898.1 L1369.8,1899.69 L1369.8,1902.08 L1368.61,1903.87 L1371.4,1904.77 L1372.09,1906.26 L1370.6,1907.15 L1367.91,1906.56 L1365.33,1908.45 L1362.34,1909.64 L1361.35,1911.53 L1361.35,1913.13 L1359.45,1914.12 L1358.96,1916.01 L1357.17,1916.01 L1355.47,1918.4 L1354.08,1919.2 L1353.19,1920.59 L1351.79,1920.39 L1350.8,1921.38 L1350.2,1923.37 L1346.62,1923.57 L1344.63,1921.68 L1345.32,1918.8 L1346.42,1917.11 L1348.11,1916.31 L1350,1916.71 L1351.79,1917.3 L1352.49,1918.3 L1353.68,1918.1 L1354.38,1917.3 L1353.98,1916.11 L1353.29,1915.12 L1351.69,1915.02 L1351.59,1913.32 L1350.4,1912.83 L1348.61,1913.52 L1345.82,1913.42 L1345.72,1912.33 L1347.81,1910.94 L1347.12,1908.35 L1345.22,1908.45 L1344.33,1909.94 L1343.73,1911.04 L1342.64,1910.94 L1340.85,1910.04 L1339.01,1910.36 L1338.81,1914.17 L1336.62,1919.84 L1325.07,1930.89 L1312.34,1955.49 L1312.84,1964.75 L1316.96,1964.99 L1317.66,1966.39 L1319.95,1966.49 L1321.54,1967.08 L1322.14,1969.37 L1323.13,1971.56 L1324.03,1974.05 L1326.02,1974.65 L1329.7,1980.22 L1327.71,1981.91 L1324.63,1980.82 L1323.13,1978.73 L1320.35,1978.53 L1319.05,1979.72 L1317.96,1981.31 L1313.98,1983.2 L1310.3,1983 L1310.3,1984.2 L1310.1,1986.19 L1306.02,1986.09 L1302.39,1981.66 L1287.86,1995.59" fill-rule="evenodd" vector-effect="none"/>

</g>
</g>
</svg>