<svg xmlns="http://www.w3.org/2000/svg" version="1.2" baseProfile="tiny" xmlns:inkscape="http://www.inkscape.org/namespaces/inkscape" width="315.045mm" viewBox="1517.93 1194.71 65.53 49.76" height="227.076mm" xmlns:xlink="http://www.w3.org/1999/xlink" xmlns:cc="http://creativecommons.org/ns#">
<g stroke-linejoin="bevel" stroke="black" inkscape:label="Map 1: fid_45" fill-rule="evenodd" stroke-linecap="square" inkscape:groupmode="layer" stroke-width="1" fill="none" id="Map 1: fid_45">
  <g stroke-linejoin="bevel"  fill-opacity="1" stroke="#232323" font-style="normal" stroke-linecap="square" font-family="Noto Sans" font-size="41.6667" font-weight="400" stroke-width="1" fill="#91522d" stroke-opacity="1">
   <path d="M1522.93,1205.37 L1526.03,1200.65 L1538.03,1201.46 L1538.7,1199.71 L1541.67,1200.92 L1543.42,1199.71 L1550.16,1209.28 L1556.9,1212.92 L1561.62,1218.04 L1558.38,1222.62 L1564.45,1228.55 L1569.57,1230.04 L1576.98,1229.09 L1578.46,1237.58 L1576.17,1238.93 L1575.77,1236.91 L1572.8,1237.45 L1571.86,1235.83 L1569.97,1237.99 L1566.6,1239.47 L1553.53,1232.19 L1555.01,1228.69 L1553.4,1227.2 L1551.78,1229.77 L1545.44,1224.78 L1544.77,1225.86 L1543.42,1225.05 L1544.36,1223.84 L1532.1,1213.32 L1531.29,1214.4 L1522.93,1205.37" fill-rule="evenodd" vector-effect="none"/>

</g>
</g>
</svg>