<svg xmlns="http://www.w3.org/2000/svg" version="1.2" baseProfile="tiny" xmlns:inkscape="http://www.inkscape.org/namespaces/inkscape" width="315.045mm" viewBox="1465.27 1233.57 50.76 69.3" height="227.076mm" xmlns:xlink="http://www.w3.org/1999/xlink" xmlns:cc="http://creativecommons.org/ns#">
<g stroke-linejoin="bevel" stroke="black" inkscape:label="Map 1: fid_36" fill-rule="evenodd" stroke-linecap="square" inkscape:groupmode="layer" stroke-width="1" fill="none" id="Map 1: fid_36">
  <g stroke-linejoin="bevel"  fill-opacity="1" stroke="#232323" font-style="normal" stroke-linecap="square" font-family="Noto Sans" font-size="41.6667" font-weight="400" stroke-width="1" fill="#91522d" stroke-opacity="1">
   <path d="M1478.12,1244.38 L1483.51,1247.71 L1483.51,1253.28 L1477.24,1263.73 L1472.54,1274.53 L1470.27,1284.99 L1475.85,1288.64 L1477.06,1293.52 L1481.59,1295.26 L1486.82,1287.6 L1490.48,1287.08 L1488.21,1291.43 L1492.39,1291.78 L1493.09,1294.74 L1494.66,1297.87 L1497.44,1297.7 L1499.19,1291.26 L1505.28,1286.2 L1506.68,1278.89 L1511.03,1271.57 L1510.33,1264.43 L1505.8,1250.5 L1506.92,1246.47 L1503.67,1246.35 L1498.21,1248.56 L1496.82,1245.66 L1494.38,1244.84 L1491.36,1245.42 L1489.16,1243.68 L1485.79,1242.29 L1483.58,1238.57 L1478.12,1244.38" fill-rule="evenodd" vector-effect="none"/>

</g>
</g>
</svg>