<svg xmlns="http://www.w3.org/2000/svg" version="1.2" baseProfile="tiny" xmlns:inkscape="http://www.inkscape.org/namespaces/inkscape" width="315.045mm" viewBox="3534.49 1015.74 327.99 366.78" height="227.076mm" xmlns:xlink="http://www.w3.org/1999/xlink" xmlns:cc="http://creativecommons.org/ns#">
<g inkscape:groupmode="layer" stroke-width="1" stroke-linejoin="bevel" stroke-linecap="square" inkscape:label="Map 1: fid_30" fill="none" stroke="black" id="Map 1: fid_30" fill-rule="evenodd">
  <g fill-opacity="1" stroke-width="2" stroke-linejoin="bevel" font-weight="400" stroke-linecap="square" font-size="83.3333" font-style="normal" fill="#a47158" stroke-opacity="1"  font-family="Noto Sans" stroke="#232323">
   <path d="M3539.49,1082.81 L3547.14,1113.52 L3571.37,1140.73 L3593.9,1225.33 L3638.12,1264.86 L3647.47,1289.95 L3650.44,1320.13 L3683.18,1342.23 L3701.46,1347.76 L3724.41,1377.52 L3752.05,1366.47 L3759.7,1354.56 L3788.61,1341.81 L3801.36,1306.95 L3804.76,1250.41 L3857.48,1189.62 L3848.97,1176.44 L3832.39,1168.36 L3802.21,1126.7 L3789.46,1126.28 L3769.48,1112.67 L3714.21,1085.04 L3715.49,1102.04 L3704.01,1099.07 L3700.18,1106.72 L3710.81,1116.07 L3706.56,1124.15 L3713.36,1131.8 L3709.54,1135.63 L3697.21,1124.15 L3691.25,1104.59 L3692.53,1090.57 L3687.43,1085.04 L3678.08,1085.46 L3644.49,1045.5 L3627.49,1041.25 L3616.43,1035.73 L3602.41,1020.74 L3601.98,1029.67 L3583.7,1028.82 L3556.92,1045.4 L3564.57,1059.85 L3565.85,1068.35 L3539.49,1082.81" vector-effect="none" fill-rule="evenodd"/>

</g>
</g>
</svg>