<svg xmlns="http://www.w3.org/2000/svg" version="1.2" baseProfile="tiny" xmlns:inkscape="http://www.inkscape.org/namespaces/inkscape" width="315.045mm" viewBox="1600.18 451.788 140.29 156.183" height="227.076mm" xmlns:xlink="http://www.w3.org/1999/xlink" xmlns:cc="http://creativecommons.org/ns#">
<g stroke-linejoin="bevel" stroke="black" inkscape:label="Map 1: fid_30" fill-rule="evenodd" stroke-linecap="square" inkscape:groupmode="layer" stroke-width="1" fill="none" id="Map 1: fid_30">
  <g stroke-linejoin="bevel"  fill-opacity="1" stroke="#232323" font-style="normal" stroke-linecap="square" font-family="Noto Sans" font-size="41.6667" font-weight="400" stroke-width="1" fill="#987db7" stroke-opacity="1">
   <path d="M1605.18,482.219 L1608.31,494.803 L1618.24,505.951 L1627.47,540.613 L1645.59,556.813 L1649.42,567.089 L1650.64,579.456 L1664.05,588.514 L1671.54,590.778 L1680.95,602.971 L1692.27,598.442 L1695.4,593.565 L1707.25,588.34 L1712.47,574.057 L1713.87,550.89 L1735.47,525.982 L1731.98,520.582 L1725.19,517.273 L1712.82,500.203 L1707.6,500.029 L1699.41,494.455 L1676.77,483.133 L1677.29,490.1 L1672.59,488.881 L1671.02,492.016 L1675.37,495.848 L1673.63,499.158 L1676.42,502.293 L1674.85,503.861 L1669.8,499.158 L1667.36,491.145 L1667.88,485.397 L1665.79,483.133 L1661.96,483.307 L1648.2,466.934 L1641.23,465.192 L1636.7,462.928 L1630.96,456.788 L1630.78,460.446 L1623.29,460.097 L1612.32,466.89 L1615.45,472.813 L1615.98,476.296 L1605.18,482.219" fill-rule="evenodd" vector-effect="none"/>

</g>
</g>
</svg>