<svg xmlns="http://www.w3.org/2000/svg" version="1.2" baseProfile="tiny" xmlns:inkscape="http://www.inkscape.org/namespaces/inkscape" width="315.045mm" viewBox="1580.84 677.181 122.52 100.031" height="227.076mm" xmlns:xlink="http://www.w3.org/1999/xlink" xmlns:cc="http://creativecommons.org/ns#">
<g stroke-linejoin="bevel" stroke="black" inkscape:label="Map 1: fid_34" fill-rule="evenodd" stroke-linecap="square" inkscape:groupmode="layer" stroke-width="1" fill="none" id="Map 1: fid_34">
  <g stroke-linejoin="bevel"  fill-opacity="1" stroke="#232323" font-style="normal" stroke-linecap="square" font-family="Noto Sans" font-size="41.6667" font-weight="400" stroke-width="1" fill="#d5b43c" stroke-opacity="1">
   <path d="M1588.28,719.108 L1585.84,725.618 L1588.89,726.402 L1591.94,719.608 L1598.3,724.747 L1598.3,729.45 L1601.78,730.234 L1602.22,734.762 L1631.22,766.899 L1643.93,772.212 L1644.89,767.509 L1637.23,762.719 L1639.05,761.151 L1640.27,754.968 L1643.93,754.881 L1653.08,762.632 L1653.69,760.803 L1650.64,753.226 L1653.51,744.778 L1650.29,738.682 L1651.6,732.933 L1655.43,723.353 L1665.7,722.482 L1694.53,726.423 L1696.62,727.12 L1695.93,714.579 L1698.36,710.399 L1698.36,706.218 L1692.44,705.173 L1688.96,694.025 L1672.24,683.574 L1670.15,682.878 L1656.56,687.406 L1650.64,688.299 L1638.45,682.181 L1614.41,682.529 L1605.35,692.632 L1588.28,719.108" fill-rule="evenodd" vector-effect="none"/>

</g>
</g>
</svg>