<svg xmlns="http://www.w3.org/2000/svg" version="1.2" baseProfile="tiny" xmlns:inkscape="http://www.inkscape.org/namespaces/inkscape" width="315.045mm" viewBox="1219.92 1287.47 68.81 155.23" height="227.076mm" xmlns:xlink="http://www.w3.org/1999/xlink" xmlns:cc="http://creativecommons.org/ns#">
<g stroke-linejoin="bevel" stroke="black" inkscape:label="Map 1: fid_111" fill-rule="evenodd" stroke-linecap="square" inkscape:groupmode="layer" stroke-width="1" fill="none" id="Map 1: fid_111">
  <g stroke-linejoin="bevel"  fill-opacity="1" stroke="#232323" font-style="normal" stroke-linecap="square" font-family="Noto Sans" font-size="41.6667" font-weight="400" stroke-width="1" fill="#987db7" stroke-opacity="1">
   <path d="M1239.05,1381.98 L1243.23,1385.86 L1243.13,1388.74 L1243.73,1392.03 L1243.63,1394.12 L1237.26,1404.96 L1238.35,1409.24 L1238.95,1412.72 L1240.94,1413.62 L1242.04,1415.91 L1244.52,1416.31 L1246.02,1419.19 L1249.5,1419.89 L1251.59,1420.88 L1251.19,1426.46 L1250.79,1428.55 L1248.8,1430.83 L1248.7,1434.32 L1252.09,1437.7 L1254.57,1437.1 L1254.77,1436.31 L1253.78,1432.92 L1254.77,1431.73 L1253.48,1429.74 L1256.86,1427.85 L1256.86,1424.96 L1257.76,1423.97 L1258.65,1421.58 L1260.44,1420.39 L1261.44,1418.79 L1262.93,1417.2 L1261.94,1414.51 L1259.85,1412.33 L1257.96,1411.43 L1256.46,1410.43 L1256.86,1407.75 L1258.55,1404.27 L1261.14,1403.07 L1263.13,1403.97 L1264.42,1405.86 L1265.62,1407.65 L1266.32,1407.95 L1275.37,1406.06 L1276.37,1407.85 L1275.67,1409.44 L1273.28,1411.03 L1271.89,1413.12 L1272.78,1416.6 L1275.47,1418.5 L1277.86,1418.1 L1279.35,1415.61 L1280.25,1412.92 L1281.14,1410.93 L1281.14,1406.06 L1282.44,1405.26 L1282.83,1394.61 L1283.73,1393.32 L1278.75,1383.27 L1278.85,1380.68 L1280.15,1377.8 L1281.34,1376.2 L1282.14,1374.41 L1282.33,1372.19 L1266.22,1350.85 L1268.04,1347.28 L1266.83,1332.1 L1263.17,1330.01 L1261.86,1327.75 L1255.59,1324.18 L1251.24,1323.48 L1252.63,1315.03 L1250.19,1311.81 L1246.41,1302.82 L1245.02,1301.52 L1243.53,1302.42 L1242.83,1304.61 L1240.54,1306.6 L1239.25,1306.2 L1239.25,1302.52 L1239.65,1296.75 L1240.34,1293.26 L1238.75,1292.57 L1237.26,1293.36 L1236.96,1295.95 L1235.97,1296.45 L1234.97,1296.05 L1233.78,1294.16 L1232.68,1292.57 L1231.98,1292.47 L1231.49,1292.97 L1232.38,1295.55 L1233.08,1298.84 L1231.19,1301.22 L1229.7,1302.42 L1229.6,1304.91 L1230.69,1307.1 L1232.28,1307.89 L1232.68,1311.28 L1234.97,1312.17 L1235.27,1314.16 L1237.56,1315.35 L1238.95,1315.35 L1239.95,1317.35 L1239.15,1326.5 L1241.44,1327.3 L1241.44,1329.58 L1243.23,1330.88 L1243.43,1332.97 L1244.32,1333.96 L1243.23,1335.36 L1241.74,1335.75 L1239.75,1335.36 L1238.45,1336.15 L1236.66,1337.25 L1236.06,1337.64 L1235.27,1338.94 L1232.38,1338.04 L1230.89,1338.24 L1229.9,1336.95 L1229.9,1335.46 L1229.8,1332.37 L1229.2,1330.78 L1229.4,1327.89 L1228.8,1325.11 L1227.81,1324.61 L1226.01,1325.01 L1225.02,1325.41 L1224.92,1328.19 L1226.41,1331.28 L1226.41,1334.76 L1226.31,1336.75 L1225.42,1338.24 L1226.11,1340.73 L1225.32,1343.62 L1226.51,1345.31 L1227.21,1346.7 L1228.4,1347.2 L1229.4,1345.7 L1229.9,1343.91 L1231.29,1345.01 L1231.89,1347.1 L1231.29,1350.08 L1235.37,1350.08 L1237.36,1350.48 L1237.06,1348.59 L1237.16,1345.9 L1238.65,1344.21 L1240.54,1344.51 L1241.94,1345.61 L1243.53,1346.2 L1244.82,1345.31 L1244.92,1343.71 L1245.42,1341.82 L1247.01,1339.93 L1249.5,1336.55 L1250.49,1337.55 L1252.18,1337.94 L1253.28,1337.05 L1254.37,1335.06 L1255.77,1334.66 L1258.16,1335.46 L1257.66,1343.24 L1255.47,1345.13 L1255.17,1348.32 L1257.56,1348.62 L1258.75,1350.21 L1259.35,1351.4 L1261.24,1352.2 L1262.04,1353.19 L1261.84,1361.15 L1258.75,1361.65 L1256.26,1361.05 L1254.87,1362.25 L1254.18,1363.84 L1252.09,1364.93 L1252.28,1367.02 L1251.09,1368.12 L1249.8,1368.72 L1250.49,1371 L1248.5,1372.99 L1248.3,1374.69 L1247.41,1375.58 L1245.22,1376.78 L1243.73,1378.57 L1241.84,1377.97 L1238.45,1378.47 L1237.86,1379.96 L1239.05,1381.98" fill-rule="evenodd" vector-effect="none"/>

</g>
</g>
</svg>