<svg xmlns="http://www.w3.org/2000/svg" version="1.2" baseProfile="tiny" xmlns:inkscape="http://www.inkscape.org/namespaces/inkscape" width="315.045mm" viewBox="1911.96 900.832 130.54 252.638" height="227.076mm" xmlns:xlink="http://www.w3.org/1999/xlink" xmlns:cc="http://creativecommons.org/ns#">
<g stroke-linejoin="bevel" stroke="black" inkscape:label="Map 1: fid_28" fill-rule="evenodd" stroke-linecap="square" inkscape:groupmode="layer" stroke-width="1" fill="none" id="Map 1: fid_28">
  <g stroke-linejoin="bevel"  fill-opacity="1" stroke="#232323" font-style="normal" stroke-linecap="square" font-family="Noto Sans" font-size="41.6667" font-weight="400" stroke-width="1" fill="#c43c39" stroke-opacity="1">
   <path d="M1962.6,1143.24 L1971.66,1142.2 L1982.46,1148.47 L1990.12,1141.5 L2037.5,1123.74 L2034.02,1105.97 L2006.49,1060.33 L2002.31,1033.86 L2008.24,1018.18 L2005.97,1005.77 L1982.11,985.913 L1972.18,983.823 L1965.39,989.614 L1969.22,996.233 L1968.87,1011.91 L1967.48,1017.83 L1959.81,1020.97 L1954.59,1020.62 L1954.24,1027.59 L1951.45,1026.89 L1949.36,1017.83 L1944.83,1005.99 L1938.91,999.368 L1939.96,985.434 L1939.26,978.466 L1936.12,973.589 L1932.64,959.655 L1934.73,947.462 L1936.12,934.572 L1933.69,925.166 L1936.47,905.832 L1920.8,907.051 L1916.96,943.978 L1923.58,978.466 L1925.32,1002.16 L1929.16,1027.93 L1925.67,1047.09 L1930.55,1054.06 L1936.82,1051.97 L1956.68,1089.25 L1967.83,1112.24 L1962.6,1143.24" fill-rule="evenodd" vector-effect="none"/>

</g>
</g>
</svg>