<svg xmlns="http://www.w3.org/2000/svg" version="1.2" baseProfile="tiny" xmlns:inkscape="http://www.inkscape.org/namespaces/inkscape" width="315.045mm" viewBox="4295.45 2111.69 304.18 602.19" height="227.076mm" xmlns:xlink="http://www.w3.org/1999/xlink" xmlns:cc="http://creativecommons.org/ns#">
<g inkscape:groupmode="layer" stroke-width="1" stroke-linejoin="bevel" stroke-linecap="square" inkscape:label="Map 1: fid_28" fill="none" stroke="black" id="Map 1: fid_28" fill-rule="evenodd">
  <g fill-opacity="1" stroke-width="2" stroke-linejoin="bevel" font-weight="400" stroke-linecap="square" font-size="83.3333" font-style="normal" fill="#8d5a99" stroke-opacity="1"  font-family="Noto Sans" stroke="#232323">
   <path d="M4411.83,2696.13 L4433.93,2693.58 L4460.29,2708.88 L4479,2691.88 L4594.63,2648.51 L4586.13,2605.15 L4518.96,2493.77 L4508.76,2429.15 L4523.21,2390.89 L4517.68,2360.6 L4459.44,2312.14 L4435.21,2307.04 L4418.63,2321.17 L4427.98,2337.33 L4427.13,2375.59 L4423.73,2390.04 L4405.03,2397.69 L4392.27,2396.84 L4391.42,2413.85 L4384.62,2412.15 L4379.52,2390.04 L4368.47,2361.13 L4354.01,2344.98 L4356.56,2310.97 L4354.86,2293.97 L4347.21,2282.06 L4338.71,2248.05 L4343.81,2218.3 L4347.21,2186.84 L4341.26,2163.88 L4348.06,2116.69 L4309.8,2119.67 L4300.45,2209.79 L4316.6,2293.97 L4320.85,2351.78 L4330.21,2414.7 L4321.7,2461.46 L4333.61,2478.47 L4348.91,2473.37 L4397.37,2564.34 L4424.58,2620.46 L4411.83,2696.13" vector-effect="none" fill-rule="evenodd"/>

</g>
</g>
</svg>