<svg xmlns="http://www.w3.org/2000/svg" version="1.2" baseProfile="tiny" xmlns:inkscape="http://www.inkscape.org/namespaces/inkscape" width="315.045mm" viewBox="1240.52 1858.1 113.83 146.75" height="227.076mm" xmlns:xlink="http://www.w3.org/1999/xlink" xmlns:cc="http://creativecommons.org/ns#">
<g stroke-linejoin="bevel" stroke="black" inkscape:label="Map 1: fid_108" fill-rule="evenodd" stroke-linecap="square" inkscape:groupmode="layer" stroke-width="1" fill="none" id="Map 1: fid_108">
  <g stroke-linejoin="bevel"  fill-opacity="1" stroke="#232323" font-style="normal" stroke-linecap="square" font-family="Noto Sans" font-size="41.6667" font-weight="400" stroke-width="1" fill="#91522d" stroke-opacity="1">
   <path d="M1332.44,1867.28 L1334.53,1868.07 L1335.82,1864.49 L1339.3,1863.1 L1341.99,1863.99 L1345.43,1864.09 L1344.18,1864.89 L1345.08,1866.48 L1344.88,1867.77 L1344.28,1868.37 L1344.28,1869.76 L1343.58,1871.36 L1344.18,1872.85 L1344.38,1873.65 L1343.98,1874.84 L1343.38,1875.54 L1342.99,1875.54 L1340.4,1875.54 L1337.61,1876.23 L1337.81,1877.82 L1339.5,1878.92 L1342.49,1878.32 L1343.58,1878.22 L1344.48,1879.22 L1346.17,1879.62 L1348.86,1878.82 L1348.86,1880.71 L1346.47,1882.3 L1347.17,1883.4 L1349.26,1884.39 L1349.35,1885.98 L1348.36,1887.08 L1347.36,1888.47 L1345.97,1888.57 L1343.28,1887.97 L1340.3,1888.37 L1339.5,1889.67 L1339.8,1891.26 L1341.39,1892.45 L1343.19,1892.75 L1346.27,1891.56 L1347.96,1892.35 L1347.26,1894.94 L1345.27,1895.44 L1342.29,1894.74 L1337.71,1895.14 L1337.91,1896.53 L1340.4,1896.83 L1340.3,1899.92 L1342.69,1901.01 L1344.38,1901.01 L1346.17,1899.82 L1347.46,1899.52 L1348.66,1900.81 L1348.86,1903 L1348.26,1904.89 L1346.47,1906.28 L1344.48,1906.88 L1341.69,1906.88 L1340,1906.68 L1338.41,1908.47 L1339.01,1910.36 L1338.81,1914.17 L1336.62,1919.84 L1325.07,1930.89 L1317.41,1946.14 L1312.34,1955.49 L1312.84,1964.75 L1311.64,1967.83 L1313.63,1969.32 L1311.94,1972.41 L1308.36,1972.11 L1305.67,1973.6 L1302.39,1981.66 L1287.86,1995.59 L1284.92,1995.27 L1284.03,1997.56 L1281.24,1998.06 L1280.45,1996.56 L1278.26,1997.86 L1276.96,1999.85 L1273.78,1999.75 L1270.99,1997.96 L1271.99,1995.77 L1272.98,1993.48 L1271.89,1990.89 L1269.1,1990.49 L1269.7,1992.88 L1269.7,1995.27 L1267.31,1996.66 L1265.82,1995.17 L1264.23,1993.88 L1262.24,1993.08 L1260.64,1992.58 L1257.96,1991.59 L1261.24,1990.89 L1260.44,1987.71 L1257.26,1987.11 L1253.48,1989.8 L1251.39,1988.6 L1253.08,1985.52 L1255.07,1982.73 L1259.05,1981.84 L1258.85,1980.14 L1260.74,1978.95 L1260.94,1977.16 L1257.66,1976.86 L1255.47,1977.95 L1254.67,1975.07 L1252.78,1976.56 L1250.89,1978.55 L1249.1,1977.56 L1249.5,1975.67 L1251.29,1973.97 L1250.59,1973.08 L1248.2,1973.18 L1247.71,1967.71 L1249.6,1965.91 L1251.19,1963.82 L1250.39,1962.13 L1248.8,1961.93 L1247.41,1962.93 L1246.81,1963.73 L1245.52,1959.94 L1248.01,1957.06 L1250.49,1955.37 L1253.08,1954.87 L1254.18,1955.17 L1254.47,1957.75 L1259.75,1953.28 L1264.03,1951.59 L1269.2,1952.68 L1272.39,1951.19 L1274.28,1951.39 L1275.37,1950.59 L1277.36,1950.09 L1276.56,1945.71 L1282.04,1941.44 L1281.04,1934.15 L1277.76,1931.86 L1273.58,1935.74 L1271.09,1935.74 L1270.59,1933.55 L1273.18,1931.46 L1267.01,1926.19 L1266.61,1922.6 L1267.41,1919.82 L1269.5,1917.63 L1270,1917.33 L1269.5,1916.04 L1267.71,1914.54 L1265.12,1915.14 L1264.32,1914.05 L1264.42,1912.75 L1265.42,1912.06 L1267.71,1911.26 L1268.6,1908.87 L1267.61,1906.78 L1264.32,1906.88 L1262.04,1906.18 L1261.34,1904.89 L1262.14,1903.4 L1261.44,1902.2 L1263.13,1900.91 L1266.12,1900.11 L1267.31,1900.91 L1268.9,1902.6 L1270.1,1904.39 L1273.58,1901.71 L1275.27,1903.3 L1278.36,1902.2 L1283.73,1902.5 L1284.43,1899.82 L1287.61,1899.09 L1295.07,1898.6 L1301.84,1898.2 L1306.02,1902.88 L1308.81,1903.45 L1314.78,1901.06 L1315.17,1899.87 L1320.45,1898.17 L1320.35,1895.89 L1317.96,1895.99 L1318.56,1894.29 L1318.66,1892.3 L1315.87,1893.2 L1313.98,1893.4 L1313.28,1891.91 L1311.99,1888.62 L1312.69,1887.43 L1315.97,1883.15 L1315.27,1882.35 L1316.57,1880.46 L1324.63,1875.09 L1324.03,1873.79 L1320.55,1873.7 L1313.68,1880.36 L1310.99,1880.26 L1309.4,1878.57 L1301.44,1878.57 L1300.74,1877.58 L1302.14,1877.18 L1302.14,1875.98 L1300.35,1875.98 L1299.05,1874.39 L1300.35,1873.6 L1308.01,1871.61 L1312.49,1871.9 L1314.88,1871.8 L1316.47,1869.12 L1320.45,1868.72 L1322.94,1868.82 L1325.12,1868.02 L1327.11,1868.62 L1329.3,1867.43 L1331.19,1867.53 L1332.44,1867.28" fill-rule="evenodd" vector-effect="none"/>

</g>
</g>
</svg>