<svg xmlns="http://www.w3.org/2000/svg" version="1.2" baseProfile="tiny" xmlns:inkscape="http://www.inkscape.org/namespaces/inkscape" width="315.045mm" viewBox="1644.64 1358.08 58.59 127.23" height="227.076mm" xmlns:xlink="http://www.w3.org/1999/xlink" xmlns:cc="http://creativecommons.org/ns#">
<g stroke-linejoin="bevel" stroke="black" inkscape:label="Map 1: fid_19" fill-rule="evenodd" stroke-linecap="square" inkscape:groupmode="layer" stroke-width="1" fill="none" id="Map 1: fid_19">
  <g stroke-linejoin="bevel"  fill-opacity="1" stroke="#232323" font-style="normal" stroke-linecap="square" font-family="Noto Sans" font-size="41.6667" font-weight="400" stroke-width="1" fill="#c43c39" stroke-opacity="1">
   <path d="M1688.13,1363.08 L1688.83,1369.88 L1677.68,1400.01 L1676.98,1408.02 L1672.11,1418.3 L1675.76,1424.57 L1690.22,1409.24 L1698.23,1409.07 L1695.62,1414.12 L1698.23,1425.27 L1692.31,1443.03 L1692.66,1447.74 L1680.47,1463.41 L1666.53,1480.31 L1658.69,1472.65 L1659.91,1471.08 L1653.47,1454.53 L1655.56,1451.57 L1655.73,1445.65 L1649.64,1439.9 L1649.81,1435.2 L1652.08,1427.01 L1649.81,1408.72 L1653.12,1408.89 L1653.29,1406.63 L1658.87,1407.33 L1667.58,1399.66 L1669.49,1400.01 L1673.33,1393.91 L1672.98,1382.42 L1676.46,1376.67 L1676.98,1372.49 L1681.16,1370.23 L1681.69,1365.17 L1688.13,1363.08 L1688.13,1363.08" fill-rule="evenodd" vector-effect="none"/>

</g>
</g>
</svg>