<svg xmlns="http://www.w3.org/2000/svg" version="1.2" baseProfile="tiny" xmlns:inkscape="http://www.inkscape.org/namespaces/inkscape" width="315.045mm" viewBox="3325.85 3631.53 489.43 468.24" height="227.076mm" xmlns:xlink="http://www.w3.org/1999/xlink" xmlns:cc="http://creativecommons.org/ns#">
<g inkscape:groupmode="layer" stroke-width="1" stroke-linejoin="bevel" stroke-linecap="square" inkscape:label="Map 1: fid_91" fill="none" stroke="black" id="Map 1: fid_91" fill-rule="evenodd">
  <g stroke-width="1" stroke-linejoin="bevel" font-weight="400" stroke-linecap="square" font-size="83.3333" font-style="normal" fill="none" stroke-opacity="1" transform="matrix(1,0,0,1,0,0)" font-family="Noto Sans" stroke="#000000"/>
  <g stroke-width="1" stroke-linejoin="bevel" font-weight="400" stroke-linecap="square" font-size="83.3333" font-style="normal" fill="none" stroke-opacity="1" transform="matrix(1,0,0,1,0,0)" font-family="Noto Sans" stroke="#000000"/>
  <g stroke-width="1" stroke-linejoin="bevel" font-weight="400" stroke-linecap="square" font-size="83.3333" font-style="normal" fill="none" stroke-opacity="1" transform="matrix(23.6177,0,0,23.6177,23.6177,23.6177)" font-family="Noto Sans" stroke="#000000"/>
  <g stroke-width="1" stroke-linejoin="bevel" font-weight="400" stroke-linecap="square" font-size="83.3333" font-style="normal" fill="none" stroke-opacity="1" transform="matrix(23.6177,0,0,23.6177,23.6177,23.6177)" font-family="Noto Sans" stroke="#000000"/>
  <g fill-opacity="0" font-weight="400" font-size="83.3333" font-style="normal" fill="#000000" transform="matrix(0.999817,0,0,0.999817,23.6177,23.6177)" font-family="Noto Sans" stroke="none">
   <rect y="0" width="7395" height="5318" x="0"/>
  </g>
  <g stroke-width="1" stroke-linejoin="bevel" font-weight="400" stroke-linecap="square" font-size="83.3333" font-style="normal" fill="none" stroke-opacity="1" transform="matrix(0.999817,0,0,0.999817,23.6177,23.6177)" font-family="Noto Sans" stroke="#000000"/>
  <g fill-opacity="1" stroke-width="2" stroke-linejoin="bevel" font-weight="400" stroke-linecap="square" font-size="83.3333" font-style="normal" fill="#e5b636" stroke-opacity="1" transform="matrix(0.999817,0,0,0.999817,23.6177,23.6177)" font-family="Noto Sans" stroke="#232323">
   <path d="M3348.51,3779.61 L3352.42,3773.53 L3384.56,3756.7 L3392.68,3741.98 L3411.6,3728.77 L3426.02,3707.14 L3440.74,3707.74 L3450.36,3693.02 L3453.66,3683.1 L3465.38,3681.9 L3475.89,3662 L3494.82,3643.97 L3496.92,3633.76 L3520.65,3611.53 L3521.85,3646.08 L3511.34,3654.79 L3512.24,3690.24 L3539.58,3711.57 L3548.89,3710.06 L3551.9,3679.42 L3557.3,3678.82 L3569.32,3696.25 L3566.92,3712.77 L3570.22,3720.88 L3577.73,3722.68 L3587.35,3730.49 L3591.25,3730.49 L3595.76,3726.89 L3646.83,3640.37 L3657.94,3625.95 L3669.06,3626.85 L3671.16,3638.26 L3660.65,3663.8 L3662.75,3674.92 L3687.99,3665.3 L3695.8,3684.53 L3693.69,3698.65 L3701.5,3698.05 L3715.02,3681.83 L3721.93,3683.93 L3724.34,3707.06 L3753.48,3703.76 L3755.28,3729.59 L3689.19,3838.04 L3666.96,3851.11 L3660.65,3841.8 L3652.54,3840.3 L3650.43,3834.59 L3651.94,3823.77 L3640.52,3836.39 L3631.21,3838.49 L3624.9,3844.5 L3623.1,3850.81 L3612.88,3857.12 L3606.57,3865.83 L3606.87,3869.74 L3603.57,3874.54 L3569.02,3907.59 L3569.92,3918.1 L3495.12,4020.25 L3471.08,4015.44 L3424.22,4027.15 L3412.2,4039.77 L3406.49,4026.85 L3398.98,4019.64 L3386.37,4011.23 L3373.15,4004.62 L3363.23,4002.22 L3359.03,4001.92 L3355.72,4002.22 L3350.02,4008.23 L3345.51,4016.34 L3341,4017.24 L3334.09,4011.83 L3313.37,3964.97 L3316.97,3938.53 L3312.76,3922.91 L3305.85,3898.28 L3310.36,3896.17 L3360.53,3837.89 L3347.91,3824.67 L3344.91,3813.26 L3352.72,3791.63 L3348.51,3779.61" vector-effect="none" fill-rule="evenodd"/>
  </g>
  <g stroke-width="1" stroke-linejoin="bevel" font-weight="400" stroke-linecap="square" font-size="83.3333" font-style="normal" fill="none" stroke-opacity="1" transform="matrix(0.999817,0,0,0.999817,23.6177,23.6177)" font-family="Noto Sans" stroke="#000000"/>
  <g stroke-width="1" stroke-linejoin="bevel" font-weight="400" stroke-linecap="square" font-size="83.3333" font-style="normal" fill="none" stroke-opacity="1" transform="matrix(23.6177,0,0,23.6177,23.6177,23.6177)" font-family="Noto Sans" stroke="#000000"/>
  <g stroke-width="1" stroke-linejoin="bevel" font-weight="400" stroke-linecap="square" font-size="83.3333" font-style="normal" fill="none" stroke-opacity="1" transform="matrix(23.6177,0,0,23.6177,23.6177,23.6177)" font-family="Noto Sans" stroke="#000000"/>
  <g stroke-width="1" stroke-linejoin="bevel" font-weight="400" stroke-linecap="square" font-size="83.3333" font-style="normal" fill="none" stroke-opacity="1" transform="matrix(23.6177,0,0,23.6177,23.6177,23.6177)" font-family="Noto Sans" stroke="#000000"/>
  <g stroke-width="1" stroke-linejoin="bevel" font-weight="400" stroke-linecap="square" font-size="83.3333" font-style="normal" fill="none" stroke-opacity="1" transform="matrix(1,0,0,1,0,0)" font-family="Noto Sans" stroke="#000000"/>
  <g stroke-width="1" stroke-linejoin="bevel" font-weight="400" stroke-linecap="square" font-size="83.3333" font-style="normal" fill="none" stroke-opacity="1" transform="matrix(23.6177,0,0,23.6177,23.6177,23.6177)" font-family="Noto Sans" stroke="#000000"/>
  <g stroke-width="1" stroke-linejoin="bevel" font-weight="400" stroke-linecap="square" font-size="83.3333" font-style="normal" fill="none" stroke-opacity="1" transform="matrix(23.6177,0,0,23.6177,23.6177,23.6177)" font-family="Noto Sans" stroke="#000000"/>
  <g stroke-width="1" stroke-linejoin="bevel" font-weight="400" stroke-linecap="square" font-size="83.3333" font-style="normal" fill="none" stroke-opacity="1" transform="matrix(1,0,0,1,0,0)" font-family="Noto Sans" stroke="#000000"/>
 </g>
 
</svg>