<svg xmlns="http://www.w3.org/2000/svg" version="1.2" baseProfile="tiny" xmlns:inkscape="http://www.inkscape.org/namespaces/inkscape" width="315.045mm" viewBox="1718.58 1566.45 211.65 202.15" height="227.076mm" xmlns:xlink="http://www.w3.org/1999/xlink" xmlns:cc="http://creativecommons.org/ns#">
<g stroke-linejoin="bevel" stroke="black" inkscape:label="Map 1: fid_91" fill-rule="evenodd" stroke-linecap="square" inkscape:groupmode="layer" stroke-width="1" fill="none" id="Map 1: fid_91">
  <g stroke-linejoin="bevel"  fill-opacity="1" stroke="#232323" font-style="normal" stroke-linecap="square" font-family="Noto Sans" font-size="41.6667" font-weight="400" stroke-width="1" fill="#c43c39" stroke-opacity="1">
   <path d="M1742.72,1646.87 L1744.48,1644.14 L1758.9,1636.59 L1762.54,1629.98 L1771.03,1624.05 L1777.5,1614.35 L1784.1,1614.62 L1788.42,1608.01 L1789.9,1603.57 L1795.16,1603.03 L1799.87,1594.1 L1808.37,1586.01 L1809.31,1581.43 L1819.96,1571.45 L1820.5,1586.95 L1815.78,1590.86 L1816.18,1606.77 L1828.45,1616.34 L1832.63,1615.66 L1833.98,1601.91 L1836.4,1601.64 L1841.79,1609.46 L1840.72,1616.88 L1842.2,1620.52 L1845.57,1621.32 L1849.88,1624.83 L1851.63,1624.83 L1853.66,1623.21 L1876.57,1584.39 L1881.56,1577.92 L1886.55,1578.33 L1887.49,1583.45 L1882.77,1594.91 L1883.71,1599.89 L1895.04,1595.58 L1898.54,1604.21 L1897.6,1610.54 L1901.1,1610.27 L1907.17,1602.99 L1910.27,1603.94 L1911.35,1614.31 L1924.42,1612.83 L1925.23,1624.42 L1895.58,1673.08 L1885.6,1678.95 L1882.77,1674.77 L1879.13,1674.09 L1878.19,1671.53 L1878.86,1666.68 L1873.74,1672.34 L1869.56,1673.29 L1866.73,1675.98 L1865.92,1678.81 L1861.34,1681.64 L1858.51,1685.55 L1858.64,1687.3 L1857.16,1689.46 L1841.66,1704.29 L1842.06,1709.01 L1808.5,1754.83 L1797.72,1752.68 L1776.69,1757.94 L1771.3,1763.6 L1768.74,1757.8 L1765.37,1754.57 L1759.71,1750.79 L1753.78,1747.83 L1749.33,1746.75 L1747.44,1746.61 L1745.96,1746.75 L1743.4,1749.44 L1741.38,1753.08 L1739.35,1753.49 L1736.25,1751.06 L1726.95,1730.03 L1728.57,1718.17 L1726.68,1711.16 L1723.58,1700.11 L1725.6,1699.17 L1748.11,1673.02 L1742.45,1667.09 L1741.11,1661.96 L1744.61,1652.26 L1742.72,1646.87" fill-rule="evenodd" vector-effect="none"/>

</g>
</g>
</svg>