<svg xmlns="http://www.w3.org/2000/svg" version="1.2" baseProfile="tiny" xmlns:inkscape="http://www.inkscape.org/namespaces/inkscape" width="315.045mm" viewBox="3823.48 3736.23 502.14 478.95" height="227.076mm" xmlns:xlink="http://www.w3.org/1999/xlink" xmlns:cc="http://creativecommons.org/ns#">
<g inkscape:groupmode="layer" stroke-width="1" stroke-linejoin="bevel" stroke-linecap="square" inkscape:label="Map 1: fid_91" fill="none" stroke="black" id="Map 1: fid_91" fill-rule="evenodd">
  <g fill-opacity="1" stroke-width="2" stroke-linejoin="bevel" font-weight="400" stroke-linecap="square" font-size="83.3333" font-style="normal" fill="#8d5a99" stroke-opacity="1"  font-family="Noto Sans" stroke="#232323">
   <path d="M3875.19,3925.29 L3879.47,3918.63 L3914.67,3900.2 L3923.55,3884.08 L3944.27,3869.61 L3960.07,3845.92 L3976.19,3846.58 L3986.71,3830.46 L3990.33,3819.6 L4003.16,3818.29 L4014.68,3796.49 L4035.4,3776.75 L4037.7,3765.57 L4063.69,3741.23 L4065.01,3779.06 L4053.49,3788.6 L4054.48,3827.42 L4084.42,3850.77 L4094.62,3849.13 L4097.91,3815.57 L4103.83,3814.92 L4116.99,3834 L4114.36,3852.09 L4117.97,3860.97 L4126.2,3862.95 L4136.73,3871.5 L4141,3871.5 L4145.94,3867.55 L4201.86,3772.81 L4214.04,3757.02 L4226.21,3758 L4228.51,3770.5 L4217,3798.47 L4219.3,3810.64 L4246.93,3800.11 L4255.49,3821.17 L4253.18,3836.63 L4261.74,3835.97 L4276.54,3818.21 L4284.11,3820.51 L4286.74,3845.84 L4318.65,3842.22 L4320.62,3870.51 L4248.25,3989.27 L4223.9,4003.58 L4217,3993.39 L4208.11,3991.74 L4205.81,3985.49 L4207.46,3973.65 L4194.95,3987.46 L4184.76,3989.77 L4177.85,3996.35 L4175.87,4003.25 L4164.69,4010.16 L4157.78,4019.7 L4158.11,4023.98 L4154.49,4029.24 L4116.66,4065.43 L4117.65,4076.95 L4035.73,4188.8 L4009.41,4183.53 L3958.09,4196.36 L3944.93,4210.18 L3938.68,4196.03 L3930.46,4188.14 L3916.64,4178.93 L3902.17,4171.69 L3891.31,4169.06 L3886.7,4168.73 L3883.09,4169.06 L3876.83,4175.64 L3871.9,4184.52 L3866.97,4185.51 L3859.4,4179.59 L3836.7,4128.27 L3840.65,4099.32 L3836.04,4082.21 L3828.48,4055.23 L3833.41,4052.93 L3888.35,3989.11 L3874.53,3974.63 L3871.24,3962.13 L3879.8,3938.45 L3875.19,3925.29" vector-effect="none" fill-rule="evenodd"/>

</g>
</g>
</svg>