<svg xmlns="http://www.w3.org/2000/svg" version="1.2" baseProfile="tiny" xmlns:inkscape="http://www.inkscape.org/namespaces/inkscape" width="315.045mm" viewBox="1214.71 1160.82 77.41 129.32" height="227.076mm" xmlns:xlink="http://www.w3.org/1999/xlink" xmlns:cc="http://creativecommons.org/ns#">
<g stroke-linejoin="bevel" stroke="black" inkscape:label="Map 1: fid_9" fill-rule="evenodd" stroke-linecap="square" inkscape:groupmode="layer" stroke-width="1" fill="none" id="Map 1: fid_9">
  <g stroke-linejoin="bevel"  fill-opacity="1" stroke="#232323" font-style="normal" stroke-linecap="square" font-family="Noto Sans" font-size="41.6667" font-weight="400" stroke-width="1" fill="#91522d" stroke-opacity="1">
   <path d="M1240.44,1170.13 L1237.65,1173.31 L1234.17,1172.96 L1233.3,1168.43 L1229.11,1165.82 L1225.63,1170 L1223.72,1169.48 L1222.67,1174.53 L1223.54,1176.45 L1221.45,1179.06 L1222.84,1184.11 L1220.58,1194.21 L1219.71,1205.71 L1223.19,1211.11 L1233.12,1219.99 L1234.69,1223.13 L1236.6,1224.87 L1241.48,1231.49 L1243.75,1238.8 L1243.22,1248.21 L1241.83,1252.04 L1246.01,1260.58 L1245.49,1278.34 L1248.62,1282.87 L1255.59,1284.79 L1262.38,1285.14 L1269,1284.62 L1274.58,1279.74 L1279.8,1278 L1287.12,1276.21 L1281.37,1262.1 L1281.72,1248.17 L1274.23,1247.82 L1274.4,1235.97 L1265.87,1226.74 L1260.64,1213.85 L1265.17,1213.16 L1249.84,1177.45 L1240.44,1170.13" fill-rule="evenodd" vector-effect="none"/>

</g>
</g>
</svg>