<svg xmlns="http://www.w3.org/2000/svg" version="1.2" baseProfile="tiny" xmlns:inkscape="http://www.inkscape.org/namespaces/inkscape" width="315.045mm" viewBox="1532.07 565.007 153.88 159.101" height="227.076mm" xmlns:xlink="http://www.w3.org/1999/xlink" xmlns:cc="http://creativecommons.org/ns#">
<g stroke-linejoin="bevel" stroke="black" inkscape:label="Map 1: fid_32" fill-rule="evenodd" stroke-linecap="square" inkscape:groupmode="layer" stroke-width="1" fill="none" id="Map 1: fid_32">
  <g stroke-linejoin="bevel"  fill-opacity="1" stroke="#232323" font-style="normal" stroke-linecap="square" font-family="Noto Sans" font-size="41.6667" font-weight="400" stroke-width="1" fill="#e8718d" stroke-opacity="1">
   <path d="M1547.87,670.685 L1538.12,666.156 L1537.07,657.447 L1544.04,655.357 L1551.01,651.525 L1551.7,647.693 L1564.59,651.176 L1572.26,647.344 L1567.38,606.237 L1552.05,585.335 L1549.96,570.007 L1565.98,570.704 L1587.58,575.929 L1602.56,586.38 L1607.44,586.032 L1611.62,579.413 L1639.49,586.38 L1650.64,579.456 L1664.05,588.514 L1671.54,590.778 L1680.95,602.971 L1667.71,621.565 L1663.88,640.029 L1673.63,644.557 L1680.25,658.492 L1672.93,667.549 L1670.15,682.878 L1656.56,687.406 L1647.85,671.381 L1641.23,663.717 L1642.63,660.582 L1649.24,661.627 L1650.99,658.84 L1645.06,657.098 L1641.93,656.75 L1633.22,658.84 L1620.68,652.57 L1613.36,644.557 L1614.06,642.119 L1622.77,647.344 L1625.21,645.951 L1619.29,635.848 L1615.8,636.196 L1616.15,628.532 L1609.53,626.094 L1603.26,627.487 L1605.35,633.41 L1598.38,637.242 L1597.34,646.996 L1605,653.963 L1615.1,664.763 L1625.56,670.685 L1632.52,676.607 L1638.45,682.181 L1614.41,682.529 L1605.35,692.632 L1588.28,719.108 L1547.87,670.685" fill-rule="evenodd" vector-effect="none"/>

</g>
</g>
</svg>