<svg xmlns="http://www.w3.org/2000/svg" version="1.2" baseProfile="tiny" xmlns:inkscape="http://www.inkscape.org/namespaces/inkscape" width="315.045mm" viewBox="1480.81 1455.35 75.59 92.37" height="227.076mm" xmlns:xlink="http://www.w3.org/1999/xlink" xmlns:cc="http://creativecommons.org/ns#">
<g stroke-linejoin="bevel" stroke="black" inkscape:label="Map 1: fid_37" fill-rule="evenodd" stroke-linecap="square" inkscape:groupmode="layer" stroke-width="1" fill="none" id="Map 1: fid_37">
  <g stroke-linejoin="bevel"  fill-opacity="1" stroke="#232323" font-style="normal" stroke-linecap="square" font-family="Noto Sans" font-size="41.6667" font-weight="400" stroke-width="1" fill="#c43c39" stroke-opacity="1">
   <path d="M1492.31,1535.49 L1511.91,1523.85 L1519.14,1520.71 L1520.29,1522.39 L1514.32,1525.95 L1510.12,1530.66 L1511.38,1534.65 L1508.45,1536.11 L1508.97,1538.52 L1512.64,1538.21 L1512.12,1540.73 L1514.53,1541.04 L1516.2,1542.72 L1520.5,1541.35 L1521.55,1536.43 L1524.06,1533.28 L1525.22,1530.14 L1527.94,1526.16 L1525.74,1525.01 L1528.15,1521.55 L1532.97,1517.88 L1536.11,1511.07 L1534.44,1509.6 L1530.45,1513.16 L1530.98,1508.76 L1535.07,1506.25 L1539.57,1501.43 L1543.87,1494.93 L1546.28,1488.85 L1548.06,1478.68 L1551.4,1463.59 L1544.08,1461.5 L1536.64,1460.35 L1511.17,1460.66 L1503.73,1466 L1491.78,1478.89 L1485.92,1491.68 L1488.54,1502.26 L1491.57,1503.52 L1487.91,1506.98 L1485.81,1509.91 L1487.17,1512.33 L1491.37,1515.78 L1490.63,1535.07 L1486.44,1537.69 L1488.01,1539.57 L1492.31,1535.49" fill-rule="evenodd" vector-effect="none"/>

</g>
</g>
</svg>