<svg xmlns="http://www.w3.org/2000/svg" version="1.2" baseProfile="tiny" xmlns:inkscape="http://www.inkscape.org/namespaces/inkscape" width="315.045mm" viewBox="3243.16 3465.06 170.07 211.03" height="227.076mm" xmlns:xlink="http://www.w3.org/1999/xlink" xmlns:cc="http://creativecommons.org/ns#">
<g inkscape:groupmode="layer" stroke-width="1" stroke-linejoin="bevel" stroke-linecap="square" inkscape:label="Map 1: fid_37" fill="none" stroke="black" id="Map 1: fid_37" fill-rule="evenodd">
  <g fill-opacity="1" stroke-width="2" stroke-linejoin="bevel" font-weight="400" stroke-linecap="square" font-size="83.3333" font-style="normal" fill="#8d5a99" stroke-opacity="1"  font-family="Noto Sans" stroke="#232323">
   <path d="M3264.02,3653.45 L3311.85,3625.05 L3329.5,3617.38 L3332.31,3621.47 L3317.73,3630.17 L3307.5,3641.68 L3310.57,3651.4 L3303.41,3654.98 L3304.69,3660.86 L3313.64,3660.1 L3312.36,3666.23 L3318.24,3667 L3322.34,3671.09 L3332.82,3667.77 L3335.38,3655.75 L3341.52,3648.07 L3344.33,3640.4 L3350.98,3630.68 L3345.61,3627.87 L3351.49,3619.43 L3363.26,3610.48 L3370.93,3593.85 L3366.84,3590.27 L3357.12,3598.97 L3358.4,3588.22 L3368.37,3582.08 L3379.37,3570.32 L3389.86,3554.46 L3395.74,3539.63 L3400.09,3514.82 L3408.23,3477.97 L3390.38,3472.87 L3372.21,3470.06 L3310.06,3470.82 L3291.9,3483.87 L3262.74,3515.33 L3248.42,3546.53 L3254.81,3572.37 L3262.23,3575.43 L3253.28,3583.88 L3248.16,3591.04 L3251.49,3596.92 L3261.72,3605.36 L3259.93,3652.42 L3249.7,3658.82 L3253.53,3663.42 L3264.02,3653.45" vector-effect="none" fill-rule="evenodd"/>

</g>
</g>
</svg>