<svg xmlns="http://www.w3.org/2000/svg" version="1.2" baseProfile="tiny" xmlns:inkscape="http://www.inkscape.org/namespaces/inkscape" width="315.045mm" viewBox="1624.42 1433.21 677.34 603.16" height="227.076mm" xmlns:xlink="http://www.w3.org/1999/xlink" xmlns:cc="http://creativecommons.org/ns#">
<g stroke-linejoin="bevel" stroke="black" inkscape:label="Map 1: fid_99" fill-rule="evenodd" stroke-linecap="square" inkscape:groupmode="layer" stroke-width="1" fill="none" id="Map 1: fid_99">
  <g stroke-linejoin="bevel"  fill-opacity="1" stroke="#232323" font-style="normal" stroke-linecap="square" font-family="Noto Sans" font-size="41.6667" font-weight="400" stroke-width="1" fill="#91522d" stroke-opacity="1">
   <path d="M2128.4,1548.31 L2142.51,1547.4 L2148.74,1555.09 L2170.54,1560.77 L2193.25,1560.77 L2233.92,1529.63 L2261.58,1521.38 L2282.1,1520.1 L2295.84,1501.23 L2296.76,1453.42 L2282.83,1457.82 L2243.63,1476.69 L2246.01,1460.56 L2244.55,1448.11 L2226.23,1447.01 L2220.91,1462.21 L2209.56,1473.75 L2203.69,1471.19 L2211.02,1443.71 L2199.66,1438.21 L2190.14,1438.21 L2175.85,1452.69 L2171.09,1472.65 L2148.74,1504.9 L2142.69,1508.01 L2126.94,1506 L2107.7,1508.01 L2101.29,1525.23 L2091.76,1534.39 L2082.24,1528.16 L2083.7,1506.73 L2077.11,1493.91 L2083.52,1476.69 L2074.18,1472.47 L2068.5,1474.85 L2066.12,1479.25 L2063,1485.11 L2058.79,1486.21 L2056.22,1484.01 L2049.26,1471.92 L2050.73,1446.09 L2045.05,1456.72 L2036.07,1456.17 L2034.06,1473.57 L2032.22,1481.08 L2024.9,1491.16 L2021.05,1498.12 L2017.94,1500.13 L2014.82,1497.75 L2008.41,1486.39 L2000.9,1487.49 L1956.2,1584.27 L1941.18,1601.3 L1924.42,1612.83 L1925.23,1624.42 L1895.58,1673.08 L1885.6,1678.95 L1882.77,1674.77 L1879.13,1674.09 L1878.19,1671.53 L1878.86,1666.68 L1873.74,1672.34 L1869.56,1673.29 L1866.73,1675.98 L1865.92,1678.81 L1861.34,1681.64 L1858.51,1685.55 L1858.64,1687.3 L1857.16,1689.46 L1841.66,1704.29 L1842.06,1709.01 L1808.5,1754.83 L1797.72,1752.68 L1776.69,1757.94 L1771.3,1763.6 L1768.74,1757.8 L1765.37,1754.57 L1759.71,1750.79 L1753.78,1747.83 L1749.33,1746.75 L1747.44,1746.61 L1745.96,1746.75 L1743.4,1749.44 L1741.38,1753.08 L1739.35,1753.49 L1736.25,1751.06 L1726.95,1730.03 L1728.57,1718.17 L1723.58,1700.11 L1695.82,1713.05 L1690.83,1710.22 L1686.92,1714.26 L1684.09,1714.94 L1678.83,1720.06 L1647.02,1774.35 L1629.5,1795.24 L1629.72,1808.87 L1629.42,1877.12 L1633.09,1881.55 L1636.15,1883.24 L1637.68,1885.68 L1639.36,1886.3 L1643.49,1883.39 L1645.48,1884 L1646.71,1886.14 L1648.08,1888.74 L1649.46,1892.11 L1655.95,1946.76 L1661.26,1949.32 L1665.6,1949.26 L1666.91,1948.04 L1668.66,1944.98 L1669.35,1942.68 L1671.95,1941.3 L1673.64,1940.85 L1675.63,1940.85 L1678,1937.56 L1679.68,1934.19 L1680.06,1932.43 L1679.91,1930.44 L1681.14,1927.46 L1682.05,1926.92 L1684.27,1928.99 L1685.27,1931.43 L1685.57,1933.04 L1685.57,1934.19 L1685.04,1936.03 L1683.51,1939.09 L1683.58,1942.15 L1685.11,1943.6 L1685.34,1946.43 L1685.34,1949.49 L1685.34,1950.18 L1684.35,1953.01 L1682.74,1954.62 L1680.06,1955 L1679.07,1954.54 L1677,1956.84 L1674.94,1957.22 L1673.71,1954.23 L1672.34,1954.16 L1670.42,1955.55 L1687.09,1968.01 L1688.17,1965.92 L1689.78,1965.84 L1691.08,1967.22 L1691.46,1968.29 L1693.15,1968.14 L1694.14,1968.06 L1695.06,1969.06 L1695.37,1969.82 L1695.37,1970.13 L1697.2,1974.87 L1699.55,1977.53 L1701.01,1977.53 L1713.47,1987.24 L1715.64,1982.16 L1717.4,1982.46 L1720,1975.04 L1721.38,1974.28 L1722.83,1975.35 L1721.38,1979.79 L1720.08,1983.15 L1719.08,1992.03 L1719.77,1992.79 L1721.99,1990.73 L1723.6,1987.9 L1724.29,1988.81 L1724.06,1991.03 L1723.37,1994.32 L1723.29,1997.08 L1726.2,1998.76 L1726.73,2000.52 L1725.82,2006.12 L1726.58,2008.27 L1725.59,2010.87 L1725.43,2013.32 L1726.43,2015.23 L1725.66,2017.68 L1727.42,2019.13 L1727.57,2020.13 L1727.8,2022.5 L1727.96,2024.64 L1726.27,2026.78 L1725.05,2029.38 L1733.77,2031.37 L1743.64,2031.14 L1786.71,1998.99 L1785.95,2016.3 L1790.39,2028.23 L1835.14,1969.98 L1839.2,1964.08 L1846.31,1965.23 L1862.3,1966.05 L1884.57,1944.63 L1895.28,1929.94 L1906.6,1928.11 L1915.78,1920.15 L1922.21,1910.66 L1927.41,1898.42 L1942.41,1882.51 L1949.44,1871.8 L1950.67,1864.76 L1959.24,1853.74 L1998.41,1786.42 L2030.54,1799.27 L2029.32,1813.04 L2076.44,1842.11 L2078.28,1836.61 L2071.24,1826.81 L2056.25,1759.79 L2090.83,1677.93 L2086.85,1654.98 L2118.06,1556.74 L2128.4,1548.31 M1791.07,1916.77 L1794.65,1921.94 L1796.84,1920.55 L1800.03,1915.58 L1797.84,1912.59 L1797.24,1909.61 L1797.84,1905.23 L1798.63,1900.45 L1800.03,1897.86 L1800.62,1894.68 L1802.61,1892.29 L1806,1890.7 L1807.79,1889.11 L1807.99,1884.33 L1804.8,1881.15 L1800.03,1880.95 L1798.24,1884.13 L1795.65,1886.12 L1791.67,1884.73 L1789.88,1881.15 L1788.88,1878.16 L1789.28,1877.36 L1792.86,1876.57 L1794.45,1874.98 L1791.67,1872.99 L1789.48,1869.6 L1789.48,1865.62 L1788.68,1861.84 L1786.49,1860.65 L1783.31,1860.45 L1780.52,1862.24 L1779.13,1866.02 L1774.75,1865.62 L1775.55,1860.85 L1778.53,1858.46 L1782.12,1853.48 L1780.13,1848.71 L1778.53,1840.75 L1774.75,1838.95 L1770.77,1839.95 L1768.18,1842.93 L1765.6,1842.93 L1767.19,1840.15 L1769.58,1837.96 L1770.37,1834.58 L1769.38,1831.99 L1764.8,1830.99 L1759.03,1829.8 L1754.85,1829.6 L1753.26,1831.79 L1752.06,1833.78 L1752.06,1840.75 L1749.08,1842.34 L1746.09,1840.55 L1744.1,1839.55 L1743.11,1842.93 L1743.11,1845.32 L1738.53,1849.7 L1732.56,1855.27 L1731.76,1851.69 L1733.16,1834.58 L1734.95,1829 L1740.52,1824.03 L1742.31,1823.03 L1742.31,1817.26 L1743.31,1810.5 L1743.11,1803.93 L1738.33,1799.15 L1735.15,1798.36 L1730.17,1798.95 L1724.8,1801.14 L1721.22,1803.33 L1719.43,1799.55 L1717.83,1801.94 L1716.44,1800.74 L1717.24,1798.75 L1718.23,1796.36 L1716.84,1796.76 L1716.84,1795.37 L1717.04,1792.19 L1713.65,1789.6 L1713.06,1792.78 L1713.85,1795.57 L1712.26,1795.77 L1709.08,1795.57 L1707.48,1795.37 L1706.09,1794.18 L1706.09,1793.38 L1706.49,1789.2 L1707.29,1786.61 L1702.51,1786.02 L1703.5,1783.63 L1705.89,1782.43 L1703.9,1780.44 L1699.52,1781.44 L1696.14,1783.03 L1692.96,1782.04 L1690.77,1783.23 L1689.57,1785.02 L1689.17,1787.01 L1688.58,1803.33 L1685.19,1808.5 L1684.4,1811.29 L1686.39,1814.28 L1688.18,1817.66 L1685.19,1820.05 L1680.22,1822.44 L1678.63,1824.82 L1675.64,1826.42 L1674.65,1828.41 L1673.05,1832.19 L1671.46,1834.38 L1671.26,1836.96 L1670.07,1840.75 L1669.47,1841.54 L1667.08,1845.92 L1663.3,1849.9 L1660.12,1852.89 L1653.35,1852.49 L1652.56,1855.67 L1654.94,1858.46 L1657.13,1859.85 L1658.92,1863.43 L1659.12,1864.23 L1658.73,1865.62 L1656.74,1867.21 L1654.15,1868.81 L1653.15,1870.2 L1653.55,1871.2 L1655.74,1871.79 L1658.33,1870.8 L1661.31,1868.81 L1664.1,1869.01 L1665.89,1871.99 L1666.29,1875.37 L1668.68,1877.56 L1672.86,1875.77 L1675.84,1872.59 L1680.62,1873.58 L1681.81,1871.79 L1680.02,1869.2 L1678.03,1866.82 L1676.84,1861.05 L1679.22,1857.86 L1680.82,1855.47 L1684,1852.49 L1687.78,1851.09 L1689.97,1850.9 L1694.95,1852.69 L1697.93,1855.07 L1699.52,1858.46 L1702.31,1863.63 L1708.28,1864.03 L1709.28,1869.01 L1706.69,1870.2 L1705.69,1873.38 L1708.88,1876.97 L1709.08,1882.34 L1708.48,1885.52 L1709.08,1890.1 L1713.45,1896.47 L1719.23,1898.46 L1729.58,1898.66 L1735.15,1898.06 L1736.94,1896.07 L1740.12,1894.48 L1744.1,1896.07 L1742.91,1897.66 L1741.72,1900.25 L1743.9,1900.85 L1748.28,1899.65 L1749.87,1900.25 L1754.85,1903.44 L1758.43,1907.02 L1759.23,1910.2 L1760.62,1914.18 L1764.6,1916.77 L1768.18,1916.57 L1769.98,1914.58 L1770.57,1908.21 L1781.32,1898.06 L1780.72,1893.29 L1783.31,1888.91 L1784.7,1886.32 L1786.69,1885.72 L1790.28,1887.51 L1792.66,1890.5 L1796.05,1890.5 L1796.64,1892.49 L1792.66,1902.64 L1789.68,1907.42 L1791.07,1913.98 L1791.07,1916.77" fill-rule="evenodd" vector-effect="none"/>

</g>
</g>
</svg>