<svg xmlns="http://www.w3.org/2000/svg" version="1.2" baseProfile="tiny" xmlns:inkscape="http://www.inkscape.org/namespaces/inkscape" width="315.045mm" viewBox="1412.2 1773.79 248.75 277.29" height="227.076mm" xmlns:xlink="http://www.w3.org/1999/xlink" xmlns:cc="http://creativecommons.org/ns#">
<g stroke-linejoin="bevel" stroke="black" inkscape:label="Map 1: fid_106" fill-rule="evenodd" stroke-linecap="square" inkscape:groupmode="layer" stroke-width="1" fill="none" id="Map 1: fid_106">
  <g stroke-linejoin="bevel"  fill-opacity="1" stroke="#232323" font-style="normal" stroke-linecap="square" font-family="Noto Sans" font-size="41.6667" font-weight="400" stroke-width="1" fill="#d5b43c" stroke-opacity="1">
   <path d="M1419.72,1900.12 L1419.19,1903.35 L1417.2,1904.33 L1424.08,1914.12 L1424.92,1915.13 L1425.38,1915.98 L1426.99,1915.98 L1428.29,1916.21 L1428.98,1917.89 L1430.13,1918.96 L1430.2,1920.11 L1430.05,1920.8 L1429.59,1921.87 L1429.67,1924.01 L1431.58,1925.85 L1432.96,1927.07 L1434.26,1927.91 L1434.72,1930.38 L1434.03,1933.29 L1437.4,1937.95 L1437.01,1941.85 L1438.7,1942.93 L1440.38,1943.31 L1441.53,1942.62 L1441.99,1941.78 L1442.14,1940.09 L1441.76,1938.87 L1442.37,1937.11 L1443.29,1934.97 L1444.74,1932.37 L1445.5,1926.25 L1447.42,1924.95 L1448.57,1930.07 L1450.78,1932.21 L1453.61,1930.45 L1458.36,1930.84 L1459.05,1927.01 L1458.97,1921.89 L1462.87,1921.89 L1463.33,1923.72 L1466.62,1921.96 L1468.15,1923.49 L1469.45,1925.48 L1470.98,1926.86 L1472.89,1926.86 L1475.19,1925.02 L1474.81,1923.26 L1469.99,1920.81 L1470.83,1918.44 L1472.36,1916.3 L1475.27,1916.3 L1477.26,1915.15 L1481.46,1918.58 L1484.98,1919.34 L1492.25,1917.35 L1490.95,1915.13 L1487.2,1915.13 L1486.82,1912.69 L1488.35,1909.09 L1486.82,1906.57 L1488.2,1903.35 L1490.18,1901.21 L1494.85,1894.78 L1496.53,1895.01 L1497.61,1895.63 L1499.06,1895.4 L1499.52,1894.02 L1498.75,1892.64 L1496.99,1892.34 L1496.31,1892.26 L1496.23,1889.35 L1497.15,1887.9 L1498.14,1886.75 L1498.14,1885.76 L1497.99,1883.46 L1495.31,1879.48 L1498.83,1874.59 L1502.35,1875.79 L1502.73,1876.33 L1501.74,1878.77 L1503.88,1880.3 L1505.26,1877.55 L1506.4,1877.7 L1508.16,1878.7 L1510.23,1878.55 L1512.91,1875.18 L1512.68,1870.05 L1516.73,1867.53 L1520.33,1870.59 L1521.48,1873.04 L1521.55,1875.1 L1523.47,1874.64 L1525.61,1874.11 L1526.07,1873.42 L1526.07,1870.05 L1526.14,1868.45 L1528.9,1867.91 L1530.89,1872.81 L1530.35,1875.56 L1531.65,1877.93 L1532.95,1879.08 L1532.72,1880.69 L1531.8,1882.68 L1531.12,1884.21 L1532.34,1885.74 L1532.95,1886.81 L1534.79,1887.04 L1536.39,1886.73 L1536.01,1889.03 L1536.01,1897.23 L1537.31,1897.84 L1538.84,1898.38 L1539.15,1900.45 L1540.22,1900.9 L1540.14,1901.75 L1541.29,1905.59 L1538.84,1908.8 L1539.23,1911.79 L1540.22,1913.16 L1541.37,1915.77 L1541.06,1918.14 L1539.68,1919.82 L1540.83,1921.73 L1539.76,1923.26 L1538.46,1924.33 L1537.62,1934.2 L1540.83,1936.65 L1543.43,1939.96 L1541.44,1941.41 L1539.38,1940.88 L1538.38,1942.64 L1537.47,1944.55 L1536.09,1944.4 L1534.71,1942.26 L1532.34,1941.03 L1531.04,1941.57 L1531.19,1943.4 L1530.35,1944.78 L1528.59,1946.54 L1528.82,1948.38 L1527.6,1949.37 L1526.75,1950.21 L1525.99,1951.97 L1524.69,1953.66 L1525.99,1955.03 L1528.13,1955.49 L1528.13,1957.1 L1526.6,1957.86 L1521.25,1963.54 L1519.56,1964.46 L1517.73,1964.39 L1516.35,1963.77 L1515.51,1962.63 L1514.44,1961.78 L1512.52,1958.72 L1510.69,1959.11 L1509.08,1961.86 L1508.85,1964.23 L1508.32,1965.99 L1506.25,1966.76 L1505.56,1967.9 L1505.56,1968.44 L1507.48,1970.28 L1508.39,1971.58 L1508.09,1972.5 L1505.56,1972.5 L1504.8,1972.34 L1502.96,1972.27 L1501.58,1972.95 L1500.9,1974.18 L1498.91,1974.25 L1497.38,1974.18 L1496.31,1975.56 L1496,1977.16 L1496.46,1978.31 L1497.91,1980.15 L1498.68,1981.6 L1497.84,1982.36 L1494.16,1982.36 L1492.56,1982.13 L1491.49,1983.05 L1491.03,1983.51 L1490.03,1983.74 L1488.2,1984.81 L1487.43,1986.42 L1486.82,1987.26 L1484.83,1987.41 L1483.61,1988.79 L1482.76,1990.24 L1480.93,1990.09 L1468.69,2002.28 L1468.07,2005.03 L1466.77,2006.71 L1464.48,2006.18 L1462.72,2005.18 L1461.8,2005.87 L1461.34,2006.87 L1458.59,2009.62 L1455.76,2010.77 L1454.07,2012.76 L1451.09,2013.75 L1449.56,2015.97 L1448.64,2018.27 L1447.42,2023.43 L1448.03,2025.95 L1449.41,2027.33 L1449.71,2029.4 L1449.71,2031.31 L1449.94,2032.69 L1448.72,2033.76 L1444.82,2038.42 L1445.2,2040.8 L1440.46,2045.54 L1472.74,2046.08 L1474.5,2045.08 L1475.11,2043.55 L1475.73,2042.79 L1475.95,2043.17 L1476.03,2044.01 L1475.88,2045 L1476.41,2045.54 L1477.18,2045.77 L1478.48,2045.69 L1478.94,2045.46 L1479.24,2045.31 L1476.26,2034.68 L1477.48,2028.25 L1475.65,2022.43 L1509.46,1990.07 L1519.79,1989.15 L1529.28,1997.55 L1537.05,2004.1 L1655.95,1946.76 L1649.47,1896.54 L1649.46,1892.11 L1648.08,1888.74 L1646.71,1886.14 L1645.48,1884 L1643.49,1883.39 L1641.67,1884.61 L1639.36,1886.3 L1639.07,1889.2 L1641.21,1890.88 L1643.5,1893.02 L1643.66,1894.55 L1644.57,1896.24 L1644.42,1898.99 L1644.12,1900.06 L1643.35,1901.59 L1638.91,1902.2 L1636.01,1902.2 L1633.86,1904.81 L1630.5,1903.73 L1627.74,1905.11 L1626.06,1905.26 L1624.38,1904.35 L1623,1903.43 L1622.08,1897.77 L1619.33,1895.17 L1618.56,1891.19 L1621.16,1888.43 L1623,1888.43 L1623.46,1887.06 L1622.39,1885.99 L1621.16,1884.15 L1621.93,1881.39 L1623.61,1879.86 L1626.06,1880.17 L1628.2,1881.24 L1630.65,1880.02 L1629.42,1877.12 L1629.5,1795.24 L1616.96,1794.16 L1602.41,1789.71 L1595.26,1782.16 L1571.94,1778.79 L1564.26,1780.68 L1567.15,1787.64 L1568.07,1793.91 L1568.22,1799.57 L1567.61,1804.62 L1566.84,1809.67 L1566.08,1813.95 L1565.01,1818.54 L1564.4,1822.37 L1561.95,1824.67 L1558.73,1826.35 L1553.99,1829.26 L1551.24,1833.54 L1548.94,1835.99 L1546.03,1837.82 L1543.74,1839.05 L1529.21,1811.75 L1522.88,1812.56 L1520.59,1815.26 L1515.87,1813.1 L1513.04,1815.52 L1508.05,1822.26 L1505.22,1825.36 L1504.01,1825.77 L1503.87,1825.23 L1500.1,1825.9 L1497.4,1832.78 L1491.47,1832.24 L1487.02,1837.36 L1477.59,1834.63 L1465.24,1839.11 L1460.96,1842.78 L1456.6,1855.36 L1450.86,1855.29 L1442.83,1857.43 L1437.55,1860.03 L1428.37,1871.58 L1424.62,1881.3 L1425.46,1889.18 L1419.72,1900.12 M1544.89,1877.96 L1552.85,1879.45 L1554.84,1881.84 L1556.53,1882.94 L1558.82,1883.14 L1562.1,1883.14 L1564.29,1882.74 L1565.49,1881.44 L1566.18,1880.15 L1567.97,1879.35 L1569.86,1879.95 L1570.46,1881.34 L1570.06,1882.84 L1570.56,1884.43 L1572.55,1885.13 L1574.04,1884.73 L1575.34,1884.53 L1576.33,1886.22 L1577.73,1887.51 L1578.02,1889.41 L1578.02,1890.6 L1580.21,1892.09 L1582,1891.69 L1581.71,1888.71 L1582.8,1886.02 L1584.49,1884.83 L1583.6,1882.34 L1580.71,1881.64 L1579.52,1878.86 L1579.32,1877.46 L1578.02,1875.47 L1578.02,1873.48 L1578.02,1869.6 L1577.63,1867.41 L1574.14,1867.12 L1573.05,1866.32 L1572.55,1860.55 L1566.58,1855.27 L1564.59,1848.31 L1563.1,1848.41 L1562.6,1841.44 L1564.29,1839.45 L1563.2,1837.06 L1561.31,1836.77 L1559.71,1837.86 L1560.31,1840.25 L1560.61,1841.14 L1556.13,1850.9 L1554.54,1851.29 L1551.95,1858.16 L1553.25,1858.76 L1551.16,1866.72 L1553.84,1867.81 L1553.84,1870.3 L1552.75,1871.59 L1551.56,1871.79 L1548.77,1873.19 L1547.28,1873.98 L1545.39,1874.18 L1545.78,1876.07 L1543.69,1876.87 L1544.89,1877.96" fill-rule="evenodd" vector-effect="none"/>

</g>
</g>
</svg>