<svg xmlns="http://www.w3.org/2000/svg" version="1.2" baseProfile="tiny" xmlns:inkscape="http://www.inkscape.org/namespaces/inkscape" width="315.045mm" viewBox="1269.13 2025.74 278.6 218.45" height="227.076mm" xmlns:xlink="http://www.w3.org/1999/xlink" xmlns:cc="http://creativecommons.org/ns#">
<g stroke-linejoin="bevel" stroke="black" inkscape:label="Map 1: fid_107" fill-rule="evenodd" stroke-linecap="square" inkscape:groupmode="layer" stroke-width="1" fill="none" id="Map 1: fid_107">
  <g stroke-linejoin="bevel"  fill-opacity="1" stroke="#232323" font-style="normal" stroke-linecap="square" font-family="Noto Sans" font-size="41.6667" font-weight="400" stroke-width="1" fill="#85b66f" stroke-opacity="1">
   <path d="M1348.81,2218.13 L1352.59,2216.14 L1354.78,2217.53 L1357.56,2217.53 L1358.56,2218.53 L1358.56,2220.52 L1357.96,2222.71 L1358.16,2224.9 L1359.95,2226.49 L1362.34,2226.09 L1364.53,2224.5 L1366.52,2226.49 L1370.3,2224.3 L1371.69,2224.5 L1375.08,2221.12 L1376.67,2220.12 L1379.46,2220.32 L1381.64,2216.94 L1383.44,2215.34 L1382.44,2213.75 L1381.05,2211.96 L1379.65,2208.98 L1380.45,2207.58 L1382.64,2205.99 L1381.45,2202.61 L1379.85,2201.41 L1379.85,2199.82 L1379.85,2198.23 L1380.25,2195.04 L1381.84,2190.67 L1383.24,2190.47 L1384.83,2190.67 L1388.01,2184.3 L1389.41,2184.1 L1389.41,2182.31 L1387.81,2182.11 L1387.02,2180.52 L1386.82,2177.33 L1389.21,2176.34 L1390.4,2176.54 L1392.19,2178.53 L1393.39,2180.52 L1394.58,2181.31 L1395.38,2181.51 L1396.57,2181.91 L1398.56,2185.29 L1401.15,2185.69 L1401.94,2182.71 L1404.53,2182.11 L1406.72,2183.1 L1409.51,2182.51 L1411.3,2183.3 L1412.29,2182.9 L1411.9,2181.71 L1411.7,2179.32 L1412.89,2177.13 L1414.88,2175.34 L1415.08,2171.76 L1414.68,2171.56 L1411.1,2170.17 L1408.11,2169.77 L1407.12,2166.59 L1407.52,2163.4 L1406.52,2161.21 L1402.94,2160.22 L1400.95,2158.23 L1400.35,2155.84 L1401.94,2152.06 L1402.34,2151.06 L1400.75,2148.28 L1399.36,2147.08 L1404.33,2143.1 L1406.32,2145.29 L1407.92,2145.29 L1408.31,2136.33 L1406.52,2133.15 L1406.52,2130.76 L1407.92,2130.17 L1408.11,2127.78 L1407.12,2126.18 L1405.73,2124.39 L1404.53,2119.82 L1406.32,2117.63 L1407.52,2116.63 L1410.5,2117.43 L1412.89,2120.02 L1414.28,2122.8 L1415.08,2125.79 L1416.47,2127.38 L1421.85,2127.58 L1423.44,2131.56 L1423.64,2133.75 L1424.63,2134.15 L1426.42,2136.93 L1429.41,2138.13 L1430.6,2141.11 L1432.39,2142.31 L1433.19,2143.7 L1434.38,2143.9 L1436.77,2146.68 L1439.36,2147.28 L1440.16,2148.28 L1441.75,2149.47 L1443.74,2149.27 L1444.93,2151.06 L1445.73,2151.06 L1446.13,2148.87 L1445.33,2138.27 L1444.53,2134.1 L1443.94,2130.12 L1442.74,2127.53 L1441.55,2125.34 L1440.35,2123.15 L1439.96,2120.16 L1440.55,2117.98 L1441.35,2116.58 L1442.74,2114.19 L1444.34,2111.21 L1447.72,2109.02 L1448.71,2108.82 L1449.91,2109.62 L1450.5,2110.41 L1450.5,2113 L1449.71,2117.38 L1451.5,2119.77 L1452.49,2123.15 L1451.3,2126.53 L1452.89,2128.32 L1454.29,2128.52 L1455.48,2130.12 L1455.68,2132.11 L1455.28,2134.89 L1455.08,2136.28 L1455.08,2139.47 L1458.07,2141.26 L1457.87,2145.24 L1458.86,2147.83 L1461.05,2148.23 L1460.85,2151.61 L1463.24,2153 L1462.25,2157.38 L1461.65,2159.77 L1463.04,2162.36 L1464.24,2165.54 L1467.62,2165.74 L1471.4,2166.14 L1473.19,2164.55 L1474.98,2162.55 L1476.97,2163.35 L1479.56,2159.37 L1482.55,2159.17 L1483.94,2159.17 L1485.73,2158.38 L1486.33,2156.98 L1484.74,2153.6 L1484.74,2151.01 L1484.93,2150.02 L1483.34,2146.63 L1483.14,2145.64 L1482.75,2142.45 L1482.35,2140.86 L1482.35,2137.68 L1482.75,2134.89 L1483.34,2134.49 L1483.54,2134.29 L1485.53,2136.48 L1487.12,2137.88 L1489.31,2138.27 L1490.9,2138.27 L1493.09,2139.87 L1495.08,2140.07 L1496.88,2141.86 L1498.07,2142.26 L1499.86,2144.84 L1500.26,2146.04 L1501.85,2147.83 L1505.63,2147.23 L1507.22,2146.43 L1511.6,2143.65 L1514.19,2139.67 L1514.99,2136.28 L1520.16,2131.31 L1524.14,2128.92 L1527.13,2127.73 L1530.91,2123.75 L1531.11,2122.15 L1531.9,2117.78 L1532.9,2117.18 L1535.09,2115.79 L1537.67,2112.8 L1538.47,2112.2 L1541.26,2107.03 L1541.85,2106.83 L1542.73,2104.03 L1510.67,2062.99 L1490.9,2062.45 L1484.34,2056.08 L1478.94,2045.46 L1478.48,2045.69 L1477.18,2045.77 L1476.13,2046.12 L1475.03,2046.76 L1473.54,2046.81 L1472.74,2046.08 L1440.46,2045.54 L1439.01,2045.67 L1439.01,2046.37 L1438.71,2048.06 L1436.42,2048.46 L1434.14,2047.86 L1432.34,2046.27 L1431.45,2045.67 L1430.55,2043.08 L1430.16,2042.09 L1428.46,2040.5 L1428.46,2037.61 L1428.07,2036.71 L1424.78,2034.82 L1424.09,2033.03 L1422.89,2031.94 L1421,2031.34 L1420.2,2030.94 L1418.71,2030.74 L1417.82,2031.74 L1417.92,2033.73 L1417.42,2035.92 L1414.93,2036.61 L1412.84,2036.52 L1411.75,2035.42 L1410.95,2035.02 L1409.76,2035.42 L1409.56,2036.91 L1409.66,2038.7 L1409.16,2041.59 L1406.97,2047.26 L1405.88,2048.26 L1404.58,2048.46 L1403.49,2048.06 L1402.79,2047.96 L1402.39,2048.36 L1401.89,2049.15 L1401.99,2051.44 L1401.3,2055.82 L1399.9,2060.2 L1397.72,2063.48 L1397.52,2067.86 L1400,2068.96 L1400.8,2073.03 L1399.51,2077.81 L1396.92,2081 L1395.23,2084.38 L1397.02,2085.97 L1398.11,2086.69 L1399.9,2088.19 L1399.31,2092.26 L1399.61,2096.34 L1402.39,2098.24 L1402.39,2101.22 L1403.89,2104.21 L1403.19,2106 L1402.59,2108.88 L1403.29,2110.57 L1400.3,2111.47 L1397.52,2111.07 L1395.33,2110.87 L1394.13,2111.37 L1393.14,2111.97 L1390.85,2116.35 L1390.15,2118.44 L1388.46,2120.53 L1388.26,2124.51 L1386.27,2126.69 L1383.98,2128.29 L1381.3,2128.68 L1379.31,2128.61 L1378.71,2123.73 L1379.11,2121.15 L1377.32,2118.56 L1377.71,2116.17 L1377.42,2114.58 L1376.82,2113.09 L1377.22,2111.3 L1377.42,2110.5 L1378.41,2108.91 L1377.12,2108.61 L1376.52,2106.12 L1376.42,2104.73 L1376.12,2100.75 L1374.53,2098.26 L1372.74,2097.96 L1369.95,2098.46 L1367.96,2099.26 L1365.38,2100.55 L1363.58,2099.75 L1361.1,2099.75 L1361.1,2101.54 L1362.09,2105.13 L1363.78,2106.02 L1364.08,2107.41 L1364.48,2109.01 L1367.66,2110.4 L1369.26,2111.59 L1370.05,2113.68 L1369.85,2116.47 L1370.35,2119.16 L1370.55,2121.94 L1370.65,2123.14 L1371.15,2124.53 L1372.34,2126.62 L1373.73,2128.11 L1376.22,2130 L1376.92,2131.79 L1375.23,2132.69 L1371.84,2130.5 L1369.85,2127.42 L1369.26,2125.72 L1367.96,2123.14 L1366.27,2119.95 L1364.48,2116.87 L1362.89,2114.98 L1361.2,2112.59 L1360.8,2110.7 L1361.99,2109.01 L1360.4,2106.72 L1358.31,2105.33 L1357.12,2104.83 L1355.92,2105.82 L1352.94,2103.53 L1351.74,2100.85 L1348.56,2100.25 L1347.17,2098.86 L1346.07,2096.67 L1346.47,2094.88 L1345.77,2093.28 L1341.99,2091.49 L1342.19,2087.21 L1340,2087.51 L1338.61,2089.6 L1338.61,2091.59 L1337.51,2094.48 L1339.9,2096.57 L1338.81,2098.66 L1336.32,2098.86 L1335.52,2104.03 L1331.84,2103.93 L1331.54,2098.26 L1333.73,2098.06 L1333.33,2089.4 L1330.95,2087.51 L1328.96,2088.81 L1329.85,2092.19 L1327.66,2092.89 L1325.57,2092.29 L1325.57,2091.1 L1321.99,2098.48 L1319.4,2098.58 L1317.71,2101.27 L1314.83,2102.36 L1298.51,2119.28 L1293.93,2119.18 L1292.14,2117.49 L1289.65,2118.78 L1288.26,2120.48 L1286.86,2123.36 L1284.87,2125.35 L1284.77,2128.14 L1283.08,2130.82 L1279.2,2141.47 L1279.3,2144.85 L1277.91,2147.74 L1280.1,2149.13 L1283.38,2147.94 L1285.37,2146.45 L1286.07,2145.55 L1287.56,2143.86 L1289.25,2144.85 L1290.55,2147.94 L1293.53,2149.33 L1294.92,2149.43 L1296.12,2150.53 L1294.92,2162.57 L1290.64,2163.96 L1288.36,2167.14 L1287.16,2171.03 L1287.96,2173.61 L1287.86,2176.6 L1284.97,2179.88 L1281.99,2184.16 L1283.28,2184.86 L1286.76,2181.87 L1289.05,2179.28 L1291.74,2179.19 L1292.54,2180.98 L1288.85,2183.96 L1284.38,2185.75 L1282.78,2190.63 L1279.3,2194.01 L1274.92,2198.49 L1274.13,2202.17 L1278.21,2203.47 L1281.49,2203.27 L1284.18,2201.48 L1285.17,2200.78 L1287.76,2199.58 L1291.04,2199.39 L1293.43,2201.87 L1292.93,2204.06 L1290.74,2205.85 L1289.25,2206.75 L1287.26,2207.74 L1285.87,2209.83 L1283.48,2211.33 L1282.98,2213.52 L1285.27,2214.81 L1288.85,2214.11 L1290.05,2212.62 L1291.24,2211.62 L1295.22,2211.33 L1298.31,2210.33 L1302.49,2211.82 L1306.47,2211.82 L1311.04,2210.13 L1313.43,2211.72 L1313.13,2214.61 L1308.36,2216.3 L1305.97,2219.88 L1310.65,2221.18 L1313.43,2219.19 L1317.61,2219.39 L1319.5,2220.98 L1319.2,2222.27 L1316.72,2224.46 L1315.42,2227.75 L1317.51,2230.03 L1317.01,2232.92 L1320.5,2233.52 L1323.18,2236.3 L1326.27,2236.9 L1328.56,2236.6 L1330.35,2234.71 L1332.44,2237.2 L1332.64,2237.4 L1333.73,2237.99 L1338.51,2239.09 L1341.79,2239.19 L1343.98,2238.49 L1343.28,2234.91 L1341,2234.71 L1340.7,2232.32 L1344.08,2230.03 L1346.17,2229.04 L1348.26,2219.98 L1348.81,2218.13" fill-rule="evenodd" vector-effect="none"/>

</g>
</g>
</svg>