<svg xmlns="http://www.w3.org/2000/svg" version="1.2" baseProfile="tiny" xmlns:inkscape="http://www.inkscape.org/namespaces/inkscape" width="315.045mm" viewBox="1799.79 718.636 142.73 195.331" height="227.076mm" xmlns:xlink="http://www.w3.org/1999/xlink" xmlns:cc="http://creativecommons.org/ns#">
<g stroke-linejoin="bevel" stroke="black" inkscape:label="Map 1: fid_27" fill-rule="evenodd" stroke-linecap="square" inkscape:groupmode="layer" stroke-width="1" fill="none" id="Map 1: fid_27">
  <g stroke-linejoin="bevel"  fill-opacity="1" stroke="#232323" font-style="normal" stroke-linecap="square" font-family="Noto Sans" font-size="41.6667" font-weight="400" stroke-width="1" fill="#91522d" stroke-opacity="1">
   <path d="M1855.65,723.636 L1870.63,746.28 L1877.6,761.608 L1887,780.769 L1895.71,787.736 L1900.59,803.412 L1906.51,817.695 L1916.96,824.663 L1924.28,843.823 L1925.32,864.725 L1930.9,864.725 L1930.9,885.975 L1937.52,890.504 L1936.47,905.832 L1910,907.922 L1908.25,898.168 L1910.35,895.033 L1907.56,885.278 L1898.85,881.098 L1897.11,883.188 L1893.62,887.02 L1895.37,892.942 L1899.2,892.246 L1898.5,886.672 L1903.73,887.02 L1903.38,907.574 L1877.95,908.967 L1876.21,897.471 L1879.34,893.988 L1883.17,897.82 L1887.7,897.82 L1883.87,889.459 L1873.07,881.795 L1860.18,862.635 L1858.44,865.77 L1853.21,865.073 L1847.29,848.003 L1819.42,859.848 L1814.54,856.016 L1812.8,847.655 L1804.79,838.946 L1811.41,835.462 L1815.59,834.069 L1814.89,821.527 L1817.68,818.044 L1817.33,813.515 L1822.21,813.167 L1824.65,817.347 L1828.48,816.302 L1832.66,818.044 L1840.67,817.695 L1839.63,805.851 L1847.29,795.748 L1837.54,794.703 L1820.12,795.748 L1812.8,793.31 L1811.06,777.285 L1810.02,774.498 L1822.56,771.363 L1825.34,767.879 L1826.39,751.506 L1835.1,742.448 L1855.65,723.636" fill-rule="evenodd" vector-effect="none"/>

</g>
</g>
</svg>