<svg xmlns="http://www.w3.org/2000/svg" version="1.2" baseProfile="tiny" xmlns:inkscape="http://www.inkscape.org/namespaces/inkscape" width="315.045mm" viewBox="1532.0 1593.53 87.91 128.34" height="227.076mm" xmlns:xlink="http://www.w3.org/1999/xlink" xmlns:cc="http://creativecommons.org/ns#">
<g stroke-linejoin="bevel" stroke="black" inkscape:label="Map 1: fid_82" fill-rule="evenodd" stroke-linecap="square" inkscape:groupmode="layer" stroke-width="1" fill="none" id="Map 1: fid_82">
  <g stroke-linejoin="bevel"  fill-opacity="1" stroke="#232323" font-style="normal" stroke-linecap="square" font-family="Noto Sans" font-size="41.6667" font-weight="400" stroke-width="1" fill="#c43c39" stroke-opacity="1">
   <path d="M1537.67,1635.06 L1539.56,1635.06 L1539.83,1628.99 L1538.48,1625.89 L1539.56,1623.46 L1541.45,1624.14 L1542.12,1626.83 L1544.55,1626.97 L1545.76,1622.92 L1545.36,1620.09 L1544.95,1618.07 L1549.4,1616.05 L1549.26,1614.03 L1553.85,1612.82 L1551.56,1608.23 L1553.71,1606.21 L1553.44,1602.98 L1555.46,1602.17 L1557.62,1602.84 L1562.2,1598.53 L1563.55,1599.07 L1563.96,1602.84 L1571.91,1607.56 L1577.84,1607.56 L1581.21,1604.59 L1582.29,1602.03 L1591.99,1601.76 L1592.26,1605.4 L1588.89,1606.35 L1589.43,1609.18 L1587.14,1610.79 L1590.51,1612.82 L1582.42,1623.19 L1581.88,1627.24 L1584.85,1629.8 L1587.68,1631.28 L1589.16,1631.28 L1594.82,1634.38 L1594.15,1636.94 L1591.86,1639.64 L1590.91,1642.2 L1591.99,1645.3 L1594.42,1646.38 L1596.98,1646.65 L1598.87,1645.84 L1606.01,1640.72 L1614.91,1632.49 L1612.08,1639.91 L1611.4,1646.38 L1610.19,1649.34 L1607.63,1651.1 L1607.09,1658.64 L1604.53,1664.58 L1600.35,1671.58 L1595.77,1679.81 L1589.03,1687.09 L1588.08,1695.31 L1584.17,1702.72 L1582.69,1706.36 L1581.48,1708.92 L1561.53,1716.87 L1559.78,1714.85 L1559.64,1712.7 L1558.03,1712.7 L1557.76,1715.12 L1554.93,1714.85 L1553.85,1712.56 L1553.58,1710.4 L1554.25,1706.36 L1555.6,1703.8 L1556.95,1701.64 L1557.08,1698.95 L1555.6,1697.87 L1553.17,1699.62 L1552.09,1700.29 L1552.23,1698 L1552.77,1695.98 L1551.69,1694.36 L1549.13,1692.21 L1546.97,1692.75 L1546.57,1694.36 L1547.38,1696.39 L1548.32,1698.54 L1548.72,1701.51 L1548.59,1703.53 L1547.51,1706.23 L1544.41,1707.71 L1540.5,1707.03 L1537.94,1704.07 L1538.08,1700.83 L1539.15,1699.62 L1537,1671.85 L1542.25,1647.86 L1537.67,1635.06" fill-rule="evenodd" vector-effect="none"/>

</g>
</g>
</svg>