<svg xmlns="http://www.w3.org/2000/svg" version="1.2" baseProfile="tiny" xmlns:inkscape="http://www.inkscape.org/namespaces/inkscape" width="315.045mm" viewBox="3368.09 3802.31 200.15 298.84" height="227.076mm" xmlns:xlink="http://www.w3.org/1999/xlink" xmlns:cc="http://creativecommons.org/ns#">
<g inkscape:groupmode="layer" stroke-width="1" stroke-linejoin="bevel" stroke-linecap="square" inkscape:label="Map 1: fid_82" fill="none" stroke="black" id="Map 1: fid_82" fill-rule="evenodd">
  <g fill-opacity="1" stroke-width="2" stroke-linejoin="bevel" font-weight="400" stroke-linecap="square" font-size="83.3333" font-style="normal" fill="#8d5a99" stroke-opacity="1"  font-family="Noto Sans" stroke="#232323">
   <path d="M3374.73,3896.46 L3379.34,3896.46 L3380,3881.66 L3376.71,3874.09 L3379.34,3868.17 L3383.95,3869.81 L3385.59,3876.39 L3391.51,3876.72 L3394.47,3866.85 L3393.49,3859.94 L3392.5,3855.01 L3403.36,3850.08 L3403.03,3845.14 L3414.21,3842.18 L3408.62,3830.99 L3413.88,3826.06 L3413.23,3818.16 L3418.16,3816.19 L3423.42,3817.84 L3434.61,3807.31 L3437.9,3808.62 L3438.89,3817.84 L3458.29,3829.35 L3472.77,3829.35 L3480.99,3822.11 L3483.63,3815.86 L3507.31,3815.2 L3507.97,3824.09 L3499.75,3826.39 L3501.06,3833.3 L3495.47,3837.25 L3503.69,3842.18 L3483.96,3867.51 L3482.64,3877.38 L3489.88,3883.63 L3496.79,3887.25 L3500.4,3887.25 L3514.22,3894.82 L3512.58,3901.07 L3506.98,3907.65 L3504.68,3913.9 L3507.31,3921.46 L3513.23,3924.09 L3519.48,3924.75 L3524.09,3922.78 L3541.53,3910.28 L3563.24,3890.21 L3556.33,3908.3 L3554.68,3924.09 L3551.72,3931.33 L3545.47,3935.61 L3544.16,3954.03 L3537.91,3968.51 L3527.71,3985.61 L3516.52,4005.68 L3500.07,4023.45 L3497.77,4043.51 L3488.23,4061.61 L3484.61,4070.49 L3481.65,4076.74 L3432.96,4096.15 L3428.69,4091.21 L3428.36,4085.95 L3424.41,4085.95 L3423.75,4091.87 L3416.84,4091.21 L3414.21,4085.62 L3413.55,4080.36 L3415.2,4070.49 L3418.49,4064.24 L3421.78,4058.98 L3422.11,4052.4 L3418.49,4049.76 L3412.57,4054.04 L3409.94,4055.69 L3410.26,4050.09 L3411.58,4045.16 L3408.95,4041.21 L3402.7,4035.95 L3397.43,4037.26 L3396.45,4041.21 L3398.42,4046.15 L3400.72,4051.41 L3401.71,4058.65 L3401.38,4063.58 L3398.75,4070.16 L3391.18,4073.78 L3381.64,4072.13 L3375.39,4064.9 L3375.72,4057 L3378.35,4054.04 L3373.09,3986.27 L3385.92,3927.71 L3374.73,3896.46" vector-effect="none" fill-rule="evenodd"/>

</g>
</g>
</svg>