<svg xmlns="http://www.w3.org/2000/svg" version="1.2" baseProfile="tiny" xmlns:inkscape="http://www.inkscape.org/namespaces/inkscape" width="315.045mm" viewBox="2910.0 3691.87 213.64 303.77" height="227.076mm" xmlns:xlink="http://www.w3.org/1999/xlink" xmlns:cc="http://creativecommons.org/ns#">
<g inkscape:groupmode="layer" stroke-width="1" stroke-linejoin="bevel" stroke-linecap="square" inkscape:label="Map 1: fid_82" fill="none" stroke="black" id="Map 1: fid_82" fill-rule="evenodd">
  <g stroke-width="1" stroke-linejoin="bevel" font-weight="400" stroke-linecap="square" font-size="83.3333" font-style="normal" fill="none" stroke-opacity="1" transform="matrix(1,0,0,1,0,0)" font-family="Noto Sans" stroke="#000000"/>
  <g stroke-width="1" stroke-linejoin="bevel" font-weight="400" stroke-linecap="square" font-size="83.3333" font-style="normal" fill="none" stroke-opacity="1" transform="matrix(1,0,0,1,0,0)" font-family="Noto Sans" stroke="#000000"/>
  <g stroke-width="1" stroke-linejoin="bevel" font-weight="400" stroke-linecap="square" font-size="83.3333" font-style="normal" fill="none" stroke-opacity="1" transform="matrix(23.6177,0,0,23.6177,23.6177,23.6177)" font-family="Noto Sans" stroke="#000000"/>
  <g stroke-width="1" stroke-linejoin="bevel" font-weight="400" stroke-linecap="square" font-size="83.3333" font-style="normal" fill="none" stroke-opacity="1" transform="matrix(23.6177,0,0,23.6177,23.6177,23.6177)" font-family="Noto Sans" stroke="#000000"/>
  <g fill-opacity="0" font-weight="400" font-size="83.3333" font-style="normal" fill="#000000" transform="matrix(0.999817,0,0,0.999817,23.6177,23.6177)" font-family="Noto Sans" stroke="none">
   <rect y="0" width="7395" height="5318" x="0"/>
  </g>
  <g stroke-width="1" stroke-linejoin="bevel" font-weight="400" stroke-linecap="square" font-size="83.3333" font-style="normal" fill="none" stroke-opacity="1" transform="matrix(0.999817,0,0,0.999817,23.6177,23.6177)" font-family="Noto Sans" stroke="#000000"/>
  <g fill-opacity="1" stroke-width="2" stroke-linejoin="bevel" font-weight="400" stroke-linecap="square" font-size="83.3333" font-style="normal" fill="#e5b636" stroke-opacity="1" transform="matrix(0.999817,0,0,0.999817,23.6177,23.6177)" font-family="Noto Sans" stroke="#232323">
   <path d="M2891.5,3753.29 L2895.71,3753.29 L2896.31,3739.77 L2893.31,3732.86 L2895.71,3727.45 L2899.92,3728.95 L2901.42,3734.96 L2906.83,3735.26 L2909.53,3726.25 L2908.63,3719.94 L2907.73,3715.43 L2917.64,3710.93 L2917.34,3706.42 L2927.55,3703.72 L2922.45,3693.5 L2927.25,3689 L2926.65,3681.79 L2931.16,3679.99 L2935.97,3681.49 L2946.18,3671.87 L2949.18,3673.08 L2950.09,3681.49 L2967.81,3692 L2981.03,3692 L2988.54,3685.39 L2990.94,3679.68 L3012.57,3679.08 L3013.17,3687.2 L3005.66,3689.3 L3006.86,3695.61 L3001.76,3699.21 L3009.27,3703.72 L2991.24,3726.85 L2990.04,3735.86 L2996.65,3741.57 L3002.96,3744.88 L3006.26,3744.88 L3018.88,3751.78 L3017.38,3757.49 L3012.27,3763.5 L3010.17,3769.21 L3012.57,3776.12 L3017.98,3778.52 L3023.69,3779.12 L3027.89,3777.32 L3043.82,3765.9 L3063.64,3747.58 L3057.33,3764.1 L3055.83,3778.52 L3053.13,3785.13 L3047.42,3789.04 L3046.22,3805.86 L3040.51,3819.08 L3031.2,3834.7 L3020.98,3853.03 L3005.96,3869.25 L3003.86,3887.57 L2995.15,3904.1 L2991.84,3912.21 L2989.14,3917.92 L2944.68,3935.64 L2940.77,3931.13 L2940.47,3926.33 L2936.87,3926.33 L2936.27,3931.73 L2929.96,3931.13 L2927.55,3926.03 L2926.95,3921.22 L2928.46,3912.21 L2931.46,3906.5 L2934.46,3901.69 L2934.76,3895.68 L2931.46,3893.28 L2926.05,3897.19 L2923.65,3898.69 L2923.95,3893.58 L2925.15,3889.08 L2922.75,3885.47 L2917.04,3880.66 L2912.23,3881.87 L2911.33,3885.47 L2913.13,3889.98 L2915.24,3894.78 L2916.14,3901.39 L2915.84,3905.9 L2913.43,3911.91 L2906.53,3915.21 L2897.81,3913.71 L2892.11,3907.1 L2892.41,3899.89 L2894.81,3897.19 L2890,3835.3 L2901.72,3781.83 L2891.5,3753.29" vector-effect="none" fill-rule="evenodd"/>
  </g>
  <g stroke-width="1" stroke-linejoin="bevel" font-weight="400" stroke-linecap="square" font-size="83.3333" font-style="normal" fill="none" stroke-opacity="1" transform="matrix(0.999817,0,0,0.999817,23.6177,23.6177)" font-family="Noto Sans" stroke="#000000"/>
  <g stroke-width="1" stroke-linejoin="bevel" font-weight="400" stroke-linecap="square" font-size="83.3333" font-style="normal" fill="none" stroke-opacity="1" transform="matrix(23.6177,0,0,23.6177,23.6177,23.6177)" font-family="Noto Sans" stroke="#000000"/>
  <g stroke-width="1" stroke-linejoin="bevel" font-weight="400" stroke-linecap="square" font-size="83.3333" font-style="normal" fill="none" stroke-opacity="1" transform="matrix(23.6177,0,0,23.6177,23.6177,23.6177)" font-family="Noto Sans" stroke="#000000"/>
  <g stroke-width="1" stroke-linejoin="bevel" font-weight="400" stroke-linecap="square" font-size="83.3333" font-style="normal" fill="none" stroke-opacity="1" transform="matrix(23.6177,0,0,23.6177,23.6177,23.6177)" font-family="Noto Sans" stroke="#000000"/>
  <g stroke-width="1" stroke-linejoin="bevel" font-weight="400" stroke-linecap="square" font-size="83.3333" font-style="normal" fill="none" stroke-opacity="1" transform="matrix(1,0,0,1,0,0)" font-family="Noto Sans" stroke="#000000"/>
  <g stroke-width="1" stroke-linejoin="bevel" font-weight="400" stroke-linecap="square" font-size="83.3333" font-style="normal" fill="none" stroke-opacity="1" transform="matrix(23.6177,0,0,23.6177,23.6177,23.6177)" font-family="Noto Sans" stroke="#000000"/>
  <g stroke-width="1" stroke-linejoin="bevel" font-weight="400" stroke-linecap="square" font-size="83.3333" font-style="normal" fill="none" stroke-opacity="1" transform="matrix(23.6177,0,0,23.6177,23.6177,23.6177)" font-family="Noto Sans" stroke="#000000"/>
  <g stroke-width="1" stroke-linejoin="bevel" font-weight="400" stroke-linecap="square" font-size="83.3333" font-style="normal" fill="none" stroke-opacity="1" transform="matrix(1,0,0,1,0,0)" font-family="Noto Sans" stroke="#000000"/>
 </g>
 
</svg>