<svg xmlns="http://www.w3.org/2000/svg" version="1.2" baseProfile="tiny" xmlns:inkscape="http://www.inkscape.org/namespaces/inkscape" width="315.045mm" viewBox="1255.14 1605.66 130.37 152.07" height="227.076mm" xmlns:xlink="http://www.w3.org/1999/xlink" xmlns:cc="http://creativecommons.org/ns#">
<g stroke-linejoin="bevel" stroke="black" inkscape:label="Map 1: fid_78" fill-rule="evenodd" stroke-linecap="square" inkscape:groupmode="layer" stroke-width="1" fill="none" id="Map 1: fid_78">
  <g stroke-linejoin="bevel"  fill-opacity="1" stroke="#232323" font-style="normal" stroke-linecap="square" font-family="Noto Sans" font-size="41.6667" font-weight="400" stroke-width="1" fill="#f3a6b2" stroke-opacity="1">
   <path d="M1273.62,1657.16 L1276.85,1654.47 L1276.18,1650.56 L1273.48,1649.61 L1271.19,1654.33 L1268.9,1652.58 L1270.79,1648.67 L1268.36,1648.13 L1268.36,1646.24 L1269.98,1645.17 L1270.79,1642.6 L1269.03,1642.2 L1266.88,1646.65 L1267.01,1648.8 L1265.39,1649.07 L1265.66,1649.75 L1267.01,1649.75 L1265.53,1653.79 L1260.14,1651.23 L1284.26,1610.66 L1312.3,1611.06 L1318.5,1614.43 L1323.76,1620.9 L1352.06,1628.32 L1363.25,1637.35 L1369.86,1659.18 L1370.8,1678.05 L1374.71,1678.73 L1380.51,1687.22 L1379.7,1695.17 L1375.11,1701.37 L1369.59,1708.52 L1370.13,1715.66 L1351.53,1748.55 L1351.66,1752.73 L1320.52,1743.56 L1305.83,1734.26 L1287.5,1730.35 L1280.76,1719.97 L1281.16,1703.13 L1278.74,1695.44 L1280.36,1693.69 L1274.16,1682.91 L1273.62,1657.16" fill-rule="evenodd" vector-effect="none"/>

</g>
</g>
</svg>