<svg xmlns="http://www.w3.org/2000/svg" version="1.2" baseProfile="tiny" xmlns:inkscape="http://www.inkscape.org/namespaces/inkscape" width="315.045mm" viewBox="2717.37 3856.92 333.78 386.74" height="227.076mm" xmlns:xlink="http://www.w3.org/1999/xlink" xmlns:cc="http://creativecommons.org/ns#">
<g inkscape:groupmode="layer" stroke-width="1" stroke-linejoin="bevel" stroke-linecap="square" inkscape:label="Map 1: fid_78" fill="none" stroke="black" id="Map 1: fid_78" fill-rule="evenodd">
  <g stroke-width="1" stroke-linejoin="bevel" font-weight="400" stroke-linecap="square" font-size="83.3333" font-style="normal" fill="none" stroke-opacity="1" transform="matrix(1,0,0,1,0,0)" font-family="Noto Sans" stroke="#000000"/>
  <g stroke-width="1" stroke-linejoin="bevel" font-weight="400" stroke-linecap="square" font-size="83.3333" font-style="normal" fill="none" stroke-opacity="1" transform="matrix(1,0,0,1,0,0)" font-family="Noto Sans" stroke="#000000"/>
  <g stroke-width="1" stroke-linejoin="bevel" font-weight="400" stroke-linecap="square" font-size="83.3333" font-style="normal" fill="none" stroke-opacity="1" transform="matrix(23.619,0,0,23.619,-728.486,-229.753)" font-family="Noto Sans" stroke="#000000"/>
  <g stroke-width="1" stroke-linejoin="bevel" font-weight="400" stroke-linecap="square" font-size="83.3333" font-style="normal" fill="none" stroke-opacity="1" transform="matrix(23.619,0,0,23.619,-728.486,-229.753)" font-family="Noto Sans" stroke="#000000"/>
  <g fill-opacity="0" font-weight="400" font-size="83.3333" font-style="normal" fill="#000000" transform="matrix(0.999873,0,0,0.999873,-728.486,-229.753)" font-family="Noto Sans" stroke="none">
   <rect y="0" width="8098" height="5627" x="0"/>
  </g>
  <g stroke-width="1" stroke-linejoin="bevel" font-weight="400" stroke-linecap="square" font-size="83.3333" font-style="normal" fill="none" stroke-opacity="1" transform="matrix(0.999873,0,0,0.999873,-728.486,-229.753)" font-family="Noto Sans" stroke="#000000"/>
  <g fill-opacity="1" stroke-width="2" stroke-linejoin="bevel" font-weight="400" stroke-linecap="square" font-size="83.3333" font-style="normal" fill="#e5b636" stroke-opacity="1" transform="matrix(0.999873,0,0,0.999873,-728.486,-229.753)" font-family="Noto Sans" stroke="#232323">
   <path d="M2730.27,3950.41 L2738.17,3943.83 L2736.52,3934.29 L2729.94,3931.99 L2724.35,3943.5 L2718.76,3939.23 L2723.36,3929.69 L2717.44,3928.37 L2717.44,3923.77 L2721.39,3921.13 L2723.36,3914.88 L2719.09,3913.9 L2713.82,3924.75 L2714.15,3930.02 L2710.2,3930.67 L2710.86,3932.32 L2714.15,3932.32 L2710.53,3942.19 L2697.37,3935.94 L2756.26,3836.92 L2824.69,3837.9 L2839.82,3846.13 L2852.65,3861.92 L2921.73,3880.01 L2949.04,3902.05 L2965.16,3955.35 L2967.46,4001.4 L2977,4003.05 L2991.15,4023.77 L2989.17,4043.18 L2977.99,4058.32 L2964.5,4075.75 L2965.82,4093.19 L2920.42,4173.46 L2920.75,4183.66 L2844.75,4161.29 L2808.9,4138.59 L2764.16,4129.05 L2747.71,4103.72 L2748.69,4062.59 L2742.77,4043.84 L2746.72,4039.57 L2731.59,4013.25 L2730.27,3950.41" vector-effect="none" fill-rule="evenodd"/>
  </g>
  <g stroke-width="1" stroke-linejoin="bevel" font-weight="400" stroke-linecap="square" font-size="83.3333" font-style="normal" fill="none" stroke-opacity="1" transform="matrix(0.999873,0,0,0.999873,-728.486,-229.753)" font-family="Noto Sans" stroke="#000000"/>
  <g stroke-width="1" stroke-linejoin="bevel" font-weight="400" stroke-linecap="square" font-size="83.3333" font-style="normal" fill="none" stroke-opacity="1" transform="matrix(23.619,0,0,23.619,-728.486,-229.753)" font-family="Noto Sans" stroke="#000000"/>
  <g stroke-width="1" stroke-linejoin="bevel" font-weight="400" stroke-linecap="square" font-size="83.3333" font-style="normal" fill="none" stroke-opacity="1" transform="matrix(23.619,0,0,23.619,-728.486,-229.753)" font-family="Noto Sans" stroke="#000000"/>
  <g stroke-width="1" stroke-linejoin="bevel" font-weight="400" stroke-linecap="square" font-size="83.3333" font-style="normal" fill="none" stroke-opacity="1" transform="matrix(23.619,0,0,23.619,-728.486,-229.753)" font-family="Noto Sans" stroke="#000000"/>
  <g stroke-width="1" stroke-linejoin="bevel" font-weight="400" stroke-linecap="square" font-size="83.3333" font-style="normal" fill="none" stroke-opacity="1" transform="matrix(1,0,0,1,0,0)" font-family="Noto Sans" stroke="#000000"/>
  <g stroke-width="1" stroke-linejoin="bevel" font-weight="400" stroke-linecap="square" font-size="83.3333" font-style="normal" fill="none" stroke-opacity="1" transform="matrix(23.619,0,0,23.619,-728.486,-229.753)" font-family="Noto Sans" stroke="#000000"/>
  <g stroke-width="1" stroke-linejoin="bevel" font-weight="400" stroke-linecap="square" font-size="83.3333" font-style="normal" fill="none" stroke-opacity="1" transform="matrix(23.619,0,0,23.619,-728.486,-229.753)" font-family="Noto Sans" stroke="#000000"/>
  <g stroke-width="1" stroke-linejoin="bevel" font-weight="400" stroke-linecap="square" font-size="83.3333" font-style="normal" fill="none" stroke-opacity="1" transform="matrix(1,0,0,1,0,0)" font-family="Noto Sans" stroke="#000000"/>
 </g>
 
</svg>