<svg xmlns="http://www.w3.org/2000/svg" version="1.2" baseProfile="tiny" xmlns:inkscape="http://www.inkscape.org/namespaces/inkscape" width="315.045mm" viewBox="1410.82 1628.27 77.13 103.81" height="227.076mm" xmlns:xlink="http://www.w3.org/1999/xlink" xmlns:cc="http://creativecommons.org/ns#">
<g stroke-linejoin="bevel" stroke="black" inkscape:label="Map 1: fid_80" fill-rule="evenodd" stroke-linecap="square" inkscape:groupmode="layer" stroke-width="1" fill="none" id="Map 1: fid_80">
  <g stroke-linejoin="bevel"  fill-opacity="1" stroke="#232323" font-style="normal" stroke-linecap="square" font-family="Noto Sans" font-size="41.6667" font-weight="400" stroke-width="1" fill="#85b66f" stroke-opacity="1">
   <path d="M1446.82,1724.66 L1449.79,1724.12 L1455.18,1727.08 L1459.22,1715.22 L1460.84,1714.28 L1461.92,1708.75 L1463.94,1707.67 L1465.69,1703.09 L1468.12,1701.2 L1470.01,1703.63 L1470.95,1704.57 L1473.38,1699.59 L1477.96,1698.24 L1478.36,1686.38 L1482.95,1683.68 L1479.31,1679.1 L1479.44,1675.32 L1477.56,1674.11 L1468.12,1673.17 L1466.77,1669.93 L1463,1675.06 L1460.3,1674.38 L1459.22,1663.46 L1459.63,1661.44 L1458.95,1659.02 L1458.01,1655.11 L1459.76,1653.62 L1463,1648.64 L1463,1647.42 L1464.48,1647.02 L1464.35,1645.81 L1465.69,1644.73 L1469.33,1642.03 L1470.14,1638.39 L1468.66,1636.37 L1465.29,1635.83 L1463,1637.72 L1459.76,1636.5 L1458.01,1637.85 L1453.43,1635.43 L1449.65,1637.04 L1447.23,1634.62 L1438.74,1633.27 L1434.96,1638.8 L1431.46,1637.18 L1429.17,1636.37 L1425.26,1641.63 L1423.5,1641.9 L1424.31,1645.81 L1415.82,1667.37 L1415.96,1669.93 L1423.37,1669.93 L1425.66,1678.96 L1434.15,1678.69 L1443.45,1685.57 L1449.25,1686.41 L1446.01,1691.67 L1445.21,1701.78 L1446.28,1707.54 L1448.64,1707.61 L1449.25,1708.82 L1448.98,1715.49 L1447.36,1715.43 L1446.69,1714.68 L1446.55,1716.34 L1447.36,1722.7 L1446.82,1724.66" fill-rule="evenodd" vector-effect="none"/>

</g>
</g>
</svg>