<svg xmlns="http://www.w3.org/2000/svg" version="1.2" baseProfile="tiny" xmlns:inkscape="http://www.inkscape.org/namespaces/inkscape" width="315.045mm" viewBox="3072.34 3887.1 173.83 238.97" height="227.076mm" xmlns:xlink="http://www.w3.org/1999/xlink" xmlns:cc="http://creativecommons.org/ns#">
<g inkscape:groupmode="layer" stroke-width="1" stroke-linejoin="bevel" stroke-linecap="square" inkscape:label="Map 1: fid_80" fill="none" stroke="black" id="Map 1: fid_80" fill-rule="evenodd">
  <g fill-opacity="1" stroke-width="2" stroke-linejoin="bevel" font-weight="400" stroke-linecap="square" font-size="83.3333" font-style="normal" fill="#e77148" stroke-opacity="1"  font-family="Noto Sans" stroke="#232323">
   <path d="M3153.01,4115.15 L3160.24,4113.83 L3173.4,4121.07 L3183.27,4092.12 L3187.22,4089.82 L3189.85,4076.33 L3194.79,4073.7 L3199.06,4062.51 L3204.98,4057.91 L3209.59,4063.83 L3211.89,4066.13 L3217.81,4053.96 L3229,4050.67 L3229.99,4021.72 L3241.17,4015.14 L3232.29,4003.95 L3232.62,3994.74 L3228.01,3991.78 L3204.98,3989.48 L3201.69,3981.58 L3192.48,3994.08 L3185.9,3992.44 L3183.27,3965.79 L3184.26,3960.86 L3182.61,3954.94 L3180.31,3945.4 L3184.59,3941.78 L3192.48,3929.61 L3192.48,3926.64 L3196.1,3925.66 L3195.77,3922.7 L3199.06,3920.07 L3207.94,3913.49 L3209.92,3904.6 L3206.3,3899.67 L3198.07,3898.35 L3192.48,3902.96 L3184.59,3900 L3180.31,3903.29 L3169.12,3897.37 L3159.91,3901.31 L3153.99,3895.39 L3133.27,3892.1 L3124.06,3905.59 L3115.5,3901.64 L3109.91,3899.67 L3100.37,3912.5 L3096.09,3913.16 L3098.07,3922.7 L3077.34,3975.33 L3077.67,3981.58 L3095.76,3981.58 L3101.36,4003.62 L3122.08,4002.97 L3144.78,4019.74 L3158.93,4021.8 L3151.03,4034.63 L3149.06,4059.3 L3151.69,4073.37 L3157.45,4073.53 L3158.93,4076.49 L3158.27,4092.78 L3154.32,4092.61 L3152.68,4090.8 L3152.35,4094.83 L3154.32,4110.38 L3153.01,4115.15" vector-effect="none" fill-rule="evenodd"/>

</g>
</g>
</svg>