<svg xmlns="http://www.w3.org/2000/svg" version="1.2" baseProfile="tiny" xmlns:inkscape="http://www.inkscape.org/namespaces/inkscape" width="315.045mm" viewBox="3584.23 3177.89 120.21 235.79" height="227.076mm" xmlns:xlink="http://www.w3.org/1999/xlink" xmlns:cc="http://creativecommons.org/ns#">
<g inkscape:groupmode="layer" stroke-width="1" stroke-linejoin="bevel" stroke-linecap="square" inkscape:label="Map 1: fid_23" fill="none" stroke="black" id="Map 1: fid_23" fill-rule="evenodd">
  <g fill-opacity="1" stroke-width="2" stroke-linejoin="bevel" font-weight="400" stroke-linecap="square" font-size="83.3333" font-style="normal" fill="#beb297" stroke-opacity="1"  font-family="Noto Sans" stroke="#232323">
   <path d="M3591.56,3266.21 L3603.57,3262.28 L3612.93,3254.63 L3620.15,3255.9 L3620.58,3263.55 L3612.5,3269.5 L3606.76,3289.11 L3624.62,3297.62 L3617.82,3321.42 L3631.42,3383.06 L3628.44,3391.99 L3621.22,3393.27 L3616.12,3399.22 L3620.79,3406.45 L3630.99,3404.32 L3648.42,3408.68 L3653.95,3388.7 L3648.42,3344.06 L3656.5,3344.48 L3656.93,3338.96 L3670.53,3340.66 L3691.79,3321.95 L3699.44,3231.4 L3685.41,3205.47 L3681.05,3182.89 L3651.29,3197.34 L3642.79,3213.49 L3627.49,3211.79 L3602.83,3221.57 L3592.63,3228.8 L3589.23,3243.04 L3594.33,3250.91 L3591.56,3266.21" vector-effect="none" fill-rule="evenodd"/>

</g>
</g>
</svg>