<svg xmlns="http://www.w3.org/2000/svg" version="1.2" baseProfile="tiny" xmlns:inkscape="http://www.inkscape.org/namespaces/inkscape" width="315.045mm" viewBox="1620.56 1337.68 55.15 102.52" height="227.076mm" xmlns:xlink="http://www.w3.org/1999/xlink" xmlns:cc="http://creativecommons.org/ns#">
<g stroke-linejoin="bevel" stroke="black" inkscape:label="Map 1: fid_23" fill-rule="evenodd" stroke-linecap="square" inkscape:groupmode="layer" stroke-width="1" fill="none" id="Map 1: fid_23">
  <g stroke-linejoin="bevel"  fill-opacity="1" stroke="#232323" font-style="normal" stroke-linecap="square" font-family="Noto Sans" font-size="41.6667" font-weight="400" stroke-width="1" fill="#e8718d" stroke-opacity="1">
   <path d="M1626.51,1376.82 L1631.43,1375.21 L1635.27,1372.08 L1638.23,1372.6 L1638.4,1375.73 L1635.09,1378.17 L1632.74,1386.21 L1640.06,1389.69 L1637.27,1399.45 L1642.84,1424.7 L1641.62,1428.36 L1638.66,1428.88 L1636.57,1431.32 L1638.49,1434.28 L1642.67,1433.41 L1649.81,1435.2 L1652.08,1427.01 L1649.81,1408.72 L1653.12,1408.89 L1653.29,1406.63 L1658.87,1407.33 L1667.58,1399.66 L1670.71,1362.56 L1664.96,1351.94 L1663.18,1342.68 L1650.99,1348.61 L1647.5,1355.22 L1641.23,1354.53 L1631.13,1358.53 L1626.95,1361.5 L1625.56,1367.33 L1627.65,1370.55 L1626.51,1376.82" fill-rule="evenodd" vector-effect="none"/>

</g>
</g>
</svg>