<svg xmlns="http://www.w3.org/2000/svg" version="1.2" baseProfile="tiny" xmlns:inkscape="http://www.inkscape.org/namespaces/inkscape" width="315.045mm" viewBox="1496.84 1161.45 57.17 48.92" height="227.076mm" xmlns:xlink="http://www.w3.org/1999/xlink" xmlns:cc="http://creativecommons.org/ns#">
<g stroke-linejoin="bevel" stroke="black" inkscape:label="Map 1: fid_47" fill-rule="evenodd" stroke-linecap="square" inkscape:groupmode="layer" stroke-width="1" fill="none" id="Map 1: fid_47">
  <g stroke-linejoin="bevel"  fill-opacity="1" stroke="#232323" font-style="normal" stroke-linecap="square" font-family="Noto Sans" font-size="41.6667" font-weight="400" stroke-width="1" fill="#e15989" stroke-opacity="1">
   <path d="M1522.93,1205.37 L1515.72,1198.8 L1518.02,1197.32 L1509.66,1190.31 L1513.03,1186.8 L1517.34,1191.12 L1520.04,1188.69 L1501.84,1169.96 L1503.73,1168.07 L1505.35,1169.42 L1508.31,1166.45 L1509.39,1168.88 L1514.38,1171.17 L1515.59,1173.6 L1520.44,1171.71 L1525.16,1175.62 L1527.45,1176.16 L1531.9,1173.73 L1531.9,1178.18 L1549.01,1187.98 L1546.45,1190.61 L1547.87,1193.64 L1542.81,1198.63 L1543.42,1199.71 L1541.67,1200.92 L1538.7,1199.71 L1538.03,1201.46 L1526.03,1200.65 L1522.93,1205.37" fill-rule="evenodd" vector-effect="none"/>

</g>
</g>
</svg>