<svg xmlns="http://www.w3.org/2000/svg" version="1.2" baseProfile="tiny" xmlns:inkscape="http://www.inkscape.org/namespaces/inkscape" width="315.045mm" viewBox="3693.06 1508.03 412.58 351.79" height="227.076mm" xmlns:xlink="http://www.w3.org/1999/xlink" xmlns:cc="http://creativecommons.org/ns#">
<g inkscape:groupmode="layer" stroke-width="1" stroke-linejoin="bevel" stroke-linecap="square" inkscape:label="Map 1: fid_31" fill="none" stroke="black" id="Map 1: fid_31" fill-rule="evenodd">
  <g fill-opacity="1" stroke-width="2" stroke-linejoin="bevel" font-weight="400" stroke-linecap="square" font-size="83.3333" font-style="normal" fill="#7d8b8f" stroke-opacity="1"  font-family="Noto Sans" stroke="#232323">
   <path d="M3698.06,1572.54 L3704.86,1535.13 L3722.71,1513.03 L3755.87,1544.48 L3777.13,1578.49 L3840.05,1575.09 L3859.6,1579.34 L3884.26,1566.59 L3930.17,1562.34 L3972.68,1577.64 L4047.5,1668.62 L4072.16,1678.82 L4100.64,1717.93 L4079.39,1740.04 L4076.84,1780 L4070.03,1788.5 L4039.43,1796.15 L4027.1,1813.16 L4013.49,1814.86 L4017.75,1831.86 L4026.25,1835.26 L4026.25,1837.82 L3969.28,1853.12 L3919.12,1854.82 L3851.1,1851.42 L3834.94,1840.37 L3815.39,1776.6 L3794.98,1762.14 L3761.82,1722.18 L3757.57,1678.82 L3762.67,1680.52 L3760.97,1649.91 L3766.93,1639.71 L3766.93,1629.51 L3752.47,1626.96 L3743.97,1599.75 L3703.16,1574.24 L3698.06,1572.54" vector-effect="none" fill-rule="evenodd"/>

</g>
</g>
</svg>