<svg xmlns="http://www.w3.org/2000/svg" version="1.2" baseProfile="tiny" xmlns:inkscape="http://www.inkscape.org/namespaces/inkscape" width="315.045mm" viewBox="1665.15 653.492 174.95 150.043" height="227.076mm" xmlns:xlink="http://www.w3.org/1999/xlink" xmlns:cc="http://creativecommons.org/ns#">
<g stroke-linejoin="bevel" stroke="black" inkscape:label="Map 1: fid_31" fill-rule="evenodd" stroke-linecap="square" inkscape:groupmode="layer" stroke-width="1" fill="none" id="Map 1: fid_31">
  <g stroke-linejoin="bevel"  fill-opacity="1" stroke="#232323" font-style="normal" stroke-linecap="square" font-family="Noto Sans" font-size="41.6667" font-weight="400" stroke-width="1" fill="#b7484b" stroke-opacity="1">
   <path d="M1670.15,682.878 L1672.93,667.549 L1680.25,658.492 L1693.84,671.381 L1702.54,685.316 L1728.32,683.923 L1736.34,685.665 L1746.44,680.439 L1765.25,678.697 L1782.67,684.968 L1813.33,722.243 L1823.43,726.423 L1835.1,742.448 L1826.39,751.506 L1825.34,767.879 L1822.56,771.363 L1810.02,774.498 L1804.96,781.465 L1799.39,782.162 L1801.13,789.129 L1804.62,790.523 L1804.62,791.568 L1781.28,797.838 L1760.72,798.535 L1732.85,797.142 L1726.23,792.613 L1718.22,766.485 L1709.86,760.563 L1696.27,744.19 L1694.53,726.423 L1696.62,727.12 L1695.93,714.579 L1698.36,710.399 L1698.36,706.218 L1692.44,705.173 L1688.96,694.025 L1672.24,683.574 L1670.15,682.878" fill-rule="evenodd" vector-effect="none"/>

</g>
</g>
</svg>