<svg xmlns="http://www.w3.org/2000/svg" version="1.2" baseProfile="tiny" xmlns:inkscape="http://www.inkscape.org/namespaces/inkscape" width="315.045mm" viewBox="1279.51 1300.87 88.16 172.59" height="227.076mm" xmlns:xlink="http://www.w3.org/1999/xlink" xmlns:cc="http://creativecommons.org/ns#">
<g stroke-linejoin="bevel" stroke="black" inkscape:label="Map 1: fid_42" fill-rule="evenodd" stroke-linecap="square" inkscape:groupmode="layer" stroke-width="1" fill="none" id="Map 1: fid_42">
  <g stroke-linejoin="bevel"  fill-opacity="1" stroke="#232323" font-style="normal" stroke-linecap="square" font-family="Noto Sans" font-size="41.6667" font-weight="400" stroke-width="1" fill="#f3a6b2" stroke-opacity="1">
   <path d="M1297.83,1335.5 L1298.26,1348.51 L1307.69,1352.82 L1308.23,1355.79 L1303.92,1358.21 L1301.76,1363.33 L1304.19,1367.92 L1299.87,1368.46 L1300.41,1372.23 L1303.65,1377.62 L1299.06,1377.89 L1290.98,1385.17 L1289.9,1391.37 L1284.78,1396.49 L1284.51,1406.19 L1288.01,1408.62 L1288.28,1415.63 L1288.28,1422.64 L1294.75,1433.15 L1296.64,1443.12 L1297.45,1452.56 L1303.11,1455.79 L1303.92,1468.46 L1312,1464.96 L1321.71,1453.1 L1315.24,1414.28 L1318.47,1406.46 L1322.25,1406.73 L1329.25,1405.92 L1341.12,1396.49 L1340.25,1391.1 L1362.67,1360.66 L1338.99,1313.08 L1332.07,1310.56 L1331.32,1305.87 L1324.7,1307.96 L1314.07,1329.38 L1309.37,1332.34 L1304.14,1331.12 L1300.66,1325.72 L1297.31,1330.71 L1297.83,1335.5" fill-rule="evenodd" vector-effect="none"/>

</g>
</g>
</svg>