<svg xmlns="http://www.w3.org/2000/svg" version="1.2" baseProfile="tiny" xmlns:inkscape="http://www.inkscape.org/namespaces/inkscape" width="315.045mm" viewBox="3279.9 2666.58 73.65 76.12" height="227.076mm" xmlns:xlink="http://www.w3.org/1999/xlink" xmlns:cc="http://creativecommons.org/ns#">
<g inkscape:groupmode="layer" stroke-width="1" stroke-linejoin="bevel" stroke-linecap="square" inkscape:label="Map 1: fid_62" fill="none" stroke="black" id="Map 1: fid_62" fill-rule="evenodd">
  <g fill-opacity="1" stroke-width="2" stroke-linejoin="bevel" font-weight="400" stroke-linecap="square" font-size="83.3333" font-style="normal" fill="#e77148" stroke-opacity="1"  font-family="Noto Sans" stroke="#232323">
   <path d="M3327.83,2696.91 L3313.19,2682.76 L3303.32,2683.42 L3299.21,2675.52 L3292.14,2671.58 L3284.9,2678.16 L3289.84,2689.18 L3294.11,2689.34 L3304.97,2709.9 L3299.54,2715.33 L3302.83,2718.12 L3306.45,2714.18 L3310.23,2717.63 L3311.71,2716.64 L3308.91,2713.19 L3312.04,2709.74 L3316.32,2715.16 L3313.36,2718.45 L3313.85,2718.95 L3317.8,2715.33 L3319.93,2713.02 L3321.74,2714.51 L3313.03,2723.72 L3318.45,2727.66 L3317.63,2729.47 L3318.62,2730.62 L3320.26,2728.16 L3323.72,2730.62 L3319.93,2734.57 L3312.04,2733.75 L3310.89,2731.61 L3308.42,2733.91 L3310.39,2735.72 L3321.41,2737.7 L3327.66,2732.1 L3331.16,2731.92 L3348.26,2713.67 L3348.55,2711.71 L3327.83,2696.91" vector-effect="none" fill-rule="evenodd"/>

</g>
</g>
</svg>