<svg xmlns="http://www.w3.org/2000/svg" version="1.2" baseProfile="tiny" xmlns:inkscape="http://www.inkscape.org/namespaces/inkscape" width="315.045mm" viewBox="1495.86 1128.18 36.08 37.1" height="227.076mm" xmlns:xlink="http://www.w3.org/1999/xlink" xmlns:cc="http://creativecommons.org/ns#">
<g stroke-linejoin="bevel" stroke="black" inkscape:label="Map 1: fid_62" fill-rule="evenodd" stroke-linecap="square" inkscape:groupmode="layer" stroke-width="1" fill="none" id="Map 1: fid_62">
  <g stroke-linejoin="bevel"  fill-opacity="1" stroke="#232323" font-style="normal" stroke-linecap="square" font-family="Noto Sans" font-size="41.6667" font-weight="400" stroke-width="1" fill="#85b66f" stroke-opacity="1">
   <path d="M1518.45,1143.56 L1512.46,1137.77 L1508.41,1138.04 L1506.73,1134.8 L1503.83,1133.18 L1500.86,1135.88 L1502.89,1140.4 L1504.64,1140.46 L1509.09,1148.89 L1506.86,1151.11 L1508.21,1152.26 L1509.69,1150.64 L1511.24,1152.05 L1511.85,1151.65 L1510.7,1150.23 L1511.98,1148.82 L1513.74,1151.04 L1512.52,1152.39 L1512.72,1152.59 L1514.34,1151.11 L1515.22,1150.17 L1515.96,1150.77 L1512.39,1154.55 L1514.61,1156.16 L1514.27,1156.91 L1514.68,1157.38 L1515.35,1156.37 L1516.77,1157.38 L1515.22,1159 L1511.98,1158.66 L1511.51,1157.78 L1510.5,1158.73 L1511.31,1159.47 L1515.82,1160.28 L1518.39,1157.98 L1519.82,1157.91 L1526.83,1150.43 L1526.94,1149.63 L1518.45,1143.56" fill-rule="evenodd" vector-effect="none"/>

</g>
</g>
</svg>