<svg xmlns="http://www.w3.org/2000/svg" version="1.2" baseProfile="tiny" xmlns:inkscape="http://www.inkscape.org/namespaces/inkscape" width="315.045mm" viewBox="1505.67 1941.76 212.98 193.1" height="227.076mm" xmlns:xlink="http://www.w3.org/1999/xlink" xmlns:cc="http://creativecommons.org/ns#">
<g stroke-linejoin="bevel" stroke="black" inkscape:label="Map 1: fid_98" fill-rule="evenodd" stroke-linecap="square" inkscape:groupmode="layer" stroke-width="1" fill="none" id="Map 1: fid_98">
  <g stroke-linejoin="bevel"  fill-opacity="1" stroke="#232323" font-style="normal" stroke-linecap="square" font-family="Noto Sans" font-size="41.6667" font-weight="400" stroke-width="1" fill="#85b66f" stroke-opacity="1">
   <path d="M1537.05,2004.1 L1655.95,1946.76 L1661.26,1949.32 L1661.08,1951.89 L1660.16,1953.72 L1661.44,1957.02 L1664.01,1957.93 L1667.3,1958.48 L1669.69,1956.83 L1670.42,1955.55 L1687.09,1968.01 L1687.27,1970.21 L1686.91,1973.87 L1689.84,1974.42 L1692.04,1971.86 L1693.32,1972.04 L1694.23,1974.24 L1694.42,1977.72 L1696.25,1979 L1699.55,1977.53 L1701.01,1977.53 L1713.47,1987.24 L1713.65,1996.22 L1710.72,1995.49 L1709.62,1996.04 L1710.35,1998.6 L1707.61,2004.65 L1705.04,2004.28 L1703.03,2002.45 L1700.83,2003.55 L1701.01,2008.86 L1698.63,2018.02 L1699,2020.95 L1697.17,2026.45 L1695.88,2032.31 L1697.17,2034.87 L1700.46,2039.27 L1700.65,2041.47 L1696.07,2046.78 L1691.67,2052.83 L1686.36,2057.77 L1683.43,2064 L1681.23,2070.6 L1679.21,2076.09 L1678.11,2081.59 L1677.38,2083.05 L1669.32,2086.17 L1669.14,2095.33 L1663.27,2098.63 L1661.08,2104.12 L1657.96,2107.42 L1656.13,2108.33 L1643.67,2117.77 L1640.92,2122.72 L1638.54,2126.56 L1632.31,2129.86 L1629.75,2129.86 L1627.37,2121.98 L1627.19,2119.42 L1621.32,2115.94 L1620.22,2112.09 L1617.66,2110.26 L1616.56,2107.14 L1616.56,2106.41 L1618.39,2103.66 L1617.48,2101.46 L1615.46,2099.27 L1611.06,2096.15 L1606.48,2093.4 L1602.45,2091.39 L1599.71,2091.39 L1597.14,2092.85 L1595.68,2094.5 L1594.94,2095.42 L1593.66,2098.53 L1594.76,2104.21 L1594.94,2108.24 L1594.76,2110.07 L1596.23,2113.01 L1596.59,2115.75 L1596.41,2116.67 L1597.14,2119.78 L1596.59,2121.62 L1593.84,2123.08 L1590.18,2121.98 L1588.35,2120.88 L1587.43,2119.78 L1586.88,2117.95 L1586.52,2117.04 L1589.08,2115.94 L1588.17,2113.37 L1585.42,2111.91 L1582.85,2112.27 L1582.12,2112.64 L1581.39,2115.39 L1581.2,2117.77 L1580.1,2118.14 L1579.01,2118.14 L1580.84,2120.52 L1580.47,2123.26 L1578.09,2122.72 L1575.71,2120.52 L1574.79,2119.23 L1573.14,2118.32 L1571.31,2118.5 L1570.4,2119.05 L1568.75,2120.52 L1567.83,2123.81 L1567.1,2125.28 L1563.43,2123.63 L1562.52,2121.07 L1562.15,2117.95 L1561.97,2116.3 L1562.34,2112.27 L1562.52,2109.89 L1561.79,2107.33 L1561.6,2106.78 L1560.14,2105.86 L1555.56,2105.49 L1552.81,2103.11 L1549.15,2104.4 L1544.02,2104.4 L1542.73,2104.03 L1510.67,2062.99 L1522.58,2060.89 L1529.36,2056.12 L1534.12,2051.73 L1538.15,2046.23 L1542.37,2040 L1544.38,2033.23 L1546.4,2027 L1544.38,2020.59 L1542.55,2013.07 L1540.17,2006.85 L1537.05,2004.1" fill-rule="evenodd" vector-effect="none"/>

</g>
</g>
</svg>